<?xml version="1.0" encoding="utf-8"?>
<!-- Generator: Adobe Illustrator 21.0.0, SVG Export Plug-In . SVG Version: 6.00 Build 0)  -->
<svg version="1.1" xmlns="http://www.w3.org/2000/svg" xmlns:xlink="http://www.w3.org/1999/xlink" x="0px" y="0px"
	 viewBox="0 0 157 145.9" style="enable-background:new 0 0 157 145.9;" xml:space="preserve">
<style type="text/css">
	.st0{fill:#CF8E2B;}
	.st1{fill:#45794D;}
	.st2{fill:#067DBA;}
	.st3{fill:#40B04A;}
	.st4{fill:#015589;}
	.st5{fill:#1F3767;}
	.st6{fill:#F89D28;}
	.st7{fill:#E01984;}
	.st8{fill:#F16B2C;}
	.st9{fill:#8F1B39;}
	.st10{fill:#FAC313;}
	.st11{fill:#02ACD7;}
	.st12{fill:#EE3F2B;}
	.st13{fill:#C02233;}
	.st14{fill:#4B9D45;}
	.st15{fill:#CF9D2B;}
	.st16{fill:#E81F2F;}
	.st17{fill:#4BA048;}
	.st18{fill:#FCFDFC;}
	.st19{fill:#FFFFFF;}
	.st20{fill:#24BFE6;}
	.st21{fill:#01ACD7;}
	.st22{fill:#FAA028;}
	.st23{fill:#FFFFFC;}
	.st24{fill:#FFFCFA;}
	.st25{fill:#F89E2A;}
	.st26{fill:#F89F2B;}
	.st27{fill:#F89D29;}
	.st28{fill:#1E96D4;}
	.st29{fill:#FAFDFF;}
	.st30{fill:#174A6D;}
	.st31{fill:#FAFBFD;}
	.st32{fill:#203767;}
	.st33{fill:#213868;}
	.st34{fill:#15699F;}
	.st35{fill:#FCFDFF;}
	.st36{fill:#F9F9FA;}
	.st37{fill:#F7F9FA;}
	.st38{fill:#F7F7FA;}
	.st39{fill:#F6F7F9;}
	.st40{fill:#A7B0CA;}
	.st41{fill:#03558A;}
	.st42{fill:#61BD45;}
	.st43{fill:#FCFDFB;}
	.st44{fill:#438145;}
	.st45{fill:#45794E;}
	.st46{fill:#46794E;}
	.st47{fill:#497B50;}
	.st48{fill:#4B7C52;}
	.st49{fill:#4C7D52;}
	.st50{fill:#4D7E54;}
	.st51{fill:#C89930;}
	.st52{fill:#DE1667;}
	.st53{fill:#FFFBFC;}
	.st54{fill:#F5682D;}
	.st55{fill:#FFFCFC;}
	.st56{fill:#F16B2D;}
	.st57{fill:#A61B45;}
	.st58{fill:#FFFDFD;}
	.st59{fill:#FBC51A;}
	.st60{fill:#FFFCF8;}
	.st61{fill:#FFFFFB;}
	.st62{fill:#FFFCF7;}
	.st63{fill:#FAC417;}
	.st64{fill:#F9C315;}
	.st65{fill:#ED2540;}
	.st66{fill:#E6B733;}
	.st67{fill:#C92330;}
	.st68{fill:#FFFAF9;}
	.st69{fill:#EE432B;}
	.st70{fill:#ED3724;}
	.st71{fill:#ED2C24;}
	.st72{fill:#ED2F24;}
	.st73{fill:#ED2924;}
	.st74{fill:#279B48;}
	.st75{fill:#EA1E2F;}
	.st76{fill:#D3A12A;}
	.st77{fill:#C32034;}
	.st78{fill:#EF412A;}
	.st79{fill:#00AED8;}
	.st80{fill:#FDB715;}
	.st81{fill:#8F1839;}
	.st82{fill:#F36D26;}
	.st83{fill:#E01684;}
	.st84{fill:#F99E27;}
	.st85{fill:#CE8D2A;}
	.st86{fill:#48773F;}
	.st87{fill:#047DBC;}
	.st88{fill:#5EBB47;}
	.st89{fill:#00558B;}
	.st90{fill:#1E3768;}
	.st91{fill:#1994D2;}
	.st92{fill:#488BC9;}
	.st93{fill:#E3B53C;}
	.st94{fill:#F7C41D;}
	.st95{fill:#EF6D34;}
	.st96{fill:#DB1D6B;}
	.st97{fill:#C52636;}
	.st98{fill:#50A14A;}
	.st99{fill:#184D6D;}
	.st100{fill:#1A6C9E;}
	.st101{fill:#2FBEE2;}
	.st102{fill:#2AAAE1;}
	.st103{fill-rule:evenodd;clip-rule:evenodd;fill:#DFDFDF;}
	.st104{fill:#28A745;}
	.st105{fill:#DC3545;}
	.st106{fill:#F2CD41;}
	.st107{clip-path:url(#SVGID_4_);}
	.st108{fill:#1F3767;stroke:#ED2540;stroke-width:18;stroke-miterlimit:10;}
	.st109{fill:none;stroke:#E6B733;stroke-width:18;stroke-miterlimit:10;}
	.st110{fill:none;stroke:#4BA048;stroke-width:18;stroke-miterlimit:10;}
	.st111{fill:none;stroke:#C92330;stroke-width:18;stroke-miterlimit:10;}
	.st112{fill:none;stroke:#EE432B;stroke-width:18;stroke-miterlimit:10;}
	.st113{fill:none;stroke:#24BFE6;stroke-width:18;stroke-miterlimit:10;}
	.st114{fill:none;stroke:#FBC51A;stroke-width:18;stroke-miterlimit:10;}
	.st115{fill:none;stroke:#A61B45;stroke-width:18;stroke-miterlimit:10;}
	.st116{fill:none;stroke:#F5682D;stroke-width:18;stroke-miterlimit:10;}
	.st117{fill:none;stroke:#DE1667;stroke-width:18;stroke-miterlimit:10;}
	.st118{fill:none;stroke:#FAA028;stroke-width:18;stroke-miterlimit:10;}
	.st119{fill:none;stroke:#C89930;stroke-width:18;stroke-miterlimit:10;}
	.st120{fill:none;stroke:#438145;stroke-width:18;stroke-miterlimit:10;}
	.st121{fill:none;stroke:#1E96D4;stroke-width:18;stroke-miterlimit:10;}
	.st122{fill:none;stroke:#61BD45;stroke-width:18;stroke-miterlimit:10;}
	.st123{fill:none;stroke:#15699F;stroke-width:18;stroke-miterlimit:10;}
	.st124{fill:none;stroke:#174A6D;stroke-width:18;stroke-miterlimit:10;}
	.st125{fill:#FFFAFA;}
	.st126{fill:#FFF8F6;}
	.st127{fill:#E92835;}
	.st128{fill:#E72230;}
	.st129{fill:#FCFBF9;}
	.st130{fill:#FFFFFA;}
	.st131{fill:#FFFCF9;}
	.st132{fill:#FCFBF8;}
	.st133{fill:#F8FBF8;}
	.st134{fill:#F9FCF8;}
	.st135{fill:#F7FAF7;}
	.st136{fill:#FBFCFA;}
	.st137{fill:#F9FCF9;}
	.st138{fill:#F7FAF6;}
	.st139{fill:#F3F7F2;}
	.st140{fill:#F2F8F1;}
	.st141{fill:#4D9F46;}
	.st142{fill:#4E9F46;}
	.st143{fill:#59A547;}
	.st144{fill:#FFFBF9;}
	.st145{fill:#FCF8F7;}
	.st146{fill:#FCF6F3;}
	.st147{fill:#FCF5F3;}
	.st148{fill:#FCF5F2;}
	.st149{fill:#FCF7F5;}
	.st150{fill:#C12735;}
	.st151{fill:#C22D37;}
	.st152{fill:#C23239;}
	.st153{fill:#FFF9F8;}
	.st154{fill:#FFFBFB;}
	.st155{fill:#EF4C36;}
	.st156{fill:#F6FBFC;}
	.st157{fill:#F7FBFF;}
	.st158{fill:#F4FAFA;}
	.st159{fill:#F9FCFF;}
	.st160{fill:#F2F9FC;}
	.st161{fill:#FCFBF7;}
	.st162{fill:#FFFCF6;}
	.st163{fill:#FBC51D;}
	.st164{fill:#FAC72D;}
	.st165{fill:#F8C624;}
	.st166{fill:#FAF6F6;}
	.st167{fill:#FCF9F8;}
	.st168{fill:#FCFAFB;}
	.st169{fill:#92243C;}
	.st170{fill:#FFF5EF;}
	.st171{fill:#FFF5F0;}
	.st172{fill:#FFF6F2;}
	.st173{fill:#FFFAF6;}
	.st174{fill:#FFF7F3;}
	.st175{fill:#FFF8F5;}
	.st176{fill:#FFF4EE;}
	.st177{fill:#F26C2F;}
	.st178{fill:#F26D30;}
	.st179{fill:#F26F33;}
	.st180{fill:#FFFAFC;}
	.st181{fill:#FFF9FB;}
	.st182{fill:#FDF8FA;}
	.st183{fill:#FDF7FA;}
	.st184{fill:#FFFBF6;}
	.st185{fill:#FFF9F4;}
	.st186{fill:#FFFBF7;}
	.st187{fill:#FFF8F0;}
	.st188{fill:#F8A132;}
	.st189{fill:#F9A336;}
	.st190{fill:#FCFAF5;}
	.st191{fill:#FCF9F3;}
	.st192{fill:#FCF8F3;}
	.st193{fill:#FCF9F4;}
	.st194{fill:#FCFAF6;}
	.st195{fill:#FCF7F1;}
	.st196{fill:#D0902E;}
	.st197{fill:#F8FAF7;}
	.st198{fill:#F9FAF9;}
	.st199{fill:#F6F8F6;}
	.st200{fill:#507F56;}
	.st201{fill:#F5F9FB;}
	.st202{fill:#F6FAFD;}
	.st203{fill:#F6F8FA;}
	.st204{fill:#F4F7F9;}
	.st205{fill:#F1F5F9;}
	.st206{fill:#F7FAFD;}
	.st207{fill:#1C7FBC;}
	.st208{fill:#F8FBF7;}
	.st209{fill:#F7FAF5;}
	.st210{fill:#F8FBF6;}
	.st211{fill:#4DB24D;}
	.st212{fill:#47B14B;}
	.st213{fill:#4AB14D;}
	.st214{fill:#FCFCFD;}
	.st215{fill:#F6F6F7;}
	.st216{fill:#FAFAFA;}
	.st217{fill:#F4F4F7;}
	.st218{fill:#F1F1F3;}
	.st219{fill:#2C3F6C;}
	.st220{fill:#F5F5F7;}
	.st221{fill:#F4F5F9;}
	.st222{fill:#1B598D;}
	.st223{fill:#23AA61;}
	.st224{fill:#6A71AF;}
	.st225{fill:#F29228;}
	.st226{fill:#3897D3;}
	.st227{fill:#814891;}
	.st228{fill:#231F20;}
	.st229{fill:none;stroke:#FFFFFF;stroke-width:2;stroke-miterlimit:10;}
	.st230{fill:none;stroke:#040704;stroke-miterlimit:10;}
	.st231{fill:none;stroke:#1E3768;stroke-miterlimit:10;}
</style>
<g id="_x7B_ref_x7D_">
</g>
<g id="Layer_2">
	<g>
		<g>
			<path class="st91" d="M99.2,13.1c2.4,4.6,3.1,10.9,1.5,16.1c-1.6,6.1-6.7,12.3-12.8,14.9c-6.8,3.3-16.4,2.5-22.4-1.8
				c-8.4-5.7-11.8-15.7-9.3-25.4C57.8,11,62.4,5.2,68.1,2.5c3.2-1.6,6.7-2.4,10.4-2.5C87.2,0,95.4,5.1,99.2,13.1 M79,1.1
				c0.1,0.9,0.1,2.1,0,3.2c0-0.1,0-0.2,0.1-0.3c0.2-0.1,0.3,0,0.4,0.2c0,0.2,0.1,0.4-0.1,0.5c0.1,0,0.2-0.1,0.3-0.1
				c2.6,0.2,5.1,1,7.2,2.2V6.8c0.4-0.2,1-0.5,1.5-0.1c0.6-0.2,0.7,0.5,1.1,0.6c0.5,0.3,1.1,0.9,1.2,1.5c0.1,0.2,0.4,0.4,0.5,0.6
				c0.4-0.8,1.1-1.3,1.7-2l0.4-0.2C89.9,3.9,85.8,2,81.2,1.4C80.5,1.3,79.7,1.3,79,1.1 M77.7,1.2C73.1,1.4,69,3,65.3,5.6
				c-0.7,0.5-1.3,1.2-2,1.6h0.1c0.9,0.7,1.8,1.6,2.5,2.4L66,9.5c3.4-3.1,7.3-4.7,11.7-4.9l-0.1-0.3l0-2.8L77.7,1.2z M81.6,3L80,3.7
				c-0.1-0.1-0.4-0.1-0.5,0.1c-0.1,0.1,0,0.1,0,0.2c0.6,0.8,1.7,0.3,2.4,0.2c0.6,0.2,1.1,0,1.5-0.4V3.7C83,3.1,82.3,3,81.6,3
				 M78.9,5.8L79.1,6c0,1.1,0,2.2-0.1,3.2c0.4-0.1,0.9,0,1.3,0c2.2,0.4,4.4,1.1,6.2,2.5c-0.2-0.2-0.5-0.5-0.5-0.8c0,0,0.1-0.1,0.1,0
				c0-0.4-0.4-0.5-0.4-0.9c0.1-0.1,0.1-0.1,0.3-0.1c0.4,0.4,0.7,0.8,1,1.2c0.3-0.1,0.5,0.1,0.6,0.2c0.3,0.2,0.1,0.6,0.4,0.8
				c0,0.7,0.9,1.1,0.8,1.7c0,0.2,0.2,0,0.3,0.1l0.7,0.8c-0.1,0.2,0,0.4,0.1,0.5c0.3,0.1,0.5-0.3,0.8-0.2c0.4,0.3-0.1,0.6,0,0.8
				c0.2,0,0.4-0.1,0.5,0c0.1,0.3-0.2,0.4-0.3,0.6c0,0.3,0.2,0.2,0.4,0.3c0.2,0,0.3,0.2,0.3,0.4c0.6,0.6-0.2,1.2,0.1,1.9
				c0.2,0.4,0,0.8-0.3,1.1c0,0.5-0.4,0.8-0.6,1.2l-0.6,0.1c-0.3,0.3,0.3,0.7,0,0.9l1.3,0l-0.1-0.1c-0.2-0.5-0.1-1.2,0.2-1.6
				c0.2-0.4,0.2-0.9,0.6-1.3c0.1,0,0.2-0.2,0.3,0c0,0.4,0,0.8-0.2,1.2c0.4,0.5,0.3,1.2,0.4,1.9c1.1-0.1,2.3-0.1,3.4-0.1l-0.1-0.2
				c-0.2-2.1-0.6-4.1-1.5-5.9c-0.2,0-0.4,0.2-0.7,0.1c-0.1,0-0.1-0.1-0.1-0.2c-0.5-0.4-0.7-1-1.3-1.4c-0.6,0.1-0.8-0.6-1.4-0.7
				c-0.5-0.2-0.1-1-0.8-0.7c-0.3-0.1-0.7-0.4-0.7-0.8c0-0.6-0.1-1.2-0.7-1.6c-0.4-0.1-0.6,0.4-1,0.3c-0.2-0.1-0.1-0.4-0.2-0.6
				c-0.1-0.2-0.3-0.3-0.2-0.5c0.5-0.7-0.7-0.7-0.4-1.4c-0.1-0.5-0.6-0.7-0.8-1.1c-1.8-0.8-3.6-1.4-5.6-1.6C79.8,5.9,79.4,6,78.9,5.8
				 M89.3,5.8c-0.2,0.2-0.4-0.2-0.7,0.1c0,0.1,0,0.2,0.1,0.3c0.5,0.2,0.5,0.9,1.2,0.7c0.2-0.2-0.1-0.4-0.1-0.7
				C89.8,6,89.6,5.9,89.3,5.8 M68.7,8.9c-0.7,0.5-1.4,1.1-2.1,1.6c0.8,0.5,1.5,1.4,2.3,2.1l0.1,0.2c2-1.9,4.3-3,6.9-3.5
				c0.6-0.1,1.2-0.3,1.8-0.1c0-1.1-0.1-2.2,0-3.3C74.4,6.1,71.4,7.1,68.7,8.9 M94.2,7.9c-0.6,0.8-1.5,1.6-2.3,2.5l-0.4,0.1
				c0.2,0.1,0.3,0.3,0.5,0.5c0.8,0.4,1.1,1.3,1.8,1.8c0.4,0.9,1.4,1.5,1.4,2.5c1,2.2,1.7,4.5,1.7,7.1l-0.1,0.1c0.1,0,0.2,0,0.3-0.1
				l3.3-0.1c-0.2-0.3-0.1-0.8-0.2-1.2C99.8,16.1,97.6,11.7,94.2,7.9 M62.7,8c-3.3,3.6-5.3,7.8-5.9,12.5c-0.1,0.7,0,1.4-0.2,2.1
				c1.1-0.1,2.4-0.1,3.5,0l-0.1-0.4c0.2-3.7,1.4-6.9,3.4-9.8c0.5-0.6,0.9-1.3,1.5-1.8c-0.7-0.7-1.5-1.5-2.3-2.3L62.7,8z M77.8,10.4
				l-0.2,0.1c-2.9,0.2-5.4,1.4-7.7,3.2c0.9,0.6,1.7,1.6,2.4,2.3c0.1-0.1,0.1-0.2,0.2-0.3c1.1-0.8,2.2-1.5,3.5-1.8
				c0.6-0.1,1.1-0.3,1.7-0.2C77.6,12.7,77.6,11.5,77.8,10.4 M79,10.4l0.1,0.3l0,3.1l0.3-0.1c1.9,0.3,3.6,0.9,5.2,2.1l0.1,0.2
				c0.5-0.7,1.3-1.3,1.9-2l0.6-0.3l-0.3-0.1c-1.3-1.1-2.6-1.9-4.1-2.4C81.5,10.7,80.2,10.6,79,10.4 M65.8,11.2l0,0.2L64.5,13
				c-2,2.8-3,6-3.3,9.5l3.1-0.1l0.3,0.1c-0.1-0.1-0.1-0.2-0.1-0.3c0.3-3.3,1.4-6.2,3.7-8.6C67.3,12.9,66.5,12.1,65.8,11.2
				 M87.8,14.4l-0.1,0.1c-1.1,1.1-2.2,2.2-3.2,3.4c0.1,0.1,0.2,0.3,0.3,0.3c0-0.3,0.2-0.5,0.2-0.8c0.3-0.4,0.7-0.1,1-0.1
				c0.5-0.1,1.1,0.1,1.6,0.1c0.4,0.2,0.4,0.7,0.8,0.9c0.1,0.1,0,0.3-0.1,0.4c0.1,0.9,0.5-0.2,1,0c0.2,0.1,0.4,0,0.6,0.2
				c0.1,0.4,0.5,0.3,0.5,0.6c0,0.2-0.2,0.2-0.3,0.3c0.1,0.3-0.4,0.6-0.2,0.9c0.7,0.1,0.7-0.6,1-1c-0.2-0.6-0.3-1.2-0.6-1.7
				c-0.4-0.1-0.6-0.5-1-0.6c-0.7-0.3,0.1-0.7,0-1.2C88.9,15.7,88.3,15.1,87.8,14.4 M69.1,14.5c-1.6,1.9-2.7,4-3.1,6.4
				c-0.1,0.6-0.1,1.2-0.3,1.7c0.4-0.2,1-0.1,1.4-0.1c-0.3-0.1,0-0.5-0.2-0.7c0-0.3-0.1-0.6,0.2-0.8c0-0.5,0.5-0.7,0.5-1.1
				c0.1-0.5,0.7-0.2,0.9-0.4c0.2-0.1,0-0.3,0-0.4c0.2-0.3,0.6-0.3,0.9-0.5c0.2-0.3,0.4-0.6,0.8-0.8c0.7,0,0.7-0.9,1.4-1
				C70.7,16.2,69.9,15.3,69.1,14.5 M79,14.9c0.2,0.7,0,1.6,0.2,2.4l0.8,0.3c0.2-0.4,0.8-0.5,1-0.9c0.1-0.1,0.3,0,0.4,0.1
				c0,0.3,0,0.6-0.1,0.9c-0.3,0.6-1,0.7-1.5,1.1c0.3,0.1,0.4-0.1,0.6-0.2c0.3,0,0.6,0.3,0.8,0.5c0.2,0.1,0.4,0,0.6-0.1
				c0.1-1,1.3-0.8,1.7-1.7l-0.2,0.1c-0.1-0.1-0.3-0.1-0.3-0.3c0.2-0.2,0.4-0.5,0.7-0.6c-1-0.6-2.1-1.2-3.3-1.5
				C79.9,15.1,79.4,15.1,79,14.9 M72.8,17.3h0.3c0.3,0.3,0.7,0.2,0.9,0.6c0.1,0.2-0.2,0.2-0.2,0.4c0.1,0,0.1,0.1,0.2,0.1
				c0.2,0.1,0.2-0.1,0.3-0.2c0.3-0.3,0.3,0.3,0.6,0.3c0.2-0.1,0.5-0.1,0.6,0.1c0.2-0.2,0.6,0,0.6-0.3c0.4-0.4,0.2-1,0.7-1.2
				c0.2,0.1,0,0.3,0.1,0.4c0.4,0.1,0.8-0.3,1,0.1c-0.3-0.7-0.2-1.7-0.2-2.5C75.9,15.3,74.2,15.9,72.8,17.3 M78.4,19.2
				c-0.2-0.2-0.6-0.1-0.8,0c0.2,0.2,0.1,0.6,0.3,0.9c-0.3,0.6-0.9,0.7-1.5,0.9c-0.1,0.2-0.1,0.6-0.5,0.6c-0.1,0.3-0.5,0.4-0.4,0.8
				c-0.2,0.4-0.1,0.9-0.2,1.3c-0.7,0.4-0.5-0.6-0.8-0.8l-0.1,0.2c-0.1,0-0.2,0-0.3-0.1c-0.1,0-0.3-0.1-0.4,0
				c-0.2,0.3-0.4,0.5-0.3,0.8C73.3,24,73,23.9,73,24.1c0.4,0,0.8-0.1,1.2-0.2c0.3,0.1,0.5-0.1,0.7-0.1c0.1,0,0.2,0.1,0.2,0.3h0.1
				c0.2-0.1,0.3-0.3,0.2-0.6c0-0.2,0.3-0.2,0.4-0.3c0.1,0.1,0.1,0.2,0.1,0.3c0.5,0.2-0.1,0.6-0.2,0.8c-0.1,0.2,0,0.7-0.4,0.6
				c-0.1,0-0.1-0.1-0.1-0.2h-0.1c0,0.2,0.1,0.4,0.3,0.5c0.3-0.3,0.3-0.7,0.8-0.8c0.2-0.3-0.1-0.6,0.3-0.8c0.6,0,1.2-0.3,1.7,0.2
				c0,0.2-0.1,0.3,0.1,0.5c-0.1,0.3-0.2,0.6-0.4,0.8c0.1,0.1,0,0.3-0.1,0.4c-0.2,0.7-1,0.4-1.4,0.6c0.7,0.6,1.6,0.8,2.5,0.7
				c0.5,0,0.3-0.6,0.5-0.9c0.2-0.8,0.9-0.3,1.3-0.5c0.2-0.3,0.3-0.7,0.4-1.1c-0.3-0.2-0.4-0.5-0.3-0.9c-0.2-0.3-0.2-0.7-0.6-0.8
				c-0.1-0.1,0-0.2,0-0.3c0-0.3,0.2-0.3,0.3-0.5c-0.3-0.2-0.2-0.6-0.2-0.8c-0.4,0.1-0.5-0.5-0.8-0.6c-0.1-0.3-0.4-0.3-0.6-0.4
				c-0.6,0.3-0.6-0.4-1.1-0.6c0-0.1-0.1-0.3,0-0.4c0.2-0.2,0.5,0,0.7,0L78.4,19.2z M68.4,22.1c-0.9,0.3,0.1,1-0.1,1.6
				c-0.1,0.3-0.5,0-0.7,0.2l-0.1,0.6c-0.1,0.4-0.6,0.1-0.8,0.3c-0.1,0.2,0,0.5,0.1,0.7c-0.3,0.7,0.7,1,0.7,1.6c0.3,0.4,0,1,0.4,1.4
				c0.1,0.7-0.1,1.8,0.6,2.3l0.1,0.7c0.1,0.5-0.6,0.4-0.5,0.8c0.1-0.1,0.2,0.1,0.2,0.2v0c0.9-1,1.9-2.1,2.9-3l-0.4-0.4
				c-0.8-1.2-1.5-2.5-1.8-3.9l-0.3-0.2c0,0.4-0.2,0.7-0.2,1L68.5,26c-0.2,0-0.4-0.2-0.6-0.3c0-0.1-0.2-0.3,0-0.4
				c0.1,0,0.2,0,0.3,0.1c0.1-0.1,0.1-0.3,0.1-0.5c0-0.3-0.2-0.5,0-0.8c0.2,0,0.4,0.2,0.5,0.4c0.2,0.1,0.4-0.1,0.6-0.2
				c0-0.2,0.3-0.5,0-0.6c0.2-0.4,0-0.9,0-1.4C69.2,22,68.7,22,68.4,22.1 M89.9,22.4c-0.1,0-0.2,0-0.3,0
				C89.7,22.4,89.8,22.4,89.9,22.4 M89.2,23.6l0.4,0.4c0.4,0.2,0.1,0.8,0.5,1c0.4,0.2,0.6,0.7,0.8,1.1c0.1-0.1,0.1-0.2,0.1-0.3
				c0.2-0.6,0.1-1.3,0.3-2C90.6,23.8,89.8,23.8,89.2,23.6 M97,23.7l-0.2-0.1l0.1,0.3c-0.2,3.8-1.5,7.2-3.6,10.2
				c-0.4,0.5-0.8,1.1-1.4,1.5c0.9,0.7,1.8,1.7,2.6,2.5l0.1-0.2c3.5-4,5.5-8.6,5.7-14l0.1-0.3l-0.2,0.1L97,23.7z M92.4,23.7
				c0.1,0.7-0.1,1.4-0.2,2.1l0.4,0.4c0.1,0.2,0.1,0.4-0.1,0.5c-0.2,0.1-0.4,0.1-0.5,0c-0.5,1.5-1,3-2,4.4c-0.4,0.5-0.7,1.1-1.2,1.4
				l1,0.9c0.1-0.1,0-0.1,0-0.2c0-0.1,0.1-0.3,0.2-0.3c0.5,0,0.5,0.5,0.8,0.8c-0.1,0.4,0.3,0.8,0.2,1.2c2.9-3.1,4.3-6.8,4.6-10.9
				l0.2-0.2c-1,0.1-2.1,0-3.2,0L92.4,23.7z M65.7,23.7l0.2,0.3c0,0.8,0.3,1.5,0.2,2.2c0.1-0.2,0.2-0.5,0.4-0.7
				c0-0.2-0.3-0.3-0.2-0.5c0.2-0.4,0-1.1,0.6-1.3C66.4,23.9,66,23.9,65.7,23.7 M60.1,23.7l-0.3,0.1l-3.2,0c0.2,3.7,1.2,7,2.8,10.1
				c0.8,1.5,2,2.9,3.1,4.3l2.3-2.4l0.3-0.1c-0.4-0.3-0.7-0.7-1.1-1.1c-0.4-0.1-0.8-0.4-1-0.7c-0.1-0.1,0-0.4-0.1-0.4l-0.1,0.2
				c-0.4,0.2-0.6-0.2-0.8-0.4c-0.4-0.2-0.2-0.9-0.7-0.7c-0.2,0-0.2-0.2-0.4-0.3c-0.4,0-0.6-0.4-0.8-0.7c0,0.1,0,0.2-0.1,0.3
				c-0.5,0.1-0.6-0.5-0.9-0.7c-0.1,0-0.1,0.1-0.3,0.1c-0.3-0.2-0.5-0.6-0.5-1c-0.4-0.4-0.2-1.1-0.1-1.6c0.1-0.1,0.3-0.2,0.2-0.4
				c0.1-0.2,0.4-0.3,0.6-0.3c0.1,0,0.2,0.1,0.2,0.2c0.1-0.1,0.5,0,0.4-0.3c0.2-0.2,0.5-0.2,0.7-0.3c0.2,0.2,0.3,0.5,0.5,0.7L60.7,28
				c-0.3-1.1-0.5-2.3-0.6-3.5c0-0.1-0.2-0.1-0.1-0.2l0,0C60.1,24.1,60.1,23.9,60.1,23.7 M64.6,23.7l-0.3,0.1c-1.1,0-2.2,0.1-3.2-0.1
				l0.1,0.2l0.3,2.1c0.1,0.8,0.5,1.6,0.4,2.4c0.1-0.2,0-0.5,0.4-0.6c-0.1-0.3,0.2-0.5,0-0.7c0.1-0.6,0.2-1.1,0.7-1.5
				c0.6,0,0.6-0.8,1.2-0.8c0.3,0,0.5,0.4,0.6,0.5C64.5,25,64.5,24.2,64.6,23.7 M70.5,25.1c0.3,0.6,0.5,1.3,0.8,1.9
				c0.2,0.5,0.7,0.9,0.9,1.5c0.2-0.4,0.7-0.7,1-1.1c0-0.2,0-0.3-0.1-0.4c-0.1-0.2,0-0.6-0.2-0.8c-0.3,0.1,0.1,0.4,0,0.6
				c-0.1,0.1-0.3,0-0.3-0.1c-0.3,0-0.5-0.3-0.6-0.5c0.2-0.1-0.1-0.2-0.1-0.3c-0.1-0.1-0.1,0-0.2,0.1c-0.1,0-0.1,0-0.2,0
				C71.5,25.1,70.8,25.5,70.5,25.1 M74.1,26.1c-0.1,0.3-0.3,0.5-0.5,0.7l0,0c0.3-0.2,0.5-0.6,0.8-0.6L74.1,26.1z M83.2,27
				c0,0.2,0,0.4,0.2,0.6c0.4-0.1,0.3,0.6,0.7,0.5c0.2-0.1,0-0.3,0.1-0.4c-0.1-0.3-0.4-0.4-0.6-0.6c0-0.1,0-0.1,0.1-0.2
				C83.4,26.8,83.3,26.9,83.2,27 M89.7,27c-0.3,0-0.7,0.2-1-0.1c-0.1-0.1-0.2,0-0.2,0.1c-0.1,0.2-0.2,0.4-0.5,0.3
				c-0.2-0.1-0.2-0.3-0.3-0.5c0,0.1,0,0.2-0.1,0.4c-0.2,0.3-0.3,0.5-0.5,0.8c-0.2,0.3-0.6,0.2-0.9,0.4c0,0.6-0.7,0.4-1,0.6
				c0,0.1,0.1,0.1,0.1,0.1c0.2,0,0.4,0,0.5-0.1c0.5,0.1,0.4-0.5,0.7-0.7c0.2,0,0.5-0.2,0.7-0.1c0.3,0.3,0.3,0.8,0.3,1.2
				c-0.3,0.3-0.1,0.7-0.3,1c0,0.4-0.4,0.6-0.4,0.9c-0.2,0.2-0.4,0.2-0.6,0.2c-0.9-0.3-1.9-0.6-2.9-0.7c-0.1,0-0.1,0.1-0.1,0.2
				c0.4,0.2,0.9,0.2,1.4,0.4c0.4,0.1,0.7,0.6,1.1,0.4c0.4-0.2,1.1,0.1,1.4-0.3c0-0.4,0.3-0.7,0.5-1.1l0.1,0c0.2,0.2,0.2,0.6,0.3,0.9
				c0.3-0.3,0.6-0.7,0.9-1.1c0.8-1.1,1.4-2.3,1.7-3.5C90.3,26.9,90,26.9,89.7,27 M75.2,27c-0.5,0.8-1.4,1.5-2.1,2.3
				c1.2,1,2.6,1.6,4.1,1.9c0.1-0.3,0-0.7,0.1-1C77.5,30,77.8,30,78,30c0.1,0,0.2-0.2,0.1-0.3c-0.3-0.1-0.2-0.4-0.3-0.6
				c0-0.1,0.2-0.1,0.2-0.2c-0.2-0.2,0.1-0.4-0.1-0.6c0.1-0.1,0.1-0.2,0.3-0.2c-0.7,0.4-1.5-0.1-2.1-0.4C75.7,27.6,75.3,27.4,75.2,27
				 M81.9,29c0,0.1-0.2,0.3,0,0.3c0.3-0.3,0.9-0.3,0.9-0.7C82.4,28.6,82.2,28.8,81.9,29 M83.2,29.9c-0.4,0-0.5,0.3-0.8,0.5
				c-0.3,0.2-0.5-0.3-0.7-0.2c0,0.1,0.1,0.1,0.1,0.1c0.1,0.1,0.1,0.3,0,0.3c-0.4,0.4-0.6-0.2-0.9-0.1v0.1c0,0.1,0,0.2-0.1,0.2
				c-0.2-0.4-0.7-0.2-0.9-0.6c-0.1-0.1-0.3,0-0.4,0.1c-0.1,0.2-0.4,0-0.4,0.3c-0.3,0.1-0.3,0.4-0.5,0.6c-0.4-0.1-0.5,0.3-0.8,0.3
				c0,0.1,0,0.2,0.1,0.2c0.2,0.1,0.4,0.1,0.7,0.1c0.3-0.6,0.9-0.1,1.4-0.3c0.3,0.1,0.1,0.4,0.3,0.5c0.5-0.1,0.8,0.4,1.2,0.1
				c0-0.5,0.6-0.5,0.9-0.6c0.5-0.3,1.1-0.7,1-1.4L83.2,29.9z M72.1,30.2c-0.7,0.8-1.5,1.7-2.3,2.3c0.4,0,0.6,0.4,0.8,0.6
				c1.7,1.4,3.9,2.1,5.9,2.6L76,35.5c-0.4-0.5-1-1-1-1.7c0.4-0.1,0.4-0.6,0.5-0.9c0.3-0.4,0.8-0.6,1.2-0.7c-1.2,0.5-2.2-0.4-3.1-0.8
				C73.1,31.1,72.4,30.8,72.1,30.2 M88.1,33.4L88,33.2c-0.1,0.3-0.3,0.4-0.5,0.7c0,0.2-0.1,0.5,0.2,0.6c0.5,0.2,1.1,0.4,1.2,1
				c-0.2,0.5-1.1,1-0.6,1.5c0.2,0.3-0.3,0.4-0.2,0.6l0.2-0.2c0.7-0.5,1.4-1,2-1.7h0.1c-0.1,0-0.3,0.1-0.5,0
				c-0.3-0.1-0.4-0.4-0.4-0.8L88.1,33.4z M69.6,33.8L69.6,33.8L69.6,33.8L69.6,33.8z M70,34.3c-0.1-0.1-0.2-0.2-0.3-0.4L70,34.3z
				 M70,34.4c0.1,0.3,0.4,0.4,0.3,0.8c-0.2,0.3-0.6,0.3-0.9,0.3c-0.7-0.1-1.1,0.4-1.8,0.5c-0.6,0.2-0.8-0.5-1.3-0.5
				c3.2,2.8,6.8,4.5,11.1,4.8l0.3,0.2l-0.1-0.4v-3l-0.3,0.1C74.7,37.1,72.2,36,70,34.4 M91.3,36.6l-0.1-0.3c-0.3,0.6-1,1-1.6,1.5
				c-0.7,0.7-2,0.9-2.3,2c-0.4,0.4-0.5,0.9-1.1,1.1c-0.2,0.6-0.8,0.5-1.1,0.9c-1,0.9-1.6-0.6-2.5-0.7l-1.8,0.3c-0.6,0-1.2,0.2-1.8,0
				c0.1,1.2,0.1,2.4,0,3.6l0.2-0.1c5.5-0.2,10.3-2.3,14.4-6.1L91.3,36.6z M65.8,36.5l0,0.1l-2.4,2.4c3.6,3.1,7.6,5.1,12.2,5.7
				c0.7,0.1,1.6,0.1,2.3,0.3l-0.2-0.3v-3.1l0.1-0.2l-0.4,0.1C73,41.3,69,39.7,65.8,36.5 M78.9,37.3l0.2,0.3c0,0.9,0.1,1.9,0,2.8
				c0.8-0.3,1.8-0.2,2.8-0.4c-0.2-0.1-0.4-0.1-0.5-0.3c-0.5,0-0.8-0.6-1-1c-0.1-0.3,0.1-0.6,0.3-0.8c-0.2-0.5-0.9-0.1-1.4-0.3
				C79.1,37.5,79,37.4,78.9,37.3"/>
			<path class="st91" d="M100,4.3c1.7,1.5,2.4,3.5,2.9,5.5l0.3,0.6c-2.4-1.8-4.7-4.1-6.2-6.6l-1.9-1.9C96.8,2.6,98.6,3.1,100,4.3"/>
			<path class="st91" d="M57.3,7.3c-1.1,1.4-2.6,2.3-3.8,3.5c0.7-1.4,0.7-3.1,1.7-4.4c1.4-2.4,4-3.3,6.3-4.2
				C59.7,3.7,58.6,5.6,57.3,7.3"/>
			<path class="st91" d="M106,9.9c0.5,2.4-0.2,4.8,0.3,7.2l0,0c-1.3-2.6-4.1-3.8-6-5.9c-1.1-1.2-1.6-2.7-1.9-4.3
				c1.1,2.7,4.1,3.2,5.8,5.5c0.6,0.5,0.8,1.2,1.1,1.8l0.1-0.1c-1-2.1-1.3-4.4-2-6.7c-0.3-1-1-1.9-1.9-2.5
				C103.6,5.4,105.5,7.7,106,9.9"/>
			<path class="st91" d="M55.2,5.4c-2.3,1.6-2.1,4.4-2.8,6.7c-0.2,0.9-0.6,1.7-0.8,2.5l0.1,0c0.4-1,1-1.9,1.9-2.8
				c1.6-1.5,4-2.4,4.8-4.6c0,3.1-2.6,5.5-5,7.2c-1,0.9-2,1.9-2.5,3c-0.1-0.8,0.1-1.5,0.1-2.4c-0.3-2.7-0.5-5.7,1.4-7.7
				C53,6.4,54.1,5.7,55.2,5.4"/>
			<path class="st91" d="M107.4,10.4c2,2.8,2.5,7.1,1,10.3c-0.6,1.3-0.9,2.8-1.2,4.2c-0.1-0.3-0.1-0.6-0.2-0.9
				c-0.8-3.1-3.7-5.3-4.9-8.2c-0.4-1-0.7-1.9-0.9-3c1.3,2.4,4.5,3.6,5.3,6.2c0.4,0.7,0.3,1.5,0.6,2.2c0,0,0.1,0,0.1-0.1
				c-0.4-2.7-0.3-5.5,0.1-8.2c0-1.4-0.2-2.8-1-4C106.8,9.4,107,10,107.4,10.4"/>
			<path class="st91" d="M50.4,9.5c-1.7,2.7-0.3,6-0.4,9l-0.2,3.1c0,0,0,0.1,0.1,0.1c0.1-0.3,0.1-0.7,0.2-1.1c0.4-2.5,2.6-4.3,4.5-6
				c0.4-0.4,0.8-0.9,1-1.4c-0.1,1.2-0.5,2.5-1.1,3.6c-1.5,2.9-4.2,5.2-4.7,8.5c-0.2-3.1-2.4-5.5-2.2-8.8c-0.1-2.7,1.1-4.9,2.6-6.9
				C50.3,9.6,50.3,9.5,50.4,9.5"/>
			<path class="st91" d="M109.3,28.3c-1.2,1.7-2.7,3.3-3.8,5c0.1-1.4,0.3-3.1-0.3-4.4c-0.9-2.8-1.7-5.7-2-8.8l0-1.2
				c0.7,3.2,3.8,5.3,3.6,8.9c0.1,0.9-0.2,1.6-0.4,2.3l0.1,0.1l0.1-0.2c0.5-1.7,0.7-3.6,1.4-5.2c1-2.3,2.3-4.7,1.8-7.5
				C111.5,20.7,111,25.2,109.3,28.3"/>
			<path class="st91" d="M49.5,27.2c0.3,1.2,0.4,2.4,0.9,3.5c0,0,0.1,0,0.1-0.1c-1.2-3.3,0.5-6.4,2.2-9c0.4-0.7,0.7-1.5,0.9-2.3
				c0.2,1.5-0.2,3.2-0.4,4.8c-0.4,2-1,3.8-1.6,5.8c-0.4,1.2-0.3,2.5-0.1,3.8l-0.2-0.1c-1.3-2.3-3.7-4.1-4.5-6.6
				c-0.6-2-1-4.3-0.6-6.5c0.2-0.8,0.3-1.7,0.7-2.5C46.3,21.5,48.7,24.1,49.5,27.2"/>
			<path class="st91" d="M104.6,33.7c-0.1,1.5-0.6,2.9-1.4,4.2h0.1c1.1-1.4,2-3,3.2-4.4c2-1.9,4-3.9,4.3-6.6
				c0.7,4.5-1.8,8.4-5.5,10.9c-1.5,1-3.1,1.9-4.5,3.1v-0.1c2.2-3.7,1.1-8.9,2.5-13l0.5-1.4C103.5,29,104.6,31.1,104.6,33.7"/>
			<path class="st91" d="M55.3,38.8c0.2,0.8,0.7,1.6,1.1,2.4c-3.4-2.3-8.1-4.5-9.6-8.8c-0.6-1.5-0.7-3.3-0.6-5
				c0.3,3.8,4.4,5.8,6.3,9c0.4,0.6,0.8,1.4,1.4,1.9c-0.1-0.4-0.5-0.7-0.6-1.2c-0.7-1.3-0.9-2.9-0.7-4.5c0.2-1.9,1-3.7,0.7-5.8
				C54.9,30.4,54.3,34.9,55.3,38.8"/>
			<path class="st91" d="M99.5,41.6c-0.6,1-1.4,2-2.3,2.8c0.3,0,0.6-0.3,0.8-0.4c2.5-2.5,5.7-3.1,8.3-5.1c1.1-0.8,2-2,2.5-3.2
				c-0.5,4.1-4.6,7.9-8.4,9.1c-2,0.5-4.1,0.7-6,1.4c3.2-2.8,3.1-7.1,5.2-10.4c0.7-0.9,1.3-1.9,2.1-2.8C100.4,35.6,101,39,99.5,41.6"
				/>
			<path class="st91" d="M58.5,38.2c1.1,2.8,1.6,6,4.2,8.1c-2.9-0.9-6.2-0.7-8.8-2.4c-2.8-1.7-5.2-4.6-5.7-7.7
				c1.9,4.3,6.7,4.7,9.9,7.3c0.6,0.5,1.2,1,1.9,1.3l0,0c-0.7-0.7-1.6-1.4-2.1-2.3c-1.9-2.6-1.2-6.3-2.6-9.1
				C56.6,34.9,57.7,36.4,58.5,38.2"/>
			<path class="st91" d="M92.5,46.6c-0.7,0.5-1.6,0.5-2.3,0.9c1,0,2-0.3,3-0.4c3.8-0.6,8.1,0,10.8-3.2c-1,2.2-3.5,4.1-5.7,4.9
				c-3.9,1.5-7.8-0.3-11.5-0.9l-0.7-0.1v0c1.8-0.4,3.5-0.9,4.9-2.2c2.1-2,3.9-4.1,6.2-5.6C95.5,42,95.3,45.2,92.5,46.6"/>
			<path class="st91" d="M66,45.5c1.5,1.3,3.2,1.9,5.1,2.3c-0.4,0.2-1,0.1-1.5,0.2c-3.3,0.8-7.1,2.2-10.6,1
				c-2.3-0.7-4.7-2.5-5.8-4.8c3.1,3.5,8,2.3,12.1,3.2c0.6,0.1,1.1,0.3,1.7,0.2c-0.5-0.3-1.2-0.3-1.7-0.5c-3.2-1.1-3.7-4.6-5.4-6.9
				C62.1,41.6,63.9,43.6,66,45.5"/>
			<path class="st91" d="M90.9,50.2c2.5,0.9,5.7,0.7,7.8-0.8c-1.1,1.4-2.6,2.3-4.1,2.9c-3.4,1.3-7-0.1-9.7-2.1
				c-1.1-0.7-2.1-1.7-3.5-1.6c-0.5,0-1,0-1.4,0.1c2.6,1.2,5,2.9,7.3,5c-0.4,0.4-0.9,0.8-1.3,1.2c-2.1-2.3-4.5-4.5-7.2-5.8
				c-0.5,0.1-1,0.4-1.5,0.6c-2.2,1.4-4.3,3.1-5.9,5.3L70,53.9c2.2-2.2,4.6-4,7.3-5.2c-2.6-0.8-4.3,1.4-6.3,2.5
				c-2.3,1.6-5.6,2.4-8.4,1.3c-1.5-0.6-3-1.4-4.1-2.8c2.2,1.5,5.5,1.7,8,0.7c3.4-1.5,6.9-3.3,10.9-2.4c0.6,0,1.3,0.6,1.8,0.1
				c3-0.8,6.4-0.2,9,1.1L90.9,50.2z"/>
		</g>
		<g id="sdg_x5F_logo_3_">
			<path class="st92" d="M28.2,125.7c2.5,0,5,0,7.5,0c0.9,0,0.8,0,0.8,0.8c-0.1,2.4-0.4,4.7-1.1,7c-1.5,4.9-4.3,8.8-9.2,10.9
				c-2.9,1.3-6,1.6-9.2,1.3c-4.4-0.4-8-2.3-10.9-5.6c-2.6-2.9-4.1-6.4-4.6-10.2c-0.7-5.5,0.5-10.6,3.9-15c4-5.1,9.5-7.1,15.9-6.4
				c2.5,0.2,4.9,0.8,7.2,2.1c3,1.7,5,4.3,6.3,7.4c0,0.1,0,0.1,0.1,0.2c0.7,1.5,0.7,1.5-1,1.6c-1.8,0.1-3.7,0.2-5.5,0.3
				c-0.4,0-0.6-0.1-0.7-0.4c-1.5-3.2-4.2-4.5-7.5-4.8c-2.4-0.2-4.6,0.2-6.6,1.7c-2.3,1.6-3.5,3.9-4.2,6.6c-0.7,2.7-0.7,5.4,0.1,8.1
				c1.1,3.6,3.2,6.5,7,7.6c5,1.6,10.4-0.7,11.9-6.3c0.1-0.6,0-0.7-0.5-0.7c-2.4,0-4.8,0-7.2,0c-0.5,0-0.7-0.2-0.7-0.7
				c0-1.6,0-3.2,0-4.8c0-0.5,0.2-0.7,0.7-0.7C23.1,125.7,25.7,125.7,28.2,125.7z"/>
			<path class="st92" d="M102.3,145.2c-1.1,0-2.3,0-3.4,0c-0.4,0-0.6-0.1-0.7-0.5c-0.7-2.1-1.4-4.2-2-6.3c-0.2-0.5-0.4-0.8-1-0.8
				c-4,0-7.9,0-11.9,0c-0.5,0-0.8,0.2-0.9,0.7c-0.6,2.1-1.3,4.3-2,6.4c-0.1,0.4-0.3,0.5-0.7,0.5c-2.3,0-4.6,0-6.8,0
				c-0.6,0-0.5-0.2-0.4-0.6c1.3-3.5,2.6-7,3.8-10.4c2.1-5.9,4.3-11.7,6.4-17.6c0.9-2.4,1.8-4.9,2.7-7.3c0.1-0.4,0.3-0.5,0.7-0.5
				c2.2,0,4.5,0,6.7,0c0.5,0,0.6,0.2,0.7,0.6c1.5,4.2,3,8.3,4.5,12.5c1.7,4.6,3.3,9.2,5,13.8c1.1,3,2.1,6,3.2,9
				c0.2,0.5,0,0.7-0.5,0.7C104.6,145.2,103.5,145.2,102.3,145.2z M89.4,117.7c-0.3,0.2-0.3,0.4-0.4,0.6c-1.4,4.2-2.7,8.5-4.1,12.7
				c-0.2,0.6,0,0.7,0.5,0.7c2.6,0,5.2,0,7.7,0c0.8,0,0.8,0,0.6-0.8c-1-3-2-6-2.9-9C90.3,120.5,89.8,119.1,89.4,117.7z"/>
			<path class="st92" d="M133.8,134.4c1,0,1.9,0,2.9,0c0.3,0,0.5,0,0.5,0.4c0.1,2.5,1.6,3.9,3.9,4.6c2.2,0.6,4.3,0.5,6.4-0.6
				c1.3-0.7,2.1-1.7,2-3.3c-0.1-1.1-0.5-1.9-1.4-2.5c-1.7-1.1-3.7-1.6-5.6-2.3c-1.8-0.7-3.7-1.3-5.5-2c-2.7-1.1-4.7-2.9-5.7-5.7
				c-1.3-3.7-0.4-7.1,1.9-10.1c2-2.6,4.9-3.8,8.2-4.1c3-0.3,5.9-0.1,8.7,1.1c3.5,1.5,5.5,4.2,6,8c0.1,0.6-0.1,0.8-0.7,0.8
				c-2,0-4,0-6,0.1c-0.2,0-0.4,0-0.5-0.3c-0.4-2.5-2.2-3.4-4.5-3.7c-1.7-0.2-3.4,0-4.8,1c-1.9,1.2-2.2,3.8-0.6,5.4
				c0.9,0.9,2,1.4,3.2,1.8c2.7,0.9,5.5,1.6,8.2,2.7c2.4,1,4.6,2.4,5.6,4.9c1.7,4,1.1,7.8-1.6,11.2c-2.1,2.6-5,3.7-8.3,4.1
				c-2.7,0.3-5.4,0.2-8.1-0.6c-5-1.4-7.6-4.9-7.9-9.8c-0.1-0.7,0.2-0.9,0.8-0.9C131.8,134.5,132.8,134.5,133.8,134.4
				C133.8,134.5,133.8,134.4,133.8,134.4z"/>
			<path class="st92" d="M107.7,127.2c0-5.7,0-11.4,0-17.2c0-0.6,0.1-0.8,0.8-0.8c1.9,0,3.7,0,5.6,0c0.6,0,0.8,0.2,0.8,0.8
				c0,9.2,0,18.4,0,27.6c0,0.7,0.1,0.9,0.8,0.9c4.1,0,8.1,0,12.2,0c0.6,0,0.8,0.2,0.8,0.8c0,1.7,0,3.5,0,5.2c0,0.6-0.2,0.7-0.7,0.7
				c-6.5,0-13,0-19.6,0c-0.6,0-0.7-0.2-0.7-0.8C107.7,138.7,107.7,133,107.7,127.2z"/>
			<path class="st93" d="M39.8,133.4c0-0.3,0.2-0.3,0.5-0.4c1.8-0.5,3.7-1,5.5-1.6c0.2,0,0.3-0.1,0.5-0.2c1-0.3,1.2-0.2,1.4,0.6
				c0.1,0.4,0.4,0.8,0.6,1.2c0.2,0.3,0.1,0.5-0.2,0.7c-1.8,1.3-3.6,2.7-5.3,4.1c-0.4,0.3-0.6,0.3-0.9-0.1c-0.8-1.2-1.4-2.5-1.9-3.8
				C39.8,133.7,39.8,133.6,39.8,133.4z"/>
			<path class="st94" d="M64.4,134.1c0.2,0.1,0.3,0.2,0.4,0.2c1.5,1.1,3,2.3,4.5,3.4c0.3,0.2,0.6,0.5,0.9,0.7
				c0.3,0.2,0.3,0.4,0.1,0.7c-0.9,1.1-2,2.1-3.2,3c-0.5,0.3-0.8,0.3-1.1-0.2c-1.2-1.9-2.3-3.8-3.5-5.7c-0.1-0.2-0.1-0.4,0.1-0.5
				c0.5-0.5,1-1,1.5-1.5C64.3,134.2,64.3,134.2,64.4,134.1z"/>
			<path class="st93" d="M46.9,142.6c-0.2-0.1-0.5-0.3-0.7-0.4c-1-0.9-2.1-1.7-2.9-2.7c-0.3-0.4-0.3-0.6,0.1-0.9
				c1.8-1.4,3.6-2.7,5.4-4.1c0.3-0.2,0.5-0.2,0.7,0c0.4,0.5,1,0.8,1.4,1.3c0.2,0.2,0.3,0.4,0.1,0.7c-1.1,1.9-2.4,3.7-3.4,5.6
				C47.3,142.3,47.1,142.5,46.9,142.6z"/>
			<path class="st95" d="M56.6,145.5c-0.7,0-1.4,0-2-0.1c-0.4-0.1-0.6-0.2-0.5-0.6c0.3-1.7,0.6-3.5,1-5.2c0.1-0.6-0.1-1.4,0.4-1.8
				c0.5-0.4,1.2,0,1.8-0.1c0.8-0.1,0.9,0,1,0.8c0.4,2,0.7,3.9,1.1,5.9c0.2,0.8,0.2,0.8-0.6,1C58.1,145.5,57.4,145.5,56.6,145.5z"/>
			<path class="st96" d="M54.4,137.8c-0.4,2.4-0.9,4.7-1.3,7c-0.1,0.3-0.2,0.4-0.5,0.3c-1.5-0.4-3-0.9-4.4-1.7
				c-0.3-0.2-0.4-0.3-0.2-0.6c1.2-2,2.4-3.9,3.7-5.9c0.2-0.3,0.3-0.3,0.6-0.2c0.6,0.3,1.2,0.5,1.8,0.7
				C54.3,137.5,54.5,137.6,54.4,137.8z"/>
			<path class="st93" d="M63,120c-0.2,0-0.3-0.1-0.5-0.2c-0.4-0.3-0.9-0.6-1.3-0.8c-0.4-0.2-0.4-0.4-0.3-0.7
				c0.8-2.1,1.7-4.3,2.5-6.4c0.2-0.4,0.4-0.5,0.7-0.3c1.3,0.7,2.6,1.4,3.8,2.4c0.4,0.3,0.4,0.5,0,0.9c-0.9,0.9-1.7,2-2.7,2.9
				c-0.7,0.6-1.2,1.4-1.8,2C63.3,119.9,63.2,120,63,120z"/>
			<path class="st97" d="M67.3,126.3c-0.6,0.2-0.8-0.1-0.9-0.7c-0.1-0.5-0.2-0.9-0.4-1.3c-0.1-0.3-0.1-0.5,0.2-0.6
				c2.1-1,4.2-2.1,6.3-3.1c0.3-0.1,0.4-0.1,0.5,0.2c0.6,1.4,1,2.9,1.3,4.4c0.1,0.4-0.1,0.5-0.5,0.5
				C71.6,125.9,69.5,126.1,67.3,126.3z"/>
			<path class="st98" d="M44.3,115c0.2,0,0.3,0.1,0.4,0.2c1.6,1.7,3.1,3.4,4.7,5.1c0.2,0.3,0.2,0.4,0,0.6c-0.4,0.4-0.8,0.9-1.1,1.3
				c-0.2,0.3-0.4,0.3-0.7,0.2c-2-1-4.1-2-6.1-3c-0.3-0.1-0.4-0.3-0.2-0.6c0.8-1.4,1.7-2.6,2.8-3.7C44.2,115.1,44.3,115.1,44.3,115z"
				/>
			<path class="st98" d="M39.9,126.7c2,0.2,4,0.4,6,0.5c0.6,0,0.9,0.2,0.9,0.9c0,0.5,0,1,0.1,1.4c0.1,0.4,0,0.5-0.3,0.6
				c-2.2,0.6-4.4,1.2-6.6,1.9c-0.4,0.1-0.6,0-0.7-0.4c-0.3-1.4-0.4-2.8-0.4-4.3C38.8,126.5,39.3,126.6,39.9,126.7z"/>
			<path class="st92" d="M46.2,126.2c-2.2-0.2-4.3-0.4-6.4-0.5c-0.6,0-0.8-0.3-0.7-0.9c0.3-1.4,0.7-2.8,1.3-4.2
				c0.1-0.3,0.3-0.4,0.7-0.2c2,1,4.1,2.1,6.1,3.1c0.4,0.2,0.4,0.4,0.3,0.7c-0.2,0.4-0.4,0.9-0.4,1.3C46.9,126,46.8,126.5,46.2,126.2
				z"/>
			<path class="st97" d="M59.2,137.7c-0.1-0.2,0.1-0.3,0.3-0.4c0.6-0.2,1.2-0.4,1.8-0.7c0.3-0.1,0.4-0.1,0.5,0.2c1.2,2,2.4,4,3.7,6
				c0.2,0.3,0.1,0.4-0.2,0.6c-1.4,0.8-2.8,1.3-4.3,1.7c-0.2,0.1-0.4,0-0.4-0.2C60.1,142.5,59.7,140.1,59.2,137.7
				C59.2,137.8,59.2,137.8,59.2,137.7z"/>
			<path class="st99" d="M56.2,114c0,1.1,0,2.3,0,3.4c0,0.4-0.1,0.5-0.5,0.5c-0.5,0.1-1.1,0.2-1.6,0.3c-0.4,0.1-0.5,0-0.7-0.4
				c-0.8-2.1-1.6-4.2-2.4-6.2c-0.2-0.5-0.1-0.6,0.4-0.8c1.4-0.4,2.8-0.7,4.3-0.8c0.4,0,0.5,0.1,0.5,0.5
				C56.2,111.7,56.2,112.8,56.2,114z"/>
			<path class="st98" d="M65.5,122.9c-0.2,0-0.3-0.2-0.4-0.3c-0.3-0.5-0.7-1-1.1-1.4c-0.2-0.2-0.2-0.4,0-0.6
				c1.6-1.7,3.1-3.4,4.7-5.1c0.3-0.3,0.4-0.2,0.6,0c1.1,1.1,2,2.3,2.7,3.6c0.2,0.3,0.1,0.5-0.2,0.6c-2.1,1-4.1,2.1-6.2,3.1
				C65.7,122.8,65.6,122.8,65.5,122.9z"/>
			<path class="st97" d="M57.3,113.9c0-1.1,0-2.2,0-3.3c0-0.5,0.1-0.5,0.6-0.5c1.4,0.1,2.8,0.4,4.2,0.8c0.5,0.1,0.5,0.3,0.4,0.8
				c-0.8,2.1-1.6,4.2-2.4,6.3c-0.1,0.4-0.3,0.4-0.7,0.3c-0.5-0.1-1.1-0.3-1.6-0.3c-0.4,0-0.5-0.2-0.5-0.6
				C57.3,116.2,57.3,115,57.3,113.9L57.3,113.9z"/>
			<path class="st95" d="M74.5,128.1c0,1.1-0.1,2.2-0.3,3.3c-0.1,0.5-0.3,0.6-0.8,0.5c-2.1-0.6-4.3-1.2-6.4-1.8
				c-0.4-0.1-0.6-0.3-0.4-0.7c0.2-0.5,0.1-1,0.1-1.5c0-0.4,0.1-0.5,0.5-0.5c2.2-0.2,4.4-0.4,6.6-0.6c0.5-0.1,0.8,0.1,0.7,0.7
				C74.4,127.6,74.5,127.9,74.5,128.1z"/>
			<path class="st100" d="M52.6,118.5c0,0.2-0.1,0.3-0.2,0.3c-0.5,0.3-1.1,0.6-1.6,1c-0.3,0.2-0.4,0.1-0.6-0.1
				c-1.5-1.7-3.1-3.4-4.6-5.1c-0.3-0.3-0.3-0.5,0.1-0.7c1.2-0.9,2.4-1.7,3.8-2.3c0.3-0.2,0.5-0.1,0.7,0.3c0.8,2.2,1.7,4.3,2.5,6.5
				C52.6,118.4,52.6,118.4,52.6,118.5z"/>
			<path class="st101" d="M73.5,133.6c-0.3,1-0.8,2.1-1.4,3.1c-0.8,1.4-0.8,1.4-2.1,0.4c-1.4-1.1-2.9-2.2-4.4-3.3
				c-0.5-0.4-0.7-0.7-0.2-1.3c0.2-0.2,0.3-0.4,0.4-0.7c0.1-0.7,0.5-0.9,1.2-0.7c2.1,0.6,4.1,1.2,6.2,1.8
				C73.4,133.1,73.6,133.2,73.5,133.6z"/>
			<g>
				<path class="st102" d="M85.7,72.3c0.1,0.1,0.2,0.1,0.2,0.2c1.9,2.9,3.8,5.8,5.7,8.8c0.5,0.9,1.1,1.4,2.2,1.2
					c0.5-0.1,0.9,0,1.4,0c0.5,0,0.6-0.1,0.6-0.6c0-0.8,0-1.6,0-2.5c0-5,0-10.1,0-15.1c0-0.6-0.2-0.8-0.7-0.7c-0.7,0-1.5,0.1-2.3,0
					c-0.7,0-0.9,0.2-0.9,0.8c0,2.6,0,5.3,0,7.9c0,0.6,0,1.2,0,1.8c-0.3,0-0.4-0.2-0.5-0.4c-1.1-1.7-2.2-3.3-3.3-5
					c-0.9-1.3-1.8-2.6-2.6-4c-0.1-0.1-0.3-0.2-0.3-0.3c-0.3-0.8-1-1-1.8-0.9c-0.5,0.1-1.1,0-1.6,0c-0.6,0-0.8,0.2-0.8,0.8
					c0,5.4,0,10.8,0,16.2c0,0.6-0.3,1.3,0.1,1.7c0.4,0.4,1.1,0.1,1.7,0.1c0.5,0,1,0,1.5,0c0.4,0,0.5-0.2,0.5-0.5c0-3.2,0-6.4,0-9.6
					c0-0.3,0-0.6,0.1-0.9C85.5,71.6,85.6,71.9,85.7,72.3z"/>
				<polygon class="st102" points="125.4,63.8 125.4,63.8 125.4,63.8 				"/>
				<polygon class="st102" points="126.7,64.3 126.7,64.3 126.7,64.3 				"/>
				<path class="st102" d="M129.5,75.4c-0.1-0.3-0.2-0.5-0.3-0.8c0,0,0-0.1,0-0.1c-0.4-0.4-0.8-0.8-1.2-1.2l0,0
					c-0.2,0-0.3,0-0.4-0.3c-0.2,0-0.4-0.1-0.5-0.3l0,0c-0.2,0-0.4,0-0.4-0.2c0-0.3,0.3-0.3,0.5-0.3c0.6-0.7,1.3-1.3,1.6-2.2
					c0.3-1.2,0.4-2.5-0.2-3.6c-0.1-0.1-0.1-0.3-0.1-0.4c-0.2,0-0.2-0.1-0.2-0.3c0,0,0,0,0-0.1c-0.5-0.4-1-0.8-1.5-1.2
					c-0.5-0.1-0.9-0.3-1.3-0.5c-2.9-0.5-5.9-0.2-8.8-0.2c-0.9,0-0.9,0-0.9,0.8c0,5.8,0,11.6,0,17.4c0,0.4,0.1,0.6,0.5,0.6
					c2.5,0,4.9,0,7.4,0c0.8,0,1.6-0.3,2.4-0.3c1.1-0.4,2.1-1,2.9-1.9c0.2-0.3,0.4-0.7,0.6-1l0,0C129.8,77.9,129.9,76.7,129.5,75.4z
					 M119.6,67.5c0-0.2,0-0.5,0.3-0.5c1.2,0.1,2.5-0.2,3.7,0.2c1,0.3,1.6,1,1.5,2c0,1-0.7,1.7-1.7,2c-1.2,0.3-2.3,0.1-3.5,0.1
					c-0.3,0-0.4-0.2-0.4-0.4c0-0.6,0-1.1,0-1.7c0,0,0,0,0,0C119.6,68.5,119.6,68,119.6,67.5z M125.9,76.8c0,0.9-0.6,1.6-1.3,1.9
					c-0.5,0.2-1,0.3-1.5,0.3c-0.9,0-1.9,0-2.8,0c-0.4,0-0.6-0.1-0.6-0.5c0-1.1,0-2.2,0-3.3c0-0.4,0.2-0.5,0.5-0.5c0.6,0,1.2,0,1.9,0
					c0.8,0.1,1.8-0.2,2.7,0.3C125.4,75.3,125.9,76,125.9,76.8z"/>
				<polygon class="st102" points="128.4,65.9 128.4,65.9 128.4,65.9 				"/>
				<polygon class="st102" points="127.6,73.1 127.6,73.1 127.6,73.1 				"/>
				<path class="st102" d="M127.2,72.2C127.2,72.2,127.2,72.2,127.2,72.2C127.2,72.2,127.2,72.2,127.2,72.2L127.2,72.2z"/>
				<path class="st102" d="M114.2,87.9c-1.3,0.1-2.6-0.1-3.8,0.1l0,0c0,0.1,0,0.1-0.1,0.2c-0.1,0.2-0.1,0.4-0.2,0.6
					c-0.1,0.1-0.1,0.1-0.2,0.2c-0.2,0.5-0.7,1-0.8,1.6l0,0c-0.5,0.4-0.6,0.9-0.8,1.4l0,0c-0.1,0.1-0.2,0.2-0.2,0.4
					c-0.3,0.6-0.7,1.2-1,1.8c-0.2,0.4-0.4,0.5-0.6,0c-0.5-1-1.1-2-1.6-2.9c-0.6-0.9-1.1-1.9-1.6-2.8c-0.2-0.4-0.5-0.7-1.1-0.7
					c-0.8,0.1-1.5,0-2.3,0c-0.6,0-0.7,0.2-0.7,0.7c0,1,0,1.9,0,2.9c0,4.3,0,8.6,0,12.8c0,0.6,0.2,0.8,0.7,0.8c0.7,0,1.4,0,2.1,0
					c0.5,0,0.7-0.1,0.7-0.7c0-3,0-6,0-9.1c0-0.2,0-0.5,0-0.8c0.4,0.3,0.6,0.7,0.7,1c0.5,0.9,1.1,1.7,1.4,2.6c0,0,0,0,0,0.1
					c0.2,0.1,0.3,0.2,0.3,0.4c0.4,0.7,0.9,1.4,1.3,2.2c0.2,0.4,0.3,0.4,0.5,0c0.2-0.5,0.5-0.9,0.8-1.3c0.2-0.4,0.3-0.8,0.6-1.1
					c0.3-0.8,0.7-1.5,1.2-2.2l0,0c0.2-0.6,0.6-1.2,1-1.7c0.2,0.3,0.1,0.6,0.1,0.9c0,3,0,6,0,9c0,0.6,0.2,0.8,0.8,0.7
					c0.7,0,1.3,0,2,0c0.6,0,0.8-0.2,0.8-0.7c0-5,0-9.9,0-14.9C114.2,89,114.2,88.5,114.2,87.9z"/>
				<path class="st102" d="M114.2,87.9C114.2,87.9,114.2,87.9,114.2,87.9C114.2,87.9,114.2,87.9,114.2,87.9L114.2,87.9z"/>
				<polygon class="st102" points="110.3,88.2 110.3,88.2 110.3,88.2 				"/>
				<polygon class="st102" points="108.4,98.5 108.4,98.5 108.4,98.5 				"/>
				<path class="st102" d="M143.2,103.4c0-4.9,0-9.8,0-14.6c0-0.9,0-0.9-0.9-0.9c-0.6,0-1.3,0-1.9,0c-0.7-0.1-0.8,0.2-0.8,0.8
					c0,2.6,0,5.2,0,7.8c0,0.4,0,0.7-0.1,1.1c-0.7-0.9-1.4-1.8-1.9-2.8c-1.4-2.1-2.8-4.3-4.3-6.4c-0.2-0.3-0.4-0.5-0.8-0.5
					c-0.7,0-1.4,0.1-2.1,0c-0.6,0-0.8,0.1-0.8,0.8c0,1.8,0,3.6,0,5.4c0,3.5,0,7,0,10.5c0,0.5,0.1,0.7,0.7,0.7c0.8-0.1,1.5,0,2.3,0
					c0.5,0,0.6-0.2,0.6-0.6c0-2.9,0-5.7,0-8.6c0-0.2-0.2-0.5,0.1-0.6c0.2-0.1,0.3,0.2,0.5,0.4c1.1,1.7,2.2,3.4,3.3,5.1
					c0.5,0.8,1.1,1.6,1.5,2.5c0.5,0.3,0.7,0.9,1,1.3c0.2,0.4,0.5,0.5,0.9,0.5c0.6,0,1.3,0,1.9,0c0.5,0,0.7-0.2,0.7-0.7
					C143.2,104.2,143.2,103.8,143.2,103.4z"/>
				<path class="st102" d="M18.2,81.8c2.2,1.1,4.5,1.1,6.7,0.4c1.3-0.4,2.4-1.2,3.2-2.5c0.7-1.1,1.1-2.4,1.1-3.8c0-1.9,0-3.9,0-5.8
					c0,0,0,0,0,0c0-2,0-4.1,0-6.1c0-0.4-0.1-0.6-0.6-0.6c-0.9,0-1.9,0-2.8,0c-0.5,0-0.6,0.2-0.6,0.6c0,1.8,0,3.6,0,5.4
					c0,2.1,0,4.2,0,6.3c0,1.1-0.4,2.2-1.4,2.7c-2.1,1.1-4.9,0.4-5-2.7c-0.1-3.9-0.1-7.7,0-11.6c0-0.5-0.2-0.7-0.7-0.7
					c-0.9,0-1.8,0-2.6,0c-0.5,0-0.7,0.2-0.7,0.7c0,3.6,0,7.2,0,10.7c0,1,0.1,2,0.4,3C15.7,79.7,16.6,81,18.2,81.8z"/>
				<path class="st102" d="M157,79.6c0.1-0.7-0.2-0.8-0.8-0.8c-2.3,0-4.6,0-6.9,0c-0.5,0-0.7-0.2-0.7-0.7c0-0.9,0-1.8,0-2.7
					c0-0.5,0.1-0.7,0.7-0.7c2,0,4,0,6,0c0.5,0,0.7-0.2,0.7-0.7c0-0.7,0-1.5,0-2.2c0-0.5-0.2-0.7-0.7-0.7c-2,0-4,0-6,0
					c-0.5,0-0.7-0.2-0.7-0.7c0-0.9,0-1.8,0-2.7c0-0.6,0.2-0.7,0.7-0.7c2.3,0,4.6,0,6.9,0c0.6,0,0.8-0.2,0.7-0.8c0-0.7-0.1-1.3,0-2
					c0-0.6-0.1-0.8-0.8-0.8c-3.6,0-7.1,0-10.7,0c-0.6,0-0.8,0.2-0.8,0.7c0,2.9,0,5.8,0,8.7c0,0,0,0,0,0c0,2.9,0,5.9,0,8.8
					c0,0.4,0,0.6,0.5,0.6c3.8,0,7.5,0,11.3,0c0.4,0,0.6-0.2,0.6-0.6C157,81.1,157,80.3,157,79.6z M145.2,81.2c0,0,0-0.1,0-0.1
					c3.5,0,6.9,0,10.4,0c0,0,0,0.1,0,0.1C152.2,81.2,148.7,81.2,145.2,81.2z"/>
				<path class="st102" d="M59.8,82c0.3-1,0.7-2,1-3.1c0.1-0.4,0.3-0.6,0.7-0.6c1.8,0,3.6,0,5.4,0c0.4,0,0.6,0.2,0.8,0.6
					c0.2,0.7,0.4,1.3,0.6,2c0.5,1.5,0.5,1.5,2.1,1.5c0.1,0,0.3,0,0.4,0c0,0,0,0,0,0c0.6,0,1.2,0,1.8,0c0.2,0,0.4,0,0.3-0.3
					c-0.5-1.3-0.9-2.5-1.3-3.8c-1-2.9-2.1-5.7-3.1-8.6c-0.7-1.9-1.4-3.8-2.1-5.8c-0.1-0.4-0.3-0.5-0.7-0.5c-0.9,0-1.8,0-2.7,0
					c-0.4,0-0.6,0.2-0.7,0.5c-0.3,0.8-0.6,1.5-0.8,2.3c-1.3,3.7-2.6,7.4-3.9,11.1c-0.6,1.6-1.1,3.1-1.7,4.6
					c-0.1,0.3-0.2,0.5,0.3,0.5c1.1,0,2.2,0,3.2,0C59.6,82.4,59.7,82.3,59.8,82z M62.4,74.2c0.3-0.9,0.6-1.7,0.9-2.6
					c0.2-0.7,0.5-1.3,0.7-2c0.1-0.2,0.1-0.4,0.4-0.5c0.4,1.2,0.8,2.4,1.2,3.6c0.2,0.6,0.4,1.1,0.6,1.7c0.1,0.3,0,0.5-0.3,0.5
					c-1,0-2.1,0-3.1,0C62.1,74.8,62.4,74.4,62.4,74.2z"/>
				<path class="st102" d="M114.1,81.3C114.1,81.3,114.1,81.2,114.1,81.3c-0.5-1-0.7-2-1-2.9c0,0,0-0.1,0-0.1
					c-0.4-0.7-0.7-1.5-0.8-2.3l0,0c-0.2-0.2-0.3-0.4-0.3-0.7c-0.5-1-0.8-2.1-1.2-3.2c-0.2-0.7-0.6-1.3-0.7-2c-0.7-2-1.4-4-2.1-6
					c-0.1-0.4-0.3-0.8-0.8-0.8c-0.9,0-1.9,0-2.8,0c-0.3,0-0.5,0.1-0.6,0.4c-1.1,3.1-2.2,6.2-3.3,9.2c-1,2.9-2.1,5.8-3.1,8.8
					c-0.2,0.4-0.1,0.6,0.3,0.6c1,0,2,0,3,0c0.4,0,0.5-0.2,0.6-0.5c0.3-1,0.7-2,1-3.1c0.1-0.4,0.3-0.5,0.7-0.5c1.8,0,3.7,0,5.5,0
					c0.4,0,0.6,0.1,0.5,0.5c0.2,0.2,0.3,0.4,0.3,0.7c0,0,0,0.1,0,0.1c0.2,0.2,0.3,0.4,0.3,0.7l0,0c0.3,0.4,0.3,0.9,0.5,1.4
					c0.2,0.4,0.4,0.7,0.9,0.7c0.9,0,1.8,0,2.7,0c0.5,0,0.8-0.1,0.5-0.7C114.1,81.6,114.1,81.4,114.1,81.3z M107.4,74.9
					c-1.1,0-2.2,0-3.3,0c-0.2,0-0.3-0.2-0.3-0.4c0.6-1.8,1.2-3.6,1.8-5.4c0.1,0,0.1,0,0.2,0c0.6,1.8,1.2,3.6,1.8,5.4
					C107.7,74.7,107.6,74.9,107.4,74.9z"/>
				<polygon class="st102" points="112,75.3 112,75.3 112,75.3 				"/>
				<path class="st102" d="M7.4,88c-1.9-0.1-3.7,0-5.6-0.1c-0.6,0-0.7,0.2-0.7,0.7c0,2.7,0,5.3,0,8h0c0,2.7,0,5.3,0,8
					c0,0.3,0,0.6,0.5,0.6c2.1,0,4.3,0.1,6.4-0.1c2.5-0.3,4.5-1.5,5.8-3.8c1-1.7,1.1-3.5,1.1-5.4C14.9,91.5,11.8,88.2,7.4,88z
					 M10.7,99.4c-0.6,1.4-2.1,2.4-3.6,2.4c-0.6,0-1.1,0-1.7,0c-0.5,0-0.6-0.1-0.6-0.6c0-0.8,0-1.6,0-2.4c0-0.8,0-1.5,0-2.3
					c0-1.6,0-3.1,0-4.7c0-0.3,0-0.6,0.4-0.6c1.2,0,2.4-0.1,3.5,0.4c1.5,0.7,2.2,2.1,2.4,3.6C11.3,96.7,11.3,98.1,10.7,99.4z"/>
				<polygon class="st102" points="82,102.6 82,102.6 82,102.6 				"/>
				<polygon class="st102" points="82.1,102.5 82.1,102.5 82.1,102.5 				"/>
				<polygon class="st102" points="83.1,100.8 83.1,100.8 83.1,100.8 				"/>
				<path class="st102" d="M83.9,95.9c-0.2-1-0.4-1.9-0.5-2.9l0,0c-0.4-0.7-0.6-1.4-1.1-2.1c-0.8-1.2-1.9-2-3.2-2.7
					c-3-1-5.7-0.7-8.2,1.3c-0.4,0.4-0.7,0.8-1.1,1.2l0,0c-0.4,0.7-0.7,1.4-1.1,2.1l0,0c-0.2,0.8-0.3,1.5-0.5,2.3c0,0.1,0,0.2,0,0.3
					c0,0.1,0,0.2,0,0.3c0,0.7,0,1.4,0,2.1c0.2,0.9,0.4,1.8,0.6,2.7l0,0l0,0c0.3,0.5,0.5,1.1,0.8,1.6l0,0c0.6,0.7,1.2,1.3,1.8,2l0,0
					c0.7,0.2,1.2,0.7,1.9,0.9c3,0.9,5.6,0.6,8-1.6c0.1-0.1,0.1-0.1,0.2-0.1c0.1-0.1,0.1-0.1,0.2-0.2c0.1-0.2,0.1-0.4,0.3-0.4
					c0-0.1,0-0.1,0.1-0.1c0.3-0.6,0.6-1.1,0.9-1.7c0-0.3,0.1-0.5,0.3-0.7c0-0.1,0-0.2,0.1-0.3c0.2-0.9,0.3-1.8,0.5-2.7
					C83.8,96.7,84.1,96.3,83.9,95.9z M78.8,100.8c-1.4,1.6-3.7,1.7-5.2,0.3c-0.1-0.1-0.2-0.2-0.3-0.3c-0.6-1-1.1-1.9-1.2-3.1
					c0-0.1-0.1-0.2-0.2-0.3c0-1.2,0-2.4,0.4-3.6c0.4-1.1,1.1-2,2.1-2.5c1.6-0.7,3.2-0.3,4.4,1.1C80.5,94.4,80.5,98.8,78.8,100.8z"/>
				<polygon class="st102" points="69.6,102.1 69.6,102.1 69.6,102.1 				"/>
				<path class="st102" d="M40.7,72.2c-1.4-0.7-3-1.4-4.4-2.1c-0.9-0.4-1.3-1.2-1.1-2c0.2-0.8,0.9-1.2,1.9-1.3
					c1.5-0.1,2.7,0.6,3.8,1.4c0.3,0.2,0.5,0.3,0.8-0.1c0.5-0.7,1.1-1.5,1.6-2.2c0.3-0.4,0.1-0.6-0.2-0.8c-2.6-1.9-5.4-2.5-8.5-1.4
					c-3.8,1.4-4.4,6.6-2,8.7c0.7,0.6,1.6,1.1,2.4,1.6c1.2,0.6,2.6,0.9,3.8,1.7c0.6,0.4,1.1,0.9,1,1.7c-0.1,0.8-0.6,1.3-1.4,1.5
					c-0.5,0.1-1.1,0.1-1.6,0.1c-1.4-0.2-2.5-0.8-3.5-1.7c-0.4-0.4-0.6-0.3-0.9,0.1c-0.5,0.7-1,1.3-1.5,1.9c-0.4,0.4-0.3,0.6,0.1,1
					c1.9,1.5,4,2.4,6.4,2.3c0.4,0,0.8,0,1.3,0c2.5-0.3,4.7-1.8,5.1-4.6C44,75.4,43.3,73.6,40.7,72.2z"/>
				<path class="st102" d="M127.2,101.9c-2.1,0.1-4.1,0-6.2,0c-0.5,0-0.7-0.2-0.7-0.7c0-0.8,0-1.6,0-2.4c0-0.5,0.2-0.6,0.7-0.6
					c1.7,0,3.5,0,5.2,0c0.6,0,0.8-0.1,0.8-0.7c0-0.6,0-1.3,0-1.9c0.1-0.6-0.2-0.7-0.8-0.7c-1.7,0-3.4,0-5.2,0
					c-0.5,0-0.8-0.1-0.7-0.7c0-0.7,0-1.3,0-2c0-0.9,0-0.9,0.9-0.9c2,0,4.1,0,6.1,0c0.4,0,0.6-0.1,0.6-0.5c0-0.7,0-1.4,0-2.1
					c0-0.6-0.1-0.8-0.7-0.8c-3.2,0-6.5,0-9.7,0c-0.5,0-0.7,0.1-0.7,0.7c0,2.7,0,5.3,0,8h0c0,2.6,0,5.3,0,7.9c0,0.6,0.1,0.8,0.7,0.8
					c3.3,0,6.7,0,10,0c0.4,0,0.5-0.1,0.5-0.5c0-0.6,0-1.3,0-1.9C128,102.1,127.9,101.8,127.2,101.9z"/>
				<path class="st102" d="M92.8,88.1c-1.6-0.2-3.3-0.1-4.9-0.2c-0.7,0-1.5,0-2.2,0c0,2.3,0,4.6,0,6.9c0,3.2,0,6.5,0,9.7
					c0,0.5,0.1,0.7,0.6,0.6c0.8,0,1.6,0,2.4,0c0.5,0,0.6-0.2,0.6-0.6c0-1.2,0-2.5,0-3.7c0-0.9,0-0.9,0.9-0.9c0.8,0,1.6,0,2.4-0.1
					c0.1,0,0.2,0,0.3,0c0.7-0.3,1.5-0.5,2.2-0.8l0,0c0.3-0.3,0.6-0.6,1.1-0.8l0,0c0.5-0.8,1.1-1.5,1.3-2.5
					C98.4,92.1,96.8,88.6,92.8,88.1z M94.1,94.3c-0.3,1.5-1.1,2.3-2.4,2.4c-0.6,0-1.2,0-1.9,0c-0.4,0-0.5-0.2-0.5-0.6
					c0-0.7,0-1.5,0-2.2h0c0-0.7,0-1.5,0-2.2c0-0.2,0-0.5,0.3-0.5c1.1,0,2.1-0.2,3.1,0.2C93.8,91.9,94.3,93.4,94.1,94.3z"/>
				<polygon class="st102" points="85.7,87.9 85.7,87.9 85.7,87.9 				"/>
				<polygon class="st102" points="30.8,94.9 30.8,94.9 30.8,94.9 				"/>
				<path class="st102" d="M42.6,87.9c-0.8,0-1.5,0-2.3,0c-0.4,0-0.6,0.1-0.7,0.6c-0.7,2.3-1.4,4.7-2.1,7c0,0.1-0.1,0.3-0.2,0.4
					c-0.3,1.2-0.6,2.3-1.1,3.5c-0.1-0.1-0.2-0.2-0.2-0.3c-0.7-2.3-1.4-4.5-2.1-6.8c-0.4-1.3-0.9-2.6-1.1-3.9
					c-0.2-0.3-0.5-0.5-0.9-0.4c-0.9,0-1.8,0-2.6,0c-0.5,0-0.5,0.2-0.4,0.6c0.3,0.8,0.7,1.6,0.8,2.4l0,0c0.4,1,0.8,2,1,3.1
					c0,0,0,0.1,0,0.1c0.2,0.2,0.3,0.5,0.3,0.8c0.2,0.2,0.2,0.5,0.3,0.8l0,0c0.2,0.2,0.3,0.5,0.3,0.8l0,0c0.2,0.2,0.3,0.5,0.3,0.8
					l0,0c0.4,1,0.8,2,1,3.1c0,0,0,0.1,0,0.1c0.7,1.5,1.1,3.1,1.6,4.7c1,0,1.9,0,2.9,0c0.6,0,0.6-0.4,0.7-0.8
					c0.3-0.8,0.4-1.6,0.8-2.3c0,0,0-0.1,0-0.1c0.2-0.8,0.4-1.6,0.8-2.3l0,0c0.4-1.5,0.9-2.9,1.4-4.4c0.7-2.2,1.5-4.5,2.3-6.7
					C43.5,87.9,43.5,87.9,42.6,87.9z"/>
				<path class="st102" d="M34.3,105.3C34.3,105.2,34.3,105.2,34.3,105.3L34.3,105.3L34.3,105.3z"/>
				<path class="st102" d="M47.9,67.2c0.6,0,0.9,0.1,0.8,0.8c0,0.2,0,0.4,0,0.6c0,4.4,0,8.7,0,13.1c0,0.6,0.2,0.8,0.8,0.7
					c0.8-0.1,1.6,0,2.4,0c0.6,0,0.8-0.1,0.8-0.7c0-2.3,0-4.6,0-6.9h0c0-2.3,0-4.5,0-6.8c0-0.6,0.2-0.9,0.9-0.9c1.1,0.1,2.2,0,3.2,0
					c0.5,0,0.7-0.2,0.6-0.6c0-0.8,0-1.6,0-2.4c0-0.5-0.1-0.7-0.6-0.7c-4.1,0-8.2,0-12.3,0c-0.4,0-0.6,0.1-0.6,0.6c0,0.8,0,1.7,0,2.5
					c0,0.5,0.2,0.6,0.6,0.6C45.7,67.2,46.8,67.2,47.9,67.2z"/>
				<path class="st102" d="M156.9,88.3c0-0.4-0.4-0.3-0.7-0.3c-2.7,0-5.5,0-8.2,0c-0.9,0-1.9,0-2.8,0c-0.5,0-0.7,0.2-0.6,0.6
					c0.1,0.9-0.2,1.9,0.2,2.8c1,0,2,0,3,0c1.4,0,1.2-0.1,1.2,1.1c0,4,0,8,0,12c0,0.5,0.1,0.8,0.7,0.7c0.7,0,1.3,0,2,0
					c0.8,0,0.9,0,0.9-0.8c0-4.1,0-8.3,0-12.4c0-0.5,0.1-0.7,0.6-0.7c1.2,0,2.4,0,3.6,0C157,90.3,156.8,89.3,156.9,88.3z"/>
				<path class="st102" d="M27.4,101.8c-2.1-0.1-4.2-0.1-6.4,0c-0.5,0-0.6-0.1-0.6-0.6c0-0.8,0-1.6,0-2.5c0-0.5,0.2-0.6,0.6-0.6
					c1.8,0,3.5,0,5.3,0c0.5,0,0.7-0.1,0.7-0.7c0-0.7,0-1.4,0-2.1c0-0.5-0.2-0.7-0.7-0.7c-1.5,0-2.9,0-4.4,0c-1.6,0-1.6,0-1.6-1.6
					c0-0.6-0.2-1.3,0.1-1.9c0.1,0,0.2-0.1,0.4-0.1c2,0,4,0,6,0c0.1,0,0.2,0.1,0.4,0.1c0.2-0.1,0.4,0,0.6-0.1c0-0.9,0-1.8,0-2.6
					c0-0.5-0.1-0.7-0.7-0.7c-2.7,0-5.4,0-8.1,0c-0.8,0-1.6,0-2.4,0c0,0.4,0,0.7,0,1.1c0,5.2,0,10.4,0,15.6c0,0.5,0.2,0.7,0.7,0.7
					c1.3,0,2.6,0,3.8,0c2,0,4.1,0,6.1,0c0.3,0,0.7,0.1,0.7-0.5c0-0.7,0-1.5,0-2.2C28.1,102,27.9,101.9,27.4,101.8z"/>
				<path class="st102" d="M143,78.8c-0.3-0.2-0.6-0.1-0.9-0.1c-1.9,0-3.9,0-5.8,0c-0.6,0-0.8-0.1-0.8-0.8c0-4.6,0-9.1,0-13.7
					c0-0.6-0.2-0.8-0.8-0.8c-1,0-1.9,0-2.9,0c-0.1,0-0.2,0-0.2,0c0,0.3-0.1,0.6-0.1,0.9c0,5.8,0,11.5,0,17.3c0,0.7,0,0.8,0.8,0.6
					c-0.1-0.1-0.2-0.2-0.3-0.3c0.1,0.1,0.2,0.2,0.3,0.3c3.5,0,7.1,0,10.6,0c0.4-0.3,0-0.8,0.2-1.1c0-0.2,0-0.3,0-0.5
					C143,80.1,143.3,79.5,143,78.8z M134.6,63.8c0.1,0,0.2,0,0.3,0C134.8,63.8,134.7,63.8,134.6,63.8z M135.3,64.3
					c0,0.1,0,0.1,0,0.2C135.3,64.4,135.3,64.3,135.3,64.3z M136.2,79.2c0.1,0,0.2,0,0.2-0.1C136.3,79.1,136.2,79.2,136.2,79.2z
					 M143,80.7c0-0.1,0-0.2,0-0.3C143,80.5,143,80.6,143,80.7z"/>
				<path class="st102" d="M7.6,82.6c3-0.2,5.4-1.9,5.7-5.2c0.2-2.2-1-4.3-3-5.2c-0.3-0.3-0.6-0.5-1-0.5l0,0c-0.5-0.4-1-0.5-1.6-0.8
					c-0.9-0.4-1.7-0.7-2.5-1.4c-0.8-0.7-0.5-2.1,0.4-2.5c1-0.4,1.9-0.3,2.9,0.1c0.5,0.2,1,0.5,1.5,0.7c0.7,0.7,0.8,0.7,1.3-0.1
					c0.4-0.6,0.8-1.2,1.3-1.8c0.4-0.5,0.3-0.7-0.1-1c-2.1-1.6-4.5-2.2-7.2-1.7C2.5,64,1,65.7,0.7,68.4c-0.3,2.3,1.1,4.5,3.4,5.5
					c1.4,0.6,2.9,1.1,4.2,1.9c0.8,0.4,1.2,1.1,1,1.8c-0.1,0.8-0.7,1.3-1.4,1.5c-0.5,0.1-1.1,0.1-1.6,0.1c-1.4-0.2-2.5-0.9-3.5-1.7
					C2.3,77,2.1,77,1.8,77.4c-0.4,0.6-0.9,1.2-1.4,1.7c-0.6,0.7-0.6,0.7,0.1,1.3C2.6,82.1,4.9,82.8,7.6,82.6z"/>
				<path class="st102" d="M55.9,102.5c0-0.5-0.2-0.6-0.6-0.6c-2.1,0-4.2-0.1-6.3,0c-0.6,0-0.8-0.2-0.7-0.8c0-0.8,0-1.6,0-2.4
					c0-0.5,0.1-0.7,0.6-0.7c1.8,0,3.6,0,5.4,0c0.5,0,0.7-0.2,0.7-0.6c0-0.7,0-1.3,0-2c0-0.6-0.2-0.7-0.7-0.7c-1.8,0-3.5,0-5.3,0
					c-0.5,0-0.6-0.2-0.6-0.6c0-0.8,0-1.5,0-2.3c0-0.6,0.2-0.8,0.8-0.8c2,0,4.1,0,6.1,0c0.5,0,0.7-0.2,0.7-0.7c0-0.7,0-1.4,0-2.1
					c0-0.4-0.1-0.6-0.6-0.6c-3.3,0-6.6,0-9.9,0c-0.5,0-0.6,0.2-0.6,0.7c0,2.7,0,5.3,0,8h0c0,2.6,0,5.3,0,7.9c0,0.6,0.2,0.8,0.8,0.8
					c2.2,0,4.5,0,6.7,0c1,0,2.1,0,3.1,0c0.5,0,0.8-0.1,0.7-0.7C55.8,103.8,55.9,103.2,55.9,102.5z"/>
				<path class="st102" d="M67.5,101.8c-1.7,0-3.4,0-5.1,0c-1.3,0-1.1,0.2-1.1-1.1c0-4.1,0-8.1,0-12.2c0-0.5-0.1-0.7-0.7-0.7
					c-0.7,0-1.5,0.1-2.2,0c-0.6,0-0.8,0.2-0.8,0.8c0,2.6,0,5.3,0,7.9c0,2.6,0,5.3,0,7.9c0,0.4,0,0.7,0.6,0.7c3.1,0,6.3,0,9.4,0
					c0.5,0,0.6-0.2,0.6-0.6c0-0.7,0-1.3,0-2C68.3,102,68.1,101.8,67.5,101.8z"/>
				<path class="st102" d="M74.4,69.9c0,3.9,0,7.9,0,11.8c0,0.5,0.1,0.7,0.6,0.7c0.9-0.1,1.8,0,2.7,0c0.5,0,0.6-0.2,0.6-0.6
					c0-2.9,0-5.8,0-8.7h0c0-2.9,0-5.8,0-8.7c0-0.5-0.2-0.7-0.7-0.7c-0.8,0-1.7,0-2.5,0c-0.6,0-0.8,0.2-0.8,0.8
					C74.4,66.2,74.4,68,74.4,69.9z"/>
			</g>
		</g>
	</g>
</g>
</svg>
