<?xml version="1.0" encoding="utf-8"?>
<!-- Generator: Adobe Illustrator 21.0.0, SVG Export Plug-In . SVG Version: 6.00 Build 0)  -->
<svg version="1.1" id="Layer_1" xmlns="http://www.w3.org/2000/svg" xmlns:xlink="http://www.w3.org/1999/xlink" x="0px" y="0px"
	 viewBox="0 0 1922.7 1096.5" style="enable-background:new 0 0 1922.7 1096.5;" xml:space="preserve">
<style type="text/css">
	.st0{fill:#FFFFFF;}
	.st1{fill:none;stroke:#ABAAAA;stroke-miterlimit:10;}
	.st2{fill:#C5202E;}
	.st3{fill:#FFFAF9;}
	.st4{fill:#FFFCFD;}
	.st5{fill:#FDC010;}
	.st6{fill:#E4253C;}
	.st7{fill:#FFFFFD;}
	.st8{fill:#29A74A;}
	.st9{fill:#4CA046;}
	.st10{fill:#FDFEFD;}
	.st11{fill:#DEA73A;}
	.st12{fill:#DC3746;}
	.st13{fill:#18496B;}
	.st14{fill:#FAFCFE;}
	.st15{fill:#01699E;}
	.st16{fill:#FDFEFF;}
	.st17{fill:#F8FAFB;}
	.st18{fill:#F7F9FA;}
	.st19{fill:#F7F7FA;}
	.st20{fill:#F6F7F9;}
	.st21{fill:#A7B1CA;}
	.st22{fill:#5CBA47;}
	.st23{fill:#FDFEFC;}
	.st24{fill:#F26A2C;}
	.st25{fill:#1C97D4;}
	.st26{fill:#FAFDFF;}
	.st27{fill-rule:evenodd;clip-rule:evenodd;fill:#E0E0DF;}
	.st28{fill:#DD1768;}
	.st29{fill:#FFFBFD;}
	.st30{fill:#BF8B2C;}
	.st31{fill:#F99D29;}
	.st32{fill:#FFFCFA;}
	.st33{fill:#407F44;}
	.st34{fill:#29BEE2;}
	.st35{fill:#FAC315;}
	.st36{fill:#FFFCF8;}
	.st37{fill:#FFFFFC;}
	.st38{fill:#FFFCF7;}
	.st39{fill:#EF402C;}
	.st40{fill:#A21C44;}
	.st41{fill:none;stroke:#454545;stroke-miterlimit:10;}
	.st42{fill:#13212E;}
	.st43{font-family:'Roboto-Regular';}
	.st44{font-size:12.7243px;}
</style>
<path class="st41" d="M890.3,624.7h-88.1c-2.5,0-4.6-2.1-4.6-4.6v-10.9c0-2.5,2.1-4.6,4.6-4.6h88.1c2.5,0,4.6,2.1,4.6,4.6v10.9
	C894.9,622.7,892.8,624.7,890.3,624.7z"/>
<g>
	<g>
		<text transform="matrix(1 0 0 1 812.2747 618.4082)" class="st42 st43 st44">Back to SDGs</text>
	</g>
	<g>
		<g>
			<g>
				<path class="st42" d="M804.9,614.4c0.1,0,0.1,0,0.2,0c1.3,0,2.6,0,3.9,0c0.2,0,0.2,0,0.2,0.2c0,0.4,0,0.4-0.5,0.4
					c-1.2,0-2.4,0-3.6,0c-0.1,0-0.1,0-0.2,0c0,0.1,0.1,0.1,0.1,0.1c0.6,0.4,1.1,0.9,1.7,1.3c0.1,0.1,0.1,0.1,0,0.2
					c-0.1,0.1-0.2,0.3-0.4,0.3c-0.1,0-0.3-0.2-0.4-0.3c-0.8-0.6-1.6-1.2-2.3-1.8c-0.1-0.1-0.1-0.1,0-0.2c0.9-0.7,1.7-1.3,2.6-2
					c0.1-0.1,0.2-0.1,0.3,0c0.1,0.1,0.2,0.1,0.3,0.2c0.1,0.1,0.1,0.1,0,0.2c-0.6,0.4-1.1,0.9-1.7,1.3
					C805,614.3,804.9,614.3,804.9,614.4z"/>
			</g>
		</g>
	</g>
</g>
</svg>
