<?xml version="1.0" encoding="utf-8"?>
<!-- Generator: Adobe Illustrator 21.0.0, SVG Export Plug-In . SVG Version: 6.00 Build 0)  -->
<svg version="1.1" id="Layer_1" xmlns="http://www.w3.org/2000/svg" xmlns:xlink="http://www.w3.org/1999/xlink" x="0px" y="0px"
	 viewBox="0 0 1111.2 878.5" style="enable-background:new 0 0 1111.2 878.5;" xml:space="preserve">
<style type="text/css">
	.st0{fill:#E82130;}
	.st1{fill:#FFFFFF;}
	.st2{fill:#D3A12A;}
	.st3{fill:#289B48;}
	.st4{fill:#C32035;}
	.st5{fill:#EF4128;}
	.st6{fill:#00ADD8;}
	.st7{fill:#FCB615;}
	.st8{fill:#901839;}
	.st9{fill:#F36E27;}
	.st10{fill:#DF1784;}
	.st11{fill:#F99E27;}
	.st12{fill:#CE8D2A;}
	.st13{fill:#49783F;}
	.st14{fill:#0A7EBC;}
	.st15{fill:#5EBB47;}
	.st16{fill:#00568A;}
	.st17{fill:#1E3768;}
	.st18{fill:#23AB61;}
	.st19{fill:#6B72AF;}
	.st20{fill:#F29228;}
	.st21{fill:#3B97D3;}
	.st22{fill:#824992;}
	.st23{fill:#231F20;}
	.st24{fill:none;stroke:#FFFFFF;stroke-width:2;stroke-miterlimit:10;}
	.st25{opacity:0.19;}
	.st26{fill:#010101;}
	.st27{fill:#818181;}
</style>
<polygon id="XMLID_1109_" class="st9" points="265.2,552.2 253.1,617.5 245.6,657.3 330.3,657.3 320.5,604.8 310.6,552.2 "/>
<g>
	<path class="st1" d="M290.4,630.6h-6.9l6.4-8.8c-1.2,0.1-2,0.2-2.3,0.2c-2.3,0-4.2-0.8-5.8-2.5c-1.6-1.7-2.4-3.7-2.4-6.2
		c0-2.6,1-4.7,2.9-6.4c1.9-1.7,4.3-2.6,7.2-2.6c2.7,0,4.9,0.9,6.7,2.6c1.7,1.8,2.6,4,2.6,6.8c0,2-0.5,4.1-1.5,6.1s-1.9,3.5-2.6,4.5
		L290.4,630.6z M293.4,613.7c0-1.1-0.4-2.1-1.2-2.9c-0.8-0.8-1.8-1.2-2.9-1.2c-1,0-1.9,0.4-2.7,1.2s-1.1,1.8-1.1,2.9
		c0,1.1,0.4,2.1,1.1,2.8c0.8,0.8,1.7,1.2,2.8,1.2c1.1,0,2.1-0.4,2.9-1.2C293,615.7,293.4,614.8,293.4,613.7z"/>
</g>
</svg>
