<?xml version="1.0" encoding="utf-8"?>
<!-- Generator: Adobe Illustrator 21.0.0, SVG Export Plug-In . SVG Version: 6.00 Build 0)  -->
<svg version="1.1" id="Layer_1" xmlns="http://www.w3.org/2000/svg" xmlns:xlink="http://www.w3.org/1999/xlink" x="0px" y="0px"
	 viewBox="0 0 1111.2 878.5" style="enable-background:new 0 0 1111.2 878.5;" xml:space="preserve">
<style type="text/css">
	.st0{fill:#E82130;}
	.st1{fill:#FFFFFF;}
	.st2{fill:#D3A12A;}
	.st3{fill:#289B48;}
	.st4{fill:#C32035;}
	.st5{fill:#EF4128;}
	.st6{fill:#00ADD8;}
	.st7{fill:#FCB615;}
	.st8{fill:#901839;}
	.st9{fill:#F36E27;}
	.st10{fill:#DF1784;}
	.st11{fill:#F99E27;}
	.st12{fill:#CE8D2A;}
	.st13{fill:#49783F;}
	.st14{fill:#0A7EBC;}
	.st15{fill:#5EBB47;}
	.st16{fill:#00568A;}
	.st17{fill:#1E3768;}
	.st18{fill:#23AB61;}
	.st19{fill:#6B72AF;}
	.st20{fill:#F29228;}
	.st21{fill:#3B97D3;}
	.st22{fill:#824992;}
	.st23{fill:#231F20;}
	.st24{fill:none;stroke:#FFFFFF;stroke-width:2;stroke-miterlimit:10;}
	.st25{opacity:0.19;}
	.st26{fill:#010101;}
	.st27{fill:#818181;}
</style>
<polygon id="XMLID_304_" class="st3" points="410.9,354.4 505.1,307.4 453.7,239.3 401.9,296.3 382.9,317.2 "/>
<g>
	<path class="st1" d="M444,289.9h-5.2c0.2-2.4,1-4.3,2.6-5.7s3.5-2.1,5.7-2.1c2.4,0,4.5,0.7,6.2,2.1s2.5,3,2.5,5c0,2.1-1,4-3.1,5.7
		c1.3,0.8,2.3,1.7,2.9,2.6s0.9,2,0.9,3.3c0,2.4-0.8,4.4-2.4,5.8c-1.6,1.5-3.7,2.2-6.4,2.2c-2.5,0-4.5-0.7-6.1-2.1
		c-1.6-1.4-2.6-3.3-3-5.8h5.3c0.6,2.5,1.9,3.7,3.7,3.7c0.9,0,1.7-0.3,2.3-1c0.6-0.6,0.9-1.4,0.9-2.4c0-1.2-0.4-2.1-1.1-2.9
		s-1.7-1.1-2.9-1.1h-1v-4.4h0.6c1.2,0,2.2-0.3,3-0.9s1.1-1.4,1.1-2.4c0-0.9-0.3-1.7-0.9-2.3c-0.6-0.6-1.3-1-2.2-1
		C445.5,286.2,444.3,287.4,444,289.9z"/>
</g>
</svg>
