<?xml version="1.0" encoding="utf-8"?>
<!-- Generator: Adobe Illustrator 21.0.0, SVG Export Plug-In . SVG Version: 6.00 Build 0)  -->
<svg version="1.1" id="Layer_1" xmlns="http://www.w3.org/2000/svg" xmlns:xlink="http://www.w3.org/1999/xlink" x="0px" y="0px"
	 viewBox="0 0 196.5 145.1" style="enable-background:new 0 0 196.5 145.1;" xml:space="preserve">
<style type="text/css">
	.st0{fill:#FFFFFF;stroke:#ABAAAA;stroke-miterlimit:10;}
	.st1{fill:#BF8B2C;}
	.st2{fill:#C5202E;}
	.st3{fill:#FFFFFF;}
	.st4{fill:#FFFAF9;}
	.st5{fill:#FFFCFD;}
	.st6{fill:#E4253C;}
	.st7{fill:#FFFFFD;}
	.st8{fill:#29A74A;}
	.st9{fill:#4CA046;}
	.st10{fill:#FDFEFD;}
	.st11{fill:#DEA73A;}
	.st12{fill:#18496B;}
	.st13{fill:#FAFCFE;}
	.st14{fill:#01699E;}
	.st15{fill:#FDFEFF;}
	.st16{fill:#F8FAFB;}
	.st17{fill:#F7F9FA;}
	.st18{fill:#F7F7FA;}
	.st19{fill:#F6F7F9;}
	.st20{fill:#A7B1CA;}
	.st21{fill:#5CBA47;}
	.st22{fill:#FDFEFC;}
	.st23{fill:#F26A2C;}
	.st24{fill:#1C97D4;}
	.st25{fill:#FAFDFF;}
	.st26{fill:#DD1768;}
	.st27{fill:#FFFBFD;}
	.st28{fill:#F99D29;}
	.st29{fill:#FFFCFA;}
	.st30{fill:#407F44;}
	.st31{fill:#29BEE2;}
	.st32{fill:#FAC315;}
	.st33{fill:#FFFCF8;}
	.st34{fill:#FFFFFC;}
	.st35{fill:#FFFCF7;}
	.st36{fill:#EF402C;}
	.st37{fill:#A21C44;}
	.st38{fill:#DC3746;}
	.st39{fill:#FDC010;}
	.st40{fill-rule:evenodd;clip-rule:evenodd;fill:#E0E0DF;}
</style>
<rect x="141" y="1" transform="matrix(-1 -1.224647e-16 1.224647e-16 -1 338.34 145.0949)" class="st0" width="56.4" height="143.1"/>
<rect y="0.5" class="st11" width="143" height="144.1"/>
<path class="st3" d="M73.4,101.9c11,0,22,0,33.1,0c0.3,0,0.5,0,0.8,0c0.5,0.1,0.8,0.4,0.7,0.9c0,0.3-0.1,0.7-0.2,1
	c-1.3,6.2-4.2,11.6-8.8,16c-3.7,3.7-8.2,6.4-13.1,8.2c-0.1,0-0.3,0.1-0.4,0.1c-0.3,0.1-0.4,0.2-0.4,0.5c0,0.5,0,0.9,0,1.4
	c0,0.8-0.3,1.1-1.1,1.1c-4.3,0-8.5,0-12.8,0c-2.6,0-5.2,0-7.8,0c-0.1,0-0.2,0-0.3,0c-0.5,0-0.9-0.3-0.9-0.9c0-0.4,0-0.8,0-1.2
	c0-0.6,0.1-0.5-0.5-0.7c-2.4-0.8-4.8-1.8-7-3.1c-5.2-3-9.4-7.1-12.4-12.3c-1.7-3-2.8-6.1-3.5-9.5c0-0.2-0.1-0.4-0.1-0.5
	c0-0.6,0.3-0.9,0.8-0.9c0.3,0,0.5,0,0.8,0C51.5,101.9,62.4,101.9,73.4,101.9z"/>
<path class="st3" d="M87.3,99.1c0.2-0.5,0.3-1,0.4-1.5c0.3-1.7,0-3.3-0.8-4.9c-0.5-0.9-1.1-1.6-1.7-2.4c-1.5-1.7-2.6-3.7-3-5.9
	c-0.3-1.6-0.2-3.1,0.1-4.6c0.5-2.4,1.4-4.5,2.7-6.5c0.7-1.1,2.2-1.2,3.1-0.8c1.1,0.6,1.2,1.7,0.7,2.5c-1.1,1.6-1.8,3.4-2.2,5.3
	c-0.6,3,0,5.7,2.1,8.1c1.4,1.5,2.5,3.3,3,5.3c0.4,1.6,0.5,3.3,0.1,4.9c-0.1,0.5-0.1,0.5-0.6,0.5C90,99.1,88.7,99.1,87.3,99.1z"/>
<path class="st3" d="M60.5,99.1c0.1-0.5,0.3-1,0.4-1.4c0.3-1.6,0.1-3.1-0.6-4.5c-0.5-1-1.2-1.9-2-2.8c-1.5-1.7-2.5-3.6-2.9-5.8
	c-0.3-1.7-0.2-3.3,0.1-5c0.5-2.3,1.4-4.3,2.6-6.3c0.7-1.2,2.2-1.2,3.1-0.8c1.1,0.6,1.2,1.7,0.7,2.5c-1.2,1.8-2,3.8-2.3,5.9
	c-0.4,2.7,0.2,5.2,2.1,7.2c1.3,1.4,2.3,2.9,3,4.8c0.7,1.9,0.7,3.7,0.3,5.7c-0.1,0.5-0.1,0.5-0.6,0.5c-1.2,0-2.3,0-3.5,0
	C60.8,99.1,60.7,99.1,60.5,99.1z"/>
<path class="st3" d="M74,99.1c-0.1-0.2,0-0.3,0.1-0.4c0.7-1.9,0.5-3.7-0.3-5.5c-0.5-1-1.2-1.9-2-2.8c-1.1-1.2-2-2.6-2.5-4.2
	c-0.7-2.2-0.8-4.4-0.3-6.6c0.5-2.3,1.4-4.3,2.6-6.3c0.7-1.1,2.2-1.2,3-0.8c0.8,0.4,1.4,1.4,0.7,2.6c-1.2,1.9-2.1,4-2.3,6.3
	c-0.3,2.6,0.4,4.9,2.1,6.8c0.8,0.9,1.6,1.9,2.2,3c0.9,1.7,1.4,3.5,1.3,5.5c0,0.7-0.1,1.4-0.3,2.1c0,0.2-0.1,0.3-0.3,0.3
	C76.7,99.1,75.4,99.2,74,99.1C74,99.1,74,99.1,74,99.1z"/>
<g>
	<g>
		<path class="st3" d="M13.4,33.8v-3.5l5-9c0.1-0.2,0.3-0.4,0.5-0.9s0.4-0.7,0.5-1c0.1-0.2,0.3-0.5,0.5-0.9c0.2-0.4,0.3-0.7,0.4-1
			s0.2-0.6,0.3-1c0.1-0.4,0.1-0.7,0.1-1.1c0-0.8-0.1-1.3-0.4-1.7c-0.2-0.3-0.5-0.4-0.9-0.4c-0.1,0-0.2,0-0.3,0
			c-0.5,0.1-0.9,0.4-1.1,0.9s-0.4,1.3-0.4,2.4v1.2h-4.2v-1.3c0-1.1,0.1-2.1,0.3-3c0.2-0.9,0.6-1.7,1-2.4c0.5-0.7,1.1-1.2,1.8-1.6
			c0.8-0.4,1.7-0.6,2.7-0.6c1.9,0,3.3,0.6,4.3,1.7c1,1.1,1.5,2.7,1.5,4.8c0,0.3,0,0.6-0.1,0.9c0,0.3-0.1,0.6-0.1,0.8
			c0,0.3-0.1,0.5-0.2,0.8c-0.1,0.3-0.2,0.6-0.2,0.8c-0.1,0.2-0.2,0.4-0.3,0.8c-0.2,0.3-0.3,0.6-0.3,0.7c-0.1,0.1-0.2,0.4-0.4,0.7
			c-0.2,0.3-0.3,0.6-0.4,0.7c-0.1,0.1-0.2,0.3-0.4,0.7c-0.2,0.4-0.4,0.6-0.4,0.7l-3.9,6.6h6.1v3.9H13.4z"/>
	</g>
</g>
<g>
	<g>
		<path class="st3" d="M33.1,21.7v-1.5l2.7-8.1h-2.6v-1.7h5.1v1.4L35.5,20h2.8v1.7H33.1z"/>
		<path class="st3" d="M39.5,21.7V10.3h5.1V12H42v2.8h2v1.7h-2V20h2.6v1.7H39.5z"/>
		<path class="st3" d="M45.8,21.7V10.3h3.1c0.5,0,0.9,0,1.3,0.1s0.7,0.2,1,0.3s0.6,0.3,0.8,0.5s0.4,0.5,0.5,0.9s0.2,0.8,0.2,1.2
			c0,0.7-0.1,1.3-0.3,1.8s-0.6,0.8-1.1,1.1l1.6,5.5h-2.6L49,16.6h-0.7v5.1H45.8z M48.3,15.1h0.6c0.5,0,0.9-0.1,1.1-0.4
			c0.2-0.3,0.3-0.7,0.3-1.2c0-0.5-0.1-0.9-0.3-1.2c-0.2-0.3-0.5-0.4-1-0.4h-0.8V15.1z"/>
		<path class="st3" d="M57.4,21.8c-0.6,0-1.2-0.1-1.6-0.2c-0.4-0.2-0.8-0.4-1.1-0.7c-0.3-0.3-0.5-0.7-0.6-1.2
			c-0.1-0.4-0.2-1-0.2-1.6v-4.2c0-0.6,0.1-1.1,0.2-1.6c0.1-0.4,0.3-0.8,0.6-1.2s0.6-0.6,1.1-0.7s1-0.2,1.6-0.2
			c1.2,0,2.1,0.3,2.6,0.9c0.5,0.6,0.8,1.6,0.8,2.8v4.2c0,1.2-0.3,2.2-0.8,2.8C59.5,21.5,58.6,21.8,57.4,21.8z M57,20
			c0.1,0.1,0.2,0.1,0.4,0.1c0.1,0,0.3,0,0.4-0.1c0.1-0.1,0.2-0.1,0.3-0.2c0.1-0.1,0.1-0.2,0.1-0.3c0-0.1,0.1-0.2,0.1-0.4
			c0-0.1,0-0.2,0-0.4v-5.4c0-0.2,0-0.3,0-0.4c0-0.1,0-0.2-0.1-0.4c0-0.1-0.1-0.2-0.1-0.3c-0.1-0.1-0.1-0.1-0.3-0.2
			c-0.1-0.1-0.2-0.1-0.4-0.1c-0.2,0-0.3,0-0.4,0.1c-0.1,0.1-0.2,0.1-0.2,0.2c-0.1,0.1-0.1,0.2-0.1,0.3c0,0.1-0.1,0.2-0.1,0.4
			s0,0.2,0,0.4v5.4c0,0.2,0,0.3,0,0.4c0,0.1,0,0.2,0.1,0.4c0,0.1,0.1,0.2,0.1,0.3C56.8,19.8,56.9,19.9,57,20z"/>
		<path class="st3" d="M33.6,38.5V27.1h2.5v4.6h1.7v-4.6h2.5v11.3h-2.5v-5h-1.7v5H33.6z"/>
		<path class="st3" d="M45.3,38.6c-0.5,0-1-0.1-1.3-0.2c-0.4-0.1-0.7-0.3-1-0.5c-0.3-0.2-0.5-0.5-0.6-0.8c-0.2-0.3-0.3-0.7-0.3-1
			c-0.1-0.4-0.1-0.8-0.1-1.3v-7.8h2.5v8.1c0,0.2,0,0.3,0,0.5c0,0.1,0,0.3,0.1,0.4s0.1,0.3,0.1,0.4c0.1,0.1,0.1,0.2,0.3,0.2
			c0.1,0.1,0.2,0.1,0.4,0.1c0.2,0,0.3,0,0.4-0.1c0.1-0.1,0.2-0.1,0.3-0.2c0.1-0.1,0.1-0.2,0.1-0.4c0-0.1,0.1-0.3,0.1-0.4
			c0-0.1,0-0.3,0-0.5v-8.1h2.5v7.8c0,0.6-0.1,1.2-0.2,1.6s-0.3,0.8-0.5,1.2s-0.6,0.6-1,0.7C46.5,38.5,45.9,38.6,45.3,38.6z"/>
		<path class="st3" d="M50.2,38.5V27.1H52l2.3,5.4v-5.4h2.1v11.3h-1.7l-2.3-5.9v5.9H50.2z"/>
		<path class="st3" d="M61,38.6c-0.6,0-1.1-0.1-1.5-0.3c-0.4-0.2-0.7-0.5-1-0.8s-0.4-0.8-0.5-1.2c-0.1-0.5-0.2-1-0.2-1.6v-3.8
			c0-0.5,0-1,0.1-1.3c0.1-0.4,0.2-0.8,0.3-1.1s0.4-0.6,0.6-0.8s0.6-0.4,1-0.5c0.4-0.1,0.8-0.2,1.3-0.2c0.5,0,0.9,0.1,1.3,0.2
			c0.4,0.1,0.7,0.3,0.9,0.4c0.3,0.2,0.5,0.4,0.6,0.7c0.2,0.3,0.3,0.6,0.3,0.9c0.1,0.3,0.1,0.7,0.1,1.1V31h-2.4v-0.9
			c0-0.2,0-0.3,0-0.4s0-0.2-0.1-0.4c0-0.1-0.1-0.2-0.1-0.3s-0.1-0.1-0.2-0.2c-0.1-0.1-0.2-0.1-0.4-0.1c-0.2,0-0.3,0-0.4,0.1
			S60.7,29,60.6,29c-0.1,0.1-0.1,0.2-0.1,0.3s-0.1,0.3-0.1,0.4c0,0.1,0,0.3,0,0.4v5.2c0,0.5,0.1,0.8,0.2,1.1
			c0.1,0.3,0.4,0.4,0.7,0.4c0.7,0,1-0.5,1-1.5v-1.3h-1v-1.5h3.3v5.9H63l-0.1-1C62.5,38.2,61.9,38.6,61,38.6z"/>
		<path class="st3" d="M66.2,38.5V27.1h5.1v1.7h-2.6v2.8h2v1.7h-2v3.4h2.6v1.7H66.2z"/>
		<path class="st3" d="M72.4,38.5V27.1h3.1c0.5,0,0.9,0,1.3,0.1s0.7,0.2,1,0.3s0.6,0.3,0.8,0.5s0.4,0.5,0.5,0.9s0.2,0.8,0.2,1.2
			c0,0.7-0.1,1.3-0.3,1.8c-0.2,0.5-0.6,0.8-1.1,1.1l1.6,5.5h-2.6l-1.2-5.1h-0.7v5.1H72.4z M74.9,31.9h0.6c0.5,0,0.9-0.1,1.1-0.4
			c0.2-0.3,0.3-0.7,0.3-1.2c0-0.5-0.1-0.9-0.3-1.2c-0.2-0.3-0.5-0.4-1-0.4h-0.8V31.9z"/>
	</g>
</g>
<g>
	<g>
		<rect x="165.4" y="67.1" class="st8" width="7.1" height="29.7"/>
	</g>
	<g>
		<g>
			<polygon class="st8" points="182,70.9 168.9,48.3 155.9,70.9 			"/>
		</g>
	</g>
</g>
</svg>
