<?xml version="1.0" encoding="utf-8"?>
<!-- Generator: Adobe Illustrator 21.0.0, SVG Export Plug-In . SVG Version: 6.00 Build 0)  -->
<svg version="1.1" xmlns="http://www.w3.org/2000/svg" xmlns:xlink="http://www.w3.org/1999/xlink" x="0px" y="0px"
	 viewBox="0 0 199.9 201.4" style="enable-background:new 0 0 199.9 201.4;" xml:space="preserve">
<style type="text/css">
	.st0{fill:#303030;}
	.st1{fill:#F4F4F4;}
	.st2{fill:#FCFCFC;}
	.st3{fill:#EEF7F9;}
	.st4{fill:#376699;}
	.st5{fill:#080808;}
	.st6{fill:#2A5A8E;}
	.st7{fill:#F5FBFB;}
	.st8{fill:#155DAC;}
	.st9{fill:#165EAC;}
	.st10{fill:#155EAC;}
	.st11{fill:#F8FBFC;}
	.st12{fill:#F1F8F9;}
	.st13{fill:#F2F9FA;}
	.st14{fill:#2B619E;}
	.st15{fill:#1E5FA6;}
	.st16{fill:#165EAB;}
	.st17{fill:#FDFDFD;}
	.st18{fill:#1A5EA9;}
	.st19{fill:#D9D9D9;}
	.st20{fill:#DDDDDD;}
	.st21{fill:none;stroke:#ADADAD;stroke-miterlimit:10;}
	.st22{fill:#FFFFFF;}
	.st23{fill:#DC3545;}
	.st24{fill:#FCFDFC;}
	.st25{fill:#F2CD41;}
	.st26{fill:none;stroke:#A3A3A3;stroke-miterlimit:10;}
	.st27{fill:#28A745;}
	.st28{fill:none;stroke:#28A745;stroke-width:6;stroke-miterlimit:10;}
	.st29{fill:#F5682D;}
	.st30{fill:none;stroke:#F2CD41;stroke-width:6;stroke-miterlimit:10;}
	.st31{fill-rule:evenodd;clip-rule:evenodd;fill:#DFDFDF;}
	.st32{fill:none;stroke:#C4C4C4;stroke-miterlimit:10;}
	.st33{fill:#FFFFFC;}
	.st34{fill:#FFFDFD;}
	.st35{fill:#FFFAF9;}
	.st36{fill:#FFFCFC;}
	.st37{fill:#ED2F24;}
	.st38{fill:#FFFCF8;}
	.st39{fill:#FFFFFB;}
	.st40{fill:#FFFCF7;}
	.st41{fill:#FFFBFC;}
	.st42{fill:#FFFCFA;}
	.st43{fill:#FCFDFF;}
	.st44{fill:#F9F9FA;}
	.st45{fill:#FAFBFD;}
	.st46{fill:#F7F9FA;}
	.st47{fill:#F7F7FA;}
	.st48{fill:#F6F7F9;}
	.st49{fill:#A7B0CA;}
	.st50{fill:#03558A;}
	.st51{fill:#DFDFDF;}
	.st52{fill:#FAFDFF;}
	.st53{fill:#FCFDFB;}
	.st54{fill:none;stroke:#AAAAAA;stroke-miterlimit:10;}
	.st55{fill:none;stroke:#F2CD41;stroke-width:4;stroke-miterlimit:10;}
	.st56{fill:none;stroke:#28A745;stroke-width:4;stroke-miterlimit:10;}
	.st57{fill:none;stroke:#DC3545;stroke-width:4;stroke-miterlimit:10;}
	.st58{fill:none;stroke:#F5682D;stroke-width:4;stroke-miterlimit:10;}
	.st59{font-family:'Anton-Regular';}
	.st60{font-size:59.6747px;}
	.st61{font-size:26.0767px;}
	.st62{opacity:0.19;}
	.st63{fill:#279B48;}
	.st64{fill:#C32034;}
	.st65{fill:#EF412A;}
	.st66{fill:#FDB715;}
	.st67{fill:#8F1839;}
	.st68{fill:#F36D26;}
	.st69{fill:#F99E27;}
	.st70{fill:#CE8D2A;}
	.st71{fill:#48773F;}
	.st72{fill:#5EBB47;}
	.st73{fill:#00558B;}
	.st74{fill:#1E3768;}
	.st75{fill:#047DBC;}
	.st76{fill:#E01684;}
	.st77{fill:#00AED8;}
	.st78{fill:#D3A12A;}
	.st79{fill:#EA1E2F;}
	.st80{fill:#23AA61;}
	.st81{fill:#6A71AF;}
	.st82{fill:#F29228;}
	.st83{fill:#3897D3;}
	.st84{fill:#814891;}
	.st85{fill:none;stroke:#FFFFFF;stroke-width:2;stroke-miterlimit:10;}
	.st86{fill:#E5243B;}
	.st87{fill:#DDA63A;}
	.st88{fill:#4C9F38;}
	.st89{fill:#C5192D;}
	.st90{fill:#FF3A21;}
	.st91{fill:#26BDE2;}
	.st92{fill:#FCC30B;}
	.st93{fill:#A21942;}
	.st94{fill:#FD6925;}
	.st95{fill:#DD1367;}
	.st96{fill:#FD9D24;}
	.st97{fill:#BF8B2E;}
	.st98{fill:#3F7E44;}
	.st99{fill:#0A97D9;}
	.st100{fill:#56C02B;}
	.st101{fill:#00689D;}
	.st102{fill:#19486A;}
	.st103{fill:#207A46;}
	.st104{fill-rule:evenodd;clip-rule:evenodd;fill:#4BA048;stroke:#282828;stroke-width:2;stroke-miterlimit:22.9256;}
	.st105{fill-rule:evenodd;clip-rule:evenodd;fill:#F2CD41;stroke:#282828;stroke-width:2;stroke-miterlimit:10;}
	.st106{fill-rule:evenodd;clip-rule:evenodd;fill:#DFDFDF;stroke:#282828;stroke-width:2;stroke-miterlimit:10;}
	.st107{fill-rule:evenodd;clip-rule:evenodd;fill:#DC3545;stroke:#282828;stroke-width:2;stroke-miterlimit:10;}
	.st108{fill-rule:evenodd;clip-rule:evenodd;fill:#F5682D;stroke:#282828;stroke-width:2;stroke-miterlimit:10;}
	.st109{fill:#878787;}
	.st110{fill:#444444;}
	.st111{fill:#4BA048;}
	.st112{fill:#24BFE6;}
	.st113{fill:#01ACD7;}
	.st114{fill:#FAA028;}
	.st115{fill:#F89E2A;}
	.st116{fill:#F89F2B;}
	.st117{fill:#F89D29;}
	.st118{fill:#F89D28;}
	.st119{fill:#1E96D4;}
	.st120{fill:#067DBA;}
	.st121{fill:#174A6D;}
	.st122{fill:#203767;}
	.st123{fill:#213868;}
	.st124{fill:#15699F;}
	.st125{fill:#61BD45;}
	.st126{fill:#438145;}
	.st127{fill:#45794E;}
	.st128{fill:#46794E;}
	.st129{fill:#497B50;}
	.st130{fill:#4B7C52;}
	.st131{fill:#4C7D52;}
	.st132{fill:#4D7E54;}
	.st133{fill:#C89930;}
	.st134{fill:#DE1667;}
	.st135{fill:#F16B2D;}
	.st136{fill:#F16B2C;}
	.st137{fill:#A61B45;}
	.st138{fill:#FBC51A;}
	.st139{fill:#FAC417;}
	.st140{fill:#F9C315;}
	.st141{fill:#ED2540;}
	.st142{fill:#E6B733;}
	.st143{fill:#C92330;}
	.st144{fill:#EE432B;}
	.st145{fill:#ED3724;}
	.st146{fill:#ED2C24;}
	.st147{fill:#ED2924;}
	.st148{fill:#EE3F2B;}
	.st149{opacity:0.8;clip-path:url(#SVGID_6_);}
	.st150{fill:#2C6829;}
	.st151{fill:none;stroke:#11212E;stroke-miterlimit:10;}
	.st152{fill:#11212E;}
	.st153{fill:none;stroke:#444444;stroke-miterlimit:10;}
	.st154{fill:none;}
	.st155{fill:none;stroke:#9B9B9B;stroke-miterlimit:10;}
	.st156{fill:none;stroke:#8E8E8E;stroke-miterlimit:10;}
	.st157{fill:none;stroke:#11212E;stroke-width:3;stroke-linecap:round;stroke-linejoin:round;stroke-miterlimit:10;}
	.st158{fill:#FFFFFF;stroke:#777777;stroke-miterlimit:10;}
	.st159{fill:#FFFFFF;stroke:#5B5B5B;stroke-miterlimit:10;}
	.st160{fill:none;stroke:#AFAFAF;stroke-miterlimit:10;}
	.st161{fill:#262626;}
	.st162{fill:none;stroke:#5B5B5B;stroke-linecap:round;stroke-linejoin:round;}
	.st163{fill:#5B5B5B;}
	.st164{fill:#353535;}
	.st165{opacity:0.8;clip-path:url(#SVGID_10_);}
</style>
<g id="_x7B_ref_x7D_">
</g>
<g id="Layer_2">
	<g>
		<path class="st34" d="M134.4,157.5c0,9.8,0,19.5,0,29.3c0,1.3-0.2,1.5-1.5,1.5c-5.1,0-10.3,0-15.4,0c-0.2,0-0.4,0-0.6,0
			c-0.5,0-0.8-0.4-0.8-0.9c0-0.2,0-0.3,0-0.5c0-14,0-28.1,0-42.1c0-1.1,0.4-1.9,1.1-2.6c5.2-4.9,10.3-9.8,15.5-14.7
			c0.2-0.2,0.4-0.4,0.7-0.6c0.5-0.3,0.9-0.2,1,0.4c0.1,0.3,0,0.5,0,0.8C134.4,137.9,134.4,147.7,134.4,157.5z"/>
		<path class="st34" d="M111.5,168.7c0,6.1,0,12.1,0,18.2c0,0.2,0,0.4,0,0.5c0,0.5-0.4,0.8-0.9,0.9c-0.2,0-0.3,0-0.5,0
			c-5.2,0-10.4,0-15.6,0c-0.2,0-0.3,0-0.5,0c-0.5,0-0.8-0.3-0.9-0.9c0-0.2,0-0.3,0-0.5c0-12,0-24,0-35.9c0-0.3,0-0.6,0.1-0.9
			c0.1-0.4,0.4-0.5,0.8-0.3c0.3,0.1,0.5,0.4,0.8,0.6c2.2,2.2,4.4,4.5,6.6,6.7c0.1,0.1,0.2,0.2,0.3,0.3c0.2,0.2,0.4,0.2,0.6,0
			c0.1-0.1,0.2-0.2,0.3-0.3c2.4-2.4,4.8-4.9,7.2-7.3c0.2-0.2,0.4-0.4,0.7-0.6c0.5-0.3,0.9-0.1,1,0.5c0,0.2,0,0.4,0,0.6
			C111.5,156.5,111.5,162.6,111.5,168.7z"/>
		<path class="st36" d="M133.9,118.8c-0.3,0.1-0.5,0.4-0.7,0.6c-10.1,10.1-20.3,20.3-30.4,30.4c-0.8,0.8-0.7,0.8-1.5,0
			c-3.9-3.9-7.9-7.9-11.8-11.8c-0.5-0.5-0.5-0.5-1,0c-6.4,6.4-12.9,12.9-19.3,19.3c-0.1,0.1-0.2,0.3-0.4,0.4c-0.3,0.3-0.4,0.3-0.7,0
			c-1.1-1.1-2.2-2.2-3.3-3.3c-0.3-0.3-0.3-0.5,0.1-0.9c1.5-1.5,2.9-2.9,4.4-4.4c6.4-6.4,12.7-12.7,19.1-19.1c0.6-0.6,0.6-0.6,1.3,0
			c3.9,3.9,7.8,7.8,11.7,11.7c0.2,0.2,0.4,0.5,0.6,0.7c9.3-9.3,18.5-18.5,27.8-27.8c-0.4-0.4-0.9-0.9-1.4-1.4
			c-0.5-0.5-0.9-0.9-1.4-1.4c-0.4-0.4-0.3-0.8,0.3-0.9c4-0.9,8-1.8,12-2.7c0.9-0.2,1.1,0,0.9,0.9c-0.6,2.7-1.2,5.5-1.8,8.2
			c-0.3,1.3-0.5,2.6-0.8,3.8c-0.1,0.7-0.5,0.7-1,0.3C135.7,120.7,134.8,119.7,133.9,118.8z"/>
		<path class="st22" d="M88.3,167.4c0,6.5,0,12.9,0,19.4c0,0.2,0,0.4,0,0.7c-0.1,0.5-0.4,0.8-0.9,0.8c-0.2,0-0.3,0-0.5,0
			c-5.2,0-10.4,0-15.7,0c-0.2,0-0.3,0-0.5,0c-0.5,0-0.8-0.3-0.9-0.8c0-0.2,0-0.4,0-0.6c0-7.4,0-14.7,0-22.1c0-1.2,0.4-2.1,1.2-2.9
			c5.2-4.9,10.4-9.9,15.6-14.8c0.2-0.2,0.4-0.4,0.7-0.5c0.4-0.2,0.6-0.1,0.8,0.2c0.2,0.3,0.1,0.6,0.1,0.9c0,3.3,0,6.6,0,9.9
			C88.3,161,88.3,164.2,88.3,167.4z"/>
	</g>
	<g>
		<text transform="matrix(0.872 0 0 1 9.7393 67.5697)" class="st22 st59 st60">8</text>
	</g>
	<g>
		<text transform="matrix(0.9978 0 0 1 44.2285 38.0434)"><tspan x="0" y="0" class="st22 st59 st61">Decent Work</tspan><tspan x="0" y="31.3" class="st22 st59 st61">and Economic </tspan><tspan x="0" y="62.6" class="st22 st59 st61">Growth</tspan></text>
	</g>
</g>
</svg>
