<?xml version="1.0" encoding="utf-8"?>
<!-- Generator: Adobe Illustrator 21.0.0, SVG Export Plug-In . SVG Version: 6.00 Build 0)  -->
<svg version="1.1" xmlns="http://www.w3.org/2000/svg" xmlns:xlink="http://www.w3.org/1999/xlink" x="0px" y="0px"
	 viewBox="0 0 199.9 201.4" style="enable-background:new 0 0 199.9 201.4;" xml:space="preserve">
<style type="text/css">
	.st0{fill:#303030;}
	.st1{fill:#F4F4F4;}
	.st2{fill:#FCFCFC;}
	.st3{fill:#EEF7F9;}
	.st4{fill:#376699;}
	.st5{fill:#080808;}
	.st6{fill:#2A5A8E;}
	.st7{fill:#F5FBFB;}
	.st8{fill:#155DAC;}
	.st9{fill:#165EAC;}
	.st10{fill:#155EAC;}
	.st11{fill:#F8FBFC;}
	.st12{fill:#F1F8F9;}
	.st13{fill:#F2F9FA;}
	.st14{fill:#2B619E;}
	.st15{fill:#1E5FA6;}
	.st16{fill:#165EAB;}
	.st17{fill:#FDFDFD;}
	.st18{fill:#1A5EA9;}
	.st19{fill:#D9D9D9;}
	.st20{fill:#DDDDDD;}
	.st21{fill:none;stroke:#ADADAD;stroke-miterlimit:10;}
	.st22{fill:#FFFFFF;}
	.st23{fill:#DC3545;}
	.st24{fill:#FCFDFC;}
	.st25{fill:#F2CD41;}
	.st26{fill:none;stroke:#A3A3A3;stroke-miterlimit:10;}
	.st27{fill:#28A745;}
	.st28{fill:none;stroke:#28A745;stroke-width:6;stroke-miterlimit:10;}
	.st29{fill:#F5682D;}
	.st30{fill:none;stroke:#F2CD41;stroke-width:6;stroke-miterlimit:10;}
	.st31{fill-rule:evenodd;clip-rule:evenodd;fill:#DFDFDF;}
	.st32{fill:none;stroke:#C4C4C4;stroke-miterlimit:10;}
	.st33{fill:#FFFFFC;}
	.st34{fill:#FFFDFD;}
	.st35{fill:#FFFAF9;}
	.st36{fill:#FFFCFC;}
	.st37{fill:#ED2F24;}
	.st38{fill:#FFFCF8;}
	.st39{fill:#FFFFFB;}
	.st40{fill:#FFFCF7;}
	.st41{fill:#FFFBFC;}
	.st42{fill:#FFFCFA;}
	.st43{fill:#FCFDFF;}
	.st44{fill:#F9F9FA;}
	.st45{fill:#FAFBFD;}
	.st46{fill:#F7F9FA;}
	.st47{fill:#F7F7FA;}
	.st48{fill:#F6F7F9;}
	.st49{fill:#A7B0CA;}
	.st50{fill:#03558A;}
	.st51{fill:#DFDFDF;}
	.st52{fill:#FAFDFF;}
	.st53{fill:#FCFDFB;}
	.st54{fill:none;stroke:#AAAAAA;stroke-miterlimit:10;}
	.st55{fill:none;stroke:#F2CD41;stroke-width:4;stroke-miterlimit:10;}
	.st56{fill:none;stroke:#28A745;stroke-width:4;stroke-miterlimit:10;}
	.st57{fill:none;stroke:#DC3545;stroke-width:4;stroke-miterlimit:10;}
	.st58{fill:none;stroke:#F5682D;stroke-width:4;stroke-miterlimit:10;}
	.st59{font-family:'Anton-Regular';}
	.st60{font-size:59.6747px;}
	.st61{font-size:23.5932px;}
	.st62{opacity:0.19;}
	.st63{fill:#279B48;}
	.st64{fill:#C32034;}
	.st65{fill:#EF412A;}
	.st66{fill:#FDB715;}
	.st67{fill:#8F1839;}
	.st68{fill:#F36D26;}
	.st69{fill:#F99E27;}
	.st70{fill:#CE8D2A;}
	.st71{fill:#48773F;}
	.st72{fill:#5EBB47;}
	.st73{fill:#00558B;}
	.st74{fill:#1E3768;}
	.st75{fill:#047DBC;}
	.st76{fill:#E01684;}
	.st77{fill:#00AED8;}
	.st78{fill:#D3A12A;}
	.st79{fill:#EA1E2F;}
	.st80{fill:#23AA61;}
	.st81{fill:#6A71AF;}
	.st82{fill:#F29228;}
	.st83{fill:#3897D3;}
	.st84{fill:#814891;}
	.st85{fill:none;stroke:#FFFFFF;stroke-width:2;stroke-miterlimit:10;}
	.st86{fill:#E5243B;}
	.st87{fill:#DDA63A;}
	.st88{fill:#4C9F38;}
	.st89{fill:#C5192D;}
	.st90{fill:#FF3A21;}
	.st91{fill:#26BDE2;}
	.st92{fill:#FCC30B;}
	.st93{fill:#A21942;}
	.st94{fill:#FD6925;}
	.st95{fill:#DD1367;}
	.st96{fill:#FD9D24;}
	.st97{fill:#BF8B2E;}
	.st98{fill:#3F7E44;}
	.st99{fill:#0A97D9;}
	.st100{fill:#56C02B;}
	.st101{fill:#00689D;}
	.st102{fill:#19486A;}
	.st103{fill:#207A46;}
	.st104{fill-rule:evenodd;clip-rule:evenodd;fill:#4BA048;stroke:#282828;stroke-width:2;stroke-miterlimit:22.9256;}
	.st105{fill-rule:evenodd;clip-rule:evenodd;fill:#F2CD41;stroke:#282828;stroke-width:2;stroke-miterlimit:10;}
	.st106{fill-rule:evenodd;clip-rule:evenodd;fill:#DFDFDF;stroke:#282828;stroke-width:2;stroke-miterlimit:10;}
	.st107{fill-rule:evenodd;clip-rule:evenodd;fill:#DC3545;stroke:#282828;stroke-width:2;stroke-miterlimit:10;}
	.st108{fill-rule:evenodd;clip-rule:evenodd;fill:#F5682D;stroke:#282828;stroke-width:2;stroke-miterlimit:10;}
	.st109{fill:#878787;}
	.st110{fill:#444444;}
	.st111{fill:#4BA048;}
	.st112{fill:#24BFE6;}
	.st113{fill:#01ACD7;}
	.st114{fill:#FAA028;}
	.st115{fill:#F89E2A;}
	.st116{fill:#F89F2B;}
	.st117{fill:#F89D29;}
	.st118{fill:#F89D28;}
	.st119{fill:#1E96D4;}
	.st120{fill:#067DBA;}
	.st121{fill:#174A6D;}
	.st122{fill:#203767;}
	.st123{fill:#213868;}
	.st124{fill:#15699F;}
	.st125{fill:#61BD45;}
	.st126{fill:#438145;}
	.st127{fill:#45794E;}
	.st128{fill:#46794E;}
	.st129{fill:#497B50;}
	.st130{fill:#4B7C52;}
	.st131{fill:#4C7D52;}
	.st132{fill:#4D7E54;}
	.st133{fill:#C89930;}
	.st134{fill:#DE1667;}
	.st135{fill:#F16B2D;}
	.st136{fill:#F16B2C;}
	.st137{fill:#A61B45;}
	.st138{fill:#FBC51A;}
	.st139{fill:#FAC417;}
	.st140{fill:#F9C315;}
	.st141{fill:#ED2540;}
	.st142{fill:#E6B733;}
	.st143{fill:#C92330;}
	.st144{fill:#EE432B;}
	.st145{fill:#ED3724;}
	.st146{fill:#ED2C24;}
	.st147{fill:#ED2924;}
	.st148{fill:#EE3F2B;}
	.st149{opacity:0.8;clip-path:url(#SVGID_6_);}
	.st150{fill:#2C6829;}
	.st151{fill:none;stroke:#11212E;stroke-miterlimit:10;}
	.st152{fill:#11212E;}
	.st153{fill:none;stroke:#444444;stroke-miterlimit:10;}
	.st154{fill:none;}
	.st155{fill:none;stroke:#9B9B9B;stroke-miterlimit:10;}
	.st156{fill:none;stroke:#8E8E8E;stroke-miterlimit:10;}
	.st157{fill:none;stroke:#11212E;stroke-width:3;stroke-linecap:round;stroke-linejoin:round;stroke-miterlimit:10;}
	.st158{fill:#FFFFFF;stroke:#777777;stroke-miterlimit:10;}
	.st159{fill:#FFFFFF;stroke:#5B5B5B;stroke-miterlimit:10;}
	.st160{fill:none;stroke:#AFAFAF;stroke-miterlimit:10;}
	.st161{fill:#262626;}
	.st162{fill:none;stroke:#5B5B5B;stroke-linecap:round;stroke-linejoin:round;}
	.st163{fill:#5B5B5B;}
	.st164{fill:#353535;}
	.st165{opacity:0.8;clip-path:url(#SVGID_10_);}
</style>
<g id="_x7B_ref_x7D_">
</g>
<g id="Layer_2">
	<g>
		<path class="st45" d="M107.2,194.4c-5.3,0-10-1.3-14.2-4c-0.5-0.3-0.9-0.3-1.4,0c-15.1,9.6-34.8,1.7-39.3-15.6
			c-1.1-4.3-1.1-8.6,0-12.8c0.2-0.6,0.1-0.9-0.4-1.4c-4.6-3.8-7.6-8.7-8.8-14.6c-1.8-9,0.5-16.9,6.7-23.5c3.9-4.2,8.8-6.7,14.4-7.7
			c0.9-0.2,1.7-0.2,2.6-0.3c0.6,0,0.9-0.2,1.1-0.8c1.8-4.7,4.7-8.5,8.8-11.5c5.2-3.9,11.2-5.7,17.7-5c10.5,1.1,17.8,6.6,22,16.3
			c0.3,0.8,0.7,1,1.5,1.1c8.1,0.7,14.6,4.4,19.3,11c3.9,5.4,5.3,11.5,4.6,18c-0.8,6.8-3.9,12.4-9.1,16.9c-0.5,0.5-0.6,0.8-0.5,1.5
			c3.5,14.1-5.4,28.5-19.6,31.6c-1,0.2-1.9,0.4-2.9,0.5C108.7,194.3,107.8,194.4,107.2,194.4z M111.2,115c-2-5.5-8.8-12.4-18.9-12.5
			c-10.1-0.1-17,6.9-19.1,12.5c8.6,1.8,15,6.7,19,14.6C96.3,121.7,102.5,116.8,111.2,115z M54.7,156.1c4.5-7.7,11.1-12.2,19.9-13.5
			c-6.4-6.2-9.1-13.7-8.3-22.5c-6,0.4-14,4.6-17.3,13.5C46,142,48.7,150.8,54.7,156.1z M81.1,163.5c-3.7,2-7.7,3.1-11.9,3.2
			c-4.2,0.1-8.2-0.8-11.9-2.5c-1.7,7.1,0.9,16.8,9.6,22.1c7.4,4.5,16.4,3.4,21.1,0C82.1,179.9,79.8,172.3,81.1,163.5z M118.1,120
			c0.9,8.8-1.8,16.2-8.1,22.4c8.8,1.4,15.4,5.9,19.8,13.6c5.1-4.3,8.4-12.5,6.1-20.8C133.5,126.2,125.7,120.8,118.1,120z
			 M96.6,186.4c5.9,3.6,14.8,4.1,21.9-0.8c7.6-5.2,10.3-14.1,8.7-21.3c-8,3.6-16,3.4-23.9-0.7c0.8,4.2,0.6,8.3-0.6,12.3
			C101.5,179.8,99.4,183.3,96.6,186.4z M125.4,159.1c0-0.3-0.1-0.4-0.2-0.6c-5.1-9.8-17.2-13.8-27.2-9.1c-1,0.5-0.8,0.3-0.4,1.2
			c4.7,8.6,14.7,12.7,24.1,10C123,160.3,124.3,159.8,125.4,159.1z M92.1,153.6c-4.1,4.2-6.2,9.2-6.1,14.9c0,5.4,2,10.1,5.6,14
			c0.8,0.8,0.6,0.8,1.4,0c5.6-6.6,7-13.9,3.9-22C95.8,157.9,94.2,155.6,92.1,153.6z M77.7,147.7c-0.7,0-1.5,0-2.2,0.1
			c-7.1,0.9-12.4,4.4-16,10.6c-0.5,0.9-0.6,0.8,0.4,1.2c3.4,1.6,7,2.3,10.7,1.9c7.3-0.8,12.6-4.4,16.3-10.7c0.4-0.7,0.4-0.7-0.4-1.1
			C83.7,148.3,80.8,147.7,77.7,147.7z M89.1,143.9c0-0.1,0.1-0.2,0.1-0.3c0-0.2,0.1-0.3,0.1-0.5c0.3-2.7,0.2-5.4-0.7-8
			c-2.5-8-8-12.9-16.2-14.8c-0.7-0.2-0.7-0.1-0.8,0.6c-0.2,1.7-0.2,3.3,0,5c1,6.7,4.4,11.9,10.2,15.4
			C84,142.6,86.4,143.5,89.1,143.9z M95.3,143.9c0.4-0.1,0.8-0.1,1.1-0.2c11-2.3,17.8-12.6,16.4-22.9c-0.1-0.7-0.1-0.7-0.8-0.6
			c-1.8,0.3-3.5,0.9-5.1,1.7c-7.8,3.7-12.6,11.9-11.9,20.5C95.1,142.8,95.2,143.3,95.3,143.9z"/>
	</g>
	<g>
		<text transform="matrix(0.6531 0 0 1 9.7936 63.7193)" class="st22 st59 st60">17</text>
	</g>
	<g>
		<text transform="matrix(0.9978 0 0 1 52.0602 30.1831)"><tspan x="0" y="0" class="st22 st59 st61">Partnerships </tspan><tspan x="0" y="28.3" class="st22 st59 st61">to achieve the</tspan><tspan x="0" y="56.6" class="st22 st59 st61">Goal</tspan></text>
	</g>
</g>
</svg>
