<?xml version="1.0" encoding="utf-8"?>
<!-- Generator: Adobe Illustrator 21.0.0, SVG Export Plug-In . SVG Version: 6.00 Build 0)  -->
<svg version="1.1" id="Layer_1" xmlns="http://www.w3.org/2000/svg" xmlns:xlink="http://www.w3.org/1999/xlink" x="0px" y="0px"
	 viewBox="0 0 197.9 145.1" style="enable-background:new 0 0 197.9 145.1;" xml:space="preserve">
<style type="text/css">
	.st0{fill:#FFFFFF;stroke:#ABAAAA;stroke-miterlimit:10;}
	.st1{fill:#BF8B2C;}
	.st2{fill:#C5202E;}
	.st3{fill:#FFFFFF;}
	.st4{fill:#FFFAF9;}
	.st5{fill:#FFFCFD;}
	.st6{fill:#E4253C;}
	.st7{fill:#FFFFFD;}
	.st8{fill:#29A74A;}
	.st9{fill:#4CA046;}
	.st10{fill:#FDFEFD;}
	.st11{fill:#DEA73A;}
	.st12{fill:#18496B;}
	.st13{fill:#FAFCFE;}
	.st14{fill:#01699E;}
	.st15{fill:#FDFEFF;}
	.st16{fill:#F8FAFB;}
	.st17{fill:#F7F9FA;}
	.st18{fill:#F7F7FA;}
	.st19{fill:#F6F7F9;}
	.st20{fill:#A7B1CA;}
	.st21{fill:#5CBA47;}
	.st22{fill:#FDFEFC;}
	.st23{fill:#F26A2C;}
	.st24{fill:#1C97D4;}
	.st25{fill:#FAFDFF;}
	.st26{fill:#DD1768;}
	.st27{fill:#FFFBFD;}
	.st28{fill:#F99D29;}
	.st29{fill:#FFFCFA;}
	.st30{fill:#407F44;}
	.st31{fill:#29BEE2;}
	.st32{fill:#FAC315;}
	.st33{fill:#FFFCF8;}
	.st34{fill:#FFFFFC;}
	.st35{fill:#FFFCF7;}
	.st36{fill:#EF402C;}
	.st37{fill:#A21C44;}
	.st38{fill:#DC3746;}
	.st39{fill:#FDC010;}
	.st40{fill-rule:evenodd;clip-rule:evenodd;fill:#E0E0DF;}
</style>
<rect x="141" y="1" transform="matrix(-1 -1.224647e-16 1.224647e-16 -1 338.34 145.0949)" class="st0" width="56.4" height="143.1"/>
<rect y="0.5" class="st2" width="143" height="144.1"/>
<path class="st3" d="M66.7,126.2c-0.1-0.2-0.1-0.4-0.1-0.6c0-12.2,0-24.3,0-36.5c0-0.4,0.1-0.6,0.4-0.8C74.7,84,82.3,79.6,90,75.2
	c0.1-0.1,0.3-0.2,0.5-0.2c0.1,0.1,0.1,0.2,0.1,0.4c0,14.4,0,28.8,0,43.2c0,0.5,0,0.5-0.6,0.7c-7.3,2.2-14.7,4.4-22,6.6
	C67.5,126,67.1,126.1,66.7,126.2z"/>
<path class="st3" d="M64.1,126.2c-1.2-0.4-2.4-0.7-3.5-1c-6.5-2-13-3.9-19.5-5.9c-0.1,0-0.2-0.1-0.3-0.1c-0.4-0.1-0.4-0.1-0.4-0.6
	c0-2.3,0-4.7,0-7c0-12.1,0-24.1,0-36.2c0-0.1,0-0.3,0-0.4c0.2,0,0.3,0.1,0.5,0.2c7.5,4.4,15.1,8.7,22.6,13c0.4,0.2,0.5,0.4,0.5,0.9
	c0,12.2,0,24.3,0,36.5C64.1,125.8,64.1,126,64.1,126.2z"/>
<path class="st4" d="M37.9,74.8c0,0.4,0,0.6,0,0.9c0,15,0,30.1,0,45.1c0,0.8-0.1,0.7,0.7,0.9c8.3,2.3,16.7,4.7,25,7
	c0.4,0.1,0.8,0.1,1.3,0.1c1.2,0.1,2.4-0.2,3.6-0.5c8-2.6,16-5.2,24-7.8c0.5-0.2,0.5-0.2,0.5-0.7c0-10.2,0-20.4,0-30.6
	c0-4.5,0-9.1,0-13.6c0-0.2,0-0.4,0-0.5c0.2-0.1,0.3,0.1,0.4,0.1c0.6,0.5,1.2,1,1.8,1.4c0.3,0.2,0.4,0.4,0.4,0.8c0,5.4,0,10.7,0,16.1
	c0,9.3,0,18.6,0,27.9c0,0.1,0,0.3,0,0.4c0,0.5,0,0.5-0.4,0.6c-3.7,1.1-7.4,2.3-11.1,3.5c-5.5,1.7-11.1,3.5-16.6,5.3
	c-0.4,0.1-0.8,0.2-1.2,0.2c-1.6,0.1-3.1-0.2-4.6-0.6c-8.6-2.4-17.2-4.8-25.7-7.1c-0.1,0-0.2-0.1-0.3-0.1c-0.2,0-0.3-0.1-0.2-0.3
	c0-0.1,0-0.3,0-0.4c0-15.1,0-30.2,0-45.2c0-0.4,0.1-0.7,0.4-0.9C36.5,75.9,37.1,75.4,37.9,74.8z"/>
<path class="st5" d="M106.2,127.9c-0.1-0.4-0.3-0.9-0.4-1.3c-0.7-2.6-1.5-5.1-2.2-7.7c-0.1-0.4-0.2-0.7-0.2-1.1
	c0-12.7,0-25.4,0-38.1c0-0.8-0.1-0.7,0.7-0.7c1.4,0,2.8,0,4.2,0c0.7,0,0.6-0.1,0.6,0.6c0,6.1,0,12.1,0,18.2c0,6.7,0,13.3,0,20
	c0,0.3,0,0.7-0.1,1c-0.9,3-1.7,6.1-2.6,9.1C106.3,127.9,106.2,127.9,106.2,127.9z"/>
<path class="st4" d="M106.2,76.8c-0.8,0-1.6,0-2.3,0c-0.4,0-0.4,0-0.4-0.4c0-0.9,0-1.8,0-2.7c0-1.5,1.3-2.7,2.8-2.7
	c1.5,0,2.8,1.2,2.8,2.7c0,0.9,0,1.8,0,2.7c0,0.3-0.1,0.4-0.4,0.4C107.8,76.8,107,76.8,106.2,76.8z"/>
<g>
	<g>
		<path class="st3" d="M23,33.8v-5.6h-6.4v-3.8l5.5-14.9h4.9v15.1h2v3.6h-2v5.6H23z M19.9,24.5H23V14.4L19.9,24.5z"/>
	</g>
</g>
<g>
	<g>
		<path class="st3" d="M42,23.9c-0.3-0.1-0.7-0.4-1.2-0.8s-0.8-0.8-1.1-1.3h-0.2c-0.6,0-1.2-0.1-1.6-0.2c-0.4-0.2-0.8-0.4-1.1-0.7
			c-0.3-0.3-0.5-0.7-0.6-1.2c-0.1-0.4-0.2-1-0.2-1.6v-4.2c0-0.6,0.1-1.1,0.2-1.6c0.1-0.4,0.3-0.8,0.6-1.2s0.6-0.6,1.1-0.7
			s1-0.2,1.6-0.2c1.2,0,2.1,0.3,2.6,0.9c0.5,0.6,0.8,1.6,0.8,2.8v4.2c0,1.7-0.5,2.8-1.5,3.3c0.4,0.5,0.8,0.8,1.1,1L42,23.9z
			 M39.1,20c0.1,0.1,0.2,0.1,0.4,0.1c0.1,0,0.3,0,0.4-0.1c0.1-0.1,0.2-0.1,0.3-0.2c0.1-0.1,0.1-0.2,0.1-0.3c0-0.1,0.1-0.2,0.1-0.4
			c0-0.1,0-0.2,0-0.4v-5.4c0-0.2,0-0.3,0-0.4c0-0.1,0-0.2-0.1-0.4c0-0.1-0.1-0.2-0.1-0.3c-0.1-0.1-0.1-0.1-0.3-0.2
			c-0.1-0.1-0.2-0.1-0.4-0.1c-0.2,0-0.3,0-0.4,0.1c-0.1,0.1-0.2,0.1-0.2,0.2c-0.1,0.1-0.1,0.2-0.1,0.3c0,0.1-0.1,0.2-0.1,0.4
			s0,0.2,0,0.4v5.4c0,0.2,0,0.3,0,0.4c0,0.1,0,0.2,0.1,0.4c0,0.1,0.1,0.2,0.1,0.3C38.9,19.8,39,19.9,39.1,20z"/>
		<path class="st3" d="M47.7,21.8c-0.5,0-1-0.1-1.3-0.2c-0.4-0.1-0.7-0.3-1-0.5c-0.3-0.2-0.5-0.5-0.6-0.8c-0.2-0.3-0.3-0.7-0.3-1
			c-0.1-0.4-0.1-0.8-0.1-1.3v-7.8h2.5v8.1c0,0.2,0,0.3,0,0.5c0,0.1,0,0.3,0.1,0.4s0.1,0.3,0.1,0.4c0.1,0.1,0.1,0.2,0.3,0.2
			c0.1,0.1,0.2,0.1,0.4,0.1c0.2,0,0.3,0,0.4-0.1c0.1-0.1,0.2-0.1,0.3-0.2c0.1-0.1,0.1-0.2,0.1-0.4c0-0.1,0.1-0.3,0.1-0.4
			c0-0.1,0-0.3,0-0.5v-8.1H51v7.8c0,0.6-0.1,1.2-0.2,1.6s-0.3,0.8-0.5,1.2s-0.6,0.6-1,0.7C48.8,21.7,48.3,21.8,47.7,21.8z"/>
		<path class="st3" d="M52.1,21.7l2.1-11.3H57l2.1,11.3h-2.3l-0.4-2.4h-1.7l-0.4,2.4H52.1z M55,17.8h1.2l-0.6-4.4L55,17.8z"/>
		<path class="st3" d="M60.3,21.7V10.3h2.5V20h2.6v1.7H60.3z"/>
		<path class="st3" d="M66.5,21.7V10.3H69v11.3H66.5z"/>
		<path class="st3" d="M71.7,21.7v-9.5H70v-1.9h6v1.9h-1.7v9.5H71.7z"/>
		<path class="st3" d="M78.3,21.7V17l-2.2-6.7h2.4l1.1,3.6l1-3.6h2.3L80.7,17v4.6H78.3z"/>
		<path class="st3" d="M36.2,38.5V27.1h5.1v1.7h-2.6v2.8h2v1.7h-2v3.4h2.6v1.7H36.2z"/>
		<path class="st3" d="M42.5,38.5V27.1h2.8c0.7,0,1.4,0.1,1.8,0.2s0.9,0.3,1.2,0.6s0.5,0.7,0.6,1.1c0.1,0.4,0.2,1,0.2,1.6v4.1
			c0,0.7-0.1,1.2-0.2,1.7c-0.1,0.4-0.3,0.8-0.6,1.1c-0.3,0.3-0.7,0.5-1.2,0.7s-1.1,0.2-1.8,0.2H42.5z M45,36.7h0.4
			c0.2,0,0.4,0,0.5,0c0.1,0,0.2-0.1,0.3-0.1s0.2-0.1,0.2-0.2c0.1-0.1,0.1-0.2,0.1-0.3c0-0.1,0-0.3,0-0.4c0-0.1,0-0.3,0-0.5v-4.9
			c0-0.3,0-0.5,0-0.7s-0.1-0.3-0.2-0.4c-0.1-0.1-0.2-0.2-0.4-0.3c-0.2,0-0.4-0.1-0.7-0.1H45V36.7z"/>
		<path class="st3" d="M53.9,38.6c-0.5,0-1-0.1-1.3-0.2c-0.4-0.1-0.7-0.3-1-0.5c-0.3-0.2-0.5-0.5-0.6-0.8c-0.2-0.3-0.3-0.7-0.3-1
			c-0.1-0.4-0.1-0.8-0.1-1.3v-7.8H53v8.1c0,0.2,0,0.3,0,0.5c0,0.1,0,0.3,0.1,0.4s0.1,0.3,0.1,0.4c0.1,0.1,0.1,0.2,0.3,0.2
			c0.1,0.1,0.2,0.1,0.4,0.1c0.2,0,0.3,0,0.4-0.1c0.1-0.1,0.2-0.1,0.3-0.2c0.1-0.1,0.1-0.2,0.1-0.4c0-0.1,0.1-0.3,0.1-0.4
			c0-0.1,0-0.3,0-0.5v-8.1h2.5v7.8c0,0.6-0.1,1.2-0.2,1.6s-0.3,0.8-0.5,1.2s-0.6,0.6-1,0.7C55.1,38.5,54.5,38.6,53.9,38.6z"/>
		<path class="st3" d="M62.1,38.6c-0.6,0-1.2-0.1-1.6-0.3c-0.4-0.2-0.8-0.4-1.1-0.8s-0.4-0.7-0.6-1.2s-0.2-1-0.2-1.6v-4
			c0-0.6,0.1-1.1,0.2-1.6c0.1-0.5,0.3-0.9,0.6-1.2c0.3-0.3,0.6-0.6,1.1-0.8c0.4-0.2,1-0.3,1.6-0.3c0.6,0,1.1,0.1,1.6,0.2
			c0.4,0.2,0.8,0.4,1,0.7c0.2,0.3,0.4,0.6,0.5,1c0.1,0.4,0.2,0.8,0.2,1.3v1h-2.4v-1.1c0-0.2,0-0.3,0-0.4s0-0.2,0-0.4
			c0-0.1-0.1-0.3-0.1-0.3c-0.1-0.1-0.1-0.1-0.2-0.2c-0.1-0.1-0.2-0.1-0.4-0.1c-0.2,0-0.3,0-0.4,0.1c-0.1,0.1-0.2,0.1-0.2,0.2
			c-0.1,0.1-0.1,0.2-0.1,0.3c0,0.1-0.1,0.3-0.1,0.4s0,0.3,0,0.4v5.3c0,0.5,0.1,0.8,0.2,1c0.1,0.2,0.3,0.4,0.7,0.4
			c0.1,0,0.3,0,0.4-0.1c0.1-0.1,0.2-0.1,0.2-0.2c0.1-0.1,0.1-0.2,0.1-0.3c0-0.1,0-0.3,0.1-0.4s0-0.2,0-0.4v-1.2h2.4v1
			c0,0.4,0,0.8-0.1,1.1c-0.1,0.3-0.2,0.6-0.3,0.9c-0.2,0.3-0.4,0.5-0.6,0.7s-0.6,0.3-0.9,0.5C63,38.6,62.6,38.6,62.1,38.6z"/>
		<path class="st3" d="M66.1,38.5l2.1-11.3h2.8l2.1,11.3h-2.3L70.5,36h-1.7l-0.4,2.4H66.1z M69.1,34.6h1.2l-0.6-4.4L69.1,34.6z"/>
		<path class="st3" d="M75.1,38.5V29h-1.7v-1.9h6V29h-1.7v9.5H75.1z"/>
		<path class="st3" d="M80.3,38.5V27.1h2.5v11.3H80.3z"/>
		<path class="st3" d="M87.7,38.6c-0.6,0-1.2-0.1-1.6-0.2c-0.4-0.2-0.8-0.4-1.1-0.7c-0.3-0.3-0.5-0.7-0.6-1.2
			c-0.1-0.4-0.2-1-0.2-1.6v-4.2c0-0.6,0.1-1.1,0.2-1.6c0.1-0.4,0.3-0.8,0.6-1.2s0.6-0.6,1.1-0.7s1-0.2,1.6-0.2
			c1.2,0,2.1,0.3,2.6,0.9c0.5,0.6,0.8,1.6,0.8,2.8v4.2c0,1.2-0.3,2.2-0.8,2.8C89.8,38.3,89,38.6,87.7,38.6z M87.4,36.8
			c0.1,0.1,0.2,0.1,0.4,0.1c0.1,0,0.3,0,0.4-0.1c0.1-0.1,0.2-0.1,0.3-0.2c0.1-0.1,0.1-0.2,0.1-0.3c0-0.1,0.1-0.2,0.1-0.4
			c0-0.1,0-0.2,0-0.4v-5.4c0-0.2,0-0.3,0-0.4c0-0.1,0-0.2-0.1-0.4c0-0.1-0.1-0.2-0.1-0.3c-0.1-0.1-0.1-0.1-0.3-0.2
			c-0.1-0.1-0.2-0.1-0.4-0.1c-0.2,0-0.3,0-0.4,0.1c-0.1,0.1-0.2,0.1-0.2,0.2c-0.1,0.1-0.1,0.2-0.1,0.3c0,0.1-0.1,0.2-0.1,0.4
			s0,0.2,0,0.4v5.4c0,0.2,0,0.3,0,0.4c0,0.1,0,0.2,0.1,0.4c0,0.1,0.1,0.2,0.1,0.3C87.2,36.6,87.3,36.7,87.4,36.8z"/>
		<path class="st3" d="M92.7,38.5V27.1h1.8l2.3,5.4v-5.4h2.1v11.3h-1.7l-2.3-5.9v5.9H92.7z"/>
	</g>
</g>
<g>
	<circle class="st40" cx="162.6" cy="72.5" r="6.2"/>
	<circle class="st40" cx="180.9" cy="72.5" r="6.2"/>
</g>
</svg>
