<?xml version="1.0" encoding="utf-8"?>
<!-- Generator: Adobe Illustrator 21.0.0, SVG Export Plug-In . SVG Version: 6.00 Build 0)  -->
<svg version="1.1" xmlns="http://www.w3.org/2000/svg" xmlns:xlink="http://www.w3.org/1999/xlink" x="0px" y="0px"
	 viewBox="0 0 199.9 201.4" style="enable-background:new 0 0 199.9 201.4;" xml:space="preserve">
<style type="text/css">
	.st0{fill:#303030;}
	.st1{fill:#F4F4F4;}
	.st2{fill:#FCFCFC;}
	.st3{fill:#EEF7F9;}
	.st4{fill:#376699;}
	.st5{fill:#080808;}
	.st6{fill:#2A5A8E;}
	.st7{fill:#F5FBFB;}
	.st8{fill:#155DAC;}
	.st9{fill:#165EAC;}
	.st10{fill:#155EAC;}
	.st11{fill:#F8FBFC;}
	.st12{fill:#F1F8F9;}
	.st13{fill:#F2F9FA;}
	.st14{fill:#2B619E;}
	.st15{fill:#1E5FA6;}
	.st16{fill:#165EAB;}
	.st17{fill:#FDFDFD;}
	.st18{fill:#1A5EA9;}
	.st19{fill:#D9D9D9;}
	.st20{fill:#DDDDDD;}
	.st21{fill:none;stroke:#ADADAD;stroke-miterlimit:10;}
	.st22{fill:#FFFFFF;}
	.st23{fill:#DC3545;}
	.st24{fill:#FCFDFC;}
	.st25{fill:#F2CD41;}
	.st26{fill:none;stroke:#A3A3A3;stroke-miterlimit:10;}
	.st27{fill:#28A745;}
	.st28{fill:none;stroke:#28A745;stroke-width:6;stroke-miterlimit:10;}
	.st29{fill:#F5682D;}
	.st30{fill:none;stroke:#F2CD41;stroke-width:6;stroke-miterlimit:10;}
	.st31{fill-rule:evenodd;clip-rule:evenodd;fill:#DFDFDF;}
	.st32{fill:none;stroke:#C4C4C4;stroke-miterlimit:10;}
	.st33{fill:#FFFFFC;}
	.st34{fill:#FFFDFD;}
	.st35{fill:#FFFAF9;}
	.st36{fill:#FFFCFC;}
	.st37{fill:#ED2F24;}
	.st38{fill:#FFFCF8;}
	.st39{fill:#FFFFFB;}
	.st40{fill:#FFFCF7;}
	.st41{fill:#FFFBFC;}
	.st42{fill:#FFFCFA;}
	.st43{fill:#FCFDFF;}
	.st44{fill:#F9F9FA;}
	.st45{fill:#FAFBFD;}
	.st46{fill:#F7F9FA;}
	.st47{fill:#F7F7FA;}
	.st48{fill:#F6F7F9;}
	.st49{fill:#A7B0CA;}
	.st50{fill:#03558A;}
	.st51{fill:#DFDFDF;}
	.st52{fill:#FAFDFF;}
	.st53{fill:#FCFDFB;}
	.st54{fill:none;stroke:#AAAAAA;stroke-miterlimit:10;}
	.st55{fill:none;stroke:#F2CD41;stroke-width:4;stroke-miterlimit:10;}
	.st56{fill:none;stroke:#28A745;stroke-width:4;stroke-miterlimit:10;}
	.st57{fill:none;stroke:#DC3545;stroke-width:4;stroke-miterlimit:10;}
	.st58{fill:none;stroke:#F5682D;stroke-width:4;stroke-miterlimit:10;}
	.st59{font-family:'Anton-Regular';}
	.st60{font-size:59.6747px;}
	.st61{font-size:23.5932px;}
	.st62{opacity:0.19;}
	.st63{fill:#279B48;}
	.st64{fill:#C32034;}
	.st65{fill:#EF412A;}
	.st66{fill:#FDB715;}
	.st67{fill:#8F1839;}
	.st68{fill:#F36D26;}
	.st69{fill:#F99E27;}
	.st70{fill:#CE8D2A;}
	.st71{fill:#48773F;}
	.st72{fill:#5EBB47;}
	.st73{fill:#00558B;}
	.st74{fill:#1E3768;}
	.st75{fill:#047DBC;}
	.st76{fill:#E01684;}
	.st77{fill:#00AED8;}
	.st78{fill:#D3A12A;}
	.st79{fill:#EA1E2F;}
	.st80{fill:#23AA61;}
	.st81{fill:#6A71AF;}
	.st82{fill:#F29228;}
	.st83{fill:#3897D3;}
	.st84{fill:#814891;}
	.st85{fill:none;stroke:#FFFFFF;stroke-width:2;stroke-miterlimit:10;}
	.st86{fill:#E5243B;}
	.st87{fill:#DDA63A;}
	.st88{fill:#4C9F38;}
	.st89{fill:#C5192D;}
	.st90{fill:#FF3A21;}
	.st91{fill:#26BDE2;}
	.st92{fill:#FCC30B;}
	.st93{fill:#A21942;}
	.st94{fill:#FD6925;}
	.st95{fill:#DD1367;}
	.st96{fill:#FD9D24;}
	.st97{fill:#BF8B2E;}
	.st98{fill:#3F7E44;}
	.st99{fill:#0A97D9;}
	.st100{fill:#56C02B;}
	.st101{fill:#00689D;}
	.st102{fill:#19486A;}
	.st103{fill:#207A46;}
	.st104{fill-rule:evenodd;clip-rule:evenodd;fill:#4BA048;stroke:#282828;stroke-width:2;stroke-miterlimit:22.9256;}
	.st105{fill-rule:evenodd;clip-rule:evenodd;fill:#F2CD41;stroke:#282828;stroke-width:2;stroke-miterlimit:10;}
	.st106{fill-rule:evenodd;clip-rule:evenodd;fill:#DFDFDF;stroke:#282828;stroke-width:2;stroke-miterlimit:10;}
	.st107{fill-rule:evenodd;clip-rule:evenodd;fill:#DC3545;stroke:#282828;stroke-width:2;stroke-miterlimit:10;}
	.st108{fill-rule:evenodd;clip-rule:evenodd;fill:#F5682D;stroke:#282828;stroke-width:2;stroke-miterlimit:10;}
	.st109{fill:#878787;}
	.st110{fill:#444444;}
	.st111{fill:#4BA048;}
	.st112{fill:#24BFE6;}
	.st113{fill:#01ACD7;}
	.st114{fill:#FAA028;}
	.st115{fill:#F89E2A;}
	.st116{fill:#F89F2B;}
	.st117{fill:#F89D29;}
	.st118{fill:#F89D28;}
	.st119{fill:#1E96D4;}
	.st120{fill:#067DBA;}
	.st121{fill:#174A6D;}
	.st122{fill:#203767;}
	.st123{fill:#213868;}
	.st124{fill:#15699F;}
	.st125{fill:#61BD45;}
	.st126{fill:#438145;}
	.st127{fill:#45794E;}
	.st128{fill:#46794E;}
	.st129{fill:#497B50;}
	.st130{fill:#4B7C52;}
	.st131{fill:#4C7D52;}
	.st132{fill:#4D7E54;}
	.st133{fill:#C89930;}
	.st134{fill:#DE1667;}
	.st135{fill:#F16B2D;}
	.st136{fill:#F16B2C;}
	.st137{fill:#A61B45;}
	.st138{fill:#FBC51A;}
	.st139{fill:#FAC417;}
	.st140{fill:#F9C315;}
	.st141{fill:#ED2540;}
	.st142{fill:#E6B733;}
	.st143{fill:#C92330;}
	.st144{fill:#EE432B;}
	.st145{fill:#ED3724;}
	.st146{fill:#ED2C24;}
	.st147{fill:#ED2924;}
	.st148{fill:#EE3F2B;}
	.st149{opacity:0.8;clip-path:url(#SVGID_6_);}
	.st150{fill:#2C6829;}
	.st151{fill:none;stroke:#11212E;stroke-miterlimit:10;}
	.st152{fill:#11212E;}
	.st153{fill:none;stroke:#444444;stroke-miterlimit:10;}
	.st154{fill:none;}
	.st155{fill:none;stroke:#9B9B9B;stroke-miterlimit:10;}
	.st156{fill:none;stroke:#8E8E8E;stroke-miterlimit:10;}
	.st157{fill:none;stroke:#11212E;stroke-width:3;stroke-linecap:round;stroke-linejoin:round;stroke-miterlimit:10;}
	.st158{fill:#FFFFFF;stroke:#777777;stroke-miterlimit:10;}
	.st159{fill:#FFFFFF;stroke:#5B5B5B;stroke-miterlimit:10;}
	.st160{fill:none;stroke:#AFAFAF;stroke-miterlimit:10;}
	.st161{fill:#262626;}
	.st162{fill:none;stroke:#5B5B5B;stroke-linecap:round;stroke-linejoin:round;}
	.st163{fill:#5B5B5B;}
	.st164{fill:#353535;}
	.st165{opacity:0.8;clip-path:url(#SVGID_10_);}
</style>
<g id="_x7B_ref_x7D_">
</g>
<g id="Layer_2">
	<g>
		<path class="st33" d="M100.4,170.4c-15.3-0.1-27.7-12.6-27.6-28.1c0.2-14.8,12.6-27.2,27.6-27.2c15.3,0,27.7,12.3,27.7,27.5
			C128.1,158,115.8,170.4,100.4,170.4z M96.2,131.9c0-1,0-1.7,0-2.4c0-0.6-0.2-0.7-0.7-0.5c-6.7,2.5-10.5,9.6-9,16.6
			c1.6,7.3,8.7,12.1,16,11.1c6.8-1,11.8-6.7,12.3-13.2c0.4-6.4-3.3-12.3-9.4-14.5c-0.5-0.2-0.7-0.1-0.7,0.5c0,1.2,0,2.4,0,3.6
			c0,0.7,0.2,1.1,0.8,1.5c3.3,2,5,6,4.3,9.6c-0.8,3.9-3.8,6.9-7.8,7.6c-4.1,0.7-8.3-1.5-10.1-5.3c-1.8-3.9-0.8-8.6,2.5-11.1
			C95.8,134.3,96.6,133.4,96.2,131.9z M98.5,130.8L98.5,130.8c0,1.5,0,2.9,0,4.4c0,1.2,0.9,2.2,2,2.2c1.1,0,2.1-0.9,2.1-2.1
			c0-3,0-6,0-9c0-1.3-1-2.2-2.1-2.2c-1.1,0-1.9,1-1.9,2.2C98.5,127.8,98.5,129.3,98.5,130.8z"/>
		<path class="st38" d="M102.7,182.4c0,1.9,0,3.8,0,5.7c0.1,1.7-1.3,2.4-2.3,2.5c-1.3,0-2.3-1.1-2.3-2.5c0-3.8,0-7.7,0-11.5
			c0-1.4,1-2.5,2.3-2.4c1.3,0,2.2,1,2.2,2.5C102.7,178.6,102.7,180.5,102.7,182.4L102.7,182.4z"/>
		<path class="st38" d="M102.7,102.6c0,1.9,0,3.8,0,5.6c0,1.5-0.9,2.5-2.3,2.6c-1.3,0-2.3-1.1-2.3-2.6c0-3.8,0-7.6,0-11.5
			c0-1.3,1-2.3,2.3-2.3c1.4,0,2.2,0.9,2.3,2.3C102.7,98.7,102.7,100.7,102.7,102.6L102.7,102.6z"/>
		<path class="st39" d="M140.3,144.8c-1.9,0-3.8,0-5.6,0c-1.4,0-2.5-0.9-2.5-2.2c0-1.3,0.9-2.3,2.4-2.3c3.9,0,7.8,0,11.7,0
			c1.4,0,2.3,1,2.3,2.3c0,1.3-1,2.3-2.4,2.3C144.2,144.8,142.3,144.8,140.3,144.8z"/>
		<path class="st39" d="M60.6,144.8c-1.9,0-3.8,0-5.6,0c-1.4,0-2.5-1-2.5-2.2c0-1.4,1-2.3,2.5-2.4c3.8,0,7.5,0,11.3,0
			c1.6,0,2.6,0.9,2.6,2.3c0,1.4-1,2.3-2.6,2.3C64.3,144.8,62.4,144.8,60.6,144.8z"/>
		<path class="st40" d="M117.5,115.3c-1.8,0-3-1.8-2.2-3.3c1.9-3.5,3.9-6.9,5.9-10.4c0.6-1.1,2.1-1.4,3.1-0.8
			c1.1,0.6,1.4,2.1,0.8,3.2c-1.9,3.3-3.8,6.7-5.7,10C119,114.8,118.3,115.2,117.5,115.3z"/>
		<path class="st38" d="M83.5,115.3c-0.9,0-1.5-0.4-2-1.2c-1.9-3.3-3.8-6.6-5.7-9.9c-0.7-1.3-0.5-2.7,0.7-3.4c1.1-0.7,2.5-0.3,3.3,1
			c1.9,3.3,3.9,6.7,5.7,10C86.4,113.5,85.3,115.3,83.5,115.3z"/>
		<path class="st38" d="M130,157.1c0.5,0,0.9,0.2,1.3,0.4c3.3,1.9,6.6,3.7,9.9,5.6c1,0.6,1.5,1.5,1.3,2.5c-0.2,1-0.8,1.6-1.8,1.9
			c-0.7,0.2-1.2-0.1-1.8-0.4c-3.3-1.9-6.6-3.8-9.9-5.7c-1-0.6-1.4-1.6-1.2-2.6C128,157.8,129,157.1,130,157.1z"/>
		<path class="st38" d="M123.3,184.4c-1,0-1.6-0.4-2.1-1.2c-1.9-3.4-3.9-6.7-5.8-10.1c-0.6-1.1-0.3-2.6,0.8-3.2
			c1.1-0.6,2.5-0.3,3.2,0.9c1.9,3.4,3.9,6.7,5.8,10.1c0.5,0.9,0.5,1.7,0,2.5C124.8,184.1,124.1,184.5,123.3,184.4z"/>
		<path class="st40" d="M127.7,125.6c0-0.9,0.3-1.6,1.1-2c3.4-1.9,6.7-3.9,10.1-5.8c1.2-0.7,2.6-0.3,3.3,0.8c0.6,1.1,0.2,2.5-1,3.1
			c-3.3,1.9-6.7,3.9-10,5.8C129.5,128.4,127.7,127.4,127.7,125.6z"/>
		<path class="st40" d="M77.9,184.5c-1.9,0-3-1.9-2.1-3.6c1.5-2.6,3-5.2,4.4-7.7c0.4-0.7,0.8-1.5,1.3-2.2c0.7-1.2,2.1-1.6,3.3-1
			c1.1,0.6,1.4,2.1,0.7,3.2c-1.9,3.3-3.8,6.6-5.7,10C79.3,184,78.7,184.5,77.9,184.5z"/>
		<path class="st38" d="M58.5,165.3c0-0.9,0.4-1.5,1.2-2c3.3-1.9,6.6-3.8,9.9-5.7c1.3-0.7,2.7-0.4,3.3,0.7c0.7,1.2,0.3,2.5-1,3.3
			c-2.6,1.5-5.3,3-7.9,4.5c-0.7,0.4-1.4,0.8-2.1,1.2C60.3,168.2,58.5,167.1,58.5,165.3z"/>
		<path class="st38" d="M58.5,119.7c0-1.9,1.8-2.8,3.5-1.9c2.1,1.2,4.2,2.4,6.3,3.6c1.2,0.7,2.4,1.4,3.6,2.1c1.3,0.7,1.7,2,1.1,3.2
			c-0.6,1.2-2,1.5-3.3,0.8c-3.4-1.9-6.7-3.8-10-5.7C58.8,121.3,58.4,120.6,58.5,119.7z"/>
	</g>
	<g>
		<text transform="matrix(0.872 0 0 1 9.7932 67.5697)" class="st22 st59 st60">7</text>
	</g>
	<g>
		<text transform="matrix(1.1088 0 0 1 47.094 34.7684)"><tspan x="0" y="0" class="st22 st59 st61">Affordable </tspan><tspan x="0" y="24.6" class="st22 st59 st61">and Clean </tspan><tspan x="0" y="49.2" class="st22 st59 st61">Energy</tspan></text>
	</g>
</g>
</svg>
