<?xml version="1.0" encoding="utf-8"?>
<!-- Generator: Adobe Illustrator 21.0.0, SVG Export Plug-In . SVG Version: 6.00 Build 0)  -->
<svg version="1.1" id="Layer_1" xmlns="http://www.w3.org/2000/svg" xmlns:xlink="http://www.w3.org/1999/xlink" x="0px" y="0px"
	 viewBox="0 0 200.8 145.7" style="enable-background:new 0 0 200.8 145.7;" xml:space="preserve">
<style type="text/css">
	.st0{fill:#FFFFFF;stroke:#ABAAAA;stroke-miterlimit:10;}
	.st1{fill:#BF8B2C;}
	.st2{fill:#C5202E;}
	.st3{fill:#FFFFFF;}
	.st4{fill:#FFFAF9;}
	.st5{fill:#FFFCFD;}
	.st6{fill:#E4253C;}
	.st7{fill:#FFFFFD;}
	.st8{fill:#29A74A;}
	.st9{fill:#4CA046;}
	.st10{fill:#FDFEFD;}
	.st11{fill:#DEA73A;}
	.st12{fill:#18496B;}
	.st13{fill:#FAFCFE;}
	.st14{fill:#01699E;}
	.st15{fill:#FDFEFF;}
	.st16{fill:#F8FAFB;}
	.st17{fill:#F7F9FA;}
	.st18{fill:#F7F7FA;}
	.st19{fill:#F6F7F9;}
	.st20{fill:#A7B1CA;}
	.st21{fill:#5CBA47;}
	.st22{fill:#FDFEFC;}
	.st23{fill:#F26A2C;}
	.st24{fill:#1C97D4;}
	.st25{fill:#FAFDFF;}
	.st26{fill:#DD1768;}
	.st27{fill:#FFFBFD;}
	.st28{fill:#F99D29;}
	.st29{fill:#FFFCFA;}
	.st30{fill:#407F44;}
	.st31{fill:#29BEE2;}
	.st32{fill:#FAC315;}
	.st33{fill:#FFFCF8;}
	.st34{fill:#FFFFFC;}
	.st35{fill:#FFFCF7;}
	.st36{fill:#EF402C;}
	.st37{fill:#A21C44;}
	.st38{fill:#DC3746;}
	.st39{fill:#FDC010;}
	.st40{fill-rule:evenodd;clip-rule:evenodd;fill:#E0E0DF;}
</style>
<rect x="141" y="1" transform="matrix(-1 -1.224647e-16 1.224647e-16 -1 338.34 145.0949)" class="st0" width="56.4" height="143.1"/>
<g>
	<circle class="st40" cx="162.6" cy="72.9" r="6.2"/>
	<circle class="st40" cx="180.9" cy="72.9" r="6.2"/>
</g>
<rect y="0.5" class="st28" width="143.7" height="144.7"/>
<path class="st7" d="M49.3,98.9c0-11.9,0-23.8,0-35.7c0-1,0.1-1.1,1-1.1c6.7,0,13.4,0,20.2,0c0.9,0,1,0.1,1,1c0,23.8,0,47.6,0,71.4
	c0,0.8-0.1,0.9-1,0.9c-6.8,0-13.5,0-20.3,0c-0.9,0-1,0-1-1C49.3,122.6,49.3,110.8,49.3,98.9z M58.4,112.2c0-0.8,0-1.6,0-2.5
	c0-0.4-0.1-0.5-0.5-0.5c-1.4,0-2.9,0-4.3,0c-0.4,0-0.5,0.1-0.5,0.5c0,1.6,0,3.3,0,4.9c0,0.4,0.2,0.6,0.6,0.6c1.4,0,2.8,0,4.2,0
	c0.4,0,0.6-0.2,0.6-0.6C58.3,113.8,58.4,113,58.4,112.2z M53,99.8c0,0.8,0,1.6,0,2.5c0,0.4,0.1,0.5,0.5,0.5c1.4,0,2.9,0,4.3,0
	c0.4,0,0.5-0.2,0.5-0.6c0-1.6,0-3.2,0-4.8c0-0.4-0.1-0.6-0.6-0.6c-1.4,0-2.8,0-4.2,0c-0.4,0-0.6,0.2-0.6,0.6C53,98.2,53,99,53,99.8z
	 M53,75c0,0.8,0,1.6,0,2.4c0,0.4,0.1,0.6,0.5,0.6c1.4,0,2.9,0,4.3,0c0.4,0,0.5-0.2,0.5-0.5c0-1.6,0-3.3,0-4.9c0-0.4-0.2-0.5-0.6-0.5
	c-1.4,0-2.8,0-4.2,0c-0.4,0-0.6,0.2-0.6,0.6C53,73.4,53,74.2,53,75z M67.9,75c0-0.8,0-1.6,0-2.4c0-0.4-0.1-0.6-0.6-0.6
	c-1.4,0-2.8,0-4.2,0c-0.4,0-0.6,0.1-0.6,0.6c0,1.6,0,3.2,0,4.8c0,0.4,0.1,0.6,0.5,0.6c1.4,0,2.8,0,4.2,0c0.5,0,0.6-0.2,0.6-0.6
	C67.8,76.6,67.9,75.8,67.9,75z M67.9,112.2c0-0.8,0-1.6,0-2.5c0-0.4-0.1-0.5-0.5-0.5c-1.4,0-2.9,0-4.3,0c-0.4,0-0.5,0.1-0.5,0.5
	c0,1.6,0,3.3,0,4.9c0,0.4,0.2,0.6,0.6,0.6c1.4,0,2.8,0,4.2,0c0.4,0,0.6-0.1,0.6-0.6C67.8,113.8,67.9,113,67.9,112.2z M67.9,99.8
	c0-0.8,0-1.6,0-2.4c0-0.4-0.1-0.6-0.5-0.6c-1.4,0-2.9,0-4.3,0c-0.4,0-0.5,0.1-0.5,0.5c0,1.6,0,3.2,0,4.9c0,0.4,0.2,0.5,0.6,0.5
	c1.4,0,2.8,0,4.2,0c0.5,0,0.6-0.2,0.6-0.6C67.8,101.4,67.9,100.6,67.9,99.8z M67.9,124.6c0-0.8,0-1.6,0-2.4c0-0.4-0.2-0.6-0.6-0.6
	c-1.4,0-2.8,0-4.3,0c-0.4,0-0.6,0.1-0.6,0.6c0,1.6,0,3.2,0,4.8c0,0.4,0.2,0.6,0.6,0.6c1.4,0,2.8,0,4.3,0c0.4,0,0.6-0.1,0.6-0.6
	C67.8,126.2,67.8,125.4,67.9,124.6z M67.9,87.4c0-0.8,0-1.6,0-2.3c0-0.5-0.1-0.6-0.6-0.6c-1.4,0-2.8,0-4.2,0c-0.4,0-0.6,0.1-0.6,0.6
	c0,1.6,0,3.2,0,4.8c0,0.4,0.1,0.6,0.5,0.6c1.4,0,2.9,0,4.3,0c0.4,0,0.5-0.1,0.5-0.5C67.8,89,67.8,88.2,67.9,87.4z M58.4,87.4
	c0-0.8,0-1.6,0-2.5c0-0.3-0.1-0.5-0.5-0.5c-1.5,0-2.9,0-4.4,0c-0.4,0-0.5,0.1-0.5,0.5c0,1.6,0,3.2,0,4.8c0,0.4,0.1,0.6,0.5,0.6
	c1.4,0,2.9,0,4.3,0c0.4,0,0.5-0.2,0.5-0.5C58.3,89,58.4,88.2,58.4,87.4z M58.4,124.6c0-0.8,0-1.6,0-2.3c0-0.5-0.1-0.7-0.6-0.7
	c-1.4,0-2.7,0-4.1,0c-0.5,0-0.6,0.2-0.6,0.6c0,1.6,0,3.1,0,4.7c0,0.4,0.1,0.6,0.6,0.6c1.4,0,2.8,0,4.2,0c0.5,0,0.6-0.2,0.6-0.6
	C58.3,126.1,58.4,125.4,58.4,124.6z"/>
<path class="st29" d="M96.6,105.5c0,9.7,0,19.4,0,29.1c0,1,0,1-1,1c-6.7,0-13.4,0-20.1,0c-1,0-1-0.1-1-1.1c0-10.4,0-20.9,0-31.3
	c0-0.5,0.1-0.9,0.4-1.3c6.8-8.7,13.7-17.3,20.5-26c0.2-0.3,0.4-0.6,0.9-0.5c0.5,0.2,0.4,0.6,0.4,1C96.6,86.1,96.6,95.8,96.6,105.5z
	 M84.5,100.8c0-1.4,0-2.7,0-4.1c0-0.3,0-0.7-0.4-0.8c-0.4-0.1-0.6,0.2-0.8,0.4c-1.8,2.3-3.7,4.6-5.5,6.9c-0.4,0.5-0.6,1-0.6,1.7
	c0,0.6,0.2,0.8,0.8,0.8c1.9,0,3.8,0,5.6,0c0.7,0,0.9-0.1,0.9-0.8C84.5,103.5,84.5,102.2,84.5,100.8z M80.8,108.1c-1,0-2,0-3,0
	c-0.5,0-0.7,0.2-0.7,0.7c0,1.2,0,2.4,0,3.6c0,0.4,0.2,0.7,0.7,0.7c2,0,4,0,6,0c0.5,0,0.7-0.3,0.7-0.8c0-1.2,0-2.3,0-3.5
	c0-0.5-0.2-0.7-0.7-0.7C82.8,108.1,81.8,108.1,80.8,108.1z M90.4,127.6c1,0,1.9,0,2.9,0c0.6,0,0.8-0.2,0.8-0.8c0-1.1,0-2.3,0-3.4
	c0-0.5-0.2-0.8-0.8-0.8c-1.9,0-3.9,0-5.8,0c-0.5,0-0.8,0.2-0.7,0.8c0,1.1,0,2.3,0,3.4c0,0.6,0.3,0.8,0.8,0.8
	C88.5,127.6,89.5,127.6,90.4,127.6z M90.4,98.4c1,0,1.9,0,2.9,0c0.5,0,0.8-0.2,0.8-0.7c0-1.2,0-2.3,0-3.5c0-0.5-0.2-0.7-0.7-0.7
	c-2,0-3.9,0-5.9,0c-0.5,0-0.7,0.2-0.7,0.7c0,1.2,0,2.3,0,3.5c0,0.5,0.2,0.7,0.7,0.7C88.5,98.4,89.4,98.4,90.4,98.4z M90.4,120.3
	c1,0,2,0,3,0c0.5,0,0.7-0.2,0.7-0.7c0-1.2,0-2.3,0-3.5c0-0.5-0.2-0.8-0.8-0.8c-1.9,0-3.8,0-5.8,0c-0.6,0-0.8,0.2-0.8,0.8
	c0,1.1,0,2.2,0,3.4c0,0.6,0.3,0.8,0.8,0.8C88.5,120.3,89.5,120.3,90.4,120.3z M90.4,108.1c-1,0-1.9,0-2.9,0c-0.6,0-0.8,0.2-0.7,0.8
	c0,1.1,0,2.3,0,3.4c0,0.5,0.2,0.8,0.8,0.8c1.9,0,3.9,0,5.8,0c0.5,0,0.8-0.2,0.7-0.7c0-1.2,0-2.4,0-3.5c0-0.5-0.2-0.7-0.8-0.7
	C92.4,108.1,91.4,108.1,90.4,108.1z M80.8,127.6c1,0,1.9,0,2.9,0c0.5,0,0.8-0.2,0.8-0.8c0-1.2,0-2.3,0-3.5c0-0.5-0.2-0.7-0.7-0.7
	c-2,0-3.9,0-5.9,0c-0.5,0-0.7,0.2-0.7,0.7c0,1.2,0,2.4,0,3.5c0,0.5,0.2,0.7,0.7,0.7C78.8,127.6,79.8,127.6,80.8,127.6z M80.8,120.3
	c1,0,1.9,0,2.9,0c0.5,0,0.8-0.2,0.8-0.8c0-1.1,0-2.3,0-3.4c0-0.6-0.3-0.8-0.8-0.8c-1.9,0-3.8,0-5.8,0c-0.5,0-0.8,0.2-0.8,0.8
	c0,1.2,0,2.3,0,3.5c0,0.5,0.2,0.7,0.7,0.7C78.9,120.3,79.8,120.3,80.8,120.3z M90.4,100.8c-1,0-1.9,0-2.9,0c-0.5,0-0.8,0.2-0.7,0.8
	c0,1.1,0,2.3,0,3.4c0,0.5,0.2,0.8,0.8,0.8c1.9,0,3.9,0,5.8,0c0.5,0,0.8-0.2,0.8-0.8c0-1.1,0-2.3,0-3.4c0-0.5-0.2-0.8-0.8-0.8
	C92.4,100.8,91.4,100.8,90.4,100.8z M94.1,87.3c0-1,0-2,0-3c0-0.3,0-0.7-0.4-0.8c-0.4-0.1-0.6,0.1-0.8,0.4c-1.6,2-3.3,4.1-4.9,6.1
	c-0.2,0.2-0.4,0.5-0.3,0.8c0.2,0.4,0.5,0.4,0.8,0.4c1.6,0,3.1,0,4.7,0c0.7,0,0.9-0.1,0.9-0.8C94.1,89.2,94.1,88.2,94.1,87.3z"/>
<path class="st29" d="M99.1,124.2c0-3.5,0-6.9,0-10.4c0-0.9,0.1-1,1-1c6.9,0,13.9,0,20.8,0c0.8,0,0.9,0.1,0.9,1c0,7,0,14,0,20.9
	c0,0.9-0.1,1-1,1c-6.9,0-13.8,0-20.7,0c-0.9,0-1-0.1-1-1C99.1,131.2,99.1,127.7,99.1,124.2z M105.6,127.6c1,0,2,0,3,0
	c0.5,0,0.8-0.2,0.8-0.7c0-1.2,0-2.3,0-3.5c0-0.5-0.2-0.7-0.7-0.7c-2,0-4,0-6,0c-0.5,0-0.8,0.2-0.7,0.8c0,1.1,0,2.3,0,3.4
	c0,0.5,0.2,0.8,0.8,0.8C103.6,127.6,104.6,127.6,105.6,127.6z M115.5,127.6c1,0,2,0,3,0c0.5,0,0.8-0.2,0.8-0.7c0-1.2,0-2.3,0-3.5
	c0-0.5-0.2-0.7-0.7-0.7c-2,0-4,0-6,0c-0.5,0-0.8,0.2-0.7,0.8c0,1.1,0,2.3,0,3.4c0,0.5,0.2,0.8,0.8,0.8
	C113.5,127.6,114.5,127.6,115.5,127.6z M105.6,120.4c1,0,2,0,3,0c0.5,0,0.8-0.2,0.8-0.7c0-1.2,0-2.3,0-3.5c0-0.5-0.2-0.7-0.7-0.7
	c-2,0-4,0-6,0c-0.5,0-0.8,0.2-0.8,0.8c0,1.1,0,2.2,0,3.4c0,0.6,0.2,0.8,0.8,0.8C103.7,120.3,104.6,120.4,105.6,120.4z M115.6,115.4
	c-1,0-2.1,0-3.1,0c-0.5,0-0.7,0.2-0.7,0.7c0,1.2,0,2.3,0,3.5c0,0.5,0.2,0.7,0.7,0.7c2,0,4.1,0,6.1,0c0.5,0,0.7-0.2,0.7-0.7
	c0-1.2,0-2.4,0-3.5c0-0.5-0.2-0.7-0.7-0.7C117.5,115.4,116.6,115.4,115.6,115.4z"/>
<path class="st3" d="M34.8,117.3c3.5,0,7.1,0,10.6,0c0.8,0,0.9,0.1,0.9,0.9c0,5.4,0,10.9,0,16.3c0,0.9-0.1,1-0.9,1
	c-2.1,0-4.2,0-6.3,0c-0.4,0-0.6-0.1-0.6-0.6c0-3.3,0-6.5,0-9.8c0-0.9-0.1-1-0.9-1c-1.9,0-3.7,0-5.6,0c-1,0-1.1,0.1-1.1,1
	c0,3.2,0,6.4,0,9.6c0,0.5-0.1,0.7-0.7,0.7c-2,0-4.1,0-6.1,0c-0.6,0-0.8-0.2-0.8-0.8c0-5.5,0-11,0-16.6c0-0.6,0.2-0.8,0.8-0.8
	C27.7,117.3,31.2,117.3,34.8,117.3z"/>
<path class="st3" d="M34.9,115.3c-3.5,0-7,0-10.5,0c-0.3,0-0.7,0.1-0.8-0.3c-0.2-0.4,0.1-0.6,0.2-0.8c3.4-4.5,6.9-9,10.3-13.5
	c0.6-0.8,0.9-0.8,1.5,0c3.5,4.5,7,9,10.4,13.5c0.2,0.3,0.5,0.5,0.3,0.9c-0.2,0.4-0.5,0.3-0.8,0.3C41.9,115.3,38.4,115.3,34.9,115.3z
	"/>
<path class="st7" d="M110.4,105.9c3.5,0,6.9,0,10.4,0c0.8,0,0.9,0.1,0.9,0.9c0,1.2,0,2.3,0,3.5c0,0.8-0.1,0.9-0.8,0.9
	c-7,0-14,0-21,0c-0.6,0-0.8-0.2-0.8-0.8c0-1.2,0-2.5,0-3.7c0-0.6,0.2-0.8,0.8-0.8C103.4,105.9,106.9,105.9,110.4,105.9z"/>
<g>
	<g>
		<path class="st3" d="M19.8,34V14.7L17,16.1v-3.7c0.6-0.4,1.3-0.8,2.1-1.3c0.8-0.5,1.3-1,1.6-1.3H24V34H19.8z"/>
		<path class="st3" d="M32.9,34V14.7l-2.8,1.4v-3.7c0.6-0.4,1.3-0.8,2.1-1.3c0.8-0.5,1.3-1,1.6-1.3h3.3V34H32.9z"/>
	</g>
</g>
<g>
	<g>
		<path class="st3" d="M46.5,22.3c-1.2,0-2.1-0.3-2.7-0.9c-0.6-0.6-0.9-1.5-0.9-2.7l2.4-0.3c0,0.7,0.1,1.2,0.3,1.5
			c0.2,0.3,0.5,0.5,0.8,0.5c0.5,0,0.7-0.3,0.7-0.8c0-0.3-0.1-0.6-0.2-0.8c-0.1-0.3-0.3-0.5-0.5-0.7s-0.4-0.4-0.7-0.6l-1.1-0.9
			c-0.3-0.2-0.5-0.4-0.7-0.6c-0.2-0.2-0.4-0.4-0.5-0.6c-0.2-0.2-0.3-0.5-0.4-0.8c-0.1-0.3-0.1-0.6-0.1-1c0-0.9,0.3-1.7,0.9-2.2
			c0.6-0.5,1.5-0.8,2.6-0.8c0.4,0,0.7,0,1,0.1s0.6,0.2,0.8,0.3c0.2,0.1,0.4,0.3,0.6,0.4c0.2,0.2,0.3,0.4,0.4,0.5
			c0.1,0.2,0.2,0.4,0.2,0.6c0.1,0.2,0.1,0.4,0.1,0.6c0,0.2,0,0.4,0,0.6l-2.4,0.3c0-0.2,0-0.3,0-0.5c0-0.1,0-0.3,0-0.4
			c0-0.1,0-0.3-0.1-0.3c0-0.1-0.1-0.2-0.1-0.2c-0.1-0.1-0.1-0.1-0.2-0.2s-0.2,0-0.3,0c-0.2,0-0.4,0.1-0.6,0.3
			c-0.1,0.2-0.2,0.4-0.2,0.6c0,0.2,0,0.4,0.1,0.6c0.1,0.2,0.2,0.3,0.3,0.5s0.3,0.3,0.4,0.4s0.2,0.2,0.5,0.4l1.1,0.8
			c0.3,0.2,0.5,0.5,0.8,0.7c0.2,0.2,0.4,0.5,0.6,0.7c0.2,0.3,0.3,0.6,0.4,0.9c0.1,0.3,0.1,0.7,0.1,1.1c0,0.8-0.3,1.5-0.9,2
			C48.3,22,47.5,22.3,46.5,22.3z"/>
		<path class="st3" d="M54.8,22.3c-0.6,0-1.1-0.1-1.5-0.2c-0.4-0.1-0.8-0.3-1.1-0.5s-0.5-0.5-0.7-0.8c-0.2-0.3-0.3-0.7-0.4-1
			c-0.1-0.4-0.1-0.8-0.1-1.3v-7.8h2.8v8.1c0,0.2,0,0.3,0,0.5c0,0.1,0,0.3,0.1,0.4c0,0.1,0.1,0.3,0.2,0.4c0.1,0.1,0.2,0.2,0.3,0.2
			c0.1,0.1,0.3,0.1,0.4,0.1s0.3,0,0.4-0.1c0.1-0.1,0.2-0.1,0.3-0.2c0.1-0.1,0.1-0.2,0.2-0.4s0.1-0.3,0.1-0.4c0-0.1,0-0.3,0-0.5v-8.1
			h2.8v7.8c0,0.6-0.1,1.2-0.2,1.6s-0.3,0.8-0.6,1.2s-0.7,0.6-1.2,0.7C56.2,22.2,55.6,22.3,54.8,22.3z"/>
		<path class="st3" d="M63.7,22.3c-1.2,0-2.1-0.3-2.7-0.9c-0.6-0.6-0.9-1.5-0.9-2.7l2.4-0.3c0,0.7,0.1,1.2,0.3,1.5
			c0.2,0.3,0.5,0.5,0.8,0.5c0.5,0,0.7-0.3,0.7-0.8c0-0.3-0.1-0.6-0.2-0.8c-0.1-0.3-0.3-0.5-0.5-0.7s-0.4-0.4-0.7-0.6l-1.1-0.9
			c-0.3-0.2-0.5-0.4-0.7-0.6c-0.2-0.2-0.4-0.4-0.5-0.6c-0.2-0.2-0.3-0.5-0.4-0.8c-0.1-0.3-0.1-0.6-0.1-1c0-0.9,0.3-1.7,0.9-2.2
			c0.6-0.5,1.5-0.8,2.6-0.8c0.4,0,0.7,0,1,0.1s0.6,0.2,0.8,0.3c0.2,0.1,0.4,0.3,0.6,0.4c0.2,0.2,0.3,0.4,0.4,0.5
			c0.1,0.2,0.2,0.4,0.2,0.6c0.1,0.2,0.1,0.4,0.1,0.6c0,0.2,0,0.4,0,0.6l-2.4,0.3c0-0.2,0-0.3,0-0.5c0-0.1,0-0.3,0-0.4
			c0-0.1,0-0.3-0.1-0.3c0-0.1-0.1-0.2-0.1-0.2c-0.1-0.1-0.1-0.1-0.2-0.2s-0.2,0-0.3,0c-0.2,0-0.4,0.1-0.6,0.3
			c-0.1,0.2-0.2,0.4-0.2,0.6c0,0.2,0,0.4,0.1,0.6c0.1,0.2,0.2,0.3,0.3,0.5s0.3,0.3,0.4,0.4s0.2,0.2,0.5,0.4l1.1,0.8
			c0.3,0.2,0.5,0.5,0.8,0.7c0.2,0.2,0.4,0.5,0.6,0.7c0.2,0.3,0.3,0.6,0.4,0.9C67,18.7,67,19,67,19.4c0,0.8-0.3,1.5-0.9,2
			C65.5,22,64.7,22.3,63.7,22.3z"/>
		<path class="st3" d="M69.5,22.1v-9.5h-1.9v-1.9h6.7v1.9h-1.9v9.5H69.5z"/>
		<path class="st3" d="M74.7,22.1l2.4-11.3h3.2l2.4,11.3H80l-0.4-2.4h-1.8l-0.4,2.4H74.7z M78,18.2h1.3l-0.7-4.4L78,18.2z"/>
		<path class="st3" d="M83.9,22.1V10.8h2.8v11.3H83.9z"/>
		<path class="st3" d="M88.6,22.1V10.8h2l2.6,5.4v-5.4h2.3v11.3h-1.9l-2.6-5.9v5.9H88.6z"/>
		<path class="st3" d="M96.7,22.1l2.4-11.3h3.2l2.4,11.3H102l-0.4-2.4h-1.8l-0.4,2.4H96.7z M100,18.2h1.3l-0.7-4.4L100,18.2z"/>
		<path class="st3" d="M105.9,22.1V10.8h3.3c0.5,0,0.9,0,1.3,0.1c0.4,0,0.7,0.1,1.1,0.3s0.7,0.3,0.9,0.5c0.2,0.2,0.4,0.5,0.6,0.9
			c0.1,0.3,0.2,0.7,0.2,1.2c0,0,0,0.1,0,0.1c0,1.3-0.6,2.1-1.9,2.3c0.7,0.1,1.3,0.4,1.7,0.8c0.4,0.5,0.6,1.1,0.6,1.9
			c0,0,0,0.1,0,0.1c0,1.1-0.3,1.9-1,2.5c-0.7,0.5-1.6,0.8-2.9,0.8H105.9z M108.7,15.3h0.5c0.6,0,1-0.1,1.2-0.4
			c0.2-0.2,0.3-0.6,0.3-1.1c0-0.9-0.5-1.3-1.6-1.3h-0.4V15.3z M108.7,20.3h0.6c0.6,0,1-0.1,1.3-0.4s0.4-0.7,0.4-1.3
			c0-0.6-0.1-1.1-0.4-1.4s-0.7-0.4-1.3-0.4h-0.5V20.3z"/>
		<path class="st3" d="M115.1,22.1V10.8h2.8v9.6h2.9v1.7H115.1z"/>
		<path class="st3" d="M122,22.1V10.8h5.7v1.7h-2.9v2.8h2.2V17h-2.2v3.4h2.9v1.7H122z"/>
		<path class="st3" d="M46.8,39.1c-0.7,0-1.3-0.1-1.8-0.3c-0.5-0.2-0.9-0.4-1.2-0.8s-0.5-0.7-0.6-1.2s-0.2-1-0.2-1.6v-4
			c0-0.6,0.1-1.1,0.2-1.6c0.1-0.5,0.3-0.9,0.6-1.2c0.3-0.3,0.7-0.6,1.2-0.8c0.5-0.2,1.1-0.3,1.8-0.3c0.7,0,1.3,0.1,1.7,0.2
			s0.9,0.4,1.1,0.7c0.3,0.3,0.5,0.6,0.6,1c0.1,0.4,0.2,0.8,0.2,1.3v1h-2.7v-1.1c0-0.2,0-0.3,0-0.4c0-0.1,0-0.2-0.1-0.4
			c0-0.1-0.1-0.3-0.1-0.3s-0.1-0.1-0.3-0.2c-0.1-0.1-0.3-0.1-0.4-0.1s-0.3,0-0.4,0.1c-0.1,0.1-0.2,0.1-0.3,0.2
			c-0.1,0.1-0.1,0.2-0.2,0.3c0,0.1-0.1,0.3-0.1,0.4c0,0.1,0,0.3,0,0.4v5.3c0,0.5,0.1,0.8,0.2,1c0.1,0.2,0.4,0.4,0.8,0.4
			c0.2,0,0.3,0,0.4-0.1c0.1-0.1,0.2-0.1,0.3-0.2c0.1-0.1,0.1-0.2,0.1-0.3s0.1-0.3,0.1-0.4c0-0.1,0-0.2,0-0.4v-1.2h2.7v1
			c0,0.4,0,0.8-0.1,1.1c-0.1,0.3-0.2,0.6-0.4,0.9c-0.2,0.3-0.4,0.5-0.7,0.7c-0.3,0.2-0.6,0.3-1,0.5C47.8,39,47.3,39.1,46.8,39.1z"/>
		<path class="st3" d="M52,38.9V27.6h2.8v11.3H52z"/>
		<path class="st3" d="M57.8,38.9v-9.5h-1.9v-1.9h6.7v1.9h-1.9v9.5H57.8z"/>
		<path class="st3" d="M63.6,38.9V27.6h2.8v11.3H63.6z"/>
		<path class="st3" d="M68.3,38.9V27.6H74v1.7h-2.9v2.8h2.2v1.7h-2.2v3.4H74v1.7H68.3z"/>
		<path class="st3" d="M78.6,39.1c-1.2,0-2.1-0.3-2.7-0.9c-0.6-0.6-0.9-1.5-0.9-2.7l2.4-0.3c0,0.7,0.1,1.2,0.3,1.5
			c0.2,0.3,0.5,0.5,0.8,0.5c0.5,0,0.7-0.3,0.7-0.8c0-0.3-0.1-0.6-0.2-0.8c-0.1-0.3-0.3-0.5-0.5-0.7s-0.4-0.4-0.7-0.6l-1.1-0.9
			c-0.3-0.2-0.5-0.4-0.7-0.6c-0.2-0.2-0.4-0.4-0.5-0.6c-0.2-0.2-0.3-0.5-0.4-0.8C75,31,75,30.7,75,30.4c0-0.9,0.3-1.7,0.9-2.2
			c0.6-0.5,1.5-0.8,2.6-0.8c0.4,0,0.7,0,1,0.1s0.6,0.2,0.8,0.3c0.2,0.1,0.4,0.3,0.6,0.4c0.2,0.2,0.3,0.4,0.4,0.5
			c0.1,0.2,0.2,0.4,0.2,0.6c0.1,0.2,0.1,0.4,0.1,0.6c0,0.2,0,0.4,0,0.6l-2.4,0.3c0-0.2,0-0.3,0-0.5c0-0.1,0-0.3,0-0.4
			c0-0.1,0-0.3-0.1-0.3c0-0.1-0.1-0.2-0.1-0.2c-0.1-0.1-0.1-0.1-0.2-0.2s-0.2,0-0.3,0c-0.2,0-0.4,0.1-0.6,0.3
			c-0.1,0.2-0.2,0.4-0.2,0.6c0,0.2,0,0.4,0.1,0.6c0.1,0.2,0.2,0.3,0.3,0.5s0.3,0.3,0.4,0.4s0.2,0.2,0.5,0.4l1.1,0.8
			c0.3,0.2,0.5,0.5,0.8,0.7c0.2,0.2,0.4,0.5,0.6,0.7c0.2,0.3,0.3,0.6,0.4,0.9c0.1,0.3,0.1,0.7,0.1,1.1c0,0.8-0.3,1.5-0.9,2
			C80.4,38.8,79.6,39.1,78.6,39.1z"/>
		<path class="st3" d="M86.7,38.9l2.4-11.3h3.2l2.4,11.3h-2.6l-0.4-2.4h-1.8l-0.4,2.4H86.7z M90,35h1.3l-0.7-4.4L90,35z"/>
		<path class="st3" d="M95.9,38.9V27.6h2l2.6,5.4v-5.4h2.3v11.3h-1.9L98.3,33v5.9H95.9z"/>
		<path class="st3" d="M104.6,38.9V27.6h3.2c0.8,0,1.5,0.1,2.1,0.2c0.5,0.1,1,0.3,1.3,0.6c0.3,0.3,0.6,0.7,0.7,1.1
			c0.1,0.4,0.2,1,0.2,1.6v4.1c0,0.7-0.1,1.2-0.2,1.7c-0.1,0.4-0.4,0.8-0.7,1.1c-0.3,0.3-0.8,0.5-1.3,0.7c-0.5,0.1-1.2,0.2-2,0.2
			H104.6z M107.4,37.2h0.4c0.2,0,0.4,0,0.5,0c0.2,0,0.3-0.1,0.4-0.1c0.1-0.1,0.2-0.1,0.2-0.2c0.1-0.1,0.1-0.2,0.1-0.3
			c0-0.1,0-0.3,0.1-0.4c0-0.1,0-0.3,0-0.5v-4.9c0-0.3,0-0.5,0-0.7s-0.1-0.3-0.2-0.4c-0.1-0.1-0.2-0.2-0.4-0.3
			c-0.2,0-0.4-0.1-0.7-0.1h-0.4V37.2z"/>
		<path class="st3" d="M46.8,55.9c-0.7,0-1.3-0.1-1.8-0.3c-0.5-0.2-0.9-0.4-1.2-0.8s-0.5-0.7-0.6-1.2s-0.2-1-0.2-1.6v-4
			c0-0.6,0.1-1.1,0.2-1.6c0.1-0.5,0.3-0.9,0.6-1.2c0.3-0.3,0.7-0.6,1.2-0.8c0.5-0.2,1.1-0.3,1.8-0.3c0.7,0,1.3,0.1,1.7,0.2
			s0.9,0.4,1.1,0.7c0.3,0.3,0.5,0.6,0.6,1c0.1,0.4,0.2,0.8,0.2,1.3v1h-2.7v-1.1c0-0.2,0-0.3,0-0.4c0-0.1,0-0.2-0.1-0.4
			c0-0.1-0.1-0.3-0.1-0.3s-0.1-0.1-0.3-0.2C47.1,46,47,46,46.8,46s-0.3,0-0.4,0.1c-0.1,0.1-0.2,0.1-0.3,0.2
			c-0.1,0.1-0.1,0.2-0.2,0.3c0,0.1-0.1,0.3-0.1,0.4c0,0.1,0,0.3,0,0.4v5.3c0,0.5,0.1,0.8,0.2,1c0.1,0.2,0.4,0.4,0.8,0.4
			c0.2,0,0.3,0,0.4-0.1c0.1-0.1,0.2-0.1,0.3-0.2c0.1-0.1,0.1-0.2,0.1-0.3s0.1-0.3,0.1-0.4c0-0.1,0-0.2,0-0.4v-1.2h2.7v1
			c0,0.4,0,0.8-0.1,1.1c-0.1,0.3-0.2,0.6-0.4,0.9c-0.2,0.3-0.4,0.5-0.7,0.7c-0.3,0.2-0.6,0.3-1,0.5C47.8,55.8,47.3,55.9,46.8,55.9z"
			/>
		<path class="st3" d="M55.6,55.9c-0.7,0-1.3-0.1-1.8-0.2c-0.5-0.2-0.9-0.4-1.2-0.7c-0.3-0.3-0.5-0.7-0.6-1.2s-0.2-1-0.2-1.6v-4.2
			c0-0.6,0.1-1.1,0.2-1.6c0.1-0.4,0.3-0.8,0.6-1.2c0.3-0.3,0.7-0.6,1.2-0.7c0.5-0.2,1.1-0.2,1.8-0.2c1.4,0,2.3,0.3,2.9,0.9
			c0.6,0.6,0.9,1.6,0.9,2.8v4.2c0,1.2-0.3,2.2-0.9,2.8C57.9,55.5,56.9,55.9,55.6,55.9z M55.1,54c0.1,0.1,0.3,0.1,0.4,0.1
			s0.3,0,0.4-0.1c0.1-0.1,0.2-0.1,0.3-0.2c0.1-0.1,0.1-0.2,0.2-0.3s0.1-0.2,0.1-0.4c0-0.1,0-0.2,0-0.4v-5.4c0-0.2,0-0.3,0-0.4
			c0-0.1,0-0.2-0.1-0.4c0-0.1-0.1-0.2-0.2-0.3c-0.1-0.1-0.2-0.1-0.3-0.2C55.9,46,55.7,46,55.6,46s-0.3,0-0.4,0.1
			c-0.1,0.1-0.2,0.1-0.3,0.2c-0.1,0.1-0.1,0.2-0.2,0.3c0,0.1-0.1,0.2-0.1,0.4s0,0.2,0,0.4v5.4c0,0.2,0,0.3,0,0.4
			c0,0.1,0,0.2,0.1,0.4c0,0.1,0.1,0.2,0.2,0.3C54.9,53.9,55,53.9,55.1,54z"/>
		<path class="st3" d="M61,55.7l0.2-11.3h3l1.4,6.6l1.5-6.6H70l0.2,11.3h-2L68,48.2l-1.5,7.5h-1.7l-1.6-7.6l-0.2,7.6H61z"/>
		<path class="st3" d="M72,55.7l0.2-11.3h3l1.4,6.6l1.5-6.6H81l0.2,11.3h-2L79,48.2l-1.5,7.5h-1.7l-1.6-7.6l-0.2,7.6H72z"/>
		<path class="st3" d="M86.7,55.9c-0.6,0-1.1-0.1-1.5-0.2c-0.4-0.1-0.8-0.3-1.1-0.5s-0.5-0.5-0.7-0.8c-0.2-0.3-0.3-0.7-0.4-1
			C83,53.1,83,52.6,83,52.1v-7.8h2.8v8.1c0,0.2,0,0.3,0,0.5c0,0.1,0,0.3,0.1,0.4c0,0.1,0.1,0.3,0.2,0.4c0.1,0.1,0.2,0.2,0.3,0.2
			c0.1,0.1,0.3,0.1,0.4,0.1s0.3,0,0.4-0.1c0.1-0.1,0.2-0.1,0.3-0.2c0.1-0.1,0.1-0.2,0.2-0.4s0.1-0.3,0.1-0.4c0-0.1,0-0.3,0-0.5v-8.1
			h2.8v7.8c0,0.6-0.1,1.2-0.2,1.6s-0.3,0.8-0.6,1.2s-0.7,0.6-1.2,0.7C88,55.8,87.4,55.9,86.7,55.9z"/>
		<path class="st3" d="M92.2,55.7V44.4h2l2.6,5.4v-5.4h2.3v11.3h-1.9l-2.6-5.9v5.9H92.2z"/>
		<path class="st3" d="M101,55.7V44.4h2.8v11.3H101z"/>
		<path class="st3" d="M106.8,55.7v-9.5h-1.9v-1.9h6.7v1.9h-1.9v9.5H106.8z"/>
		<path class="st3" d="M112.6,55.7V44.4h2.8v11.3H112.6z"/>
		<path class="st3" d="M117.3,55.7V44.4h5.7v1.7h-2.9v2.8h2.2v1.7h-2.2V54h2.9v1.7H117.3z"/>
		<path class="st3" d="M127.7,55.9c-1.2,0-2.1-0.3-2.7-0.9c-0.6-0.6-0.9-1.5-0.9-2.7l2.4-0.3c0,0.7,0.1,1.2,0.3,1.5
			c0.2,0.3,0.5,0.5,0.8,0.5c0.5,0,0.7-0.3,0.7-0.8c0-0.3-0.1-0.6-0.2-0.8c-0.1-0.3-0.3-0.5-0.5-0.7s-0.4-0.4-0.7-0.6l-1.1-0.9
			c-0.3-0.2-0.5-0.4-0.7-0.6c-0.2-0.2-0.4-0.4-0.5-0.6c-0.2-0.2-0.3-0.5-0.4-0.8c-0.1-0.3-0.1-0.6-0.1-1c0-0.9,0.3-1.7,0.9-2.2
			c0.6-0.5,1.5-0.8,2.6-0.8c0.4,0,0.7,0,1,0.1s0.6,0.2,0.8,0.3c0.2,0.1,0.4,0.3,0.6,0.4c0.2,0.2,0.3,0.4,0.4,0.5
			c0.1,0.2,0.2,0.4,0.2,0.6c0.1,0.2,0.1,0.4,0.1,0.6c0,0.2,0,0.4,0,0.6l-2.4,0.3c0-0.2,0-0.3,0-0.5c0-0.1,0-0.3,0-0.4
			c0-0.1,0-0.3-0.1-0.3c0-0.1-0.1-0.2-0.1-0.2c-0.1-0.1-0.1-0.1-0.2-0.2s-0.2,0-0.3,0c-0.2,0-0.4,0.1-0.6,0.3
			c-0.1,0.2-0.2,0.4-0.2,0.6c0,0.2,0,0.4,0.1,0.6c0.1,0.2,0.2,0.3,0.3,0.5s0.3,0.3,0.4,0.4s0.2,0.2,0.5,0.4l1.1,0.8
			c0.3,0.2,0.5,0.5,0.8,0.7c0.2,0.2,0.4,0.5,0.6,0.7c0.2,0.3,0.3,0.6,0.4,0.9c0.1,0.3,0.1,0.7,0.1,1.1c0,0.8-0.3,1.5-0.9,2
			C129.4,55.6,128.6,55.9,127.7,55.9z"/>
	</g>
</g>
</svg>
