<?xml version="1.0" encoding="utf-8"?>
<!-- Generator: Adobe Illustrator 21.0.0, SVG Export Plug-In . SVG Version: 6.00 Build 0)  -->
<svg version="1.1" id="Layer_1" xmlns="http://www.w3.org/2000/svg" xmlns:xlink="http://www.w3.org/1999/xlink" x="0px" y="0px"
	 viewBox="0 0 199.9 145.1" style="enable-background:new 0 0 199.9 145.1;" xml:space="preserve">
<style type="text/css">
	.st0{fill:#FFFFFF;stroke:#ABAAAA;stroke-miterlimit:10;}
	.st1{fill:#BF8B2C;}
	.st2{fill:#C5202E;}
	.st3{fill:#FFFFFF;}
	.st4{fill:#FFFAF9;}
	.st5{fill:#FFFCFD;}
	.st6{fill:#E4253C;}
	.st7{fill:#FFFFFD;}
	.st8{fill:#29A74A;}
	.st9{fill:#4CA046;}
	.st10{fill:#FDFEFD;}
	.st11{fill:#DEA73A;}
	.st12{fill:#18496B;}
	.st13{fill:#FAFCFE;}
	.st14{fill:#01699E;}
	.st15{fill:#FDFEFF;}
	.st16{fill:#F8FAFB;}
	.st17{fill:#F7F9FA;}
	.st18{fill:#F7F7FA;}
	.st19{fill:#F6F7F9;}
	.st20{fill:#A7B1CA;}
	.st21{fill:#5CBA47;}
	.st22{fill:#FDFEFC;}
	.st23{fill:#F26A2C;}
	.st24{fill:#1C97D4;}
	.st25{fill:#FAFDFF;}
	.st26{fill:#DD1768;}
	.st27{fill:#FFFBFD;}
	.st28{fill:#F99D29;}
	.st29{fill:#FFFCFA;}
	.st30{fill:#407F44;}
	.st31{fill:#29BEE2;}
	.st32{fill:#FAC315;}
	.st33{fill:#FFFCF8;}
	.st34{fill:#FFFFFC;}
	.st35{fill:#FFFCF7;}
	.st36{fill:#EF402C;}
	.st37{fill:#A21C44;}
	.st38{fill:#DC3746;}
	.st39{fill:#FDC010;}
	.st40{fill-rule:evenodd;clip-rule:evenodd;fill:#E0E0DF;}
</style>
<rect x="141" y="1" transform="matrix(-1 -1.224647e-16 1.224647e-16 -1 338.34 145.0949)" class="st0" width="56.4" height="143.1"/>
<rect y="0.5" class="st14" width="143" height="144.1"/>
<path class="st15" d="M48.4,108.8c0.3,0,0.6,0.1,0.9,0.1c0,0.1,0.1,0.1,0.2,0c0.2,0,0.3,0,0.5,0l0.1,0l0.1,0c1.5,0,2.9,0,4.3-0.4
	c1-0.3,2-0.7,2.9-1.3c1.1-0.8,2.2-1.5,3.4-2.2c1-0.6,2.2-1.1,3.4-1.3c0.1,0,0.3-0.1,0.5-0.1c-0.6-0.1-1.1-0.2-1.5-0.3
	c-3.2-0.7-5.6-2.4-7.4-5.1c-1.3-2-2.1-4.3-2.6-6.7c-0.5-2.2-1-4.4-1.7-6.6c-0.3-0.9-0.6-1.7-1.1-2.5c-0.6-1.1-1.5-2-2.6-2.5
	c-0.1,0-0.2-0.1-0.3-0.2c0.6,0,1.2-0.1,1.9-0.1c5.3-0.2,9.9,1.5,14,4.7c1.1,0.9,2.2,1.8,3.1,2.8c1.4,1.5,3,2.7,4.8,3.6
	c3.4,1.6,6.7,1.4,9.9-0.5c0.8-0.5,1.5-1.1,2.1-1.7c1.2-1.2,2.5-2.3,3.9-3.3c0.8-0.6,1.6-1.1,2.5-1.4c1.7-0.6,3-0.3,4.3,1.1
	c0.5,0.6,1.1,1.2,1.7,1.7c0.2-0.1,0.2-0.2,0.2-0.4c0.5-1.8,1.5-3.3,2.7-4.7c0.7-0.8,1.4-1.5,2.1-2.2c0.5-0.6,1-1.1,1.5-1.8
	c0.4-0.5,0.4-0.5,0.9-0.1c0,0.2-0.2,0.4-0.3,0.6c-0.7,1-1.6,1.9-2.5,2.8c-0.7,0.7-1.4,1.4-2,2.2c-0.9,1.1-1.5,2.4-1.8,3.8
	c-0.1,0.3,0,0.6,0.3,0.8c0.6,0.4,1.2,0.9,1.8,1.4c-0.3,0-0.6,0-0.9,0c-0.3,0-0.6,0-0.8,0c-0.5,0-0.5,0-0.5,0.5
	c0,1.3,0.3,2.6,0.7,3.9c0.1,0.3,0.2,0.7,0.3,1c-0.1,0.2-0.2,0.1-0.3,0.1c-0.3,0.1-0.4-0.1-0.5-0.3c-0.3-1.1-0.6-2.1-0.7-3.2
	c-0.1-0.4-0.1-0.9-0.1-1.3c0-0.4,0-0.4-0.4-0.4c-3.1,0.6-5.4,1.9-6.2,5.9c-0.3,1.4-0.3,2.8-0.3,4.3c0.1,2-0.1,4-0.8,5.9
	c-1,2.9-2.8,5.2-5.4,6.9c-2.3,1.5-4.8,2.4-7.4,3.1c-1,0.3-2.1,0.5-3.2,0.6c-0.3,0-0.4,0.2-0.4,0.4c0,2,0,4,0,5.9
	c0,0.4,0,0.4,0.5,0.4c2.1,0.1,4.2,0.1,6.4,0.1c1.1,0,2.1,0,3.2,0.1c1,0.1,2-0.1,3-0.2c1.7-0.2,3.4-0.4,5.1-0.6
	c0.5-0.1,0.5-0.1,0.5-0.5c0-0.9,0-1.9,0-2.8c0-0.9,0.3-1.2,1.2-1.2c3.7,0,7.4,0,11.1,0c0.9,0,1.2,0.3,1.2,1.2c0,3.7,0,7.4,0,11
	c0,0.9-0.4,1.2-1.2,1.2c-3.7,0-7.4,0-11.1,0c-0.9,0-1.2-0.4-1.2-1.2c0-0.9,0-1.9,0-2.8c0-0.5,0-0.5-0.5-0.6
	c-1.6-0.2-3.2-0.3-4.8-0.5c-2.9-0.4-5.7-0.1-8.6-0.1c-8.5,0.2-17.1,0.4-25.6,0.6c-1.8,0-3.6,0.1-5.3,0.1c-0.1,0-0.2,0-0.3,0
	c-0.4,0-0.4,0-0.5-0.4c0-0.1,0-0.2,0-0.2c0-1.1,0-2.1,0-3.2c0-0.8,0-0.7,0.7-0.7c3.4,0.1,6.7,0.1,10.1,0.2c3.2,0.1,6.4,0.1,9.6,0.2
	c0.5,0,0.5,0,0.5-0.4c0-1.8,0-3.7,0-5.5c0-0.5,0-0.5-0.5-0.5c-1.7-0.1-3.4-0.5-5-0.9c-2.1-0.5-3.9-1.5-5.8-2.7
	c-0.6-0.4-1.2-0.8-1.9-1.2c-1.3-0.8-2.7-1.6-4.1-2.3C48.3,108.9,48.4,108.8,48.4,108.8z M69.8,119.3c0-1,0-1.9,0-2.9
	c0-0.3-0.1-0.4-0.3-0.3c-0.6,0-1.2,0-1.8,0c-0.3,0-0.4,0.1-0.4,0.4c0,1.9,0,3.8,0,5.6c0,0.2,0.1,0.4,0.3,0.4c0.6,0,1.2,0,1.8,0
	c0.3,0,0.4-0.1,0.4-0.4C69.8,121.2,69.8,120.3,69.8,119.3z"/>
<path class="st16" d="M96.9,112.8c2,0,4.1,0,6.1,0c1,0,1.6,0.5,1.8,1.4c0.2,1.1-0.5,2-1.6,2.1c-0.2,0-0.3,0-0.5,0
	c-3.9,0-7.8,0-11.8,0c-0.3,0-0.6,0-0.8-0.1c-0.8-0.3-1.3-1-1.3-1.9c0.1-0.8,0.8-1.5,1.6-1.5c0.5,0,0.9,0,1.4,0
	C93.6,112.8,95.2,112.8,96.9,112.8z"/>
<path class="st13" d="M96.9,132.2c2.1,0,4.1,0,6.2,0c0.7,0,1.5,0.4,1.7,1.3c0.3,1.1-0.4,2.1-1.5,2.3c-0.2,0-0.3,0-0.5,0
	c-4,0-7.9,0-11.9,0c-0.3,0-0.6,0-0.8-0.1c-0.8-0.3-1.3-1.1-1.2-2c0.1-0.8,0.8-1.5,1.7-1.5C92.7,132.2,94.8,132.2,96.9,132.2z"/>
<path class="st17" d="M39.7,124.2c0-0.5,0-1,0-1.5c0-1.1,0.6-1.8,1.8-1.8c0.1,0,0.2,0,0.3,0c1-0.1,1.7,0.6,1.8,1.6
	c0.1,1.1,0.1,2.3,0,3.4c-0.1,1.1-0.9,1.7-1.8,1.6c-0.1,0-0.3,0-0.4,0c-0.9,0.1-1.6-0.7-1.6-1.6C39.7,125.3,39.7,124.8,39.7,124.2
	L39.7,124.2z"/>
<path class="st18" d="M108.4,72.3c0,0.5-0.1,1.2-0.4,1.8c-0.4,0.9-1,1.6-2,2c-0.7,0.3-1.5,0.4-2.3,0.4c-0.2,0-0.3-0.1-0.3-0.3
	c0-1,0.2-2.1,0.7-3c0.7-1.1,1.8-1.5,3-1.7c0.2,0,0.4,0,0.5,0C108.4,71.4,108.4,71.4,108.4,72.3z"/>
<path class="st18" d="M98.8,71.9c0.9,0.5,1.7,1.2,2.2,2.1c0.3,0.6,0.4,1.2,0.3,1.9c-0.1,0.8-0.4,1.6-0.9,2.3
	c-0.1,0.2-0.2,0.3-0.4,0.1c-1.2-0.8-2.2-1.7-2.3-3.2C97.6,73.9,98.1,72.9,98.8,71.9z"/>
<path class="st17" d="M96.5,82.4c-2.7-1.5-3.3-3.9-1.5-6.4C97.9,77.5,98.2,80,96.5,82.4z"/>
<path class="st19" d="M105.2,81.8c-1.1-0.1-2-0.5-2.8-1.2c-0.1-0.1-0.1-0.2,0-0.4c0.7-0.8,1.5-1.4,2.5-1.6c0.7-0.1,1.3,0,1.9,0.3
	c0.4,0.2,0.8,0.5,1.2,0.8c0.1,0.1,0.2,0.2,0.1,0.3C107.4,81.1,106.4,81.8,105.2,81.8z"/>
<path class="st18" d="M102,86c-0.5,0-1-0.1-1.5-0.4c-0.6-0.3-1-0.8-1.5-1.3c-0.2-0.2-0.2-0.4,0-0.5c0.6-0.4,1.2-0.7,1.8-0.9
	c0.8-0.2,1.5-0.1,2.2,0.3c0.6,0.3,1.1,0.8,1.5,1.3c0.1,0.2,0.2,0.3,0,0.4C104,85.5,102.8,86,102,86z"/>
<path class="st20" d="M48.4,108.8c-0.1,0.1-0.1,0.1-0.2,0.2c-0.3-0.1-0.6-0.1-0.8-0.4l0,0C47.8,108.6,48.1,108.6,48.4,108.8z"/>
<path class="st20" d="M47.5,108.5c0,0-0.1-0.1-0.1-0.1c-0.1,0-0.2,0-0.2,0c0,0.1,0.1,0.1,0.2,0.1C47.4,108.6,47.4,108.6,47.5,108.5
	L47.5,108.5z"/>
<path class="st20" d="M46.6,108.4C46.6,108.4,46.7,108.4,46.6,108.4C46.7,108.4,46.7,108.4,46.6,108.4
	C46.6,108.3,46.6,108.4,46.6,108.4z"/>
<path class="st20" d="M50.1,108.9L50.1,108.9l-0.1,0C50,108.9,50.1,108.9,50.1,108.9z"/>
<path class="st20" d="M49.5,108.9c-0.1,0-0.1,0-0.2,0C49.4,108.8,49.5,108.8,49.5,108.9z"/>
<g>
	<g>
		<path class="st3" d="M14.8,34V14.7l-2.7,1.4v-3.7c0.6-0.4,1.3-0.8,2.1-1.3c0.8-0.5,1.3-1,1.6-1.3h3.2V34H14.8z"/>
		<path class="st3" d="M29.2,34.3c-0.9,0-1.8-0.2-2.5-0.6c-0.7-0.4-1.3-1-1.7-1.7s-0.7-1.6-0.9-2.5c-0.2-1-0.3-2-0.3-3.2v-8.7
			c0-1,0-1.9,0.1-2.7c0.1-0.8,0.3-1.6,0.5-2.3c0.2-0.7,0.6-1.3,1-1.8c0.4-0.5,0.9-0.8,1.6-1.1c0.6-0.3,1.4-0.4,2.2-0.4
			c0.9,0,1.7,0.1,2.3,0.4c0.6,0.3,1.2,0.7,1.5,1.2c0.4,0.5,0.7,1.2,0.8,1.9s0.3,1.6,0.3,2.7V16h-3.8c0-1.1-0.1-1.8-0.2-2.2
			s-0.5-0.6-1-0.6c-0.5,0-0.9,0.3-1.1,1s-0.2,1.9-0.2,3.9v2.2c0.2-0.4,0.5-0.7,0.9-1s0.9-0.4,1.5-0.4c0,0,0.1,0,0.1,0
			c0.7,0,1.3,0.2,1.9,0.5c0.6,0.4,1,0.9,1.3,1.5s0.6,1.4,0.7,2.2c0.2,0.8,0.2,1.7,0.2,2.8c0,1.3-0.1,2.5-0.3,3.5
			c-0.2,1-0.5,1.9-0.9,2.7c-0.4,0.8-0.9,1.4-1.7,1.8C31,34.1,30.2,34.3,29.2,34.3z M29.2,30.6c0.3,0,0.5-0.1,0.6-0.2
			s0.3-0.4,0.4-0.8c0.1-0.4,0.1-0.8,0.2-1.3c0-0.5,0-1,0-1.8c0-0.4,0-0.7,0-1s0-0.5,0-0.8s0-0.6-0.1-0.8c0-0.2-0.1-0.4-0.1-0.6
			c-0.1-0.2-0.1-0.4-0.2-0.5c-0.1-0.1-0.2-0.2-0.3-0.3c-0.1-0.1-0.3-0.1-0.5-0.1c-0.3,0-0.6,0.1-0.8,0.3c-0.2,0.2-0.4,0.4-0.5,0.7
			v3.9C27.9,29.6,28.3,30.6,29.2,30.6z"/>
	</g>
</g>
<g>
	<g>
		<path class="st3" d="M39.9,22.1V10.8h3.8c1,0,1.7,0.3,2.2,0.8c0.5,0.6,0.7,1.4,0.7,2.4c0,0.4,0,0.8-0.1,1.1
			c-0.1,0.3-0.2,0.6-0.3,0.9s-0.3,0.4-0.5,0.6c-0.2,0.2-0.4,0.3-0.7,0.4c-0.3,0.1-0.5,0.2-0.8,0.2c-0.3,0-0.6,0.1-0.9,0.1h-1v4.8
			H39.9z M42.4,15.5h0.8c0.5,0,0.7-0.1,0.9-0.3c0.1-0.2,0.2-0.6,0.2-1.2c0-0.2,0-0.4,0-0.5c0-0.1,0-0.3-0.1-0.4s-0.1-0.2-0.2-0.3
			c-0.1-0.1-0.2-0.1-0.3-0.2c-0.1,0-0.3-0.1-0.5-0.1h-0.8V15.5z"/>
		<path class="st3" d="M47.9,22.1V10.8H53v1.7h-2.6v2.8h2V17h-2v3.4H53v1.7H47.9z"/>
		<path class="st3" d="M53.6,22.1l2.1-11.3h2.8l2.1,11.3h-2.3L58,19.7h-1.7l-0.4,2.4H53.6z M56.5,18.2h1.2l-0.6-4.4L56.5,18.2z"/>
		<path class="st3" d="M65,22.3c-0.6,0-1.2-0.1-1.6-0.3c-0.4-0.2-0.8-0.4-1.1-0.8s-0.4-0.7-0.6-1.2s-0.2-1-0.2-1.6v-4
			c0-0.6,0.1-1.1,0.2-1.6c0.1-0.5,0.3-0.9,0.6-1.2c0.3-0.3,0.6-0.6,1.1-0.8c0.4-0.2,1-0.3,1.6-0.3c0.6,0,1.1,0.1,1.6,0.2
			s0.8,0.4,1,0.7c0.2,0.3,0.4,0.6,0.5,1c0.1,0.4,0.2,0.8,0.2,1.3v1h-2.4v-1.1c0-0.2,0-0.3,0-0.4s0-0.2,0-0.4c0-0.1-0.1-0.3-0.1-0.3
			c-0.1-0.1-0.1-0.1-0.2-0.2c-0.1-0.1-0.2-0.1-0.4-0.1c-0.2,0-0.3,0-0.4,0.1c-0.1,0.1-0.2,0.1-0.2,0.2c-0.1,0.1-0.1,0.2-0.1,0.3
			c0,0.1-0.1,0.3-0.1,0.4s0,0.3,0,0.4v5.3c0,0.5,0.1,0.8,0.2,1c0.1,0.2,0.3,0.4,0.7,0.4c0.1,0,0.3,0,0.4-0.1
			c0.1-0.1,0.2-0.1,0.2-0.2c0.1-0.1,0.1-0.2,0.1-0.3c0-0.1,0-0.3,0.1-0.4s0-0.2,0-0.4v-1.2h2.4v1c0,0.4,0,0.8-0.1,1.1
			c-0.1,0.3-0.2,0.6-0.3,0.9c-0.2,0.3-0.4,0.5-0.6,0.7s-0.6,0.3-0.9,0.5C66,22.2,65.5,22.3,65,22.3z"/>
		<path class="st3" d="M69.7,22.1V10.8h5.1v1.7h-2.6v2.8h2V17h-2v3.4h2.6v1.7H69.7z"/>
		<path class="st3" d="M76,24.1l-0.1-0.7c0.7-0.2,1-0.6,1-1.2h-1.2V20h2.2l0,1.9C77.8,23.2,77.2,24,76,24.1z"/>
		<path class="st3" d="M82.1,22.4v-1.7c0,0,0.1,0,0.1,0c0.5,0,0.8-0.1,1-0.2c0.2-0.2,0.3-0.5,0.3-0.9v-8.7H86v8.8
			c0,0.5-0.1,0.9-0.1,1.2c-0.1,0.3-0.2,0.6-0.4,0.9c-0.2,0.2-0.5,0.4-0.8,0.5s-0.8,0.2-1.3,0.2H82.1z"/>
		<path class="st3" d="M90.9,22.3c-0.5,0-1-0.1-1.3-0.2c-0.4-0.1-0.7-0.3-1-0.5c-0.3-0.2-0.5-0.5-0.6-0.8c-0.2-0.3-0.3-0.7-0.3-1
			c-0.1-0.4-0.1-0.8-0.1-1.3v-7.8h2.5v8.1c0,0.2,0,0.3,0,0.5c0,0.1,0,0.3,0.1,0.4s0.1,0.3,0.1,0.4c0.1,0.1,0.1,0.2,0.3,0.2
			c0.1,0.1,0.2,0.1,0.4,0.1c0.2,0,0.3,0,0.4-0.1c0.1-0.1,0.2-0.1,0.3-0.2c0.1-0.1,0.1-0.2,0.1-0.4c0-0.1,0.1-0.3,0.1-0.4
			c0-0.1,0-0.3,0-0.5v-8.1h2.5v7.8c0,0.6-0.1,1.2-0.2,1.6s-0.3,0.8-0.5,1.2s-0.6,0.6-1,0.7C92.1,22.2,91.6,22.3,90.9,22.3z"/>
		<path class="st3" d="M98.9,22.3c-1.1,0-1.9-0.3-2.4-0.9c-0.5-0.6-0.8-1.5-0.8-2.7l2.1-0.3c0,0.7,0.1,1.2,0.3,1.5
			c0.2,0.3,0.4,0.5,0.7,0.5c0.4,0,0.6-0.3,0.6-0.8c0-0.3-0.1-0.6-0.2-0.8c-0.1-0.3-0.2-0.5-0.4-0.7s-0.4-0.4-0.7-0.6l-1-0.9
			c-0.2-0.2-0.4-0.4-0.6-0.6s-0.3-0.4-0.5-0.6c-0.2-0.2-0.3-0.5-0.3-0.8c-0.1-0.3-0.1-0.6-0.1-1c0-0.9,0.3-1.7,0.8-2.2
			c0.6-0.5,1.3-0.8,2.3-0.8c0.3,0,0.6,0,0.9,0.1s0.5,0.2,0.7,0.3c0.2,0.1,0.4,0.3,0.5,0.4c0.1,0.2,0.3,0.4,0.3,0.5
			c0.1,0.2,0.2,0.4,0.2,0.6c0.1,0.2,0.1,0.4,0.1,0.6s0,0.4,0,0.6l-2.2,0.3c0-0.2,0-0.3,0-0.5c0-0.1,0-0.3,0-0.4s0-0.3-0.1-0.3
			c0-0.1-0.1-0.2-0.1-0.2c-0.1-0.1-0.1-0.1-0.2-0.2c-0.1,0-0.2,0-0.3,0c-0.2,0-0.4,0.1-0.5,0.3c-0.1,0.2-0.2,0.4-0.2,0.6
			c0,0.2,0,0.4,0.1,0.6c0.1,0.2,0.1,0.3,0.3,0.5s0.2,0.3,0.3,0.4s0.2,0.2,0.4,0.4l1,0.8c0.3,0.2,0.5,0.5,0.7,0.7
			c0.2,0.2,0.4,0.5,0.5,0.7c0.2,0.3,0.3,0.6,0.4,0.9c0.1,0.3,0.1,0.7,0.1,1.1c0,0.8-0.3,1.5-0.8,2C100.5,22,99.8,22.3,98.9,22.3z"/>
		<path class="st3" d="M104.1,22.1v-9.5h-1.7v-1.9h6v1.9h-1.7v9.5H104.1z"/>
		<path class="st3" d="M109.3,22.1V10.8h2.5v11.3H109.3z"/>
		<path class="st3" d="M116.7,22.3c-0.6,0-1.2-0.1-1.6-0.3c-0.4-0.2-0.8-0.4-1.1-0.8s-0.4-0.7-0.6-1.2s-0.2-1-0.2-1.6v-4
			c0-0.6,0.1-1.1,0.2-1.6c0.1-0.5,0.3-0.9,0.6-1.2c0.3-0.3,0.6-0.6,1.1-0.8c0.4-0.2,1-0.3,1.6-0.3c0.6,0,1.1,0.1,1.6,0.2
			s0.8,0.4,1,0.7c0.2,0.3,0.4,0.6,0.5,1c0.1,0.4,0.2,0.8,0.2,1.3v1h-2.4v-1.1c0-0.2,0-0.3,0-0.4s0-0.2,0-0.4c0-0.1-0.1-0.3-0.1-0.3
			c-0.1-0.1-0.1-0.1-0.2-0.2c-0.1-0.1-0.2-0.1-0.4-0.1c-0.2,0-0.3,0-0.4,0.1c-0.1,0.1-0.2,0.1-0.2,0.2c-0.1,0.1-0.1,0.2-0.1,0.3
			c0,0.1-0.1,0.3-0.1,0.4s0,0.3,0,0.4v5.3c0,0.5,0.1,0.8,0.2,1c0.1,0.2,0.3,0.4,0.7,0.4c0.1,0,0.3,0,0.4-0.1
			c0.1-0.1,0.2-0.1,0.2-0.2c0.1-0.1,0.1-0.2,0.1-0.3c0-0.1,0-0.3,0.1-0.4s0-0.2,0-0.4v-1.2h2.4v1c0,0.4,0,0.8-0.1,1.1
			c-0.1,0.3-0.2,0.6-0.3,0.9c-0.2,0.3-0.4,0.5-0.6,0.7s-0.6,0.3-0.9,0.5C117.6,22.2,117.2,22.3,116.7,22.3z"/>
		<path class="st3" d="M121.3,22.1V10.8h5.1v1.7h-2.6v2.8h2V17h-2v3.4h2.6v1.7H121.3z"/>
		<path class="st3" d="M39.4,38.9l2.1-11.3h2.8l2.1,11.3h-2.3l-0.4-2.4h-1.7l-0.4,2.4H39.4z M42.4,35h1.2L43,30.6L42.4,35z"/>
		<path class="st3" d="M47.6,38.9V27.6h1.8l2.3,5.4v-5.4h2.1v11.3h-1.7L49.8,33v5.9H47.6z"/>
		<path class="st3" d="M55.5,38.9V27.6h2.8c0.7,0,1.4,0.1,1.8,0.2s0.9,0.3,1.2,0.6s0.5,0.7,0.6,1.1c0.1,0.4,0.2,1,0.2,1.6v4.1
			c0,0.7-0.1,1.2-0.2,1.7c-0.1,0.4-0.3,0.8-0.6,1.1c-0.3,0.3-0.7,0.5-1.2,0.7s-1.1,0.2-1.8,0.2H55.5z M57.9,37.2h0.4
			c0.2,0,0.4,0,0.5,0c0.1,0,0.2-0.1,0.3-0.1s0.2-0.1,0.2-0.2c0.1-0.1,0.1-0.2,0.1-0.3c0-0.1,0-0.3,0-0.4c0-0.1,0-0.3,0-0.5v-4.9
			c0-0.3,0-0.5,0-0.7s-0.1-0.3-0.2-0.4c-0.1-0.1-0.2-0.2-0.4-0.3c-0.2,0-0.4-0.1-0.7-0.1h-0.4V37.2z"/>
		<path class="st3" d="M70.2,39.1c-1.1,0-1.9-0.3-2.4-0.9c-0.5-0.6-0.8-1.5-0.8-2.7l2.1-0.3c0,0.7,0.1,1.2,0.3,1.5
			c0.2,0.3,0.4,0.5,0.7,0.5c0.4,0,0.6-0.3,0.6-0.8c0-0.3-0.1-0.6-0.2-0.8c-0.1-0.3-0.2-0.5-0.4-0.7s-0.4-0.4-0.7-0.6l-1-0.9
			c-0.2-0.2-0.4-0.4-0.6-0.6s-0.3-0.4-0.5-0.6c-0.2-0.2-0.3-0.5-0.3-0.8C67,31,67,30.7,67,30.4c0-0.9,0.3-1.7,0.8-2.2
			c0.6-0.5,1.3-0.8,2.3-0.8c0.3,0,0.6,0,0.9,0.1s0.5,0.2,0.7,0.3c0.2,0.1,0.4,0.3,0.5,0.4c0.1,0.2,0.3,0.4,0.3,0.5
			c0.1,0.2,0.2,0.4,0.2,0.6c0.1,0.2,0.1,0.4,0.1,0.6s0,0.4,0,0.6l-2.2,0.3c0-0.2,0-0.3,0-0.5c0-0.1,0-0.3,0-0.4s0-0.3-0.1-0.3
			c0-0.1-0.1-0.2-0.1-0.2c-0.1-0.1-0.1-0.1-0.2-0.2c-0.1,0-0.2,0-0.3,0c-0.2,0-0.4,0.1-0.5,0.3c-0.1,0.2-0.2,0.4-0.2,0.6
			c0,0.2,0,0.4,0.1,0.6c0.1,0.2,0.1,0.3,0.3,0.5s0.2,0.3,0.3,0.4s0.2,0.2,0.4,0.4l1,0.8c0.3,0.2,0.5,0.5,0.7,0.7
			c0.2,0.2,0.4,0.5,0.5,0.7c0.2,0.3,0.3,0.6,0.4,0.9c0.1,0.3,0.1,0.7,0.1,1.1c0,0.8-0.3,1.5-0.8,2C71.8,38.8,71.1,39.1,70.2,39.1z"
			/>
		<path class="st3" d="M75.4,38.9v-9.5h-1.7v-1.9h6v1.9h-1.7v9.5H75.4z"/>
		<path class="st3" d="M80.6,38.9V27.6h3.1c0.5,0,0.9,0,1.3,0.1s0.7,0.2,1,0.3s0.6,0.3,0.8,0.5s0.4,0.5,0.5,0.9s0.2,0.8,0.2,1.2
			c0,0.7-0.1,1.3-0.3,1.8s-0.6,0.8-1.1,1.1l1.6,5.5H85l-1.2-5.1h-0.7v5.1H80.6z M83.1,32.4h0.6c0.5,0,0.9-0.1,1.1-0.4
			c0.2-0.3,0.3-0.7,0.3-1.2c0-0.5-0.1-0.9-0.3-1.2c-0.2-0.3-0.5-0.4-1-0.4h-0.8V32.4z"/>
		<path class="st3" d="M92.2,39.1c-0.6,0-1.2-0.1-1.6-0.2c-0.4-0.2-0.8-0.4-1.1-0.7c-0.3-0.3-0.5-0.7-0.6-1.2
			c-0.1-0.4-0.2-1-0.2-1.6v-4.2c0-0.6,0.1-1.1,0.2-1.6c0.1-0.4,0.3-0.8,0.6-1.2s0.6-0.6,1.1-0.7s1-0.2,1.6-0.2
			c1.2,0,2.1,0.3,2.6,0.9c0.5,0.6,0.8,1.6,0.8,2.8v4.2c0,1.2-0.3,2.2-0.8,2.8C94.3,38.7,93.4,39.1,92.2,39.1z M91.8,37.2
			c0.1,0.1,0.2,0.1,0.4,0.1c0.1,0,0.3,0,0.4-0.1c0.1-0.1,0.2-0.1,0.3-0.2c0.1-0.1,0.1-0.2,0.1-0.3c0-0.1,0.1-0.2,0.1-0.4
			c0-0.1,0-0.2,0-0.4v-5.4c0-0.2,0-0.3,0-0.4c0-0.1,0-0.2-0.1-0.4c0-0.1-0.1-0.2-0.1-0.3c-0.1-0.1-0.1-0.1-0.3-0.2
			c-0.1-0.1-0.2-0.1-0.4-0.1c-0.2,0-0.3,0-0.4,0.1c-0.1,0.1-0.2,0.1-0.2,0.2c-0.1,0.1-0.1,0.2-0.1,0.3c0,0.1-0.1,0.2-0.1,0.4
			s0,0.2,0,0.4v5.4c0,0.2,0,0.3,0,0.4c0,0.1,0,0.2,0.1,0.4c0,0.1,0.1,0.2,0.1,0.3C91.6,37.1,91.7,37.1,91.8,37.2z"/>
		<path class="st3" d="M97.1,38.9V27.6h1.8l2.3,5.4v-5.4h2.1v11.3h-1.7L99.3,33v5.9H97.1z"/>
		<path class="st3" d="M107.9,39.1c-0.6,0-1.1-0.1-1.5-0.3c-0.4-0.2-0.7-0.5-1-0.8s-0.4-0.8-0.5-1.2c-0.1-0.5-0.2-1-0.2-1.6v-3.8
			c0-0.5,0-1,0.1-1.3c0.1-0.4,0.2-0.8,0.3-1.1s0.4-0.6,0.6-0.8s0.6-0.4,1-0.5c0.4-0.1,0.8-0.2,1.3-0.2c0.5,0,0.9,0.1,1.3,0.2
			c0.4,0.1,0.7,0.3,0.9,0.4c0.3,0.2,0.5,0.4,0.6,0.7c0.2,0.3,0.3,0.6,0.3,0.9c0.1,0.3,0.1,0.7,0.1,1.1v0.7h-2.4v-0.9
			c0-0.2,0-0.3,0-0.4s0-0.2-0.1-0.4c0-0.1-0.1-0.2-0.1-0.3s-0.1-0.1-0.2-0.2c-0.1-0.1-0.2-0.1-0.4-0.1c-0.2,0-0.3,0-0.4,0.1
			s-0.2,0.1-0.3,0.2c-0.1,0.1-0.1,0.2-0.1,0.3s-0.1,0.3-0.1,0.4c0,0.1,0,0.3,0,0.4v5.2c0,0.5,0.1,0.8,0.2,1.1
			c0.1,0.3,0.4,0.4,0.7,0.4c0.7,0,1-0.5,1-1.5v-1.3h-1V33h3.3v5.9h-1.7l-0.1-1C109.4,38.7,108.8,39.1,107.9,39.1z"/>
		<path class="st3" d="M40,55.7V44.4h2.5v11.3H40z"/>
		<path class="st3" d="M44.1,55.7V44.4h1.8l2.3,5.4v-5.4h2.1v11.3h-1.7l-2.3-5.9v5.9H44.1z"/>
		<path class="st3" d="M55,55.9c-1.1,0-1.9-0.3-2.4-0.9c-0.5-0.6-0.8-1.5-0.8-2.7l2.1-0.3c0,0.7,0.1,1.2,0.3,1.5
			c0.2,0.3,0.4,0.5,0.7,0.5c0.4,0,0.6-0.3,0.6-0.8c0-0.3-0.1-0.6-0.2-0.8c-0.1-0.3-0.2-0.5-0.4-0.7s-0.4-0.4-0.7-0.6l-1-0.9
			c-0.2-0.2-0.4-0.4-0.6-0.6s-0.3-0.4-0.5-0.6c-0.2-0.2-0.3-0.5-0.3-0.8c-0.1-0.3-0.1-0.6-0.1-1c0-0.9,0.3-1.7,0.8-2.2
			c0.6-0.5,1.3-0.8,2.3-0.8c0.3,0,0.6,0,0.9,0.1s0.5,0.2,0.7,0.3c0.2,0.1,0.4,0.3,0.5,0.4c0.1,0.2,0.3,0.4,0.3,0.5
			c0.1,0.2,0.2,0.4,0.2,0.6c0.1,0.2,0.1,0.4,0.1,0.6s0,0.4,0,0.6l-2.2,0.3c0-0.2,0-0.3,0-0.5c0-0.1,0-0.3,0-0.4s0-0.3-0.1-0.3
			c0-0.1-0.1-0.2-0.1-0.2c-0.1-0.1-0.1-0.1-0.2-0.2c-0.1,0-0.2,0-0.3,0c-0.2,0-0.4,0.1-0.5,0.3c-0.1,0.2-0.2,0.4-0.2,0.6
			c0,0.2,0,0.4,0.1,0.6c0.1,0.2,0.1,0.3,0.3,0.5s0.2,0.3,0.3,0.4s0.2,0.2,0.4,0.4l1,0.8c0.3,0.2,0.5,0.5,0.7,0.7
			c0.2,0.2,0.4,0.5,0.5,0.7c0.2,0.3,0.3,0.6,0.4,0.9c0.1,0.3,0.1,0.7,0.1,1.1c0,0.8-0.3,1.5-0.8,2C56.6,55.6,55.8,55.9,55,55.9z"/>
		<path class="st3" d="M60.2,55.7v-9.5h-1.7v-1.9h6v1.9h-1.7v9.5H60.2z"/>
		<path class="st3" d="M65.4,55.7V44.4h2.5v11.3H65.4z"/>
		<path class="st3" d="M70.6,55.7v-9.5h-1.7v-1.9h6v1.9h-1.7v9.5H70.6z"/>
		<path class="st3" d="M79.1,55.9c-0.5,0-1-0.1-1.3-0.2c-0.4-0.1-0.7-0.3-1-0.5c-0.3-0.2-0.5-0.5-0.6-0.8c-0.2-0.3-0.3-0.7-0.3-1
			c-0.1-0.4-0.1-0.8-0.1-1.3v-7.8h2.5v8.1c0,0.2,0,0.3,0,0.5c0,0.1,0,0.3,0.1,0.4s0.1,0.3,0.1,0.4c0.1,0.1,0.1,0.2,0.3,0.2
			c0.1,0.1,0.2,0.1,0.4,0.1c0.2,0,0.3,0,0.4-0.1c0.1-0.1,0.2-0.1,0.3-0.2c0.1-0.1,0.1-0.2,0.1-0.4c0-0.1,0.1-0.3,0.1-0.4
			c0-0.1,0-0.3,0-0.5v-8.1h2.5v7.8c0,0.6-0.1,1.2-0.2,1.6s-0.3,0.8-0.5,1.2s-0.6,0.6-1,0.7C80.2,55.8,79.7,55.9,79.1,55.9z"/>
		<path class="st3" d="M85,55.7v-9.5h-1.7v-1.9h6v1.9h-1.7v9.5H85z"/>
		<path class="st3" d="M90.3,55.7V44.4h2.5v11.3H90.3z"/>
		<path class="st3" d="M97.7,55.9c-0.6,0-1.2-0.1-1.6-0.2c-0.4-0.2-0.8-0.4-1.1-0.7c-0.3-0.3-0.5-0.7-0.6-1.2
			c-0.1-0.4-0.2-1-0.2-1.6v-4.2c0-0.6,0.1-1.1,0.2-1.6c0.1-0.4,0.3-0.8,0.6-1.2s0.6-0.6,1.1-0.7s1-0.2,1.6-0.2
			c1.2,0,2.1,0.3,2.6,0.9c0.5,0.6,0.8,1.6,0.8,2.8v4.2c0,1.2-0.3,2.2-0.8,2.8C99.8,55.5,98.9,55.9,97.7,55.9z M97.3,54
			c0.1,0.1,0.2,0.1,0.4,0.1c0.1,0,0.3,0,0.4-0.1c0.1-0.1,0.2-0.1,0.3-0.2c0.1-0.1,0.1-0.2,0.1-0.3c0-0.1,0.1-0.2,0.1-0.4
			c0-0.1,0-0.2,0-0.4v-5.4c0-0.2,0-0.3,0-0.4c0-0.1,0-0.2-0.1-0.4c0-0.1-0.1-0.2-0.1-0.3c-0.1-0.1-0.1-0.1-0.3-0.2
			C98,46,97.8,46,97.7,46c-0.2,0-0.3,0-0.4,0.1c-0.1,0.1-0.2,0.1-0.2,0.2c-0.1,0.1-0.1,0.2-0.1,0.3c0,0.1-0.1,0.2-0.1,0.4
			s0,0.2,0,0.4v5.4c0,0.2,0,0.3,0,0.4c0,0.1,0,0.2,0.1,0.4c0,0.1,0.1,0.2,0.1,0.3C97.1,53.9,97.2,53.9,97.3,54z"/>
		<path class="st3" d="M102.6,55.7V44.4h1.8l2.3,5.4v-5.4h2.1v11.3h-1.7l-2.3-5.9v5.9H102.6z"/>
		<path class="st3" d="M113.4,55.9c-1.1,0-1.9-0.3-2.4-0.9c-0.5-0.6-0.8-1.5-0.8-2.7l2.1-0.3c0,0.7,0.1,1.2,0.3,1.5
			c0.2,0.3,0.4,0.5,0.7,0.5c0.4,0,0.6-0.3,0.6-0.8c0-0.3-0.1-0.6-0.2-0.8c-0.1-0.3-0.2-0.5-0.4-0.7s-0.4-0.4-0.7-0.6l-1-0.9
			c-0.2-0.2-0.4-0.4-0.6-0.6s-0.3-0.4-0.5-0.6c-0.2-0.2-0.3-0.5-0.3-0.8c-0.1-0.3-0.1-0.6-0.1-1c0-0.9,0.3-1.7,0.8-2.2
			c0.6-0.5,1.3-0.8,2.3-0.8c0.3,0,0.6,0,0.9,0.1s0.5,0.2,0.7,0.3c0.2,0.1,0.4,0.3,0.5,0.4c0.1,0.2,0.3,0.4,0.3,0.5
			c0.1,0.2,0.2,0.4,0.2,0.6c0.1,0.2,0.1,0.4,0.1,0.6s0,0.4,0,0.6l-2.2,0.3c0-0.2,0-0.3,0-0.5c0-0.1,0-0.3,0-0.4s0-0.3-0.1-0.3
			c0-0.1-0.1-0.2-0.1-0.2c-0.1-0.1-0.1-0.1-0.2-0.2c-0.1,0-0.2,0-0.3,0c-0.2,0-0.4,0.1-0.5,0.3c-0.1,0.2-0.2,0.4-0.2,0.6
			c0,0.2,0,0.4,0.1,0.6c0.1,0.2,0.1,0.3,0.3,0.5s0.2,0.3,0.3,0.4s0.2,0.2,0.4,0.4l1,0.8c0.3,0.2,0.5,0.5,0.7,0.7
			c0.2,0.2,0.4,0.5,0.5,0.7c0.2,0.3,0.3,0.6,0.4,0.9c0.1,0.3,0.1,0.7,0.1,1.1c0,0.8-0.3,1.5-0.8,2C115,55.6,114.3,55.9,113.4,55.9z"
			/>
	</g>
</g>
<g>
	<g>
		<rect x="167.4" y="48.3" class="st38" width="7.1" height="29.7"/>
	</g>
	<g>
		<g>
			<polygon class="st38" points="157.9,74.2 171,96.8 184,74.2 			"/>
		</g>
	</g>
</g>
</svg>
