<?xml version="1.0" encoding="utf-8"?>
<!-- Generator: Adobe Illustrator 21.0.0, SVG Export Plug-In . SVG Version: 6.00 Build 0)  -->
<svg version="1.1" xmlns="http://www.w3.org/2000/svg" xmlns:xlink="http://www.w3.org/1999/xlink" x="0px" y="0px"
	 viewBox="0 0 199.9 201.4" style="enable-background:new 0 0 199.9 201.4;" xml:space="preserve">
<style type="text/css">
	.st0{fill:#303030;}
	.st1{fill:#F4F4F4;}
	.st2{fill:#FCFCFC;}
	.st3{fill:#EEF7F9;}
	.st4{fill:#376699;}
	.st5{fill:#080808;}
	.st6{fill:#2A5A8E;}
	.st7{fill:#F5FBFB;}
	.st8{fill:#155DAC;}
	.st9{fill:#165EAC;}
	.st10{fill:#155EAC;}
	.st11{fill:#F8FBFC;}
	.st12{fill:#F1F8F9;}
	.st13{fill:#F2F9FA;}
	.st14{fill:#2B619E;}
	.st15{fill:#1E5FA6;}
	.st16{fill:#165EAB;}
	.st17{fill:#FDFDFD;}
	.st18{fill:#1A5EA9;}
	.st19{fill:#D9D9D9;}
	.st20{fill:#DDDDDD;}
	.st21{fill:none;stroke:#ADADAD;stroke-miterlimit:10;}
	.st22{fill:#FFFFFF;}
	.st23{fill:#DC3545;}
	.st24{fill:#FCFDFC;}
	.st25{fill:#F2CD41;}
	.st26{fill:none;stroke:#A3A3A3;stroke-miterlimit:10;}
	.st27{fill:#28A745;}
	.st28{fill:none;stroke:#28A745;stroke-width:6;stroke-miterlimit:10;}
	.st29{fill:#F5682D;}
	.st30{fill:none;stroke:#F2CD41;stroke-width:6;stroke-miterlimit:10;}
	.st31{fill-rule:evenodd;clip-rule:evenodd;fill:#DFDFDF;}
	.st32{fill:none;stroke:#C4C4C4;stroke-miterlimit:10;}
	.st33{fill:#FFFFFC;}
	.st34{fill:#FFFDFD;}
	.st35{fill:#FFFAF9;}
	.st36{fill:#FFFCFC;}
	.st37{fill:#ED2F24;}
	.st38{fill:#FFFCF8;}
	.st39{fill:#FFFFFB;}
	.st40{fill:#FFFCF7;}
	.st41{fill:#FFFBFC;}
	.st42{fill:#FFFCFA;}
	.st43{fill:#FCFDFF;}
	.st44{fill:#F9F9FA;}
	.st45{fill:#FAFBFD;}
	.st46{fill:#F7F9FA;}
	.st47{fill:#F7F7FA;}
	.st48{fill:#F6F7F9;}
	.st49{fill:#A7B0CA;}
	.st50{fill:#03558A;}
	.st51{fill:#DFDFDF;}
	.st52{fill:#FAFDFF;}
	.st53{fill:#FCFDFB;}
	.st54{fill:none;stroke:#AAAAAA;stroke-miterlimit:10;}
	.st55{fill:none;stroke:#F2CD41;stroke-width:4;stroke-miterlimit:10;}
	.st56{fill:none;stroke:#28A745;stroke-width:4;stroke-miterlimit:10;}
	.st57{fill:none;stroke:#DC3545;stroke-width:4;stroke-miterlimit:10;}
	.st58{fill:none;stroke:#F5682D;stroke-width:4;stroke-miterlimit:10;}
	.st59{font-family:'Anton-Regular';}
	.st60{font-size:59.6747px;}
	.st61{font-size:31.0436px;}
	.st62{opacity:0.19;}
	.st63{fill:#279B48;}
	.st64{fill:#C32034;}
	.st65{fill:#EF412A;}
	.st66{fill:#FDB715;}
	.st67{fill:#8F1839;}
	.st68{fill:#F36D26;}
	.st69{fill:#F99E27;}
	.st70{fill:#CE8D2A;}
	.st71{fill:#48773F;}
	.st72{fill:#5EBB47;}
	.st73{fill:#00558B;}
	.st74{fill:#1E3768;}
	.st75{fill:#047DBC;}
	.st76{fill:#E01684;}
	.st77{fill:#00AED8;}
	.st78{fill:#D3A12A;}
	.st79{fill:#EA1E2F;}
	.st80{fill:#23AA61;}
	.st81{fill:#6A71AF;}
	.st82{fill:#F29228;}
	.st83{fill:#3897D3;}
	.st84{fill:#814891;}
	.st85{fill:none;stroke:#FFFFFF;stroke-width:2;stroke-miterlimit:10;}
	.st86{fill:#E5243B;}
	.st87{fill:#DDA63A;}
	.st88{fill:#4C9F38;}
	.st89{fill:#C5192D;}
	.st90{fill:#FF3A21;}
	.st91{fill:#26BDE2;}
	.st92{fill:#FCC30B;}
	.st93{fill:#A21942;}
	.st94{fill:#FD6925;}
	.st95{fill:#DD1367;}
	.st96{fill:#FD9D24;}
	.st97{fill:#BF8B2E;}
	.st98{fill:#3F7E44;}
	.st99{fill:#0A97D9;}
	.st100{fill:#56C02B;}
	.st101{fill:#00689D;}
	.st102{fill:#19486A;}
	.st103{fill:#207A46;}
	.st104{fill-rule:evenodd;clip-rule:evenodd;fill:#4BA048;stroke:#282828;stroke-width:2;stroke-miterlimit:22.9256;}
	.st105{fill-rule:evenodd;clip-rule:evenodd;fill:#F2CD41;stroke:#282828;stroke-width:2;stroke-miterlimit:10;}
	.st106{fill-rule:evenodd;clip-rule:evenodd;fill:#DFDFDF;stroke:#282828;stroke-width:2;stroke-miterlimit:10;}
	.st107{fill-rule:evenodd;clip-rule:evenodd;fill:#DC3545;stroke:#282828;stroke-width:2;stroke-miterlimit:10;}
	.st108{fill-rule:evenodd;clip-rule:evenodd;fill:#F5682D;stroke:#282828;stroke-width:2;stroke-miterlimit:10;}
	.st109{fill:#878787;}
	.st110{fill:#444444;}
	.st111{fill:#4BA048;}
	.st112{fill:#24BFE6;}
	.st113{fill:#01ACD7;}
	.st114{fill:#FAA028;}
	.st115{fill:#F89E2A;}
	.st116{fill:#F89F2B;}
	.st117{fill:#F89D29;}
	.st118{fill:#F89D28;}
	.st119{fill:#1E96D4;}
	.st120{fill:#067DBA;}
	.st121{fill:#174A6D;}
	.st122{fill:#203767;}
	.st123{fill:#213868;}
	.st124{fill:#15699F;}
	.st125{fill:#61BD45;}
	.st126{fill:#438145;}
	.st127{fill:#45794E;}
	.st128{fill:#46794E;}
	.st129{fill:#497B50;}
	.st130{fill:#4B7C52;}
	.st131{fill:#4C7D52;}
	.st132{fill:#4D7E54;}
	.st133{fill:#C89930;}
	.st134{fill:#DE1667;}
	.st135{fill:#F16B2D;}
	.st136{fill:#F16B2C;}
	.st137{fill:#A61B45;}
	.st138{fill:#FBC51A;}
	.st139{fill:#FAC417;}
	.st140{fill:#F9C315;}
	.st141{fill:#ED2540;}
	.st142{fill:#E6B733;}
	.st143{fill:#C92330;}
	.st144{fill:#EE432B;}
	.st145{fill:#ED3724;}
	.st146{fill:#ED2C24;}
	.st147{fill:#ED2924;}
	.st148{fill:#EE3F2B;}
	.st149{opacity:0.8;clip-path:url(#SVGID_6_);}
	.st150{fill:#2C6829;}
	.st151{fill:none;stroke:#11212E;stroke-miterlimit:10;}
	.st152{fill:#11212E;}
	.st153{fill:none;stroke:#444444;stroke-miterlimit:10;}
	.st154{fill:none;}
	.st155{fill:none;stroke:#9B9B9B;stroke-miterlimit:10;}
	.st156{fill:none;stroke:#8E8E8E;stroke-miterlimit:10;}
	.st157{fill:none;stroke:#11212E;stroke-width:3;stroke-linecap:round;stroke-linejoin:round;stroke-miterlimit:10;}
	.st158{fill:#FFFFFF;stroke:#777777;stroke-miterlimit:10;}
	.st159{fill:#FFFFFF;stroke:#5B5B5B;stroke-miterlimit:10;}
	.st160{fill:none;stroke:#AFAFAF;stroke-miterlimit:10;}
	.st161{fill:#262626;}
	.st162{fill:none;stroke:#5B5B5B;stroke-linecap:round;stroke-linejoin:round;}
	.st163{fill:#5B5B5B;}
	.st164{fill:#353535;}
	.st165{opacity:0.8;clip-path:url(#SVGID_10_);}
</style>
<g id="_x7B_ref_x7D_">
</g>
<g id="Layer_2">
	<g>
		<text transform="matrix(0.7104 0 0 1 9.7405 68.8599)" class="st22 st59 st60">13</text>
	</g>
	<g>
		<path class="st22" d="M114.8,119.5c11.4,0,25,3,38,9.2c5.8,2.8,11.3,6.1,16.4,10.1c7.1,5.5,13.4,11.7,18.6,19
			c0.6,0.9,0.6,0.6,0,1.4c-6,8.2-13.2,15.2-21.4,21c-10.2,7.3-21.5,12.3-33.7,15c-5.2,1.2-10.4,1.8-15.7,2.1
			c-4.6,0.2-9.3,0.2-13.9-0.2c-9.4-0.8-18.5-3-27.2-6.6c-10.2-4.2-19.3-10-27.4-17.4c-4.6-4.2-8.8-8.8-12.5-13.8
			c-0.6-0.9-0.6-0.5,0-1.4c5-7,11.1-13,17.8-18.3c11.2-8.9,23.8-14.8,37.8-17.8C98.2,120.2,105,119.5,114.8,119.5z M94.9,131.7
			c0.3,0.1,0.5,0.1,0.6,0c2.2-0.2,4.4-0.5,6.7-0.3c0.7,0,1.4,0.1,2.1,0.5c0.7,0.4,0.9,0.9,0.7,1.6c-0.2,0.7,0,1.3,0.4,1.8
			c0.4,0.5,0.8,0.8,1.3,1.1c0.2,0.2,0.5,0.3,0.7,0.6c0.5,0.4,0.4,0.8-0.1,1.1c-1.4,0.8-2.8,1.8-4.3,2.5c-0.4,0.2-0.7,0.3-1.1,0.4
			c-0.3,0-0.6-0.2-0.7-0.5c-0.1-0.3,0.1-0.4,0.3-0.6c0.2-0.2,0.4-0.3,0.6-0.5c0.8-0.4,1.5-0.8,2.3-1.3c0.2-0.1,0.5-0.3,0.4-0.5
			c0-0.3-0.3-0.3-0.6-0.4c-0.1,0-0.3-0.1-0.4-0.1c-0.7-0.1-1.4,0-2.1,0.2c-2,0.6-4.1,0.9-6.2,1c-0.4,0-0.8,0.1-1.2,0.2
			c-1.2,0.2-2.2,0.7-3.1,1.4c-1.1,0.9-1,1.8,0.2,2.5c1.1,0.6,2.3,1,3.6,1.2c0.6,0.1,1.1,0,1.6-0.4c0.5-0.4,0.9-0.8,1.3-1.3
			c0.6-0.8,1.7-1,2.3-0.4c0.2,0.2,0.3,0.4,0,0.6c-0.9,0.5-1.6,1.2-2.2,1.9c-0.7,0.8-1.8,1.1-2.8,0.7c-0.7-0.3-1.5-0.4-2.2-0.5
			c-1.4,0-2.8,0.1-3.9,1c-0.5,0.4-1,0.7-1.6,0.9c-0.7,0.3-0.7,0.4-0.5,1.1c0.2,0.6,0,1-0.4,1.3c-0.4,0.3-0.8,0.5-1.3,0.3
			c-0.8-0.5-1.7-0.4-2.5-0.2c-1.1,0.2-1.5,0.6-1.4,2c0,0.1,0.1,0.3,0.1,0.4c0.3,1,0.9,1.3,1.8,0.7c0.5-0.3,1-0.5,1.6-0.6
			c1.6-0.3,3.2-0.7,4.4-1.9c0.3-0.3,0.8-0.3,1.2,0c0.4,0.2,0.7,0.6,0.9,1c0.4,0.9,0.8,1.7,1.5,2.5c0.1,0.2,0.3,0.5,0.6,0.3
			c0.3-0.1,0.1-0.4,0-0.6c-0.1-0.5-0.3-0.9-0.5-1.4c-0.1-0.2-0.1-0.4,0.1-0.6c0.2-0.1,0.4,0,0.6,0.2c0.3,0.3,0.6,0.6,0.8,1
			c0.5,0.7,0.5,0.7,1.3,0.3c0.5-0.2,0.9-0.3,1.4,0c0.4,0.3,0.5,0.8,0.5,1.3c0,0.3-0.2,0.6-0.4,0.8c-0.8,0.8-1.8,1.4-3,1.3
			c-1.1-0.1-2-0.4-3-0.9c-2.1-0.9-4.3-1.6-6.6-2c-0.9-0.2-1.7,0.3-2.5,0.5c-0.1,0-0.1,0.1-0.2,0.2c-0.4,0.8-0.9,1.5-1.5,2.2
			c-0.2,0.2-0.3,0.5-0.3,0.8c-0.4,5,0.3,9.9,2.1,14.5c0.3,0.9,1.4,1.2,2.2,0.8c0.7-0.4,1.5-0.8,2.2-1.2c0.8-0.4,1.2-0.4,1.9,0.3
			c0.2,0.2,0.5,0.5,0.8,0.6c0.6,0.4,0.9,0.9,1,1.6c0.1,0.7,0.2,0.8,0.9,0.6c0.8-0.3,1-0.1,1.2,0.7c0,0.2,0.1,0.3,0.1,0.5
			c0.1,0.7,0.2,1.3,0.5,2c0.1,0.3,0.2,0.6,0.6,0.5c0.5-0.1,0.4,0.2,0.4,0.5c0,1.3,0.1,2.7,0.4,4c0.4,1.5,0.8,1.8,2.3,1.5
			c1.6-0.3,3-0.9,3.9-2.4c0.6-1,1-2.1,1.3-3.2c0.2-0.7,0.4-1.4,1.2-1.8c0.2-0.1,0.4-0.4,0.4-0.6c0.4-1.6,1-3.1,0.8-4.7
			c-0.1-0.9,0.3-1.8,0.9-2.5c0.5-0.6,1.1-1,1.6-1.6c0.7-0.8,1-2.2-0.2-2.8c-0.4-0.2-0.8-0.5-1.2-0.7c-1.8-1.1-2.9-2.8-3.2-4.9
			c-0.1-0.4-0.2-0.9,0.2-1c0.4-0.2,0.6,0.3,0.9,0.6c0.9,1,1.9,2,2.8,3c0.6,0.6,1.3,0.9,2.2,0.7c0.8-0.2,1.5-0.6,2.1-1.1
			c1.2-1,1.2-1.9,0.2-3c-0.7-0.7-1.5-1.4-2.2-2.2c-0.6-0.5-1.1-1.1-1.6-1.7c-0.2-0.2-0.4-0.5-0.6-0.8c-0.1-0.2-0.2-0.4,0-0.6
			c0.2-0.2,0.4-0.2,0.6-0.1c0.3,0.1,0.6,0.3,0.9,0.5c1,0.8,2.2,1.5,3.4,2.1c0.9,0.4,1.4,1.1,1.5,2c0.2,1.2,0.9,2,2,2.5
			c0.6,0.3,1.3,0.5,2,0.7c1.4,0.4,2.7,0.9,3.8,1.9c0.3,0.3,0.6,0.6,0.9,0.9c0.4,0.4,0.9,0.4,1.2,0c0.8-1.2,1.7-2.4,1.3-4
			c-0.2-0.6,0-0.9,0.5-1.2c1.1-0.7,2.4-0.3,2.9,1c0.5,1.3,1.1,2.6,1.5,3.9c0.9,2.5,3,3.8,5.1,5.1c0.1,0,0.2,0.1,0.2,0.1
			c0.5,0.1,0.8-0.2,0.7-0.7c-0.1-0.3-0.2-0.6-0.4-0.9c-0.3-0.6-0.6-1.1-0.9-1.7c-0.5-0.8-0.6-1.5-0.4-2.4c0.4-1.4,1-2.6,2.7-2.8
			c0.9-0.1,1.7-0.7,2.5-1.2c0.7-0.5,0.7-0.9,0.3-1.6c-0.5-0.8-0.8-1.7-0.6-2.7c0.1-0.5,0.4-0.7,0.9-0.4c0.3,0.2,0.6,0.5,0.8,0.8
			c0.5,0.7,1.2,1,2,0.8c0.7-0.1,1.3-0.5,1.5-1.2c0.2-0.6,0.3-1.3,0.1-1.9c-2.1-7.9-6.4-14.2-13.2-18.7c-10.2-6.8-23.2-7.1-33.7-1
			C95.5,131.3,95.2,131.5,94.9,131.7z M126.1,175.9c0,0.1,0,0.4,0.1,0.6c0.4,1.3,0.7,2.7,1.1,4c0.2,0.6,0.6,0.7,1.2,0.4
			c0.6-0.3,1.1-0.6,1.7-0.9c0.2-0.1,0.4-0.2,0.5-0.1c0.2,0.1,0.1,0.4,0,0.5c0,0.2-0.1,0.5,0.2,0.7c0.2,0.1,0.5,0.1,0.7-0.1
			c0.5-0.4,1-0.4,1.5-0.2c0.2,0.1,0.5,0.2,0.7,0.3c0.3,0.2,0.6,0.1,0.9-0.2c2.8-2.9,5-6.2,6.6-9.9c0.4-1,0.4-1.8,0-2.8
			c-0.1-0.3-0.3-0.7-0.5-1c-0.2-0.5-0.6-0.5-1-0.3c-0.3,0.2-0.6,0.4-0.9,0.5c-1.3,0.9-2.7,1.4-4.2,1.7c-1.6,0.3-3.2,0.7-4.8,1.3
			C127.8,171.2,126.1,173.6,126.1,175.9z M131.2,184c-1.4-0.8-2.8-0.9-4.2-0.6c-1.4,0.3-2.6,1.1-3.6,2c-1.8,1.5-1.8,1.5-4,0.7
			c-2.2-0.8-4.4-1.6-6.8-2c-2.3-0.4-4.5-0.4-6.7,0.5c-1.4,0.6-2.4,1.4-3.1,2.7c-0.5,1-0.2,1.8,0.9,2.1c6.5,1.7,13,1.5,19.4-0.9
			C125.8,187.5,128.6,185.9,131.2,184z M143.7,159c0-0.6,0-1.3,0-1.9c0-1.1-1-2.2-1.9-2.4c-0.3-0.1-0.6-0.2-0.8,0
			c-0.2,0.2,0.1,0.5,0.2,0.7c0,0.1,0.1,0.2,0.1,0.2c0.3,0.5,0.3,1-0.1,1.5c-0.5,0.6-0.8,1.3-0.8,2.1c-0.1,2.2,0.8,4.1,2.2,5.7
			c0.1,0.1,0.2,0.2,0.3,0.2c0.2,0,0.2-0.2,0.2-0.4C143.5,162.8,143.7,160.9,143.7,159z M82.9,146.9c0.3,0,0.7-0.2,1-0.4
			c0.3-0.2,0.6-0.5,0.9-0.8c1.2-1.2,2.4-2.5,4-3.3c0.3-0.1,0.6-0.3,0.5-0.7c-0.1-0.4-0.4-0.5-0.7-0.6c-0.1-0.1-0.3-0.1-0.4-0.1
			c-0.9-0.1-1.8,0.1-2.6,0.4c-0.4,0.2-0.7,0.5-1,0.9c-0.8,1.3-1.5,2.7-2.1,4.1C82.2,146.8,82.3,146.9,82.9,146.9z M104.8,173.5
			c0,0.4,0,0.7,0,1.1c0,0.3,0,0.6,0.3,0.6c0.3,0.1,0.4-0.2,0.5-0.5c0.3-0.6,0.6-1.3,0.8-2c0.4-1.3,0.7-2.7,1.5-3.9
			c0.1-0.2,0.2-0.5,0.3-0.8c0.1-0.3,0.1-0.7-0.2-0.9c-0.3-0.2-0.7-0.2-1,0c-0.7,0.4-1.3,1-1.5,1.8
			C105.1,170.4,104.9,172,104.8,173.5z M90.9,136.5c0-0.5-0.1-0.7-0.6-0.8c-0.8-0.2-1.6,0-2.1,0.5c-0.7,0.8-1.3,1.6-1.9,2.4
			c-0.2,0.3-0.1,0.5,0.1,0.8c0.3,0.3,0.7,0.4,1.1,0.3c0.4,0,0.8-0.2,1.2-0.4C90,138.8,91.1,138.1,90.9,136.5z M119.5,163.7
			c0.1,0,0.4,0,0.6-0.1c0.6-0.2,0.7-0.5,0.4-1c-0.3-0.4-0.6-0.7-1.1-0.9c-0.8-0.4-1.4-0.2-1.9,0.4c-0.4,0.5-0.3,0.8,0.2,1.2
			C118.2,163.6,118.8,163.7,119.5,163.7z M137.1,166.8c0.1,0,0.3,0,0.5-0.1c0.7-0.2,0.8-0.6,0.4-1.1c-0.3-0.4-0.6-0.7-1.1-0.9
			c-0.8-0.4-1.4-0.2-1.9,0.5c-0.3,0.5-0.3,0.8,0.2,1.1C135.7,166.6,136.3,166.8,137.1,166.8z M135.3,163.6c0.1,0,0.2,0,0.3,0
			c0.7,0,0.9-0.3,0.5-0.9c-0.3-0.6-0.8-1-1.3-1.3c-0.6-0.3-1.1,0-1.1,0.6C133.7,162.9,134.4,163.6,135.3,163.6z"/>
	</g>
	<g>
		<text transform="matrix(0.9978 0 0 1 57.0588 44.2989)"><tspan x="0" y="0" class="st22 st59 st61">Climate </tspan><tspan x="0" y="37.3" class="st22 st59 st61">Action</tspan></text>
	</g>
</g>
</svg>
