<?xml version="1.0" encoding="utf-8"?>
<!-- Generator: Adobe Illustrator 21.0.0, SVG Export Plug-In . SVG Version: 6.00 Build 0)  -->
<svg version="1.1" id="Layer_1" xmlns="http://www.w3.org/2000/svg" xmlns:xlink="http://www.w3.org/1999/xlink" x="0px" y="0px"
	 viewBox="0 0 198.7 145.7" style="enable-background:new 0 0 198.7 145.7;" xml:space="preserve">
<style type="text/css">
	.st0{fill:#FFFFFF;stroke:#ABAAAA;stroke-miterlimit:10;}
	.st1{fill:#BF8B2C;}
	.st2{fill:#C5202E;}
	.st3{fill:#FFFFFF;}
	.st4{fill:#FFFAF9;}
	.st5{fill:#FFFCFD;}
	.st6{fill:#E4253C;}
	.st7{fill:#FFFFFD;}
	.st8{fill:#29A74A;}
	.st9{fill:#4CA046;}
	.st10{fill:#FDFEFD;}
	.st11{fill:#DEA73A;}
	.st12{fill:#18496B;}
	.st13{fill:#FAFCFE;}
	.st14{fill:#01699E;}
	.st15{fill:#FDFEFF;}
	.st16{fill:#F8FAFB;}
	.st17{fill:#F7F9FA;}
	.st18{fill:#F7F7FA;}
	.st19{fill:#F6F7F9;}
	.st20{fill:#A7B1CA;}
	.st21{fill:#5CBA47;}
	.st22{fill:#FDFEFC;}
	.st23{fill:#F26A2C;}
	.st24{fill:#1C97D4;}
	.st25{fill:#FAFDFF;}
	.st26{fill:#DD1768;}
	.st27{fill:#FFFBFD;}
	.st28{fill:#F99D29;}
	.st29{fill:#FFFCFA;}
	.st30{fill:#407F44;}
	.st31{fill:#29BEE2;}
	.st32{fill:#FAC315;}
	.st33{fill:#FFFCF8;}
	.st34{fill:#FFFFFC;}
	.st35{fill:#FFFCF7;}
	.st36{fill:#EF402C;}
	.st37{fill:#A21C44;}
	.st38{fill:#DC3746;}
	.st39{fill:#FDC010;}
	.st40{fill-rule:evenodd;clip-rule:evenodd;fill:#E0E0DF;}
</style>
<rect x="141" y="1" transform="matrix(-1 -1.224647e-16 1.224647e-16 -1 338.34 145.0949)" class="st0" width="56.4" height="143.1"/>
<g>
	<circle class="st40" cx="162.6" cy="72.9" r="6.2"/>
	<circle class="st40" cx="180.9" cy="72.9" r="6.2"/>
</g>
<rect y="0.5" class="st30" width="143.7" height="144.7"/>
<g>
	<g>
		<path class="st3" d="M19.3,34V14.7l-2.4,1.4v-3.7c0.5-0.4,1.1-0.8,1.8-1.3c0.7-0.5,1.1-1,1.4-1.3h2.8V34H19.3z"/>
		<path class="st3" d="M31.9,34.4c-0.9,0-1.6-0.2-2.3-0.5c-0.6-0.4-1.1-0.9-1.5-1.6c-0.4-0.7-0.6-1.5-0.8-2.4
			c-0.2-0.9-0.2-1.9-0.2-3.1v-0.9h3.6v0.8c0,1.2,0.1,2.1,0.3,2.6c0.2,0.5,0.5,0.8,1,0.8c0.5,0,0.8-0.2,0.9-0.7s0.2-1.3,0.2-2.5
			c0-1.3-0.1-2.2-0.4-2.8c-0.3-0.6-0.7-0.9-1.4-0.9h-0.6v-3.5h0.6c0.7,0,1.2-0.3,1.5-0.8c0.3-0.5,0.4-1.4,0.4-2.7
			c0-1-0.1-1.7-0.3-2.2s-0.5-0.7-1-0.7c-0.5,0-0.8,0.3-0.9,0.8c-0.2,0.5-0.2,1.2-0.3,2.2v1.2h-3.6v-1.5c0-2.2,0.4-3.8,1.3-5
			s2-1.8,3.5-1.8c1.5,0,2.7,0.6,3.5,1.7c0.8,1.1,1.2,2.8,1.2,4.9c0,1.4-0.2,2.5-0.6,3.5c-0.4,1-0.9,1.6-1.5,1.8
			c1.4,0.7,2.1,2.6,2.1,5.6c0,1.2-0.1,2.2-0.3,3.1s-0.4,1.7-0.8,2.4c-0.4,0.7-0.9,1.2-1.5,1.6C33.5,34.2,32.7,34.4,31.9,34.4z"/>
	</g>
</g>
<path class="st3" d="M82.5,79.7c8.2,0,18,2.1,27.3,6.6c4.2,2,8.1,4.4,11.8,7.3c5.1,3.9,9.6,8.4,13.4,13.7c0.4,0.6,0.4,0.4,0,1
	c-4.3,5.9-9.5,10.9-15.4,15.1c-7.3,5.2-15.4,8.8-24.2,10.8c-3.7,0.8-7.5,1.3-11.3,1.5c-3.3,0.2-6.6,0.1-10-0.2
	c-6.8-0.6-13.3-2.2-19.6-4.8c-7.3-3-13.8-7.2-19.7-12.5c-3.3-3-6.3-6.3-9-9.9c-0.4-0.6-0.5-0.4,0-1c3.6-5,7.9-9.3,12.8-13.2
	c8.1-6.4,17.1-10.6,27.2-12.8C70.6,80.2,75.5,79.7,82.5,79.7z M68.2,88.5c0.2,0.1,0.3,0,0.5,0c1.6-0.1,3.2-0.3,4.8-0.2
	c0.5,0,1,0.1,1.5,0.3c0.5,0.3,0.7,0.6,0.5,1.2c-0.1,0.5,0,0.9,0.3,1.3c0.3,0.3,0.6,0.6,0.9,0.8c0.2,0.1,0.4,0.2,0.5,0.4
	c0.3,0.3,0.3,0.6-0.1,0.8c-1,0.6-2,1.3-3.1,1.8c-0.3,0.1-0.5,0.2-0.8,0.3c-0.2,0-0.4-0.1-0.5-0.3c-0.1-0.2,0.1-0.3,0.2-0.4
	c0.1-0.1,0.3-0.2,0.5-0.3c0.5-0.3,1.1-0.6,1.6-0.9c0.1-0.1,0.3-0.2,0.3-0.4c0-0.2-0.2-0.2-0.4-0.3c-0.1,0-0.2,0-0.3-0.1
	c-0.5-0.1-1,0-1.5,0.1c-1.5,0.4-2.9,0.6-4.4,0.7c-0.3,0-0.6,0.1-0.9,0.1c-0.8,0.1-1.6,0.5-2.2,1c-0.8,0.6-0.7,1.3,0.1,1.8
	c0.8,0.5,1.7,0.7,2.6,0.9c0.4,0.1,0.8,0,1.1-0.3c0.3-0.3,0.7-0.6,0.9-0.9c0.5-0.6,1.2-0.7,1.6-0.3c0.2,0.2,0.2,0.3,0,0.4
	c-0.6,0.4-1.1,0.8-1.6,1.4c-0.5,0.6-1.3,0.8-2,0.5c-0.5-0.2-1-0.3-1.6-0.3c-1,0-2,0.1-2.8,0.7c-0.3,0.3-0.7,0.5-1.1,0.6
	c-0.5,0.2-0.5,0.3-0.4,0.8c0.1,0.4,0,0.7-0.3,0.9c-0.3,0.2-0.6,0.4-0.9,0.2c-0.6-0.3-1.2-0.3-1.8-0.2c-0.8,0.2-1.1,0.4-1,1.4
	c0,0.1,0,0.2,0.1,0.3c0.2,0.7,0.7,0.9,1.3,0.5c0.4-0.2,0.7-0.3,1.1-0.4c1.2-0.2,2.3-0.5,3.2-1.3c0.2-0.2,0.6-0.2,0.9,0
	c0.3,0.2,0.5,0.4,0.6,0.7c0.3,0.6,0.6,1.2,1,1.8c0.1,0.1,0.2,0.3,0.4,0.2c0.2-0.1,0.1-0.3,0-0.5c-0.1-0.3-0.2-0.7-0.3-1
	c0-0.1-0.1-0.3,0.1-0.4c0.2-0.1,0.3,0,0.4,0.1c0.2,0.2,0.4,0.5,0.6,0.7c0.4,0.5,0.4,0.5,0.9,0.2c0.3-0.1,0.7-0.2,1,0
	c0.3,0.2,0.4,0.6,0.3,1c0,0.2-0.1,0.4-0.3,0.5c-0.6,0.6-1.3,1-2.2,0.9c-0.8-0.1-1.5-0.3-2.2-0.6c-1.5-0.7-3.1-1.1-4.7-1.5
	c-0.7-0.1-1.2,0.2-1.8,0.4c0,0-0.1,0.1-0.1,0.1c-0.3,0.6-0.7,1.1-1.1,1.6c-0.1,0.2-0.2,0.4-0.2,0.6c-0.3,3.6,0.2,7.1,1.5,10.5
	c0.2,0.6,1,0.9,1.6,0.5c0.5-0.3,1-0.6,1.6-0.9c0.6-0.3,0.9-0.3,1.4,0.2c0.2,0.2,0.4,0.3,0.6,0.5c0.5,0.3,0.6,0.7,0.7,1.2
	c0.1,0.5,0.1,0.6,0.6,0.4c0.6-0.2,0.7-0.1,0.9,0.5c0,0.1,0,0.3,0.1,0.4c0,0.5,0.2,1,0.3,1.4c0.1,0.2,0.2,0.4,0.4,0.4
	c0.3,0,0.3,0.1,0.3,0.4c0,1,0.1,1.9,0.3,2.8c0.3,1.1,0.6,1.3,1.7,1.1c1.1-0.2,2.2-0.7,2.8-1.7c0.4-0.7,0.7-1.5,0.9-2.3
	c0.1-0.5,0.3-1,0.9-1.3c0.2-0.1,0.3-0.3,0.3-0.4c0.3-1.1,0.7-2.2,0.6-3.4c-0.1-0.7,0.2-1.3,0.6-1.8c0.4-0.4,0.8-0.8,1.2-1.2
	c0.5-0.6,0.7-1.5-0.2-2c-0.3-0.1-0.6-0.3-0.9-0.5c-1.3-0.8-2.1-2-2.3-3.5c0-0.3-0.1-0.6,0.1-0.7c0.3-0.1,0.5,0.2,0.6,0.4
	c0.7,0.7,1.3,1.4,2,2.2c0.4,0.5,0.9,0.7,1.6,0.5c0.6-0.2,1.1-0.4,1.5-0.8c0.8-0.7,0.9-1.4,0.1-2.2c-0.5-0.5-1.1-1-1.6-1.6
	c-0.4-0.4-0.8-0.8-1.2-1.2c-0.2-0.2-0.3-0.4-0.4-0.5c-0.1-0.1-0.1-0.3,0-0.4c0.1-0.1,0.3-0.1,0.4-0.1c0.2,0.1,0.4,0.2,0.6,0.4
	c0.7,0.6,1.6,1.1,2.4,1.5c0.6,0.3,1,0.8,1.1,1.5c0.1,0.8,0.6,1.4,1.4,1.8c0.5,0.2,1,0.3,1.4,0.5c1,0.3,1.9,0.7,2.7,1.4
	c0.2,0.2,0.4,0.4,0.6,0.6c0.3,0.3,0.6,0.3,0.8,0c0.6-0.9,1.3-1.7,0.9-2.9c-0.1-0.4,0-0.7,0.4-0.9c0.8-0.5,1.7-0.2,2.1,0.7
	c0.4,0.9,0.8,1.9,1.1,2.8c0.6,1.8,2.2,2.7,3.7,3.7c0.1,0,0.1,0.1,0.2,0.1c0.4,0.1,0.6-0.2,0.5-0.5c0-0.2-0.1-0.5-0.3-0.7
	c-0.2-0.4-0.4-0.8-0.7-1.2c-0.3-0.5-0.4-1.1-0.3-1.7c0.3-1,0.7-1.8,1.9-2c0.7-0.1,1.2-0.5,1.8-0.9c0.5-0.4,0.5-0.6,0.2-1.2
	c-0.4-0.6-0.6-1.2-0.4-1.9c0.1-0.4,0.3-0.5,0.6-0.3c0.2,0.1,0.4,0.3,0.6,0.6c0.4,0.5,0.9,0.7,1.5,0.6c0.5-0.1,0.9-0.3,1.1-0.8
	c0.2-0.4,0.2-0.9,0.1-1.4c-1.5-5.7-4.6-10.2-9.5-13.4c-7.3-4.9-16.6-5.1-24.3-0.7C68.6,88.2,68.4,88.3,68.2,88.5z M90.6,120.3
	c0,0.1,0,0.3,0,0.4c0.3,1,0.5,1.9,0.8,2.9c0.1,0.4,0.4,0.5,0.9,0.3c0.4-0.2,0.8-0.5,1.2-0.7c0.1-0.1,0.3-0.2,0.4-0.1
	c0.2,0.1,0,0.3,0,0.4c0,0.2-0.1,0.4,0.1,0.5c0.2,0.1,0.3,0,0.5-0.1c0.3-0.3,0.7-0.3,1.1-0.1c0.2,0.1,0.4,0.1,0.5,0.2
	c0.2,0.1,0.4,0.1,0.6-0.1c2-2.1,3.6-4.5,4.7-7.1c0.3-0.7,0.3-1.3,0-2c-0.1-0.2-0.2-0.5-0.3-0.7c-0.2-0.3-0.4-0.4-0.7-0.2
	c-0.2,0.1-0.4,0.3-0.6,0.4c-0.9,0.6-1.9,1-3,1.2c-1.2,0.2-2.3,0.5-3.5,0.9C91.9,116.9,90.6,118.6,90.6,120.3z M94.3,126.1
	c-1-0.6-2-0.6-3-0.4c-1,0.2-1.8,0.8-2.6,1.4c-1.3,1.1-1.3,1.1-2.9,0.5c-1.6-0.5-3.2-1.1-4.9-1.4c-1.6-0.3-3.3-0.3-4.8,0.3
	c-1,0.4-1.8,1-2.3,2c-0.4,0.7-0.2,1.3,0.6,1.5c4.7,1.2,9.3,1.1,13.9-0.6C90.4,128.6,92.4,127.5,94.3,126.1z M103.3,108.1
	c0-0.5,0-0.9,0-1.4c0-0.8-0.7-1.6-1.4-1.7c-0.2,0-0.5-0.1-0.6,0c-0.1,0.1,0.1,0.3,0.2,0.5c0,0.1,0.1,0.1,0.1,0.2
	c0.2,0.4,0.2,0.7-0.1,1.1c-0.3,0.4-0.5,0.9-0.6,1.5c-0.1,1.6,0.5,2.9,1.6,4.1c0.1,0.1,0.1,0.2,0.3,0.2c0.1,0,0.1-0.2,0.1-0.3
	C103.2,110.8,103.3,109.5,103.3,108.1z M59.6,99.4c0.2,0,0.5-0.1,0.7-0.3c0.2-0.2,0.4-0.3,0.6-0.5c0.9-0.9,1.7-1.8,2.9-2.4
	c0.2-0.1,0.4-0.2,0.4-0.5c-0.1-0.3-0.3-0.4-0.5-0.4c-0.1,0-0.2-0.1-0.3-0.1c-0.6-0.1-1.3,0.1-1.9,0.3c-0.3,0.1-0.5,0.3-0.7,0.6
	c-0.6,1-1.1,1.9-1.5,3C59.1,99.3,59.2,99.4,59.6,99.4z M75.3,118.5c0,0.3,0,0.5,0,0.8c0,0.2,0,0.4,0.2,0.5c0.2,0,0.3-0.2,0.4-0.3
	c0.3-0.5,0.4-1,0.6-1.4c0.3-0.9,0.5-1.9,1.1-2.8c0.1-0.2,0.2-0.4,0.2-0.6c0.1-0.2,0.1-0.5-0.2-0.7c-0.2-0.2-0.5-0.1-0.7,0
	c-0.5,0.3-0.9,0.7-1.1,1.3C75.6,116.3,75.4,117.4,75.3,118.5z M65.4,91.9c0-0.3-0.1-0.5-0.4-0.6c-0.6-0.1-1.1,0-1.5,0.4
	c-0.5,0.5-0.9,1.2-1.4,1.7c-0.2,0.2-0.1,0.4,0.1,0.5c0.2,0.2,0.5,0.3,0.8,0.2c0.3,0,0.6-0.1,0.9-0.3C64.7,93.6,65.5,93.1,65.4,91.9z
	 M85.9,111.5c0.1,0,0.3,0,0.4-0.1c0.4-0.1,0.5-0.4,0.3-0.7c-0.2-0.3-0.5-0.5-0.8-0.7c-0.5-0.3-1-0.2-1.4,0.3
	c-0.3,0.3-0.2,0.6,0.1,0.8C84.9,111.4,85.4,111.5,85.9,111.5z M98.5,113.7c0.1,0,0.2,0,0.4-0.1c0.5-0.1,0.6-0.4,0.3-0.8
	c-0.2-0.3-0.5-0.5-0.8-0.6c-0.5-0.3-1-0.1-1.4,0.3c-0.2,0.3-0.2,0.6,0.1,0.8C97.5,113.6,97.9,113.7,98.5,113.7z M97.2,111.4
	c0.1,0,0.1,0,0.2,0c0.5,0,0.6-0.2,0.4-0.7c-0.2-0.4-0.6-0.7-0.9-0.9c-0.4-0.2-0.8,0-0.8,0.5C96.1,110.9,96.6,111.4,97.2,111.4z"/>
<g>
	<g>
		<path class="st3" d="M47.1,21.3c-0.6,0-1.2-0.1-1.6-0.3c-0.4-0.2-0.8-0.4-1.1-0.8S44,19.5,43.9,19s-0.2-1-0.2-1.6v-4
			c0-0.6,0.1-1.1,0.2-1.6c0.1-0.5,0.3-0.9,0.6-1.2c0.3-0.3,0.6-0.6,1.1-0.8c0.4-0.2,1-0.3,1.6-0.3c0.6,0,1.1,0.1,1.6,0.2
			s0.8,0.4,1,0.7c0.2,0.3,0.4,0.6,0.5,1c0.1,0.4,0.2,0.8,0.2,1.3v1h-2.4v-1.1c0-0.2,0-0.3,0-0.4s0-0.2,0-0.4c0-0.1-0.1-0.3-0.1-0.3
			c-0.1-0.1-0.1-0.1-0.2-0.2c-0.1-0.1-0.2-0.1-0.4-0.1c-0.2,0-0.3,0-0.4,0.1c-0.1,0.1-0.2,0.1-0.2,0.2c-0.1,0.1-0.1,0.2-0.1,0.3
			c0,0.1-0.1,0.3-0.1,0.4s0,0.3,0,0.4v5.3c0,0.5,0.1,0.8,0.2,1c0.1,0.2,0.3,0.4,0.7,0.4c0.1,0,0.3,0,0.4-0.1
			c0.1-0.1,0.2-0.1,0.2-0.2c0.1-0.1,0.1-0.2,0.1-0.3c0-0.1,0-0.3,0.1-0.4s0-0.2,0-0.4v-1.2h2.4v1c0,0.4,0,0.8-0.1,1.1
			c-0.1,0.3-0.2,0.6-0.3,0.9c-0.2,0.3-0.4,0.5-0.6,0.7s-0.6,0.3-0.9,0.5C48,21.2,47.6,21.3,47.1,21.3z"/>
		<path class="st3" d="M51.7,21.1V9.8h2.5v9.6h2.6v1.7H51.7z"/>
		<path class="st3" d="M57.9,21.1V9.8h2.5v11.3H57.9z"/>
		<path class="st3" d="M62,21.1l0.2-11.3h2.7l1.3,6.6l1.4-6.6h2.6l0.2,11.3h-1.8l-0.2-7.5L67,21.1h-1.6L64,13.5l-0.2,7.6H62z"/>
		<path class="st3" d="M71.4,21.1l2.1-11.3h2.8l2.1,11.3h-2.3l-0.4-2.4h-1.7l-0.4,2.4H71.4z M74.3,17.2h1.2l-0.6-4.4L74.3,17.2z"/>
		<path class="st3" d="M80.3,21.1v-9.5h-1.7V9.8h6v1.9h-1.7v9.5H80.3z"/>
		<path class="st3" d="M85.5,21.1V9.8h5.1v1.7H88v2.8h2V16h-2v3.4h2.6v1.7H85.5z"/>
		<path class="st3" d="M43.3,37.9l2.1-11.3h2.8l2.1,11.3h-2.3l-0.4-2.4h-1.7l-0.4,2.4H43.3z M46.3,34h1.2l-0.6-4.4L46.3,34z"/>
		<path class="st3" d="M54.8,38.1c-0.6,0-1.2-0.1-1.6-0.3c-0.4-0.2-0.8-0.4-1.1-0.8s-0.4-0.7-0.6-1.2s-0.2-1-0.2-1.6v-4
			c0-0.6,0.1-1.1,0.2-1.6c0.1-0.5,0.3-0.9,0.6-1.2c0.3-0.3,0.6-0.6,1.1-0.8c0.4-0.2,1-0.3,1.6-0.3c0.6,0,1.1,0.1,1.6,0.2
			s0.8,0.4,1,0.7c0.2,0.3,0.4,0.6,0.5,1c0.1,0.4,0.2,0.8,0.2,1.3v1h-2.4v-1.1c0-0.2,0-0.3,0-0.4s0-0.2,0-0.4c0-0.1-0.1-0.3-0.1-0.3
			c-0.1-0.1-0.1-0.1-0.2-0.2c-0.1-0.1-0.2-0.1-0.4-0.1c-0.2,0-0.3,0-0.4,0.1c-0.1,0.1-0.2,0.1-0.2,0.2c-0.1,0.1-0.1,0.2-0.1,0.3
			c0,0.1-0.1,0.3-0.1,0.4s0,0.3,0,0.4v5.3c0,0.5,0.1,0.8,0.2,1c0.1,0.2,0.3,0.4,0.7,0.4c0.1,0,0.3,0,0.4-0.1
			c0.1-0.1,0.2-0.1,0.2-0.2c0.1-0.1,0.1-0.2,0.1-0.3c0-0.1,0-0.3,0.1-0.4s0-0.2,0-0.4v-1.2H58v1c0,0.4,0,0.8-0.1,1.1
			c-0.1,0.3-0.2,0.6-0.3,0.9c-0.2,0.3-0.4,0.5-0.6,0.7s-0.6,0.3-0.9,0.5C55.7,38,55.3,38.1,54.8,38.1z"/>
		<path class="st3" d="M60.4,37.9v-9.5h-1.7v-1.9h6v1.9h-1.7v9.5H60.4z"/>
		<path class="st3" d="M65.6,37.9V26.6h2.5v11.3H65.6z"/>
		<path class="st3" d="M73.1,38.1c-0.6,0-1.2-0.1-1.6-0.2c-0.4-0.2-0.8-0.4-1.1-0.7c-0.3-0.3-0.5-0.7-0.6-1.2
			c-0.1-0.4-0.2-1-0.2-1.6v-4.2c0-0.6,0.1-1.1,0.2-1.6c0.1-0.4,0.3-0.8,0.6-1.2s0.6-0.6,1.1-0.7s1-0.2,1.6-0.2
			c1.2,0,2.1,0.3,2.6,0.9c0.5,0.6,0.8,1.6,0.8,2.8v4.2c0,1.2-0.3,2.2-0.8,2.8C75.2,37.7,74.3,38.1,73.1,38.1z M72.7,36.2
			c0.1,0.1,0.2,0.1,0.4,0.1c0.1,0,0.3,0,0.4-0.1c0.1-0.1,0.2-0.1,0.3-0.2c0.1-0.1,0.1-0.2,0.1-0.3c0-0.1,0.1-0.2,0.1-0.4
			c0-0.1,0-0.2,0-0.4v-5.4c0-0.2,0-0.3,0-0.4c0-0.1,0-0.2-0.1-0.4c0-0.1-0.1-0.2-0.1-0.3c-0.1-0.1-0.1-0.1-0.3-0.2
			c-0.1-0.1-0.2-0.1-0.4-0.1c-0.2,0-0.3,0-0.4,0.1c-0.1,0.1-0.2,0.1-0.2,0.2c-0.1,0.1-0.1,0.2-0.1,0.3c0,0.1-0.1,0.2-0.1,0.4
			s0,0.2,0,0.4v5.4c0,0.2,0,0.3,0,0.4c0,0.1,0,0.2,0.1,0.4c0,0.1,0.1,0.2,0.1,0.3C72.5,36.1,72.6,36.1,72.7,36.2z"/>
		<path class="st3" d="M78,37.9V26.6h1.8l2.3,5.4v-5.4h2.1v11.3h-1.7L80.1,32v5.9H78z"/>
	</g>
</g>
</svg>
