<?xml version="1.0" encoding="utf-8"?>
<!-- Generator: Adobe Illustrator 21.0.0, SVG Export Plug-In . SVG Version: 6.00 Build 0)  -->
<svg version="1.1" id="Layer_1" xmlns="http://www.w3.org/2000/svg" xmlns:xlink="http://www.w3.org/1999/xlink" x="0px" y="0px"
	 viewBox="0 0 197.9 145.1" style="enable-background:new 0 0 197.9 145.1;" xml:space="preserve">
<style type="text/css">
	.st0{fill:#FFFFFF;stroke:#ABAAAA;stroke-miterlimit:10;}
	.st1{fill:#BF8B2C;}
	.st2{fill:#C5202E;}
	.st3{fill:#FFFFFF;}
	.st4{fill:#FFFAF9;}
	.st5{fill:#FFFCFD;}
	.st6{fill:#E4253C;}
	.st7{fill:#FFFFFD;}
	.st8{fill:#29A74A;}
	.st9{fill:#4CA046;}
	.st10{fill:#FDFEFD;}
	.st11{fill:#DEA73A;}
	.st12{fill:#18496B;}
	.st13{fill:#FAFCFE;}
	.st14{fill:#01699E;}
	.st15{fill:#FDFEFF;}
	.st16{fill:#F8FAFB;}
	.st17{fill:#F7F9FA;}
	.st18{fill:#F7F7FA;}
	.st19{fill:#F6F7F9;}
	.st20{fill:#A7B1CA;}
	.st21{fill:#5CBA47;}
	.st22{fill:#FDFEFC;}
	.st23{fill:#F26A2C;}
	.st24{fill:#1C97D4;}
	.st25{fill:#FAFDFF;}
	.st26{fill:#DD1768;}
	.st27{fill:#FFFBFD;}
	.st28{fill:#F99D29;}
	.st29{fill:#FFFCFA;}
	.st30{fill:#407F44;}
	.st31{fill:#29BEE2;}
	.st32{fill:#FAC315;}
	.st33{fill:#FFFCF8;}
	.st34{fill:#FFFFFC;}
	.st35{fill:#FFFCF7;}
	.st36{fill:#EF402C;}
	.st37{fill:#A21C44;}
	.st38{fill:#DC3746;}
	.st39{fill:#FDC010;}
	.st40{fill-rule:evenodd;clip-rule:evenodd;fill:#E0E0DF;}
</style>
<rect x="141" y="1" transform="matrix(-1 -1.224647e-16 1.224647e-16 -1 338.34 145.0949)" class="st0" width="56.4" height="143.1"/>
<rect y="0.5" class="st9" width="143" height="144.1"/>
<path class="st10" d="M55.6,90.7c-0.8,1.9-1.7,3.7-2.5,5.6c-1.1,2.5-2.2,5-3.3,7.5c-0.4,0.9-1,1.2-1.9,1.2c-7.7,0-15.4,0-23.2,0
	c-1.2,0-1.9-0.7-1.9-1.7c0-1,0.8-1.7,1.9-1.7c7.2,0,14.4,0,21.6,0c0.6,0,0.8-0.2,1.1-0.7c2.5-5.6,5-11.2,7.4-16.7
	c0.1-0.2,0.2-0.4,0.2-0.5c0.4-0.7,1.1-1.1,1.8-1c0.7,0.1,1.3,0.6,1.4,1.4c0.4,2.6,0.8,5.1,1.1,7.7c0.7,5.2,1.5,10.4,2.2,15.6
	c0,0.1,0.1,0.3,0.2,0.5c0.6-1.2,1.2-2.2,1.8-3.3c1.9-3.5,3.8-7.1,5.7-10.6c0.5-0.9,1.1-1.3,2-1.1c0.8,0.2,1.2,0.7,1.4,1.7
	c1.5,9,3.1,18,4.6,26.9c0,0.1,0,0.1,0.1,0.2c0.3-0.2,0.3-0.6,0.4-0.9c5.7-18.8,11.3-37.6,17-56.4c0.3-1,0.8-1.4,1.5-1.5
	c0.9-0.1,1.4,0.3,1.9,1.3c2.9,6,5.8,12,8.7,18c0.1,0.2,0.2,0.4,0.3,0.7c0.4,0.9,0.1,1.9-0.8,2.3c-0.9,0.4-1.9,0.1-2.3-0.9
	c-1.7-3.4-3.3-6.9-5-10.3c-0.7-1.5-1.5-3-2.3-4.7c-0.3,0.9-0.5,1.7-0.8,2.5c-5.8,19.3-11.6,38.5-17.4,57.8c-0.2,0.8-0.6,1.3-1.4,1.5
	c-1,0.2-1.8-0.4-2-1.5c-0.6-3.4-1.2-6.7-1.7-10.1c-1.1-6.5-2.2-13-3.3-19.4c0-0.1-0.1-0.1-0.1-0.3c-0.2,0.3-0.3,0.5-0.4,0.7
	c-2.4,4.4-4.8,8.8-7.2,13.3c-0.5,0.9-1.1,1.3-1.9,1.2c-0.8-0.1-1.3-0.7-1.4-1.7c-0.8-5.3-1.5-10.5-2.3-15.8
	c-0.3-2.1-0.6-4.2-0.9-6.3C55.8,91,55.9,90.9,55.6,90.7z"/>
<path class="st3" d="M95.6,98.7c0-3.1,1.9-5.9,4.8-6.8c1.6-0.5,3.1-0.3,4.5,0.6c0.9,0.6,1.8,1.4,2.6,2.2c0.3,0.3,0.5,0.3,0.8,0
	c0.8-0.8,1.7-1.6,2.6-2.2c2.3-1.4,5-1.2,7,0.7c2.9,2.8,3.1,7.9,0.3,10.8c-3.3,3.4-6.6,6.7-10,10c-0.3,0.3-0.4,0.3-0.7,0
	c-3.3-3.4-6.7-6.7-10-10.1C96.2,102.7,95.6,101,95.6,98.7z"/>
<g>
	<g>
		<path class="st3" d="M20.1,34.2c-1.1,0-2-0.2-2.8-0.5c-0.8-0.4-1.4-0.9-1.8-1.6s-0.8-1.5-1-2.4c-0.2-0.9-0.3-1.9-0.3-3.1v-0.9h4.4
			v0.8c0,1.2,0.1,2.1,0.3,2.6c0.2,0.5,0.6,0.8,1.2,0.8c0.6,0,0.9-0.2,1.1-0.7s0.3-1.3,0.3-2.5c0-1.3-0.2-2.2-0.5-2.8
			s-0.9-0.9-1.8-0.9h-0.8v-3.5h0.7c0.9,0,1.5-0.3,1.8-0.8c0.3-0.5,0.5-1.4,0.5-2.7c0-1-0.1-1.7-0.3-2.2c-0.2-0.5-0.6-0.7-1.2-0.7
			c-0.6,0-0.9,0.3-1.1,0.8s-0.3,1.2-0.3,2.2v1.2h-4.4v-1.5c0-2.2,0.5-3.8,1.5-5c1-1.2,2.4-1.8,4.3-1.8c1.9,0,3.3,0.6,4.3,1.7
			c1,1.1,1.5,2.8,1.5,4.9c0,1.4-0.2,2.5-0.7,3.5c-0.5,1-1.1,1.6-1.9,1.8c1.7,0.7,2.6,2.6,2.6,5.6c0,1.2-0.1,2.2-0.3,3.1
			s-0.5,1.7-1,2.4c-0.4,0.7-1.1,1.2-1.8,1.6C22,34,21.1,34.2,20.1,34.2z"/>
	</g>
</g>
<g>
	<g>
		<path class="st3" d="M36.9,21.8c-0.5,0-0.9-0.1-1.3-0.3c-0.3-0.2-0.6-0.5-0.8-0.8c-0.2-0.4-0.4-0.8-0.4-1.2s-0.1-1-0.1-1.6v-3.8
			c0-0.5,0-1,0.1-1.3s0.2-0.8,0.3-1.1s0.3-0.6,0.5-0.8s0.5-0.4,0.8-0.5c0.3-0.1,0.7-0.2,1.2-0.2c0.4,0,0.8,0.1,1.1,0.2
			c0.3,0.1,0.6,0.3,0.8,0.4c0.2,0.2,0.4,0.4,0.5,0.7c0.1,0.3,0.2,0.6,0.3,0.9c0.1,0.3,0.1,0.7,0.1,1.1v0.7h-2.1v-0.9
			c0-0.2,0-0.3,0-0.4s0-0.2,0-0.4s-0.1-0.2-0.1-0.3s-0.1-0.1-0.2-0.2c-0.1-0.1-0.2-0.1-0.3-0.1c-0.1,0-0.3,0-0.3,0.1
			s-0.2,0.1-0.2,0.2c-0.1,0.1-0.1,0.2-0.1,0.3s0,0.3-0.1,0.4c0,0.1,0,0.3,0,0.4v5.2c0,0.5,0.1,0.8,0.2,1.1c0.1,0.3,0.3,0.4,0.6,0.4
			c0.6,0,0.8-0.5,0.8-1.5v-1.3h-0.9v-1.5H40v5.9h-1.4l-0.1-1C38.2,21.4,37.7,21.8,36.9,21.8z"/>
		<path class="st3" d="M44.2,21.8c-0.5,0-1-0.1-1.4-0.2c-0.4-0.2-0.7-0.4-0.9-0.7c-0.2-0.3-0.4-0.7-0.5-1.2c-0.1-0.4-0.1-1-0.1-1.6
			v-4.2c0-0.6,0-1.1,0.1-1.6c0.1-0.4,0.3-0.8,0.5-1.2s0.5-0.6,0.9-0.7c0.4-0.2,0.8-0.2,1.4-0.2c1.1,0,1.8,0.3,2.3,0.9
			c0.5,0.6,0.7,1.6,0.7,2.8v4.2c0,1.2-0.2,2.2-0.7,2.8C46,21.5,45.2,21.8,44.2,21.8z M43.8,20C43.9,20,44,20,44.2,20s0.2,0,0.3-0.1
			c0.1-0.1,0.2-0.1,0.2-0.2c0.1-0.1,0.1-0.2,0.1-0.3s0-0.2,0.1-0.4c0-0.1,0-0.2,0-0.4v-5.4c0-0.2,0-0.3,0-0.4c0-0.1,0-0.2-0.1-0.4
			c0-0.1-0.1-0.2-0.1-0.3s-0.1-0.1-0.2-0.2c-0.1-0.1-0.2-0.1-0.3-0.1s-0.2,0-0.3,0.1c-0.1,0.1-0.2,0.1-0.2,0.2
			c-0.1,0.1-0.1,0.2-0.1,0.3c0,0.1,0,0.2,0,0.4s0,0.2,0,0.4v5.4c0,0.2,0,0.3,0,0.4c0,0.1,0,0.2,0,0.4c0,0.1,0.1,0.2,0.1,0.3
			S43.7,19.9,43.8,20z"/>
		<path class="st3" d="M51.2,21.8c-0.5,0-1-0.1-1.4-0.2c-0.4-0.2-0.7-0.4-0.9-0.7c-0.2-0.3-0.4-0.7-0.5-1.2c-0.1-0.4-0.1-1-0.1-1.6
			v-4.2c0-0.6,0-1.1,0.1-1.6c0.1-0.4,0.3-0.8,0.5-1.2s0.5-0.6,0.9-0.7c0.4-0.2,0.8-0.2,1.4-0.2c1.1,0,1.8,0.3,2.3,0.9
			c0.5,0.6,0.7,1.6,0.7,2.8v4.2c0,1.2-0.2,2.2-0.7,2.8C53,21.5,52.3,21.8,51.2,21.8z M50.9,20C51,20,51.1,20,51.2,20s0.2,0,0.3-0.1
			c0.1-0.1,0.2-0.1,0.2-0.2c0.1-0.1,0.1-0.2,0.1-0.3s0-0.2,0.1-0.4c0-0.1,0-0.2,0-0.4v-5.4c0-0.2,0-0.3,0-0.4c0-0.1,0-0.2-0.1-0.4
			c0-0.1-0.1-0.2-0.1-0.3s-0.1-0.1-0.2-0.2c-0.1-0.1-0.2-0.1-0.3-0.1S51,12,50.9,12c-0.1,0.1-0.2,0.1-0.2,0.2
			c-0.1,0.1-0.1,0.2-0.1,0.3c0,0.1,0,0.2,0,0.4s0,0.2,0,0.4v5.4c0,0.2,0,0.3,0,0.4c0,0.1,0,0.2,0,0.4c0,0.1,0.1,0.2,0.1,0.3
			S50.8,19.9,50.9,20z"/>
		<path class="st3" d="M55.4,21.7V10.3h2.5c0.6,0,1.2,0.1,1.6,0.2c0.4,0.1,0.8,0.3,1,0.6c0.3,0.3,0.4,0.7,0.5,1.1
			c0.1,0.4,0.2,1,0.2,1.6V18c0,0.7-0.1,1.2-0.2,1.7c-0.1,0.4-0.3,0.8-0.5,1.1c-0.2,0.3-0.6,0.5-1,0.7c-0.4,0.1-0.9,0.2-1.6,0.2H55.4
			z M57.6,19.9h0.3c0.2,0,0.3,0,0.4,0c0.1,0,0.2-0.1,0.3-0.1s0.1-0.1,0.2-0.2c0-0.1,0.1-0.2,0.1-0.3c0-0.1,0-0.3,0-0.4
			c0-0.1,0-0.3,0-0.5v-4.9c0-0.3,0-0.5,0-0.7s-0.1-0.3-0.1-0.4s-0.2-0.2-0.3-0.3c-0.1,0-0.3-0.1-0.6-0.1h-0.3V19.9z"/>
		<path class="st3" d="M65.6,21.7V10.3h2.2v4.6h1.5v-4.6h2.2v11.3h-2.2v-5h-1.5v5H65.6z"/>
		<path class="st3" d="M72.9,21.7V10.3h4.4V12H75v2.8h1.7v1.7H75V20h2.3v1.7H72.9z"/>
		<path class="st3" d="M77.8,21.7l1.8-11.3h2.4l1.8,11.3h-2l-0.3-2.4h-1.4l-0.3,2.4H77.8z M80.4,17.8h1l-0.5-4.4L80.4,17.8z"/>
		<path class="st3" d="M84.9,21.7V10.3H87V20h2.2v1.7H84.9z"/>
		<path class="st3" d="M90.9,21.7v-9.5h-1.5v-1.9h5.1v1.9h-1.5v9.5H90.9z"/>
		<path class="st3" d="M95.4,21.7V10.3h2.2v4.6h1.5v-4.6h2.2v11.3h-2.2v-5h-1.5v5H95.4z"/>
		<path class="st3" d="M33.9,38.5l1.8-11.3h2.4L40,38.5h-2L37.7,36h-1.4l-0.3,2.4H33.9z M36.5,34.6h1L37,30.2L36.5,34.6z"/>
		<path class="st3" d="M41,38.5V27.1h1.5l2,5.4v-5.4h1.8v11.3h-1.5l-2-5.9v5.9H41z"/>
		<path class="st3" d="M47.7,38.5V27.1h2.5c0.6,0,1.2,0.1,1.6,0.2c0.4,0.1,0.8,0.3,1,0.6c0.3,0.3,0.4,0.7,0.5,1.1
			c0.1,0.4,0.2,1,0.2,1.6v4.1c0,0.7-0.1,1.2-0.2,1.7c-0.1,0.4-0.3,0.8-0.5,1.1c-0.2,0.3-0.6,0.5-1,0.7c-0.4,0.1-0.9,0.2-1.6,0.2
			H47.7z M49.9,36.7h0.3c0.2,0,0.3,0,0.4,0c0.1,0,0.2-0.1,0.3-0.1s0.1-0.1,0.2-0.2c0-0.1,0.1-0.2,0.1-0.3c0-0.1,0-0.3,0-0.4
			c0-0.1,0-0.3,0-0.5v-4.9c0-0.3,0-0.5,0-0.7s-0.1-0.3-0.1-0.4s-0.2-0.2-0.3-0.3c-0.1,0-0.3-0.1-0.6-0.1h-0.3V36.7z"/>
		<path class="st3" d="M58.6,38.5l-1.2-11.3h1.8l0.6,6.6l0.7-6.6H62l0.8,6.5l0.6-6.5h1.8L64,38.5h-1.9l-0.8-6.8l-0.8,6.8H58.6z"/>
		<path class="st3" d="M66.3,38.5V27.1h4.4v1.7h-2.2v2.8h1.7v1.7h-1.7v3.4h2.3v1.7H66.3z"/>
		<path class="st3" d="M71.6,38.5V27.1h2.2v9.6H76v1.7H71.6z"/>
		<path class="st3" d="M77,38.5V27.1h2.2v9.6h2.2v1.7H77z"/>
		<path class="st3" d="M82.3,34.3v-1.5h3.1v1.5H82.3z"/>
		<path class="st3" d="M86.9,38.5V27.1h2.5c0.4,0,0.7,0,1,0.1c0.3,0,0.6,0.1,0.8,0.3c0.3,0.1,0.5,0.3,0.7,0.5
			c0.2,0.2,0.3,0.5,0.4,0.9c0.1,0.3,0.2,0.7,0.1,1.2c0,0,0,0.1,0,0.1c0,1.3-0.5,2.1-1.4,2.3c0.6,0.1,1,0.4,1.3,0.8
			c0.3,0.5,0.4,1.1,0.5,1.9c0,0,0,0.1,0,0.1c0,1.1-0.3,1.9-0.7,2.5c-0.5,0.5-1.2,0.8-2.2,0.8H86.9z M89.1,31.7h0.4
			c0.5,0,0.8-0.1,0.9-0.4c0.2-0.2,0.3-0.6,0.3-1.1c0-0.9-0.4-1.3-1.3-1.3h-0.3V31.7z M89.1,36.7h0.5c0.5,0,0.8-0.1,1-0.4
			s0.3-0.7,0.3-1.3c0-0.6-0.1-1.1-0.3-1.4s-0.5-0.4-1-0.4h-0.4V36.7z"/>
		<path class="st3" d="M94,38.5V27.1h4.4v1.7h-2.2v2.8h1.7v1.7h-1.7v3.4h2.3v1.7H94z"/>
		<path class="st3" d="M99.4,38.5V27.1h2.2v11.3H99.4z"/>
		<path class="st3" d="M103,38.5V27.1h1.5l2,5.4v-5.4h1.8v11.3h-1.5l-2-5.9v5.9H103z"/>
		<path class="st3" d="M112.3,38.6c-0.5,0-0.9-0.1-1.3-0.3c-0.3-0.2-0.6-0.5-0.8-0.8c-0.2-0.4-0.4-0.8-0.4-1.2s-0.1-1-0.1-1.6v-3.8
			c0-0.5,0-1,0.1-1.3s0.2-0.8,0.3-1.1s0.3-0.6,0.5-0.8s0.5-0.4,0.8-0.5c0.3-0.1,0.7-0.2,1.2-0.2c0.4,0,0.8,0.1,1.1,0.2
			c0.3,0.1,0.6,0.3,0.8,0.4c0.2,0.2,0.4,0.4,0.5,0.7c0.1,0.3,0.2,0.6,0.3,0.9c0.1,0.3,0.1,0.7,0.1,1.1V31h-2.1v-0.9
			c0-0.2,0-0.3,0-0.4s0-0.2,0-0.4s-0.1-0.2-0.1-0.3s-0.1-0.1-0.2-0.2c-0.1-0.1-0.2-0.1-0.3-0.1c-0.1,0-0.3,0-0.3,0.1S112,29,112,29
			c-0.1,0.1-0.1,0.2-0.1,0.3s0,0.3-0.1,0.4c0,0.1,0,0.3,0,0.4v5.2c0,0.5,0.1,0.8,0.2,1.1c0.1,0.3,0.3,0.4,0.6,0.4
			c0.6,0,0.8-0.5,0.8-1.5v-1.3h-0.9v-1.5h2.8v5.9H114l-0.1-1C113.6,38.2,113,38.6,112.3,38.6z"/>
	</g>
</g>
<g>
	<circle class="st40" cx="162.6" cy="72.5" r="6.2"/>
	<circle class="st40" cx="180.9" cy="72.5" r="6.2"/>
</g>
</svg>
