<?xml version="1.0" encoding="utf-8"?>
<!-- Generator: Adobe Illustrator 21.0.0, SVG Export Plug-In . SVG Version: 6.00 Build 0)  -->
<svg version="1.1" id="Layer_1" xmlns="http://www.w3.org/2000/svg" xmlns:xlink="http://www.w3.org/1999/xlink" x="0px" y="0px"
	 viewBox="0 0 197.9 145.1" style="enable-background:new 0 0 197.9 145.1;" xml:space="preserve">
<style type="text/css">
	.st0{fill:#FFFFFF;stroke:#ABAAAA;stroke-miterlimit:10;}
	.st1{fill:#BF8B2C;}
	.st2{fill:#C5202E;}
	.st3{fill:#FFFFFF;}
	.st4{fill:#FFFAF9;}
	.st5{fill:#FFFCFD;}
	.st6{fill:#E4253C;}
	.st7{fill:#FFFFFD;}
	.st8{fill:#29A74A;}
	.st9{fill:#4CA046;}
	.st10{fill:#FDFEFD;}
	.st11{fill:#DEA73A;}
	.st12{fill:#18496B;}
	.st13{fill:#FAFCFE;}
	.st14{fill:#01699E;}
	.st15{fill:#FDFEFF;}
	.st16{fill:#F8FAFB;}
	.st17{fill:#F7F9FA;}
	.st18{fill:#F7F7FA;}
	.st19{fill:#F6F7F9;}
	.st20{fill:#A7B1CA;}
	.st21{fill:#5CBA47;}
	.st22{fill:#FDFEFC;}
	.st23{fill:#F26A2C;}
	.st24{fill:#1C97D4;}
	.st25{fill:#FAFDFF;}
	.st26{fill:#DD1768;}
	.st27{fill:#FFFBFD;}
	.st28{fill:#F99D29;}
	.st29{fill:#FFFCFA;}
	.st30{fill:#407F44;}
	.st31{fill:#29BEE2;}
	.st32{fill:#FAC315;}
	.st33{fill:#FFFCF8;}
	.st34{fill:#FFFFFC;}
	.st35{fill:#FFFCF7;}
	.st36{fill:#EF402C;}
	.st37{fill:#A21C44;}
	.st38{fill:#DC3746;}
	.st39{fill:#FDC010;}
	.st40{fill-rule:evenodd;clip-rule:evenodd;fill:#E0E0DF;}
</style>
<rect x="141" y="1" transform="matrix(-1 -1.224647e-16 1.224647e-16 -1 338.34 145.0949)" class="st0" width="56.4" height="143.1"/>
<rect y="0.5" class="st32" width="143" height="144.1"/>
<path class="st7" d="M74,117.7c-10.3-0.1-18.6-8.4-18.5-18.8C55.7,88.9,64,80.6,74,80.6c10.2,0,18.6,8.3,18.6,18.4
	C92.6,109.4,84.3,117.6,74,117.7z M71.2,91.9c0-0.7,0-1.1,0-1.6c0-0.4-0.2-0.4-0.5-0.3c-4.5,1.7-7.1,6.4-6,11.1
	c1.1,4.9,5.8,8.1,10.8,7.4c4.5-0.7,7.9-4.5,8.2-8.8c0.3-4.3-2.2-8.2-6.3-9.7c-0.4-0.1-0.5-0.1-0.5,0.3c0,0.8,0,1.6,0,2.4
	c0,0.5,0.1,0.7,0.5,1c2.2,1.4,3.3,4,2.8,6.5c-0.5,2.6-2.5,4.6-5.2,5.1c-2.8,0.5-5.6-1-6.7-3.5c-1.2-2.6-0.6-5.8,1.7-7.5
	C71,93.5,71.5,92.8,71.2,91.9z M72.7,91.2L72.7,91.2c0,1,0,2,0,3c0,0.8,0.6,1.5,1.3,1.5c0.8,0,1.4-0.6,1.4-1.4c0-2,0-4,0-6
	c0-0.8-0.6-1.5-1.4-1.5c-0.7,0-1.3,0.7-1.3,1.5C72.7,89.1,72.7,90.1,72.7,91.2z"/>
<path class="st33" d="M75.6,125.7c0,1.3,0,2.6,0,3.8c0,1.1-0.9,1.6-1.5,1.6c-0.8,0-1.5-0.7-1.5-1.7c0-2.6,0-5.1,0-7.7
	c0-0.9,0.7-1.6,1.5-1.6c0.9,0,1.5,0.7,1.5,1.6C75.6,123.1,75.6,124.4,75.6,125.7L75.6,125.7z"/>
<path class="st33" d="M75.6,72.2c0,1.3,0,2.5,0,3.8c0,1-0.6,1.7-1.5,1.7c-0.8,0-1.5-0.7-1.5-1.7c0-2.6,0-5.1,0-7.7
	c0-0.9,0.7-1.6,1.5-1.6c0.9,0,1.5,0.6,1.5,1.6C75.6,69.6,75.6,70.9,75.6,72.2L75.6,72.2z"/>
<path class="st34" d="M100.8,100.5c-1.3,0-2.5,0-3.8,0c-1,0-1.6-0.6-1.7-1.5c0-0.9,0.6-1.6,1.6-1.6c2.6,0,5.2,0,7.8,0
	c0.9,0,1.6,0.7,1.5,1.6c0,0.9-0.7,1.5-1.6,1.5C103.4,100.5,102.1,100.5,100.8,100.5z"/>
<path class="st34" d="M47.3,100.5c-1.3,0-2.5,0-3.8,0c-0.9,0-1.7-0.7-1.7-1.5c0-0.9,0.7-1.6,1.7-1.6c2.5,0,5,0,7.6,0
	c1.1,0,1.7,0.6,1.7,1.6c0,0.9-0.7,1.5-1.7,1.5C49.9,100.5,48.6,100.5,47.3,100.5z"/>
<path class="st35" d="M85.5,80.7c-1.2,0-2-1.2-1.4-2.2c1.3-2.3,2.6-4.6,4-6.9c0.4-0.7,1.4-1,2.1-0.6c0.7,0.4,1,1.4,0.5,2.2
	c-1.3,2.2-2.6,4.5-3.8,6.7C86.5,80.4,86,80.7,85.5,80.7z"/>
<path class="st33" d="M62.7,80.7c-0.6,0-1-0.2-1.3-0.8c-1.3-2.2-2.5-4.4-3.8-6.7c-0.5-0.9-0.3-1.8,0.4-2.3c0.8-0.5,1.7-0.2,2.2,0.7
	c1.3,2.2,2.6,4.5,3.9,6.7C64.7,79.5,63.9,80.7,62.7,80.7z"/>
<path class="st33" d="M93.9,108.7c0.4,0,0.6,0.1,0.9,0.3c2.2,1.3,4.4,2.5,6.6,3.8c0.7,0.4,1,1,0.9,1.7c-0.1,0.7-0.5,1.1-1.2,1.3
	c-0.4,0.1-0.8-0.1-1.2-0.3c-2.2-1.3-4.4-2.5-6.7-3.8c-0.6-0.4-1-1.1-0.8-1.8C92.5,109.2,93.2,108.7,93.9,108.7z"/>
<path class="st33" d="M89.4,127.1c-0.6,0-1.1-0.3-1.4-0.8c-1.3-2.3-2.6-4.5-3.9-6.8c-0.4-0.8-0.2-1.7,0.5-2.1
	c0.8-0.4,1.7-0.2,2.1,0.6c1.3,2.2,2.6,4.5,3.9,6.8c0.3,0.6,0.3,1.1,0,1.7C90.4,126.9,89.9,127.1,89.4,127.1z"/>
<path class="st35" d="M92.3,87.6c0-0.6,0.2-1.1,0.8-1.4c2.3-1.3,4.5-2.6,6.8-3.9c0.8-0.5,1.8-0.2,2.2,0.6c0.4,0.7,0.1,1.6-0.7,2.1
	c-2.2,1.3-4.5,2.6-6.7,3.9C93.5,89.5,92.3,88.9,92.3,87.6z"/>
<path class="st35" d="M58.9,127.1c-1.3,0-2-1.3-1.4-2.4c1-1.7,2-3.5,3-5.2c0.3-0.5,0.6-1,0.8-1.5c0.5-0.8,1.4-1.1,2.2-0.6
	c0.7,0.4,0.9,1.4,0.5,2.2c-1.3,2.2-2.5,4.4-3.8,6.7C59.9,126.8,59.5,127.1,58.9,127.1z"/>
<path class="st33" d="M46,114.2c0-0.6,0.3-1,0.8-1.3c2.2-1.3,4.4-2.6,6.7-3.8c0.8-0.5,1.8-0.3,2.2,0.5c0.5,0.8,0.2,1.7-0.7,2.2
	c-1.8,1-3.5,2-5.3,3c-0.5,0.3-0.9,0.6-1.4,0.8C47.2,116.2,46,115.5,46,114.2z"/>
<path class="st33" d="M46,83.7c0-1.3,1.2-1.9,2.4-1.2c1.4,0.8,2.8,1.6,4.2,2.4c0.8,0.5,1.6,0.9,2.4,1.4c0.9,0.5,1.1,1.4,0.7,2.1
	c-0.4,0.8-1.4,1-2.2,0.5c-2.2-1.3-4.5-2.5-6.7-3.8C46.2,84.8,45.9,84.3,46,83.7z"/>
<g>
	<g>
		<path class="st3" d="M16.5,36.8l4.6-20.5h-5.7v-3.8h10v3.4l-4.6,20.9H16.5z"/>
	</g>
</g>
<g>
	<g>
		<path class="st3" d="M33,25.4L35.4,14h3.1l2.4,11.3h-2.6L37.9,23h-1.8l-0.4,2.4H33z M36.3,21.5h1.3L37,17.1L36.3,21.5z"/>
		<path class="st3" d="M42.2,25.4V14h5.4v1.7h-2.7v2.9h2.3v1.8h-2.3v5H42.2z"/>
		<path class="st3" d="M48.9,25.4V14h5.4v1.7h-2.7v2.9H54v1.8h-2.3v5H48.9z"/>
		<path class="st3" d="M59.2,25.5c-0.7,0-1.3-0.1-1.8-0.2c-0.5-0.2-0.9-0.4-1.2-0.7c-0.3-0.3-0.5-0.7-0.6-1.2s-0.2-1-0.2-1.6v-4.2
			c0-0.6,0.1-1.1,0.2-1.6c0.1-0.4,0.3-0.8,0.6-1.2c0.3-0.3,0.7-0.6,1.2-0.7c0.5-0.2,1.1-0.2,1.8-0.2c1.4,0,2.3,0.3,2.9,0.9
			c0.6,0.6,0.9,1.6,0.9,2.8v4.2c0,1.2-0.3,2.2-0.9,2.8C61.6,25.2,60.6,25.5,59.2,25.5z M58.8,23.7c0.1,0.1,0.3,0.1,0.4,0.1
			c0.2,0,0.3,0,0.4-0.1c0.1-0.1,0.2-0.1,0.3-0.2c0.1-0.1,0.1-0.2,0.2-0.3s0.1-0.2,0.1-0.4c0-0.1,0-0.2,0-0.4V17c0-0.2,0-0.3,0-0.4
			c0-0.1,0-0.2-0.1-0.4c0-0.1-0.1-0.2-0.2-0.3c-0.1-0.1-0.2-0.1-0.3-0.2c-0.1-0.1-0.3-0.1-0.4-0.1c-0.2,0-0.3,0-0.4,0.1
			c-0.1,0.1-0.2,0.1-0.3,0.2c-0.1,0.1-0.1,0.2-0.2,0.3c0,0.1-0.1,0.2-0.1,0.4c0,0.1,0,0.2,0,0.4v5.4c0,0.2,0,0.3,0,0.4
			c0,0.1,0,0.2,0.1,0.4c0,0.1,0.1,0.2,0.2,0.3C58.6,23.6,58.7,23.6,58.8,23.7z"/>
		<path class="st3" d="M64.7,25.4V14h3.4c0.5,0,1,0,1.4,0.1s0.8,0.2,1.2,0.3c0.4,0.1,0.7,0.3,0.9,0.5c0.2,0.2,0.4,0.5,0.5,0.9
			c0.1,0.4,0.2,0.8,0.2,1.2c0,0.7-0.1,1.3-0.3,1.8c-0.2,0.5-0.6,0.8-1.2,1.1l1.7,5.5h-2.9l-1.4-5.1h-0.8v5.1H64.7z M67.5,18.9h0.7
			c0.6,0,1-0.1,1.2-0.4s0.3-0.7,0.3-1.2c0-0.5-0.1-0.9-0.3-1.2c-0.2-0.3-0.6-0.4-1.1-0.4h-0.9V18.9z"/>
		<path class="st3" d="M74,25.4V14h3.2c0.8,0,1.5,0.1,2.1,0.2s1,0.3,1.3,0.6s0.6,0.7,0.7,1.1c0.1,0.4,0.2,1,0.2,1.6v4.1
			c0,0.7-0.1,1.2-0.2,1.7c-0.1,0.4-0.4,0.8-0.7,1.1c-0.3,0.3-0.8,0.5-1.3,0.7s-1.2,0.2-2,0.2H74z M76.7,23.6h0.4c0.2,0,0.4,0,0.5,0
			c0.1,0,0.3-0.1,0.4-0.1c0.1-0.1,0.2-0.1,0.2-0.2c0.1-0.1,0.1-0.2,0.1-0.3c0-0.1,0-0.3,0.1-0.4c0-0.1,0-0.3,0-0.5v-4.9
			c0-0.3,0-0.5,0-0.7s-0.1-0.3-0.2-0.4s-0.2-0.2-0.4-0.3c-0.2,0-0.4-0.1-0.7-0.1h-0.4V23.6z"/>
		<path class="st3" d="M82.3,25.4L84.7,14h3.1l2.4,11.3h-2.6L87.2,23h-1.8l-0.4,2.4H82.3z M85.6,21.5h1.3l-0.7-4.4L85.6,21.5z"/>
		<path class="st3" d="M91.4,25.4V14h3.3c0.5,0,0.9,0,1.3,0.1c0.4,0,0.7,0.1,1.1,0.3s0.7,0.3,0.9,0.5c0.2,0.2,0.4,0.5,0.6,0.9
			c0.1,0.3,0.2,0.7,0.2,1.2c0,0,0,0.1,0,0.1c0,1.3-0.6,2.1-1.8,2.3c0.7,0.1,1.3,0.4,1.7,0.8s0.6,1.1,0.6,1.9c0,0,0,0.1,0,0.1
			c0,1.1-0.3,1.9-1,2.5c-0.7,0.5-1.6,0.8-2.8,0.8H91.4z M94.2,18.6h0.5c0.6,0,1-0.1,1.2-0.4c0.2-0.2,0.3-0.6,0.3-1.1
			c0-0.9-0.5-1.3-1.6-1.3h-0.4V18.6z M94.2,23.6h0.6c0.6,0,1-0.1,1.3-0.4c0.2-0.3,0.4-0.7,0.4-1.3c0-0.6-0.1-1.1-0.4-1.4
			c-0.2-0.3-0.7-0.4-1.3-0.4h-0.5V23.6z"/>
		<path class="st3" d="M100.5,25.4V14h2.8v9.6h2.9v1.7H100.5z"/>
		<path class="st3" d="M107.4,25.4V14h5.6v1.7h-2.9v2.8h2.2v1.7h-2.2v3.4h2.9v1.7H107.4z"/>
		<path class="st3" d="M33,42.2l2.4-11.3h3.1l2.4,11.3h-2.6l-0.4-2.4h-1.8l-0.4,2.4H33z M36.3,38.3h1.3L37,33.9L36.3,38.3z"/>
		<path class="st3" d="M42.2,42.2V30.8h2l2.6,5.4v-5.4H49v11.3h-1.9l-2.6-5.9v5.9H42.2z"/>
		<path class="st3" d="M50.9,42.2V30.8H54c0.8,0,1.5,0.1,2.1,0.2s1,0.3,1.3,0.6s0.6,0.7,0.7,1.1c0.1,0.4,0.2,1,0.2,1.6v4.1
			c0,0.7-0.1,1.2-0.2,1.7c-0.1,0.4-0.4,0.8-0.7,1.1c-0.3,0.3-0.8,0.5-1.3,0.7s-1.2,0.2-2,0.2H50.9z M53.6,40.4h0.4
			c0.2,0,0.4,0,0.5,0c0.1,0,0.3-0.1,0.4-0.1c0.1-0.1,0.2-0.1,0.2-0.2c0.1-0.1,0.1-0.2,0.1-0.3c0-0.1,0-0.3,0.1-0.4
			c0-0.1,0-0.3,0-0.5V34c0-0.3,0-0.5,0-0.7s-0.1-0.3-0.2-0.4s-0.2-0.2-0.4-0.3c-0.2,0-0.4-0.1-0.7-0.1h-0.4V40.4z"/>
		<path class="st3" d="M67.5,42.3c-0.7,0-1.3-0.1-1.8-0.3c-0.5-0.2-0.9-0.4-1.2-0.8s-0.5-0.7-0.6-1.2c-0.1-0.4-0.2-1-0.2-1.6v-4
			c0-0.6,0.1-1.1,0.2-1.6c0.1-0.5,0.3-0.9,0.6-1.2c0.3-0.3,0.7-0.6,1.2-0.8c0.5-0.2,1.1-0.3,1.8-0.3c0.7,0,1.3,0.1,1.7,0.2
			s0.9,0.4,1.1,0.7s0.5,0.6,0.6,1c0.1,0.4,0.2,0.8,0.2,1.3v1h-2.7v-1.1c0-0.2,0-0.3,0-0.4c0-0.1,0-0.2-0.1-0.4
			c0-0.1-0.1-0.3-0.1-0.3c-0.1-0.1-0.1-0.1-0.3-0.2c-0.1-0.1-0.3-0.1-0.4-0.1c-0.2,0-0.3,0-0.4,0.1c-0.1,0.1-0.2,0.1-0.3,0.2
			c-0.1,0.1-0.1,0.2-0.2,0.3c0,0.1-0.1,0.3-0.1,0.4s0,0.3,0,0.4v5.3c0,0.5,0.1,0.8,0.2,1c0.1,0.2,0.4,0.4,0.8,0.4
			c0.2,0,0.3,0,0.4-0.1c0.1-0.1,0.2-0.1,0.3-0.2s0.1-0.2,0.1-0.3c0-0.1,0.1-0.3,0.1-0.4c0-0.1,0-0.2,0-0.4V38h2.7v1
			c0,0.4,0,0.8-0.1,1.1c-0.1,0.3-0.2,0.6-0.4,0.9c-0.2,0.3-0.4,0.5-0.7,0.7s-0.6,0.3-1,0.5C68.5,42.3,68.1,42.3,67.5,42.3z"/>
		<path class="st3" d="M72.6,42.2V30.8h2.8v9.6h2.9v1.7H72.6z"/>
		<path class="st3" d="M79.5,42.2V30.8h5.6v1.7h-2.9v2.8h2.2v1.7h-2.2v3.4h2.9v1.7H79.5z"/>
		<path class="st3" d="M85.8,42.2l2.4-11.3h3.1l2.4,11.3h-2.6l-0.4-2.4h-1.8l-0.4,2.4H85.8z M89.1,38.3h1.3l-0.7-4.4L89.1,38.3z"/>
		<path class="st3" d="M95,42.2V30.8h2l2.6,5.4v-5.4h2.3v11.3h-1.9l-2.6-5.9v5.9H95z"/>
		<path class="st3" d="M33.6,59V47.6h5.6v1.7h-2.9v2.8h2.2v1.7h-2.2v3.4h2.9V59H33.6z"/>
		<path class="st3" d="M40.6,59V47.6h2l2.6,5.4v-5.4h2.3V59h-1.9l-2.6-5.9V59H40.6z"/>
		<path class="st3" d="M49.2,59V47.6h5.6v1.7H52v2.8h2.2v1.7H52v3.4h2.9V59H49.2z"/>
		<path class="st3" d="M56.2,59V47.6h3.4c0.5,0,1,0,1.4,0.1s0.8,0.2,1.2,0.3c0.4,0.1,0.7,0.3,0.9,0.5c0.2,0.2,0.4,0.5,0.5,0.9
			c0.1,0.4,0.2,0.8,0.2,1.2c0,0.7-0.1,1.3-0.3,1.8c-0.2,0.5-0.6,0.8-1.2,1.1L64,59h-2.9l-1.4-5.1H59V59H56.2z M59,52.5h0.7
			c0.6,0,1-0.1,1.2-0.4s0.3-0.7,0.3-1.2c0-0.5-0.1-0.9-0.3-1.2c-0.2-0.3-0.6-0.4-1.1-0.4H59V52.5z"/>
		<path class="st3" d="M68.7,59.1c-0.6,0-1.2-0.1-1.6-0.3c-0.5-0.2-0.8-0.5-1.1-0.8s-0.5-0.8-0.6-1.2c-0.1-0.5-0.2-1-0.2-1.6v-3.8
			c0-0.5,0-1,0.1-1.3c0.1-0.4,0.2-0.8,0.4-1.1c0.2-0.3,0.4-0.6,0.7-0.8c0.3-0.2,0.6-0.4,1.1-0.5c0.4-0.1,0.9-0.2,1.5-0.2
			c0.5,0,1,0.1,1.4,0.2c0.4,0.1,0.8,0.3,1,0.4s0.5,0.4,0.7,0.7c0.2,0.3,0.3,0.6,0.4,0.9c0.1,0.3,0.1,0.7,0.1,1.1v0.7H70v-0.9
			c0-0.2,0-0.3,0-0.4c0-0.1,0-0.2-0.1-0.4c0-0.1-0.1-0.2-0.1-0.3s-0.2-0.1-0.3-0.2c-0.1-0.1-0.3-0.1-0.4-0.1c-0.2,0-0.3,0-0.5,0.1
			c-0.1,0.1-0.2,0.1-0.3,0.2c-0.1,0.1-0.1,0.2-0.2,0.3c0,0.1-0.1,0.3-0.1,0.4c0,0.1,0,0.3,0,0.4v5.2c0,0.5,0.1,0.8,0.2,1.1
			c0.1,0.3,0.4,0.4,0.8,0.4c0.7,0,1.1-0.5,1.1-1.5v-1.3h-1.1v-1.5h3.6V59h-1.8l-0.2-1C70.4,58.8,69.7,59.1,68.7,59.1z"/>
		<path class="st3" d="M76,59v-4.6l-2.4-6.7h2.6l1.2,3.6l1.1-3.6H81l-2.4,6.7V59H76z"/>
	</g>
</g>
<g>
	<g>
		<rect x="165.4" y="67.1" class="st8" width="7.1" height="29.7"/>
	</g>
	<g>
		<g>
			<polygon class="st8" points="182,70.9 168.9,48.3 155.9,70.9 			"/>
		</g>
	</g>
</g>
</svg>
