<?xml version="1.0" encoding="utf-8"?>
<!-- Generator: Adobe Illustrator 21.0.0, SVG Export Plug-In . SVG Version: 6.00 Build 0)  -->
<svg version="1.1" id="Layer_1" xmlns="http://www.w3.org/2000/svg" xmlns:xlink="http://www.w3.org/1999/xlink" x="0px" y="0px"
	 viewBox="0 0 197.9 145.1" style="enable-background:new 0 0 197.9 145.1;" xml:space="preserve">
<style type="text/css">
	.st0{fill:#FFFFFF;stroke:#ABAAAA;stroke-miterlimit:10;}
	.st1{fill:#BF8B2C;}
	.st2{fill:#C5202E;}
	.st3{fill:#FFFFFF;}
	.st4{fill:#FFFAF9;}
	.st5{fill:#FFFCFD;}
	.st6{fill:#E4253C;}
	.st7{fill:#FFFFFD;}
	.st8{fill:#29A74A;}
	.st9{fill:#4CA046;}
	.st10{fill:#FDFEFD;}
	.st11{fill:#DEA73A;}
	.st12{fill:#18496B;}
	.st13{fill:#FAFCFE;}
	.st14{fill:#01699E;}
	.st15{fill:#FDFEFF;}
	.st16{fill:#F8FAFB;}
	.st17{fill:#F7F9FA;}
	.st18{fill:#F7F7FA;}
	.st19{fill:#F6F7F9;}
	.st20{fill:#A7B1CA;}
	.st21{fill:#5CBA47;}
	.st22{fill:#FDFEFC;}
	.st23{fill:#F26A2C;}
	.st24{fill:#1C97D4;}
	.st25{fill:#FAFDFF;}
	.st26{fill:#DD1768;}
	.st27{fill:#FFFBFD;}
	.st28{fill:#F99D29;}
	.st29{fill:#FFFCFA;}
	.st30{fill:#407F44;}
	.st31{fill:#29BEE2;}
	.st32{fill:#FAC315;}
	.st33{fill:#FFFCF8;}
	.st34{fill:#FFFFFC;}
	.st35{fill:#FFFCF7;}
	.st36{fill:#EF402C;}
	.st37{fill:#A21C44;}
	.st38{fill:#DC3746;}
	.st39{fill:#FDC010;}
	.st40{fill-rule:evenodd;clip-rule:evenodd;fill:#E0E0DF;}
</style>
<rect x="141" y="1" transform="matrix(-1 -1.224647e-16 1.224647e-16 -1 338.34 145.0949)" class="st0" width="56.4" height="143.1"/>
<rect y="0.5" class="st23" width="143" height="144.1"/>
<path class="st5" d="M40,116.7c0-2.9,0-5.7,0-8.6c0-0.7,0.2-1.2,0.9-1.6c4.7-2.7,9.4-5.4,14.2-8.1c0.4-0.2,0.6-0.5,0.6-1
	c0-5.4,0-10.9,0-16.3c0-0.8,0.3-1.2,0.9-1.6c4.9-2.8,9.9-5.7,14.8-8.5c0.6-0.4,1.2-0.4,1.8,0c4.9,2.9,9.9,5.7,14.9,8.6
	c0.7,0.4,0.9,0.9,0.9,1.6c0,5.4,0,10.9,0,16.3c0,0.5,0.1,0.7,0.5,0.9c4.7,2.7,9.5,5.5,14.2,8.2c0.6,0.3,0.9,0.8,0.9,1.5
	c0,5.8,0,11.5,0,17.3c0,0.7-0.3,1.1-0.8,1.4c-5,2.9-10,5.8-15,8.7c-0.6,0.3-1.1,0.3-1.6,0c-4.7-2.7-9.5-5.5-14.2-8.2
	c-0.4-0.3-0.7-0.2-1.2,0c-4.7,2.8-9.5,5.5-14.2,8.2c-0.5,0.3-1,0.3-1.5,0c-5-2.9-10.1-5.8-15.1-8.7c-0.6-0.3-0.8-0.7-0.8-1.4
	C40,122.5,40,119.6,40,116.7z M101.2,107.7c-0.1-0.2-0.2-0.2-0.3-0.3c-4.2-2.4-8.5-4.9-12.7-7.3c-0.3-0.2-0.5-0.1-0.8,0.1
	c-3.5,2-7.1,4.1-10.6,6.1c-0.8,0.5-1.6,0.9-2.4,1.4c0.1,0.1,0.1,0.1,0.2,0.2c4.3,2.5,8.6,5,12.9,7.4c0.3,0.2,0.5,0.1,0.8,0
	c1.3-0.8,2.6-1.5,3.9-2.3C95.2,111.2,98.2,109.5,101.2,107.7z M42.1,109.5c0,5.1,0,10.2,0,15.2c0,0.3,0.1,0.4,0.4,0.6
	c4.2,2.4,8.4,4.8,12.5,7.2c0.5,0.3,0.6,0.2,0.6-0.3c0-4.8,0-9.6,0-14.3c0-0.5-0.2-0.7-0.5-0.9c-2.4-1.4-4.9-2.8-7.3-4.2
	C45.9,111.7,44.1,110.6,42.1,109.5z M89,132.8c0.1,0,0.1-0.1,0.2-0.1c4.3-2.5,8.5-4.9,12.8-7.4c0.4-0.2,0.4-0.5,0.4-0.8
	c0-4.8,0-9.6,0-14.4c0-0.2,0-0.4,0-0.6c-0.1,0.1-0.2,0.1-0.3,0.1c-4.3,2.5-8.5,4.9-12.8,7.4c-0.4,0.2-0.4,0.5-0.4,0.8
	c0,4.8,0,9.5,0,14.3C88.9,132.3,88.8,132.6,89,132.8z M57.7,96.8c4.1-2.4,8.2-4.8,12.4-7.2c-4.2-2.4-8.3-4.8-12.4-7.2
	C57.7,87.3,57.7,92,57.7,96.8z M57.7,132.9c4.2-2.4,8.2-4.8,12.4-7.2c-4.2-2.4-8.3-4.8-12.4-7.2C57.7,123.3,57.7,128,57.7,132.9z
	 M73.3,91.5c0,0.1,0,0.2,0,0.3c0,4.5,0,9,0,13.6c0,0.6,0.3,0.4,0.5,0.2c3.9-2.2,7.7-4.5,11.6-6.7c0.1-0.1,0.2-0.1,0.2-0.3
	C81.5,96.3,77.5,93.9,73.3,91.5z M86.7,96.8c0-4.8,0-9.5,0-14.3c-4.1,2.4-8.2,4.8-12.4,7.2C78.5,92.1,82.6,94.4,86.7,96.8z
	 M71.1,109.5c-4.2,2.4-8.2,4.8-12.4,7.2c4.2,2.4,8.2,4.8,12.4,7.1C71.1,119,71.1,114.3,71.1,109.5z M71.1,105.8c0-4.8,0-9.5,0-14.3
	c-4.1,2.4-8.2,4.7-12.4,7.1C62.9,101.1,67,103.4,71.1,105.8z"/>
<g>
	<g>
		<path class="st3" d="M17.9,34.3c-1,0-1.8-0.1-2.5-0.4c-0.7-0.3-1.3-0.7-1.7-1.2s-0.7-1.2-0.9-1.9s-0.3-1.7-0.3-2.7v-0.4h4.1
			c0,1.1,0.1,1.8,0.2,2.2c0.2,0.4,0.5,0.6,1.1,0.6c0.6,0,0.9-0.3,1.1-1s0.2-1.9,0.2-3.9v-2.2c-0.2,0.4-0.5,0.8-1,1s-1,0.4-1.6,0.4
			c0,0-0.1,0-0.1,0c-0.8,0-1.4-0.2-2-0.5c-0.6-0.4-1.1-0.9-1.4-1.6c-0.3-0.7-0.6-1.5-0.8-2.3c-0.2-0.8-0.2-1.8-0.2-2.8
			c0-1.3,0.1-2.5,0.3-3.5c0.2-1,0.5-1.9,1-2.6s1-1.3,1.8-1.7c0.7-0.4,1.6-0.6,2.7-0.6c2,0,3.5,0.7,4.4,2.1c0.9,1.4,1.4,3.3,1.4,5.7
			V26c0,1-0.1,1.9-0.2,2.7c-0.1,0.8-0.3,1.6-0.6,2.3c-0.3,0.7-0.6,1.3-1.1,1.8c-0.4,0.5-1,0.8-1.7,1.1
			C19.6,34.2,18.8,34.3,17.9,34.3z M17.9,21.1c0.6,0,1-0.3,1.3-1v-3.9c0-0.5,0-0.9,0-1.2c0-0.3-0.1-0.6-0.2-1s-0.2-0.6-0.4-0.7
			S18.2,13,17.9,13c-0.5,0-0.9,0.3-1.1,0.9s-0.2,1.7-0.2,3.1c0,0.5,0,0.9,0,1.1c0,0.2,0,0.5,0,0.9c0,0.4,0.1,0.7,0.1,0.8
			c0.1,0.2,0.1,0.4,0.2,0.6s0.2,0.3,0.4,0.4S17.7,21.1,17.9,21.1z"/>
	</g>
</g>
<g>
	<g>
		<path class="st3" d="M31.3,22.3V10.9h2.5v11.3H31.3z"/>
		<path class="st3" d="M35.4,22.3V10.9h1.8l2.3,5.4v-5.4h2.1v11.3h-1.7l-2.3-5.9v5.9H35.4z"/>
		<path class="st3" d="M43.3,22.3V10.9h2.8c0.7,0,1.4,0.1,1.8,0.2s0.9,0.3,1.2,0.6s0.5,0.7,0.6,1.1c0.1,0.4,0.2,1,0.2,1.6v4.1
			c0,0.7-0.1,1.2-0.2,1.7c-0.1,0.4-0.3,0.8-0.6,1.1c-0.3,0.3-0.7,0.5-1.2,0.7s-1.1,0.2-1.8,0.2H43.3z M45.8,20.5h0.4
			c0.2,0,0.4,0,0.5,0c0.1,0,0.2-0.1,0.3-0.1s0.2-0.1,0.2-0.2c0.1-0.1,0.1-0.2,0.1-0.3c0-0.1,0-0.3,0-0.4c0-0.1,0-0.3,0-0.5v-4.9
			c0-0.3,0-0.5,0-0.7s-0.1-0.3-0.2-0.4c-0.1-0.1-0.2-0.2-0.4-0.3c-0.2,0-0.4-0.1-0.7-0.1h-0.4V20.5z"/>
		<path class="st3" d="M54.7,22.4c-0.5,0-1-0.1-1.3-0.2c-0.4-0.1-0.7-0.3-1-0.5c-0.3-0.2-0.5-0.5-0.6-0.8c-0.2-0.3-0.3-0.7-0.3-1
			c-0.1-0.4-0.1-0.8-0.1-1.3v-7.8h2.5v8.1c0,0.2,0,0.3,0,0.5c0,0.1,0,0.3,0.1,0.4s0.1,0.3,0.1,0.4c0.1,0.1,0.1,0.2,0.3,0.2
			c0.1,0.1,0.2,0.1,0.4,0.1c0.2,0,0.3,0,0.4-0.1c0.1-0.1,0.2-0.1,0.3-0.2c0.1-0.1,0.1-0.2,0.1-0.4c0-0.1,0.1-0.3,0.1-0.4
			c0-0.1,0-0.3,0-0.5v-8.1H58v7.8c0,0.6-0.1,1.2-0.2,1.6s-0.3,0.8-0.5,1.2s-0.6,0.6-1,0.7C55.9,22.4,55.3,22.4,54.7,22.4z"/>
		<path class="st3" d="M62.6,22.4c-1.1,0-1.9-0.3-2.4-0.9c-0.5-0.6-0.8-1.5-0.8-2.7l2.1-0.3c0,0.7,0.1,1.2,0.3,1.5
			c0.2,0.3,0.4,0.5,0.7,0.5c0.4,0,0.6-0.3,0.6-0.8c0-0.3-0.1-0.6-0.2-0.8c-0.1-0.3-0.2-0.5-0.4-0.7s-0.4-0.4-0.7-0.6l-1-0.9
			c-0.2-0.2-0.4-0.4-0.6-0.6c-0.2-0.2-0.3-0.4-0.5-0.6c-0.2-0.2-0.3-0.5-0.3-0.8c-0.1-0.3-0.1-0.6-0.1-1c0-0.9,0.3-1.7,0.8-2.2
			c0.6-0.5,1.3-0.8,2.3-0.8c0.3,0,0.6,0,0.9,0.1s0.5,0.2,0.7,0.3c0.2,0.1,0.4,0.3,0.5,0.4c0.1,0.2,0.3,0.4,0.3,0.5
			c0.1,0.2,0.2,0.4,0.2,0.6c0.1,0.2,0.1,0.4,0.1,0.6s0,0.4,0,0.6l-2.2,0.3c0-0.2,0-0.3,0-0.5c0-0.1,0-0.3,0-0.4s0-0.3-0.1-0.3
			c0-0.1-0.1-0.2-0.1-0.2c-0.1-0.1-0.1-0.1-0.2-0.2c-0.1,0-0.2,0-0.3,0c-0.2,0-0.4,0.1-0.5,0.3c-0.1,0.2-0.2,0.4-0.2,0.6
			c0,0.2,0,0.4,0.1,0.6c0.1,0.2,0.1,0.3,0.3,0.5s0.2,0.3,0.3,0.4s0.2,0.2,0.4,0.4l1,0.8c0.3,0.2,0.5,0.5,0.7,0.7
			c0.2,0.2,0.4,0.5,0.5,0.7c0.2,0.3,0.3,0.6,0.4,0.9c0.1,0.3,0.1,0.7,0.1,1.1c0,0.8-0.3,1.5-0.8,2C64.2,22.2,63.5,22.4,62.6,22.4z"
			/>
		<path class="st3" d="M67.8,22.3v-9.5h-1.7v-1.9h6v1.9h-1.7v9.5H67.8z"/>
		<path class="st3" d="M73,22.3V10.9h3.1c0.5,0,0.9,0,1.3,0.1s0.7,0.2,1,0.3s0.6,0.3,0.8,0.5s0.4,0.5,0.5,0.9s0.2,0.8,0.2,1.2
			c0,0.7-0.1,1.3-0.3,1.8c-0.2,0.5-0.6,0.8-1.1,1.1l1.6,5.5h-2.6l-1.2-5.1h-0.7v5.1H73z M75.5,15.8h0.6c0.5,0,0.9-0.1,1.1-0.4
			c0.2-0.3,0.3-0.7,0.3-1.2c0-0.5-0.1-0.9-0.3-1.2c-0.2-0.3-0.5-0.4-1-0.4h-0.8V15.8z"/>
		<path class="st3" d="M82.8,22.3v-4.6l-2.2-6.7H83l1.1,3.6l1-3.6h2.3l-2.1,6.7v4.6H82.8z"/>
		<path class="st3" d="M88.3,24.2l-0.1-0.7c0.7-0.2,1-0.6,1-1.2h-1.2v-2.1h2.2l0,1.9C90.1,23.4,89.5,24.1,88.3,24.2z"/>
		<path class="st3" d="M31.3,39.1V27.7h2.5v11.3H31.3z"/>
		<path class="st3" d="M35.4,39.1V27.7h1.8l2.3,5.4v-5.4h2.1v11.3h-1.7l-2.3-5.9v5.9H35.4z"/>
		<path class="st3" d="M43.3,39.1V27.7H45l2.3,5.4v-5.4h2.1v11.3h-1.7l-2.3-5.9v5.9H43.3z"/>
		<path class="st3" d="M54.3,39.2c-0.6,0-1.2-0.1-1.6-0.2c-0.4-0.2-0.8-0.4-1.1-0.7c-0.3-0.3-0.5-0.7-0.6-1.2
			c-0.1-0.4-0.2-1-0.2-1.6v-4.2c0-0.6,0.1-1.1,0.2-1.6c0.1-0.4,0.3-0.8,0.6-1.2s0.6-0.6,1.1-0.7s1-0.2,1.6-0.2
			c1.2,0,2.1,0.3,2.6,0.9c0.5,0.6,0.8,1.6,0.8,2.8v4.2c0,1.2-0.3,2.2-0.8,2.8C56.4,38.9,55.5,39.2,54.3,39.2z M53.9,37.4
			c0.1,0.1,0.2,0.1,0.4,0.1c0.1,0,0.3,0,0.4-0.1c0.1-0.1,0.2-0.1,0.3-0.2c0.1-0.1,0.1-0.2,0.1-0.3c0-0.1,0.1-0.2,0.1-0.4
			c0-0.1,0-0.2,0-0.4v-5.4c0-0.2,0-0.3,0-0.4c0-0.1,0-0.2-0.1-0.4c0-0.1-0.1-0.2-0.1-0.3c-0.1-0.1-0.1-0.1-0.3-0.2
			c-0.1-0.1-0.2-0.1-0.4-0.1c-0.2,0-0.3,0-0.4,0.1c-0.1,0.1-0.2,0.1-0.2,0.2c-0.1,0.1-0.1,0.2-0.1,0.3c0,0.1-0.1,0.2-0.1,0.4
			s0,0.2,0,0.4v5.4c0,0.2,0,0.3,0,0.4c0,0.1,0,0.2,0.1,0.4c0,0.1,0.1,0.2,0.1,0.3C53.7,37.3,53.8,37.3,53.9,37.4z"/>
		<path class="st3" d="M60.8,39.1l-2-11.3h2.1l1.2,7.6l1.1-7.6h2.3l-2.1,11.3H60.8z"/>
		<path class="st3" d="M65.7,39.1l2.1-11.3h2.8l2.1,11.3h-2.3l-0.4-2.4h-1.7l-0.4,2.4H65.7z M68.7,35.2h1.2l-0.6-4.4L68.7,35.2z"/>
		<path class="st3" d="M74.7,39.1v-9.5H73v-1.9h6v1.9h-1.7v9.5H74.7z"/>
		<path class="st3" d="M79.9,39.1V27.7h2.5v11.3H79.9z"/>
		<path class="st3" d="M87.4,39.2c-0.6,0-1.2-0.1-1.6-0.2c-0.4-0.2-0.8-0.4-1.1-0.7c-0.3-0.3-0.5-0.7-0.6-1.2
			c-0.1-0.4-0.2-1-0.2-1.6v-4.2c0-0.6,0.1-1.1,0.2-1.6c0.1-0.4,0.3-0.8,0.6-1.2s0.6-0.6,1.1-0.7s1-0.2,1.6-0.2
			c1.2,0,2.1,0.3,2.6,0.9c0.5,0.6,0.8,1.6,0.8,2.8v4.2c0,1.2-0.3,2.2-0.8,2.8C89.5,38.9,88.6,39.2,87.4,39.2z M87,37.4
			c0.1,0.1,0.2,0.1,0.4,0.1c0.1,0,0.3,0,0.4-0.1c0.1-0.1,0.2-0.1,0.3-0.2c0.1-0.1,0.1-0.2,0.1-0.3c0-0.1,0.1-0.2,0.1-0.4
			c0-0.1,0-0.2,0-0.4v-5.4c0-0.2,0-0.3,0-0.4c0-0.1,0-0.2-0.1-0.4c0-0.1-0.1-0.2-0.1-0.3c-0.1-0.1-0.1-0.1-0.3-0.2
			c-0.1-0.1-0.2-0.1-0.4-0.1c-0.2,0-0.3,0-0.4,0.1c-0.1,0.1-0.2,0.1-0.2,0.2c-0.1,0.1-0.1,0.2-0.1,0.3c0,0.1-0.1,0.2-0.1,0.4
			s0,0.2,0,0.4v5.4c0,0.2,0,0.3,0,0.4c0,0.1,0,0.2,0.1,0.4c0,0.1,0.1,0.2,0.1,0.3C86.8,37.3,86.9,37.3,87,37.4z"/>
		<path class="st3" d="M92.3,39.1V27.7H94l2.3,5.4v-5.4h2.1v11.3h-1.7l-2.3-5.9v5.9H92.3z"/>
		<path class="st3" d="M103.1,39.1l2.1-11.3h2.8l2.1,11.3h-2.3l-0.4-2.4h-1.7l-0.4,2.4H103.1z M106.1,35.2h1.2l-0.6-4.4L106.1,35.2z
			"/>
		<path class="st3" d="M111.4,39.1V27.7h1.8l2.3,5.4v-5.4h2.1v11.3h-1.7l-2.3-5.9v5.9H111.4z"/>
		<path class="st3" d="M119.2,39.1V27.7h2.8c0.7,0,1.4,0.1,1.8,0.2s0.9,0.3,1.2,0.6s0.5,0.7,0.6,1.1c0.1,0.4,0.2,1,0.2,1.6v4.1
			c0,0.7-0.1,1.2-0.2,1.7c-0.1,0.4-0.3,0.8-0.6,1.1c-0.3,0.3-0.7,0.5-1.2,0.7s-1.1,0.2-1.8,0.2H119.2z M121.7,37.3h0.4
			c0.2,0,0.4,0,0.5,0c0.1,0,0.2-0.1,0.3-0.1s0.2-0.1,0.2-0.2c0.1-0.1,0.1-0.2,0.1-0.3c0-0.1,0-0.3,0-0.4c0-0.1,0-0.3,0-0.5v-4.9
			c0-0.3,0-0.5,0-0.7s-0.1-0.3-0.2-0.4c-0.1-0.1-0.2-0.2-0.4-0.3c-0.2,0-0.4-0.1-0.7-0.1h-0.4V37.3z"/>
		<path class="st3" d="M31.3,55.9V44.5h2.5v11.3H31.3z"/>
		<path class="st3" d="M35.4,55.9V44.5h1.8l2.3,5.4v-5.4h2.1v11.3h-1.7L37.6,50v5.9H35.4z"/>
		<path class="st3" d="M43.3,55.9V44.5h4.9v1.7h-2.4v2.9h2.1v1.8h-2.1v5H43.3z"/>
		<path class="st3" d="M49.3,55.9V44.5h3.1c0.5,0,0.9,0,1.3,0.1s0.7,0.2,1,0.3s0.6,0.3,0.8,0.5s0.4,0.5,0.5,0.9s0.2,0.8,0.2,1.2
			c0,0.7-0.1,1.3-0.3,1.8s-0.6,0.8-1.1,1.1l1.6,5.5h-2.6l-1.2-5.1h-0.7v5.1H49.3z M51.8,49.4h0.6c0.5,0,0.9-0.1,1.1-0.4
			c0.2-0.3,0.3-0.7,0.3-1.2c0-0.5-0.1-0.9-0.3-1.2c-0.2-0.3-0.5-0.4-1-0.4h-0.8V49.4z"/>
		<path class="st3" d="M57.1,55.9l2.1-11.3h2.8l2.1,11.3h-2.3l-0.4-2.4h-1.7l-0.4,2.4H57.1z M60.1,52h1.2l-0.6-4.4L60.1,52z"/>
		<path class="st3" d="M68.3,56c-1.1,0-1.9-0.3-2.4-0.9c-0.5-0.6-0.8-1.5-0.8-2.7l2.1-0.3c0,0.7,0.1,1.2,0.3,1.5
			c0.2,0.3,0.4,0.5,0.7,0.5c0.4,0,0.6-0.3,0.6-0.8c0-0.3-0.1-0.6-0.2-0.8c-0.1-0.3-0.2-0.5-0.4-0.7s-0.4-0.4-0.7-0.6l-1-0.9
			c-0.2-0.2-0.4-0.4-0.6-0.6s-0.3-0.4-0.5-0.6c-0.2-0.2-0.3-0.5-0.3-0.8c-0.1-0.3-0.1-0.6-0.1-1c0-0.9,0.3-1.7,0.8-2.2
			c0.6-0.5,1.3-0.8,2.3-0.8c0.3,0,0.6,0,0.9,0.1s0.5,0.2,0.7,0.3c0.2,0.1,0.4,0.3,0.5,0.4c0.1,0.2,0.3,0.4,0.3,0.5
			c0.1,0.2,0.2,0.4,0.2,0.6c0.1,0.2,0.1,0.4,0.1,0.6s0,0.4,0,0.6l-2.2,0.3c0-0.2,0-0.3,0-0.5c0-0.1,0-0.3,0-0.4s0-0.3-0.1-0.3
			c0-0.1-0.1-0.2-0.1-0.2c-0.1-0.1-0.1-0.1-0.2-0.2c-0.1,0-0.2,0-0.3,0c-0.2,0-0.4,0.1-0.5,0.3c-0.1,0.2-0.2,0.4-0.2,0.6
			c0,0.2,0,0.4,0.1,0.6c0.1,0.2,0.1,0.3,0.3,0.5s0.2,0.3,0.3,0.4s0.2,0.2,0.4,0.4l1,0.8c0.3,0.2,0.5,0.5,0.7,0.7
			c0.2,0.2,0.4,0.5,0.5,0.7c0.2,0.3,0.3,0.6,0.4,0.9c0.1,0.3,0.1,0.7,0.1,1.1c0,0.8-0.3,1.5-0.8,2C70,55.8,69.2,56,68.3,56z"/>
		<path class="st3" d="M73.6,55.9v-9.5h-1.7v-1.9h6v1.9h-1.7v9.5H73.6z"/>
		<path class="st3" d="M78.8,55.9V44.5h3.1c0.5,0,0.9,0,1.3,0.1s0.7,0.2,1,0.3s0.6,0.3,0.8,0.5s0.4,0.5,0.5,0.9s0.2,0.8,0.2,1.2
			c0,0.7-0.1,1.3-0.3,1.8s-0.6,0.8-1.1,1.1l1.6,5.5h-2.6L82,50.8h-0.7v5.1H78.8z M81.3,49.4h0.6c0.5,0,0.9-0.1,1.1-0.4
			c0.2-0.3,0.3-0.7,0.3-1.2c0-0.5-0.1-0.9-0.3-1.2c-0.2-0.3-0.5-0.4-1-0.4h-0.8V49.4z"/>
		<path class="st3" d="M90.4,56c-0.5,0-1-0.1-1.3-0.2c-0.4-0.1-0.7-0.3-1-0.5c-0.3-0.2-0.5-0.5-0.6-0.8c-0.2-0.3-0.3-0.7-0.3-1
			c-0.1-0.4-0.1-0.8-0.1-1.3v-7.8h2.5v8.1c0,0.2,0,0.3,0,0.5c0,0.1,0,0.3,0.1,0.4s0.1,0.3,0.1,0.4c0.1,0.1,0.1,0.2,0.3,0.2
			c0.1,0.1,0.2,0.1,0.4,0.1c0.2,0,0.3,0,0.4-0.1c0.1-0.1,0.2-0.1,0.3-0.2c0.1-0.1,0.1-0.2,0.1-0.4c0-0.1,0.1-0.3,0.1-0.4
			c0-0.1,0-0.3,0-0.5v-8.1h2.5v7.8c0,0.6-0.1,1.2-0.2,1.6s-0.3,0.8-0.5,1.2s-0.6,0.6-1,0.7C91.6,56,91,56,90.4,56z"/>
		<path class="st3" d="M98.5,56c-0.6,0-1.2-0.1-1.6-0.3c-0.4-0.2-0.8-0.4-1.1-0.8s-0.4-0.7-0.6-1.2s-0.2-1-0.2-1.6v-4
			c0-0.6,0.1-1.1,0.2-1.6c0.1-0.5,0.3-0.9,0.6-1.2c0.3-0.3,0.6-0.6,1.1-0.8c0.4-0.2,1-0.3,1.6-0.3c0.6,0,1.1,0.1,1.6,0.2
			s0.8,0.4,1,0.7c0.2,0.3,0.4,0.6,0.5,1c0.1,0.4,0.2,0.8,0.2,1.3v1h-2.4v-1.1c0-0.2,0-0.3,0-0.4s0-0.2,0-0.4c0-0.1-0.1-0.3-0.1-0.3
			c-0.1-0.1-0.1-0.1-0.2-0.2c-0.1-0.1-0.2-0.1-0.4-0.1c-0.2,0-0.3,0-0.4,0.1c-0.1,0.1-0.2,0.1-0.2,0.2c-0.1,0.1-0.1,0.2-0.1,0.3
			c0,0.1-0.1,0.3-0.1,0.4s0,0.3,0,0.4v5.3c0,0.5,0.1,0.8,0.2,1c0.1,0.2,0.3,0.4,0.7,0.4c0.1,0,0.3,0,0.4-0.1
			c0.1-0.1,0.2-0.1,0.2-0.2c0.1-0.1,0.1-0.2,0.1-0.3c0-0.1,0-0.3,0.1-0.4s0-0.2,0-0.4v-1.2h2.4v1c0,0.4,0,0.8-0.1,1.1
			c-0.1,0.3-0.2,0.6-0.3,0.9c-0.2,0.3-0.4,0.5-0.6,0.7s-0.6,0.3-0.9,0.5C99.5,56,99,56,98.5,56z"/>
		<path class="st3" d="M104.2,55.9v-9.5h-1.7v-1.9h6v1.9h-1.7v9.5H104.2z"/>
		<path class="st3" d="M112.7,56c-0.5,0-1-0.1-1.3-0.2c-0.4-0.1-0.7-0.3-1-0.5c-0.3-0.2-0.5-0.5-0.6-0.8c-0.2-0.3-0.3-0.7-0.3-1
			c-0.1-0.4-0.1-0.8-0.1-1.3v-7.8h2.5v8.1c0,0.2,0,0.3,0,0.5c0,0.1,0,0.3,0.1,0.4s0.1,0.3,0.1,0.4c0.1,0.1,0.1,0.2,0.3,0.2
			c0.1,0.1,0.2,0.1,0.4,0.1c0.2,0,0.3,0,0.4-0.1c0.1-0.1,0.2-0.1,0.3-0.2c0.1-0.1,0.1-0.2,0.1-0.4c0-0.1,0.1-0.3,0.1-0.4
			c0-0.1,0-0.3,0-0.5v-8.1h2.5v7.8c0,0.6-0.1,1.2-0.2,1.6s-0.3,0.8-0.5,1.2s-0.6,0.6-1,0.7C113.8,56,113.3,56,112.7,56z"/>
		<path class="st3" d="M117.6,55.9V44.5h3.1c0.5,0,0.9,0,1.3,0.1s0.7,0.2,1,0.3s0.6,0.3,0.8,0.5s0.4,0.5,0.5,0.9s0.2,0.8,0.2,1.2
			c0,0.7-0.1,1.3-0.3,1.8s-0.6,0.8-1.1,1.1l1.6,5.5H122l-1.2-5.1h-0.7v5.1H117.6z M120.1,49.4h0.6c0.5,0,0.9-0.1,1.1-0.4
			c0.2-0.3,0.3-0.7,0.3-1.2c0-0.5-0.1-0.9-0.3-1.2c-0.2-0.3-0.5-0.4-1-0.4h-0.8V49.4z"/>
		<path class="st3" d="M125.9,55.9V44.5h5.1v1.7h-2.6v2.8h2v1.7h-2v3.4h2.6v1.7H125.9z"/>
	</g>
</g>
<g>
	<circle class="st40" cx="162.6" cy="72.5" r="6.2"/>
	<circle class="st40" cx="180.9" cy="72.5" r="6.2"/>
</g>
</svg>
