<?xml version="1.0" encoding="utf-8"?>
<!-- Generator: Adobe Illustrator 21.0.0, SVG Export Plug-In . SVG Version: 6.00 Build 0)  -->
<svg version="1.1" xmlns="http://www.w3.org/2000/svg" xmlns:xlink="http://www.w3.org/1999/xlink" x="0px" y="0px"
	 viewBox="0 0 199.9 201.4" style="enable-background:new 0 0 199.9 201.4;" xml:space="preserve">
<style type="text/css">
	.st0{fill:#303030;}
	.st1{fill:#F4F4F4;}
	.st2{fill:#FCFCFC;}
	.st3{fill:#EEF7F9;}
	.st4{fill:#376699;}
	.st5{fill:#080808;}
	.st6{fill:#2A5A8E;}
	.st7{fill:#F5FBFB;}
	.st8{fill:#155DAC;}
	.st9{fill:#165EAC;}
	.st10{fill:#155EAC;}
	.st11{fill:#F8FBFC;}
	.st12{fill:#F1F8F9;}
	.st13{fill:#F2F9FA;}
	.st14{fill:#2B619E;}
	.st15{fill:#1E5FA6;}
	.st16{fill:#165EAB;}
	.st17{fill:#FDFDFD;}
	.st18{fill:#1A5EA9;}
	.st19{fill:#D9D9D9;}
	.st20{fill:#DDDDDD;}
	.st21{fill:none;stroke:#ADADAD;stroke-miterlimit:10;}
	.st22{fill:#FFFFFF;}
	.st23{fill:#DC3545;}
	.st24{fill:#FCFDFC;}
	.st25{fill:#F2CD41;}
	.st26{fill:none;stroke:#A3A3A3;stroke-miterlimit:10;}
	.st27{fill:#28A745;}
	.st28{fill:none;stroke:#28A745;stroke-width:6;stroke-miterlimit:10;}
	.st29{fill:#F5682D;}
	.st30{fill:none;stroke:#F2CD41;stroke-width:6;stroke-miterlimit:10;}
	.st31{fill-rule:evenodd;clip-rule:evenodd;fill:#DFDFDF;}
	.st32{fill:none;stroke:#C4C4C4;stroke-miterlimit:10;}
	.st33{fill:#FFFFFC;}
	.st34{fill:#FFFDFD;}
	.st35{fill:#FFFAF9;}
	.st36{fill:#FFFCFC;}
	.st37{fill:#ED2F24;}
	.st38{fill:#FFFCF8;}
	.st39{fill:#FFFFFB;}
	.st40{fill:#FFFCF7;}
	.st41{fill:#FFFBFC;}
	.st42{fill:#FFFCFA;}
	.st43{fill:#FCFDFF;}
	.st44{fill:#F9F9FA;}
	.st45{fill:#FAFBFD;}
	.st46{fill:#F7F9FA;}
	.st47{fill:#F7F7FA;}
	.st48{fill:#F6F7F9;}
	.st49{fill:#A7B0CA;}
	.st50{fill:#03558A;}
	.st51{fill:#DFDFDF;}
	.st52{fill:#FAFDFF;}
	.st53{fill:#FCFDFB;}
	.st54{fill:none;stroke:#AAAAAA;stroke-miterlimit:10;}
	.st55{fill:none;stroke:#F2CD41;stroke-width:4;stroke-miterlimit:10;}
	.st56{fill:none;stroke:#28A745;stroke-width:4;stroke-miterlimit:10;}
	.st57{fill:none;stroke:#DC3545;stroke-width:4;stroke-miterlimit:10;}
	.st58{fill:none;stroke:#F5682D;stroke-width:4;stroke-miterlimit:10;}
	.st59{font-family:'Anton-Regular';}
	.st60{font-size:54.0701px;}
	.st61{font-size:23.5932px;}
	.st62{opacity:0.19;}
	.st63{fill:#279B48;}
	.st64{fill:#C32034;}
	.st65{fill:#EF412A;}
	.st66{fill:#FDB715;}
	.st67{fill:#8F1839;}
	.st68{fill:#F36D26;}
	.st69{fill:#F99E27;}
	.st70{fill:#CE8D2A;}
	.st71{fill:#48773F;}
	.st72{fill:#5EBB47;}
	.st73{fill:#00558B;}
	.st74{fill:#1E3768;}
	.st75{fill:#047DBC;}
	.st76{fill:#E01684;}
	.st77{fill:#00AED8;}
	.st78{fill:#D3A12A;}
	.st79{fill:#EA1E2F;}
	.st80{fill:#23AA61;}
	.st81{fill:#6A71AF;}
	.st82{fill:#F29228;}
	.st83{fill:#3897D3;}
	.st84{fill:#814891;}
	.st85{fill:none;stroke:#FFFFFF;stroke-width:2;stroke-miterlimit:10;}
	.st86{fill:#E5243B;}
	.st87{fill:#DDA63A;}
	.st88{fill:#4C9F38;}
	.st89{fill:#C5192D;}
	.st90{fill:#FF3A21;}
	.st91{fill:#26BDE2;}
	.st92{fill:#FCC30B;}
	.st93{fill:#A21942;}
	.st94{fill:#FD6925;}
	.st95{fill:#DD1367;}
	.st96{fill:#FD9D24;}
	.st97{fill:#BF8B2E;}
	.st98{fill:#3F7E44;}
	.st99{fill:#0A97D9;}
	.st100{fill:#56C02B;}
	.st101{fill:#00689D;}
	.st102{fill:#19486A;}
	.st103{fill:#207A46;}
	.st104{fill-rule:evenodd;clip-rule:evenodd;fill:#4BA048;stroke:#282828;stroke-width:2;stroke-miterlimit:22.9256;}
	.st105{fill-rule:evenodd;clip-rule:evenodd;fill:#F2CD41;stroke:#282828;stroke-width:2;stroke-miterlimit:10;}
	.st106{fill-rule:evenodd;clip-rule:evenodd;fill:#DFDFDF;stroke:#282828;stroke-width:2;stroke-miterlimit:10;}
	.st107{fill-rule:evenodd;clip-rule:evenodd;fill:#DC3545;stroke:#282828;stroke-width:2;stroke-miterlimit:10;}
	.st108{fill-rule:evenodd;clip-rule:evenodd;fill:#F5682D;stroke:#282828;stroke-width:2;stroke-miterlimit:10;}
	.st109{fill:#878787;}
	.st110{fill:#444444;}
	.st111{fill:#4BA048;}
	.st112{fill:#24BFE6;}
	.st113{fill:#01ACD7;}
	.st114{fill:#FAA028;}
	.st115{fill:#F89E2A;}
	.st116{fill:#F89F2B;}
	.st117{fill:#F89D29;}
	.st118{fill:#F89D28;}
	.st119{fill:#1E96D4;}
	.st120{fill:#067DBA;}
	.st121{fill:#174A6D;}
	.st122{fill:#203767;}
	.st123{fill:#213868;}
	.st124{fill:#15699F;}
	.st125{fill:#61BD45;}
	.st126{fill:#438145;}
	.st127{fill:#45794E;}
	.st128{fill:#46794E;}
	.st129{fill:#497B50;}
	.st130{fill:#4B7C52;}
	.st131{fill:#4C7D52;}
	.st132{fill:#4D7E54;}
	.st133{fill:#C89930;}
	.st134{fill:#DE1667;}
	.st135{fill:#F16B2D;}
	.st136{fill:#F16B2C;}
	.st137{fill:#A61B45;}
	.st138{fill:#FBC51A;}
	.st139{fill:#FAC417;}
	.st140{fill:#F9C315;}
	.st141{fill:#ED2540;}
	.st142{fill:#E6B733;}
	.st143{fill:#C92330;}
	.st144{fill:#EE432B;}
	.st145{fill:#ED3724;}
	.st146{fill:#ED2C24;}
	.st147{fill:#ED2924;}
	.st148{fill:#EE3F2B;}
	.st149{opacity:0.8;clip-path:url(#SVGID_6_);}
	.st150{fill:#2C6829;}
	.st151{fill:none;stroke:#11212E;stroke-miterlimit:10;}
	.st152{fill:#11212E;}
	.st153{fill:none;stroke:#444444;stroke-miterlimit:10;}
	.st154{fill:none;}
	.st155{fill:none;stroke:#9B9B9B;stroke-miterlimit:10;}
	.st156{fill:none;stroke:#8E8E8E;stroke-miterlimit:10;}
	.st157{fill:none;stroke:#11212E;stroke-width:3;stroke-linecap:round;stroke-linejoin:round;stroke-miterlimit:10;}
	.st158{fill:#FFFFFF;stroke:#777777;stroke-miterlimit:10;}
	.st159{fill:#FFFFFF;stroke:#5B5B5B;stroke-miterlimit:10;}
	.st160{fill:none;stroke:#AFAFAF;stroke-miterlimit:10;}
	.st161{fill:#262626;}
	.st162{fill:none;stroke:#5B5B5B;stroke-linecap:round;stroke-linejoin:round;}
	.st163{fill:#5B5B5B;}
	.st164{fill:#353535;}
	.st165{opacity:0.8;clip-path:url(#SVGID_10_);}
</style>
<g id="_x7B_ref_x7D_">
</g>
<g id="Layer_2">
	<path class="st33" d="M85,179.8c-1.1-1-2.2-2-3.2-2.9c-0.5-0.5-1-0.9-0.8-1.7c0.2-0.8,0.8-0.9,1.5-1.1c5.8-1.6,11.6-3.2,17.4-4.9
		c1.9-0.5,2.6,0.1,2.3,2.1c-1,6-1.9,12-2.9,17.9c-0.1,0.7-0.2,1.4-1,1.6c-0.8,0.3-1.3-0.2-1.9-0.7c-1-0.9-1.9-1.7-2.9-2.6
		c-0.4-0.4-0.7-0.4-1.1-0.1c-5.9,4.3-12.6,5.9-19.9,5.6c-13.8-0.5-25.6-10.4-28.1-24c-1.4-7.7-1-15.3,2-22.6
		c4-9.7,11.5-15.3,21.7-17.2C80.6,127,91,130.9,99.5,140c5.3,5.7,9.3,12.3,12.8,19.2c2.5,4.9,5.1,9.7,8.9,13.8
		c4.6,5,10.1,8.4,16.8,9.7c10.4,2,19.2-3.7,21.6-13.9c1.2-5.1,1.2-10.3-0.1-15.3c-1.9-7.4-6.8-11.7-14.1-13.5
		c-8.2-2.1-15.2,0.4-21.4,5.9c-2.4,2.1-4.4,4.6-6.2,7.1c-1,1.4-2.1,1.3-3-0.2c-1.2-2.2-2.5-4.3-3.7-6.5c-0.4-0.7-0.5-1.3,0-1.9
		c4.3-5.4,9.2-10.1,15.7-12.9c12-5,23.4-3.5,33.7,4.4c5.3,4.1,8.2,9.8,9.6,16.3c1.6,7.7,1.4,15.4-1.3,22.9
		c-4.4,12.3-16.5,19.9-29.4,18.5c-11.9-1.2-21.2-7.1-28.5-16.4c-3-3.9-5.4-8.1-7.6-12.5c-3.2-6.3-6.8-12.4-11.6-17.6
		c-4.3-4.6-9.6-7.6-15.9-7.8c-7.3-0.2-13.7,2-17.9,8.4c-1.8,2.7-2.6,5.8-3,9c-0.5,3.8-0.6,7.6,0.4,11.3c2,7.7,7.2,12.4,14.9,14
		c4.9,1.1,9.8,0.6,14.3-1.9C84.5,180,84.7,179.9,85,179.8z"/>
	<g>
		<text transform="matrix(0.7415 0 0 1 12.683 63.6478)" class="st22 st59 st60">12</text>
	</g>
	<g>
		<text transform="matrix(0.9978 0 0 1 56.1938 35.3192)"><tspan x="0" y="0" class="st22 st59 st61">Responsible </tspan><tspan x="0" y="28.3" class="st22 st59 st61">Consumption </tspan><tspan x="0" y="56.6" class="st22 st59 st61">and Production</tspan></text>
	</g>
</g>
</svg>
