<?xml version="1.0" encoding="utf-8"?>
<!-- Generator: Adobe Illustrator 21.0.0, SVG Export Plug-In . SVG Version: 6.00 Build 0)  -->
<svg version="1.1" xmlns="http://www.w3.org/2000/svg" xmlns:xlink="http://www.w3.org/1999/xlink" x="0px" y="0px"
	 viewBox="0 0 199.9 201.4" style="enable-background:new 0 0 199.9 201.4;" xml:space="preserve">
<style type="text/css">
	.st0{fill:#303030;}
	.st1{fill:#F4F4F4;}
	.st2{fill:#FCFCFC;}
	.st3{fill:#EEF7F9;}
	.st4{fill:#376699;}
	.st5{fill:#080808;}
	.st6{fill:#2A5A8E;}
	.st7{fill:#F5FBFB;}
	.st8{fill:#155DAC;}
	.st9{fill:#165EAC;}
	.st10{fill:#155EAC;}
	.st11{fill:#F8FBFC;}
	.st12{fill:#F1F8F9;}
	.st13{fill:#F2F9FA;}
	.st14{fill:#2B619E;}
	.st15{fill:#1E5FA6;}
	.st16{fill:#165EAB;}
	.st17{fill:#FDFDFD;}
	.st18{fill:#1A5EA9;}
	.st19{fill:#D9D9D9;}
	.st20{fill:#DDDDDD;}
	.st21{fill:none;stroke:#ADADAD;stroke-miterlimit:10;}
	.st22{fill:#FFFFFF;}
	.st23{fill:#DC3545;}
	.st24{fill:#FCFDFC;}
	.st25{fill:#F2CD41;}
	.st26{fill:none;stroke:#A3A3A3;stroke-miterlimit:10;}
	.st27{fill:#28A745;}
	.st28{fill:none;stroke:#28A745;stroke-width:6;stroke-miterlimit:10;}
	.st29{fill:#F5682D;}
	.st30{fill:none;stroke:#F2CD41;stroke-width:6;stroke-miterlimit:10;}
	.st31{fill-rule:evenodd;clip-rule:evenodd;fill:#DFDFDF;}
	.st32{fill:none;stroke:#C4C4C4;stroke-miterlimit:10;}
	.st33{fill:#FFFFFC;}
	.st34{fill:#FFFDFD;}
	.st35{fill:#FFFAF9;}
	.st36{fill:#FFFCFC;}
	.st37{fill:#ED2F24;}
	.st38{fill:#FFFCF8;}
	.st39{fill:#FFFFFB;}
	.st40{fill:#FFFCF7;}
	.st41{fill:#FFFBFC;}
	.st42{fill:#FFFCFA;}
	.st43{fill:#FCFDFF;}
	.st44{fill:#F9F9FA;}
	.st45{fill:#FAFBFD;}
	.st46{fill:#F7F9FA;}
	.st47{fill:#F7F7FA;}
	.st48{fill:#F6F7F9;}
	.st49{fill:#A7B0CA;}
	.st50{fill:#03558A;}
	.st51{fill:#DFDFDF;}
	.st52{fill:#FAFDFF;}
	.st53{fill:#FCFDFB;}
	.st54{fill:none;stroke:#AAAAAA;stroke-miterlimit:10;}
	.st55{fill:none;stroke:#F2CD41;stroke-width:4;stroke-miterlimit:10;}
	.st56{fill:none;stroke:#28A745;stroke-width:4;stroke-miterlimit:10;}
	.st57{fill:none;stroke:#DC3545;stroke-width:4;stroke-miterlimit:10;}
	.st58{fill:none;stroke:#F5682D;stroke-width:4;stroke-miterlimit:10;}
	.st59{font-family:'Anton-Regular';}
	.st60{font-size:59.6038px;}
	.st61{font-size:31.0436px;}
	.st62{opacity:0.19;}
	.st63{fill:#279B48;}
	.st64{fill:#C32034;}
	.st65{fill:#EF412A;}
	.st66{fill:#FDB715;}
	.st67{fill:#8F1839;}
	.st68{fill:#F36D26;}
	.st69{fill:#F99E27;}
	.st70{fill:#CE8D2A;}
	.st71{fill:#48773F;}
	.st72{fill:#5EBB47;}
	.st73{fill:#00558B;}
	.st74{fill:#1E3768;}
	.st75{fill:#047DBC;}
	.st76{fill:#E01684;}
	.st77{fill:#00AED8;}
	.st78{fill:#D3A12A;}
	.st79{fill:#EA1E2F;}
	.st80{fill:#23AA61;}
	.st81{fill:#6A71AF;}
	.st82{fill:#F29228;}
	.st83{fill:#3897D3;}
	.st84{fill:#814891;}
	.st85{fill:none;stroke:#FFFFFF;stroke-width:2;stroke-miterlimit:10;}
	.st86{fill:#E5243B;}
	.st87{fill:#DDA63A;}
	.st88{fill:#4C9F38;}
	.st89{fill:#C5192D;}
	.st90{fill:#FF3A21;}
	.st91{fill:#26BDE2;}
	.st92{fill:#FCC30B;}
	.st93{fill:#A21942;}
	.st94{fill:#FD6925;}
	.st95{fill:#DD1367;}
	.st96{fill:#FD9D24;}
	.st97{fill:#BF8B2E;}
	.st98{fill:#3F7E44;}
	.st99{fill:#0A97D9;}
	.st100{fill:#56C02B;}
	.st101{fill:#00689D;}
	.st102{fill:#19486A;}
	.st103{fill:#207A46;}
	.st104{fill-rule:evenodd;clip-rule:evenodd;fill:#4BA048;stroke:#282828;stroke-width:2;stroke-miterlimit:22.9256;}
	.st105{fill-rule:evenodd;clip-rule:evenodd;fill:#F2CD41;stroke:#282828;stroke-width:2;stroke-miterlimit:10;}
	.st106{fill-rule:evenodd;clip-rule:evenodd;fill:#DFDFDF;stroke:#282828;stroke-width:2;stroke-miterlimit:10;}
	.st107{fill-rule:evenodd;clip-rule:evenodd;fill:#DC3545;stroke:#282828;stroke-width:2;stroke-miterlimit:10;}
	.st108{fill-rule:evenodd;clip-rule:evenodd;fill:#F5682D;stroke:#282828;stroke-width:2;stroke-miterlimit:10;}
	.st109{fill:#878787;}
	.st110{fill:#444444;}
	.st111{fill:#4BA048;}
	.st112{fill:#24BFE6;}
	.st113{fill:#01ACD7;}
	.st114{fill:#FAA028;}
	.st115{fill:#F89E2A;}
	.st116{fill:#F89F2B;}
	.st117{fill:#F89D29;}
	.st118{fill:#F89D28;}
	.st119{fill:#1E96D4;}
	.st120{fill:#067DBA;}
	.st121{fill:#174A6D;}
	.st122{fill:#203767;}
	.st123{fill:#213868;}
	.st124{fill:#15699F;}
	.st125{fill:#61BD45;}
	.st126{fill:#438145;}
	.st127{fill:#45794E;}
	.st128{fill:#46794E;}
	.st129{fill:#497B50;}
	.st130{fill:#4B7C52;}
	.st131{fill:#4C7D52;}
	.st132{fill:#4D7E54;}
	.st133{fill:#C89930;}
	.st134{fill:#DE1667;}
	.st135{fill:#F16B2D;}
	.st136{fill:#F16B2C;}
	.st137{fill:#A61B45;}
	.st138{fill:#FBC51A;}
	.st139{fill:#FAC417;}
	.st140{fill:#F9C315;}
	.st141{fill:#ED2540;}
	.st142{fill:#E6B733;}
	.st143{fill:#C92330;}
	.st144{fill:#EE432B;}
	.st145{fill:#ED3724;}
	.st146{fill:#ED2C24;}
	.st147{fill:#ED2924;}
	.st148{fill:#EE3F2B;}
	.st149{opacity:0.8;clip-path:url(#SVGID_6_);}
	.st150{fill:#2C6829;}
	.st151{fill:none;stroke:#11212E;stroke-miterlimit:10;}
	.st152{fill:#11212E;}
	.st153{fill:none;stroke:#444444;stroke-miterlimit:10;}
	.st154{fill:none;}
	.st155{fill:none;stroke:#9B9B9B;stroke-miterlimit:10;}
	.st156{fill:none;stroke:#8E8E8E;stroke-miterlimit:10;}
	.st157{fill:none;stroke:#11212E;stroke-width:3;stroke-linecap:round;stroke-linejoin:round;stroke-miterlimit:10;}
	.st158{fill:#FFFFFF;stroke:#777777;stroke-miterlimit:10;}
	.st159{fill:#FFFFFF;stroke:#5B5B5B;stroke-miterlimit:10;}
	.st160{fill:none;stroke:#AFAFAF;stroke-miterlimit:10;}
	.st161{fill:#262626;}
	.st162{fill:none;stroke:#5B5B5B;stroke-linecap:round;stroke-linejoin:round;}
	.st163{fill:#5B5B5B;}
	.st164{fill:#353535;}
	.st165{opacity:0.8;clip-path:url(#SVGID_10_);}
</style>
<g id="_x7B_ref_x7D_">
</g>
<g id="Layer_2">
	<g>
		<path class="st22" d="M172.3,100.2c-1.8,1.8-3.6,3.6-5.5,5.4c-0.4,0.4-0.2,0.7,0,1c2.8,4.2,4.6,8.7,5.3,13.7
			c0.1,0.9,0.2,1.8,0.4,2.7c0,1.5,0,3,0,4.5c-0.4,4.5-1.5,8.7-3.5,12.7c-1.2,2.4-2.7,4.5-4.3,6.6c-0.1,0-0.1,0-0.1,0.1l0.1,0
			c-0.1,0.1-0.2,0.2-0.2,0.3l0.1,0l0-0.1c-0.1,0.1-0.2,0.2-0.3,0.3l0.1,0c0,0,0-0.1,0-0.1c-0.1,0.1-0.2,0.2-0.3,0.3
			c-0.8,0.8-1.6,1.6-2.4,2.4c-0.1,0.1-0.2,0.2-0.2,0.3l0.1,0l0-0.1c-0.1,0.1-0.2,0.2-0.3,0.3l0.1,0l0-0.1c-0.1,0.1-0.2,0.2-0.3,0.3
			l0-0.1c-0.1,0-0.1,0.1-0.1,0.1c-3.7,3-7.8,5.4-12.5,6.7c-1.1,0.3-2.1,0.5-3.2,0.7c-0.5,0.1-0.7,0.3-0.7,0.8c0,2.9,0,5.7,0,8.6
			c0,0.7,0.3,0.7,0.8,0.7c2.8,0,5.7,0,8.5,0c0.4,0,0.8-0.1,1.1,0.2c0,3.1,0,6.3,0,9.4c-0.1,0.1-0.1,0.1-0.2,0.2c-3.1,0-6.2,0-9.3,0
			c-0.6,0-0.9,0.1-0.9,0.8c0.1,3,0,5.9,0,8.9c0,0.1-0.1,0.1-0.1,0.2c-3.1,0-6.3,0-9.4,0.1c-0.1-0.1-0.2-0.2-0.3-0.3c0-3,0-6,0-8.9
			c0-0.5-0.1-0.8-0.7-0.8c-3.1,0-6.2,0-9.3,0c-0.1-0.1-0.2-0.1-0.4-0.2c0-3.1,0-6.3,0-9.4c0.1-0.1,0.3-0.1,0.4-0.2
			c3.1,0,6.3,0,9.4,0c0.4,0,0.6-0.1,0.6-0.5c0-2.9,0-5.9,0-8.8c0-0.3,0-0.5-0.4-0.3c-0.1,0-0.3,0-0.4,0c-0.6-0.5-1.4-0.4-2.1-0.6
			c-5.3-1.2-10.1-3.6-14.4-7c0,0,0-0.1-0.1-0.1c0,0,0,0,0,0c-0.1-0.1-0.2-0.2-0.3-0.2l0,0.1c0,0,0.1,0,0.1,0
			c-0.1-0.1-0.2-0.2-0.3-0.3l0,0.1c0,0,0.1,0,0.1,0c-0.1-0.1-0.2-0.2-0.3-0.3l0,0.1l0.1,0c-0.1-0.1-0.2-0.2-0.3-0.3
			c-0.8-0.8-1.6-1.6-2.4-2.4c-0.1-0.1-0.2-0.2-0.3-0.2l0,0.1l0.1,0c-0.1-0.1-0.2-0.2-0.3-0.3l0,0.1l0.1,0c-0.1-0.1-0.2-0.2-0.3-0.3
			l0,0.1l0.1,0c-0.1-0.1-0.2-0.2-0.2-0.3l0,0c0,0,0-0.1-0.1-0.1c-2.9-3.7-5.2-7.8-6.5-12.4c-0.6-2.1-0.9-4.3-1.2-6.4
			c0-1.6,0-3.1,0-4.7c0.5-4.7,1.7-9.3,3.9-13.5c9.6-18,32.8-23.3,49.3-11.3c0.8,0.6,1.2,0.6,1.9-0.1c3.3-3.4,6.6-6.7,9.9-10
			c0.1-0.1,0.3-0.2,0.4-0.3c0-0.1-0.2-0.1-0.3-0.1c-0.2,0-0.5,0-0.7,0c-3.1,0-6.1,0.1-9.2-0.1l0-0.1l-0.1,0c0-2.9,0-5.9,0-8.8
			c0.3-0.3,0.7-0.2,1.1-0.2c8,0,16.1,0,24.1,0c0.4,0,0.8-0.1,1.1,0.2c0,5.8,0,11.6,0,17.4c0,2.8,0,5.6,0,8.4c-0.5,0.3-1,0.1-1.5,0.1
			c-2.2,0-4.4,0-6.5,0c-0.4,0-0.8,0.1-1.1-0.2c0-3.2,0-6.3,0-9.7c-0.4,0.5-0.7,0.7-0.9,1l0,0c-0.1,0.1-0.2,0.2-0.2,0.3l0,0
			c-0.1,0.1-0.2,0.2-0.2,0.2l0,0c-0.1,0.1-0.2,0.2-0.2,0.2l0,0c-0.1,0.1-0.2,0.2-0.2,0.2c0,0,0,0,0,0c-0.1,0.1-0.2,0.2-0.2,0.2l0,0
			c-0.1,0.1-0.2,0.2-0.2,0.2l0,0c-0.1,0.1-0.2,0.2-0.2,0.2c0,0,0,0,0,0c-0.1,0.1-0.2,0.2-0.2,0.2l0,0c-0.1,0.1-0.2,0.2-0.2,0.2l0,0
			c-0.1,0.1-0.2,0.2-0.2,0.2l0,0c-0.1,0.1-0.2,0.2-0.2,0.2c0,0,0,0,0,0c-0.1,0.1-0.2,0.2-0.2,0.2l0,0c-0.1,0.1-0.2,0.2-0.2,0.2l0,0
			c-0.1,0.1-0.2,0.2-0.2,0.2l0,0c-0.1,0.1-0.2,0.2-0.2,0.2l0,0c-0.1,0.1-0.2,0.2-0.2,0.2l0,0c-0.1,0.1-0.2,0.2-0.2,0.2l0,0
			c-0.1,0.1-0.2,0.2-0.2,0.2l0,0c-0.1,0.1-0.2,0.2-0.2,0.2c0,0,0,0,0,0c-0.1,0.1-0.2,0.2-0.2,0.2l0,0
			C172.5,100,172.4,100,172.3,100.2L172.3,100.2C172.3,100.1,172.3,100.2,172.3,100.2z M148.2,148.1c0.2-0.1,0.4-0.1,0.6-0.2
			c10.6-4.5,16.6-15.9,14.4-27.4c-2.1-11.1-11.9-19.5-23.3-19.9c-18.3-0.6-31,18-23.5,34.6c2.7,6,7.1,10.4,13.3,12.8
			C135.9,150.5,142.1,150.5,148.2,148.1z"/>
		<path class="st37" d="M174.2,98.3c0.1-0.1,0.2-0.2,0.2-0.2C174.4,98.1,174.3,98.2,174.2,98.3z"/>
		<path class="st37" d="M174,98.5c0.1-0.1,0.2-0.2,0.2-0.2C174.2,98.3,174.1,98.4,174,98.5z"/>
		<path class="st37" d="M173.8,98.7c0.1-0.1,0.2-0.2,0.2-0.2C173.9,98.5,173.9,98.6,173.8,98.7z"/>
		<path class="st37" d="M173.6,98.9c0.1-0.1,0.2-0.2,0.2-0.2C173.8,98.8,173.7,98.9,173.6,98.9z"/>
		<path class="st37" d="M173.4,99.1c0.1-0.1,0.2-0.2,0.2-0.2C173.6,99,173.5,99.1,173.4,99.1z"/>
		<path class="st37" d="M173.2,99.3c0.1-0.1,0.2-0.2,0.2-0.2C173.4,99.2,173.3,99.3,173.2,99.3z"/>
		<path class="st37" d="M173,99.5c0.1-0.1,0.2-0.2,0.2-0.2C173.2,99.4,173.1,99.5,173,99.5z"/>
		<path class="st37" d="M172.8,99.7c0.1-0.1,0.2-0.2,0.2-0.2C173,99.6,172.9,99.7,172.8,99.7z"/>
		<path class="st37" d="M174.4,98.1c0.1-0.1,0.2-0.2,0.2-0.2C174.6,97.9,174.5,98,174.4,98.1z"/>
		<path class="st37" d="M172.3,100.2C172.3,100.2,172.3,100.1,172.3,100.2C172.4,100.2,172.4,100.3,172.3,100.2z"/>
		<path class="st37" d="M176.5,96c0.1-0.1,0.2-0.2,0.2-0.3C176.6,95.9,176.5,95.9,176.5,96z"/>
		<path class="st37" d="M176.3,96.2c0.1-0.1,0.2-0.2,0.2-0.2C176.4,96.1,176.3,96.2,176.3,96.2z"/>
		<path class="st37" d="M172.6,99.9c0.1-0.1,0.2-0.2,0.2-0.2C172.8,99.8,172.7,99.9,172.6,99.9z"/>
		<path class="st37" d="M176.1,96.4c0.1-0.1,0.2-0.2,0.2-0.2C176.2,96.3,176.1,96.4,176.1,96.4z"/>
		<path class="st37" d="M113.2,146.6C113.2,146.6,113.2,146.6,113.2,146.6C113.2,146.7,113.1,146.8,113.2,146.6z"/>
		<path class="st37" d="M113.2,146.7c0.1,0.1,0.2,0.2,0.2,0.3C113.4,146.9,113.3,146.8,113.2,146.7z"/>
		<path class="st37" d="M164.6,146.9c0-0.1,0.1-0.1,0.1-0.1C164.7,147,164.6,146.9,164.6,146.9z"/>
		<path class="st37" d="M113.4,146.9c0.1,0.1,0.2,0.2,0.3,0.3C113.5,147.1,113.5,147,113.4,146.9z"/>
		<path class="st37" d="M164.4,147.2c0.1-0.1,0.2-0.2,0.2-0.3C164.5,147,164.5,147.1,164.4,147.2z"/>
		<path class="st37" d="M113.6,147.2c0.1,0.1,0.2,0.2,0.3,0.3C113.7,147.3,113.7,147.2,113.6,147.2z"/>
		<path class="st37" d="M164.2,147.4c0.1-0.1,0.2-0.2,0.3-0.3C164.4,147.2,164.3,147.3,164.2,147.4z"/>
		<path class="st37" d="M113.8,147.4c0.1,0.1,0.2,0.2,0.3,0.2C113.9,147.5,113.8,147.5,113.8,147.4z"/>
		<path class="st37" d="M172.4,100.1c0.1-0.1,0.2-0.2,0.2-0.2C172.6,100,172.5,100.1,172.4,100.1z"/>
		<path class="st37" d="M175.8,96.6c0.1-0.1,0.2-0.2,0.2-0.2C176,96.5,175.9,96.6,175.8,96.6z"/>
		<path class="st37" d="M116.4,150c0.1,0.1,0.2,0.2,0.3,0.3C116.6,150.2,116.5,150.1,116.4,150z"/>
		<path class="st37" d="M161.3,150.3c0.1-0.1,0.2-0.2,0.2-0.3C161.5,150.1,161.4,150.2,161.3,150.3z"/>
		<path class="st37" d="M116.6,150.2c0.1,0.1,0.2,0.2,0.3,0.3C116.8,150.4,116.7,150.3,116.6,150.2z"/>
		<path class="st37" d="M161.1,150.5c0.1-0.1,0.2-0.2,0.3-0.3C161.3,150.3,161.2,150.4,161.1,150.5z"/>
		<path class="st37" d="M116.9,150.4c0.1,0.1,0.2,0.2,0.3,0.3C117,150.6,116.9,150.5,116.9,150.4z"/>
		<path class="st37" d="M160.9,150.7c0.1-0.1,0.2-0.2,0.3-0.3C161.1,150.5,161,150.6,160.9,150.7z"/>
		<path class="st37" d="M117.1,150.6c0.1,0.1,0.2,0.2,0.3,0.2C117.3,150.8,117.2,150.7,117.1,150.6z"/>
		<path class="st37" d="M160.8,150.7c0-0.1,0.1-0.1,0.1-0.1C160.9,150.7,160.9,150.8,160.8,150.7z"/>
		<path class="st37" d="M117.4,150.8C117.4,150.8,117.4,150.9,117.4,150.8C117.3,151,117.3,150.9,117.4,150.8z"/>
		<path class="st37" d="M175.6,96.8c0.1-0.1,0.2-0.2,0.2-0.2C175.8,96.7,175.7,96.8,175.6,96.8z"/>
		<path class="st37" d="M175.4,97.1c0.1-0.1,0.2-0.2,0.2-0.2C175.6,96.9,175.5,97,175.4,97.1z"/>
		<path class="st37" d="M175.2,97.3c0.1-0.1,0.2-0.2,0.2-0.2C175.4,97.1,175.3,97.2,175.2,97.3z"/>
		<path class="st37" d="M175,97.5c0.1-0.1,0.2-0.2,0.2-0.2C175.2,97.3,175.1,97.4,175,97.5z"/>
		<path class="st37" d="M174.8,97.7c0.1-0.1,0.2-0.2,0.2-0.2C175,97.5,174.9,97.6,174.8,97.7z"/>
		<path class="st37" d="M174.6,97.9c0.1-0.1,0.2-0.2,0.2-0.2C174.8,97.7,174.7,97.8,174.6,97.9z"/>
		<path class="st37" d="M164,147.6c0.1-0.1,0.2-0.2,0.3-0.3C164.2,147.5,164.1,147.5,164,147.6z"/>
		<path class="st34" d="M124.2,135.9c-0.3-0.1-0.4-0.3-0.4-0.6c0-2.3,0-4.6,0-6.8c0-0.1,0.1-0.3,0.2-0.4c10.1,0,20.1,0,30.2,0
			c0.1,0.1,0.2,0.3,0.2,0.4c0,2.3,0,4.6,0,6.8c0,0.3-0.2,0.5-0.4,0.6c-3.7,0-7.4,0-11.2,0C136.6,135.9,130.4,135.9,124.2,135.9z"/>
		<path class="st34" d="M154.2,115.1c0.3,0.2,0.2,0.5,0.2,0.8c0,2-0.1,4.1,0,6.1c0,1-0.5,0.9-1.1,0.9c-8.9,0-17.9,0-26.8,0
			c-0.7,0-1.4,0-2,0c-0.3,0-0.6-0.1-0.6-0.5c0-2.4,0-4.7,0.1-7.1c0-0.1,0.1-0.2,0.2-0.2C134.1,115.1,144.1,115.1,154.2,115.1z"/>
	</g>
	<g>
		<text transform="matrix(0.9978 0 0 1 10.7281 69.5574)" class="st22 st59 st60">5</text>
	</g>
	<g>
		<text transform="matrix(0.9978 0 0 1 49.2721 43.01)"><tspan x="0" y="0" class="st22 st59 st61">Gender </tspan><tspan x="0" y="37.3" class="st22 st59 st61">Equality</tspan></text>
	</g>
</g>
</svg>
