<?xml version="1.0" encoding="utf-8"?>
<!-- Generator: Adobe Illustrator 21.0.0, SVG Export Plug-In . SVG Version: 6.00 Build 0)  -->
<svg version="1.1" id="Layer_1" xmlns="http://www.w3.org/2000/svg" xmlns:xlink="http://www.w3.org/1999/xlink" x="0px" y="0px"
	 viewBox="0 0 198.7 145.7" style="enable-background:new 0 0 198.7 145.7;" xml:space="preserve">
<style type="text/css">
	.st0{fill:#FFFFFF;stroke:#ABAAAA;stroke-miterlimit:10;}
	.st1{fill:#BF8B2C;}
	.st2{fill:#C5202E;}
	.st3{fill:#FFFFFF;}
	.st4{fill:#FFFAF9;}
	.st5{fill:#FFFCFD;}
	.st6{fill:#E4253C;}
	.st7{fill:#FFFFFD;}
	.st8{fill:#29A74A;}
	.st9{fill:#4CA046;}
	.st10{fill:#FDFEFD;}
	.st11{fill:#DEA73A;}
	.st12{fill:#18496B;}
	.st13{fill:#FAFCFE;}
	.st14{fill:#01699E;}
	.st15{fill:#FDFEFF;}
	.st16{fill:#F8FAFB;}
	.st17{fill:#F7F9FA;}
	.st18{fill:#F7F7FA;}
	.st19{fill:#F6F7F9;}
	.st20{fill:#A7B1CA;}
	.st21{fill:#5CBA47;}
	.st22{fill:#FDFEFC;}
	.st23{fill:#F26A2C;}
	.st24{fill:#1C97D4;}
	.st25{fill:#FAFDFF;}
	.st26{fill:#DD1768;}
	.st27{fill:#FFFBFD;}
	.st28{fill:#F99D29;}
	.st29{fill:#FFFCFA;}
	.st30{fill:#407F44;}
	.st31{fill:#29BEE2;}
	.st32{fill:#FAC315;}
	.st33{fill:#FFFCF8;}
	.st34{fill:#FFFFFC;}
	.st35{fill:#FFFCF7;}
	.st36{fill:#EF402C;}
	.st37{fill:#A21C44;}
	.st38{fill:#DC3746;}
	.st39{fill:#FDC010;}
	.st40{fill-rule:evenodd;clip-rule:evenodd;fill:#E0E0DF;}
</style>
<rect x="141" y="1" transform="matrix(-1 -1.224647e-16 1.224647e-16 -1 338.34 145.0949)" class="st0" width="56.4" height="143.1"/>
<rect y="0.5" class="st24" width="143.7" height="144.7"/>
<path class="st3" d="M50.1,113.2c2.9-2.3,5.9-4.4,9.1-6.3c4.6-2.7,9.4-4.9,14.7-6c6.3-1.4,12.4-0.4,18.2,2.3
	c5.7,2.6,10.5,6.5,14.7,11.2c0.9,1,1.7,2.1,2.6,3.1c0.3,0.4,0.3,0.7,0,1.1c-5.5,6.9-11.9,12.5-20.3,15.5c-6.3,2.3-12.6,2.1-18.9,0
	c-7.2-2.4-13.5-6.2-19.4-10.8c-0.2-0.1-0.3-0.2-0.5-0.4c0,0-0.1,0-0.2-0.1c-1.4,2.5-3.1,4.8-5.1,6.8c-3.4,3.3-7.3,5.4-12.1,6
	c-0.3,0-0.6,0.1-0.9-0.2c-0.2-0.3,0.1-0.6,0.2-0.9c2.2-3.8,3.9-7.9,4.8-12.2c1-5,0.1-9.7-1.7-14.4c-0.9-2.3-1.9-4.5-3.2-6.6
	c-0.2-0.3-0.4-0.5-0.2-0.9c0.2-0.3,0.6-0.2,0.9-0.2c5.1,0.5,9.2,3,12.7,6.6C47.4,108.8,48.9,110.9,50.1,113.2z M88.7,110.3
	c-2.6,0-4.7,2.1-4.7,4.7c0,2.7,2.1,4.8,4.8,4.8c2.6,0,4.7-2.1,4.8-4.7C93.5,112.5,91.3,110.3,88.7,110.3z"/>
<path class="st25" d="M109.1,74.4c0.5,1.6-0.5,2.4-1.7,3.2c-4.2,2.7-8.4,2.4-12.6-0.1c-1-0.6-2-1.3-2.8-2.1c-0.5-0.6-0.9-0.5-1.4,0
	c-1.9,1.7-4,3-6.5,3.5c-3.6,0.8-6.9,0-10.1-1.7C73,76.6,71.9,76,71,75.2c-0.4-0.3-0.7-0.4-1.1,0c-2.5,2-5.3,3.4-8.5,3.9
	c-4.3,0.7-8-0.8-11.2-3.6c-0.8-0.7-0.7-0.7-1.5,0c-2.6,2.3-5.5,3.9-9,4c-3,0.1-5.5-1.1-7.7-3c-0.3-0.2-0.3-0.5-0.3-0.8
	c0-0.9,0-1.7,0-2.6c0-0.9,0.2-1,1-0.6c4.2,1.9,8.4,2.3,12.6,0.4c1.5-0.7,2.7-1.6,3.9-2.7c0.4-0.4,0.7-0.4,1.1,0
	c3,2.2,6.4,3.7,10.2,3.8c3.2,0.1,6.1-1,8.6-3.1c1.3-1.1,1.3-1,2.5,0c4.4,3.6,9.3,3.9,14.4,1.8c1.6-0.6,3.1-1.5,4.4-2.5
	c0.4-0.3,0.7-0.3,1.1,0.1c2.6,2.5,5.7,3.9,9.3,4c2.6,0.1,5-0.6,7.3-1.6c0.7-0.3,0.9-0.2,0.9,0.6C109.1,73.5,109.1,73.9,109.1,74.4z"
	/>
<path class="st25" d="M109.1,86.3c0.5,1.6-0.5,2.4-1.7,3.2c-4.4,2.8-8.6,2.4-12.9-0.3c-0.9-0.6-1.8-1.2-2.5-2
	c-0.4-0.4-0.7-0.5-1.2,0c-1.9,1.7-4,3-6.5,3.6c-3.7,0.8-7.1,0-10.3-1.7c-1.1-0.6-2.1-1.2-3-2c-0.4-0.3-0.7-0.4-1.1,0
	c-2.4,1.9-5.1,3.3-8.2,3.8c-4.3,0.7-8-0.5-11.2-3.3c-0.1-0.1-0.3-0.2-0.4-0.4c-0.4-0.5-0.7-0.4-1.2,0c-1.5,1.4-3.1,2.5-5,3.3
	c-4.1,1.6-7.8,1-11.3-1.7c-0.6-0.5-0.9-1-0.8-1.8c0.1-0.7,0-1.4,0-2.1c0-0.8,0.3-0.9,0.9-0.6c2,1,4.1,1.6,6.4,1.6
	c3.9,0.2,7.3-1.3,10.1-3.9c0.5-0.4,0.7-0.4,1.2,0c3.4,2.4,7,4,11.3,3.7c3.1-0.2,5.8-1.5,8-3.6c0.5-0.5,0.8-0.5,1.3,0
	c2.4,2.3,5.3,3.6,8.7,3.6c3,0.1,5.8-0.9,8.5-2.4c0.8-0.4,1.5-0.9,2.2-1.4c0.5-0.4,0.7-0.3,1.2,0c2,1.8,4.2,3.1,6.9,3.6
	c3.3,0.7,6.4,0.1,9.5-1.3c1-0.5,1.2-0.3,1.2,0.8C109.1,85.5,109.1,85.9,109.1,86.3z"/>
<g>
	<g>
		<path class="st3" d="M15.9,34V14.7l-2.8,1.4v-3.7c0.6-0.4,1.3-0.8,2.1-1.3c0.8-0.5,1.3-1,1.6-1.3H20V34H15.9z"/>
		<path class="st3" d="M30.6,34v-5.6h-6v-3.8l5.1-14.9h4.6v15.1h1.9v3.6h-1.9V34H30.6z M27.6,24.7h2.9V14.6L27.6,24.7z"/>
	</g>
</g>
<g>
	<g>
		<path class="st3" d="M44,22.1V10.8h2.5v9.6h2.6v1.7H44z"/>
		<path class="st3" d="M50.2,22.1V10.8h2.5v11.3H50.2z"/>
		<path class="st3" d="M54.4,22.1V10.8h4.9v1.7h-2.4v2.9h2.1v1.8h-2.1v5H54.4z"/>
		<path class="st3" d="M60.4,22.1V10.8h5.1v1.7h-2.6v2.8h2V17h-2v3.4h2.6v1.7H60.4z"/>
		<path class="st3" d="M70.2,22.1V10.8h2.9c0.4,0,0.8,0,1.1,0.1c0.3,0,0.7,0.1,1,0.3s0.6,0.3,0.8,0.5c0.2,0.2,0.4,0.5,0.5,0.9
			c0.1,0.3,0.2,0.7,0.2,1.2c0,0,0,0.1,0,0.1c0,1.3-0.6,2.1-1.7,2.3c0.7,0.1,1.1,0.4,1.5,0.8s0.5,1.1,0.5,1.9c0,0,0,0.1,0,0.1
			c0,1.1-0.3,1.9-0.9,2.5c-0.6,0.5-1.4,0.8-2.6,0.8H70.2z M72.7,15.3h0.5c0.5,0,0.9-0.1,1.1-0.4s0.3-0.6,0.3-1.1
			c0-0.9-0.5-1.3-1.5-1.3h-0.4V15.3z M72.7,20.3h0.5c0.5,0,0.9-0.1,1.1-0.4c0.2-0.3,0.3-0.7,0.3-1.3c0-0.6-0.1-1.1-0.3-1.4
			s-0.6-0.4-1.2-0.4h-0.5V20.3z"/>
		<path class="st3" d="M78.4,22.1V10.8h5.1v1.7h-2.6v2.8h2V17h-2v3.4h2.6v1.7H78.4z"/>
		<path class="st3" d="M84.7,22.1V10.8h2.5v9.6h2.6v1.7H84.7z"/>
		<path class="st3" d="M94,22.3c-0.6,0-1.2-0.1-1.6-0.2c-0.4-0.2-0.8-0.4-1.1-0.7c-0.3-0.3-0.5-0.7-0.6-1.2c-0.1-0.4-0.2-1-0.2-1.6
			v-4.2c0-0.6,0.1-1.1,0.2-1.6c0.1-0.4,0.3-0.8,0.6-1.2s0.6-0.6,1.1-0.7s1-0.2,1.6-0.2c1.2,0,2.1,0.3,2.6,0.9
			c0.5,0.6,0.8,1.6,0.8,2.8v4.2c0,1.2-0.3,2.2-0.8,2.8C96.1,21.9,95.2,22.3,94,22.3z M93.6,20.4c0.1,0.1,0.2,0.1,0.4,0.1
			c0.1,0,0.3,0,0.4-0.1c0.1-0.1,0.2-0.1,0.3-0.2c0.1-0.1,0.1-0.2,0.1-0.3c0-0.1,0.1-0.2,0.1-0.4c0-0.1,0-0.2,0-0.4v-5.4
			c0-0.2,0-0.3,0-0.4c0-0.1,0-0.2-0.1-0.4c0-0.1-0.1-0.2-0.1-0.3c-0.1-0.1-0.1-0.1-0.3-0.2c-0.1-0.1-0.2-0.1-0.4-0.1
			c-0.2,0-0.3,0-0.4,0.1c-0.1,0.1-0.2,0.1-0.2,0.2c-0.1,0.1-0.1,0.2-0.1,0.3c0,0.1-0.1,0.2-0.1,0.4s0,0.2,0,0.4v5.4
			c0,0.2,0,0.3,0,0.4c0,0.1,0,0.2,0.1,0.4c0,0.1,0.1,0.2,0.1,0.3C93.4,20.3,93.5,20.3,93.6,20.4z"/>
		<path class="st3" d="M99.8,22.1l-1.4-11.3h2.1l0.7,6.6l0.9-6.6h1.7l0.9,6.5l0.7-6.5h2.1l-1.4,11.3h-2.2l-1-6.8l-0.9,6.8H99.8z"/>
		<path class="st3" d="M44.9,38.9l-1.4-11.3h2.1l0.7,6.6l0.9-6.6h1.7l0.9,6.5l0.7-6.5h2.1l-1.4,11.3H49l-1-6.8l-0.9,6.8H44.9z"/>
		<path class="st3" d="M53,38.9l2.1-11.3h2.8l2.1,11.3h-2.3l-0.4-2.4h-1.7l-0.4,2.4H53z M55.9,35h1.2l-0.6-4.4L55.9,35z"/>
		<path class="st3" d="M61.9,38.9v-9.5h-1.7v-1.9h6v1.9h-1.7v9.5H61.9z"/>
		<path class="st3" d="M67.1,38.9V27.6h5.1v1.7h-2.6v2.8h2v1.7h-2v3.4h2.6v1.7H67.1z"/>
		<path class="st3" d="M73.4,38.9V27.6h3.1c0.5,0,0.9,0,1.3,0.1s0.7,0.2,1,0.3s0.6,0.3,0.8,0.5s0.4,0.5,0.5,0.9s0.2,0.8,0.2,1.2
			c0,0.7-0.1,1.3-0.3,1.8s-0.6,0.8-1.1,1.1l1.6,5.5h-2.6l-1.2-5.1h-0.7v5.1H73.4z M75.9,32.4h0.6c0.5,0,0.9-0.1,1.1-0.4
			c0.2-0.3,0.3-0.7,0.3-1.2c0-0.5-0.1-0.9-0.3-1.2c-0.2-0.3-0.5-0.4-1-0.4h-0.8V32.4z"/>
	</g>
</g>
<g>
	<circle class="st40" cx="162.6" cy="72.9" r="6.2"/>
	<circle class="st40" cx="180.9" cy="72.9" r="6.2"/>
</g>
</svg>
