<?xml version="1.0" encoding="utf-8"?>
<!-- Generator: Adobe Illustrator 21.0.0, SVG Export Plug-In . SVG Version: 6.00 Build 0)  -->
<svg version="1.1" xmlns="http://www.w3.org/2000/svg" xmlns:xlink="http://www.w3.org/1999/xlink" x="0px" y="0px"
	 viewBox="0 0 199.9 201.4" style="enable-background:new 0 0 199.9 201.4;" xml:space="preserve">
<style type="text/css">
	.st0{fill:#303030;}
	.st1{fill:#F4F4F4;}
	.st2{fill:#FCFCFC;}
	.st3{fill:#EEF7F9;}
	.st4{fill:#376699;}
	.st5{fill:#080808;}
	.st6{fill:#2A5A8E;}
	.st7{fill:#F5FBFB;}
	.st8{fill:#155DAC;}
	.st9{fill:#165EAC;}
	.st10{fill:#155EAC;}
	.st11{fill:#F8FBFC;}
	.st12{fill:#F1F8F9;}
	.st13{fill:#F2F9FA;}
	.st14{fill:#2B619E;}
	.st15{fill:#1E5FA6;}
	.st16{fill:#165EAB;}
	.st17{fill:#FDFDFD;}
	.st18{fill:#1A5EA9;}
	.st19{fill:#D9D9D9;}
	.st20{fill:#DDDDDD;}
	.st21{fill:none;stroke:#ADADAD;stroke-miterlimit:10;}
	.st22{fill:#FFFFFF;}
	.st23{fill:#DC3545;}
	.st24{fill:#FCFDFC;}
	.st25{fill:#F2CD41;}
	.st26{fill:none;stroke:#A3A3A3;stroke-miterlimit:10;}
	.st27{fill:#28A745;}
	.st28{fill:none;stroke:#28A745;stroke-width:6;stroke-miterlimit:10;}
	.st29{fill:#F5682D;}
	.st30{fill:none;stroke:#F2CD41;stroke-width:6;stroke-miterlimit:10;}
	.st31{fill-rule:evenodd;clip-rule:evenodd;fill:#DFDFDF;}
	.st32{fill:none;stroke:#C4C4C4;stroke-miterlimit:10;}
	.st33{fill:#FFFFFC;}
	.st34{fill:#FFFDFD;}
	.st35{fill:#FFFAF9;}
	.st36{fill:#FFFCFC;}
	.st37{fill:#ED2F24;}
	.st38{fill:#FFFCF8;}
	.st39{fill:#FFFFFB;}
	.st40{fill:#FFFCF7;}
	.st41{fill:#FFFBFC;}
	.st42{fill:#FFFCFA;}
	.st43{fill:#FCFDFF;}
	.st44{fill:#F9F9FA;}
	.st45{fill:#FAFBFD;}
	.st46{fill:#F7F9FA;}
	.st47{fill:#F7F7FA;}
	.st48{fill:#F6F7F9;}
	.st49{fill:#A7B0CA;}
	.st50{fill:#03558A;}
	.st51{fill:#DFDFDF;}
	.st52{fill:#FAFDFF;}
	.st53{fill:#FCFDFB;}
	.st54{fill:none;stroke:#AAAAAA;stroke-miterlimit:10;}
	.st55{fill:none;stroke:#F2CD41;stroke-width:4;stroke-miterlimit:10;}
	.st56{fill:none;stroke:#28A745;stroke-width:4;stroke-miterlimit:10;}
	.st57{fill:none;stroke:#DC3545;stroke-width:4;stroke-miterlimit:10;}
	.st58{fill:none;stroke:#F5682D;stroke-width:4;stroke-miterlimit:10;}
	.st59{font-family:'Anton-Regular';}
	.st60{font-size:59.6038px;}
	.st61{font-size:23.5932px;}
	.st62{opacity:0.19;}
	.st63{fill:#279B48;}
	.st64{fill:#C32034;}
	.st65{fill:#EF412A;}
	.st66{fill:#FDB715;}
	.st67{fill:#8F1839;}
	.st68{fill:#F36D26;}
	.st69{fill:#F99E27;}
	.st70{fill:#CE8D2A;}
	.st71{fill:#48773F;}
	.st72{fill:#5EBB47;}
	.st73{fill:#00558B;}
	.st74{fill:#1E3768;}
	.st75{fill:#047DBC;}
	.st76{fill:#E01684;}
	.st77{fill:#00AED8;}
	.st78{fill:#D3A12A;}
	.st79{fill:#EA1E2F;}
	.st80{fill:#23AA61;}
	.st81{fill:#6A71AF;}
	.st82{fill:#F29228;}
	.st83{fill:#3897D3;}
	.st84{fill:#814891;}
	.st85{fill:none;stroke:#FFFFFF;stroke-width:2;stroke-miterlimit:10;}
	.st86{fill:#E5243B;}
	.st87{fill:#DDA63A;}
	.st88{fill:#4C9F38;}
	.st89{fill:#C5192D;}
	.st90{fill:#FF3A21;}
	.st91{fill:#26BDE2;}
	.st92{fill:#FCC30B;}
	.st93{fill:#A21942;}
	.st94{fill:#FD6925;}
	.st95{fill:#DD1367;}
	.st96{fill:#FD9D24;}
	.st97{fill:#BF8B2E;}
	.st98{fill:#3F7E44;}
	.st99{fill:#0A97D9;}
	.st100{fill:#56C02B;}
	.st101{fill:#00689D;}
	.st102{fill:#19486A;}
	.st103{fill:#207A46;}
	.st104{fill-rule:evenodd;clip-rule:evenodd;fill:#4BA048;stroke:#282828;stroke-width:2;stroke-miterlimit:22.9256;}
	.st105{fill-rule:evenodd;clip-rule:evenodd;fill:#F2CD41;stroke:#282828;stroke-width:2;stroke-miterlimit:10;}
	.st106{fill-rule:evenodd;clip-rule:evenodd;fill:#DFDFDF;stroke:#282828;stroke-width:2;stroke-miterlimit:10;}
	.st107{fill-rule:evenodd;clip-rule:evenodd;fill:#DC3545;stroke:#282828;stroke-width:2;stroke-miterlimit:10;}
	.st108{fill-rule:evenodd;clip-rule:evenodd;fill:#F5682D;stroke:#282828;stroke-width:2;stroke-miterlimit:10;}
	.st109{fill:#878787;}
	.st110{fill:#444444;}
	.st111{fill:#4BA048;}
	.st112{fill:#24BFE6;}
	.st113{fill:#01ACD7;}
	.st114{fill:#FAA028;}
	.st115{fill:#F89E2A;}
	.st116{fill:#F89F2B;}
	.st117{fill:#F89D29;}
	.st118{fill:#F89D28;}
	.st119{fill:#1E96D4;}
	.st120{fill:#067DBA;}
	.st121{fill:#174A6D;}
	.st122{fill:#203767;}
	.st123{fill:#213868;}
	.st124{fill:#15699F;}
	.st125{fill:#61BD45;}
	.st126{fill:#438145;}
	.st127{fill:#45794E;}
	.st128{fill:#46794E;}
	.st129{fill:#497B50;}
	.st130{fill:#4B7C52;}
	.st131{fill:#4C7D52;}
	.st132{fill:#4D7E54;}
	.st133{fill:#C89930;}
	.st134{fill:#DE1667;}
	.st135{fill:#F16B2D;}
	.st136{fill:#F16B2C;}
	.st137{fill:#A61B45;}
	.st138{fill:#FBC51A;}
	.st139{fill:#FAC417;}
	.st140{fill:#F9C315;}
	.st141{fill:#ED2540;}
	.st142{fill:#E6B733;}
	.st143{fill:#C92330;}
	.st144{fill:#EE432B;}
	.st145{fill:#ED3724;}
	.st146{fill:#ED2C24;}
	.st147{fill:#ED2924;}
	.st148{fill:#EE3F2B;}
	.st149{opacity:0.8;clip-path:url(#SVGID_6_);}
	.st150{fill:#2C6829;}
	.st151{fill:none;stroke:#11212E;stroke-miterlimit:10;}
	.st152{fill:#11212E;}
	.st153{fill:none;stroke:#444444;stroke-miterlimit:10;}
	.st154{fill:none;}
	.st155{fill:none;stroke:#9B9B9B;stroke-miterlimit:10;}
	.st156{fill:none;stroke:#8E8E8E;stroke-miterlimit:10;}
	.st157{fill:none;stroke:#11212E;stroke-width:3;stroke-linecap:round;stroke-linejoin:round;stroke-miterlimit:10;}
	.st158{fill:#FFFFFF;stroke:#777777;stroke-miterlimit:10;}
	.st159{fill:#FFFFFF;stroke:#5B5B5B;stroke-miterlimit:10;}
	.st160{fill:none;stroke:#AFAFAF;stroke-miterlimit:10;}
	.st161{fill:#262626;}
	.st162{fill:none;stroke:#5B5B5B;stroke-linecap:round;stroke-linejoin:round;}
	.st163{fill:#5B5B5B;}
	.st164{fill:#353535;}
	.st165{opacity:0.8;clip-path:url(#SVGID_10_);}
</style>
<g id="_x7B_ref_x7D_">
</g>
<g id="Layer_2">
	<g>
		<path class="st43" d="M67.7,156.9c0.4,0.1,0.9,0.1,1.3,0.2c0.1,0.1,0.1,0.1,0.2,0c0.2,0,0.4,0,0.6,0l0.1,0l0.1,0
			c2,0.1,4.1,0,6.1-0.5c1.5-0.4,2.8-1,4.1-1.9c1.6-1.1,3.1-2.2,4.7-3.1c1.5-0.9,3-1.6,4.7-1.8c0.2,0,0.4-0.1,0.7-0.2
			c-0.8-0.2-1.5-0.3-2.1-0.4c-4.4-0.9-7.8-3.4-10.3-7.2c-1.8-2.9-2.9-6-3.6-9.3c-0.7-3.1-1.3-6.2-2.4-9.2c-0.4-1.2-0.9-2.4-1.5-3.5
			c-0.9-1.5-2.1-2.7-3.7-3.6c-0.1-0.1-0.3-0.1-0.4-0.3c0.9-0.1,1.7-0.1,2.6-0.2c7.4-0.3,13.8,2.1,19.5,6.6c1.6,1.2,3,2.6,4.4,4
			c2,2,4.2,3.8,6.7,5c4.7,2.3,9.3,2,13.8-0.8c1.1-0.7,2.1-1.5,3-2.3c1.7-1.6,3.5-3.2,5.5-4.6c1.1-0.8,2.3-1.5,3.6-1.9
			c2.4-0.9,4.2-0.4,6,1.5c0.8,0.8,1.5,1.6,2.4,2.4c0.3-0.1,0.2-0.3,0.3-0.5c0.7-2.6,2.1-4.7,3.8-6.6c1-1.1,2-2.1,3-3.1
			c0.7-0.8,1.4-1.6,2.1-2.5c0.5-0.7,0.5-0.7,1.3-0.2c0,0.3-0.3,0.6-0.5,0.8c-1,1.4-2.3,2.7-3.5,3.9c-1,1-1.9,2-2.8,3.1
			c-1.2,1.6-2.1,3.3-2.6,5.3c-0.1,0.5,0,0.8,0.4,1.1c0.8,0.6,1.7,1.2,2.5,2c-0.4,0-0.9,0-1.3,0c-0.4,0-0.8,0-1.2,0
			c-0.7,0-0.7,0.1-0.7,0.7c0.1,1.8,0.5,3.6,1,5.4c0.1,0.5,0.3,0.9,0.4,1.4c-0.1,0.2-0.3,0.2-0.5,0.2c-0.4,0.1-0.6-0.1-0.7-0.5
			c-0.4-1.5-0.8-3-1-4.5c-0.1-0.6-0.2-1.2-0.2-1.9c0-0.6,0-0.6-0.6-0.5c-4.4,0.9-7.6,2.7-8.7,8.2c-0.4,2-0.5,4-0.4,6
			c0.1,2.8-0.2,5.6-1.1,8.3c-1.4,4.1-4,7.2-7.5,9.6c-3.2,2.1-6.7,3.4-10.3,4.4c-1.5,0.4-2.9,0.7-4.4,0.8c-0.4,0.1-0.5,0.2-0.5,0.6
			c0,2.8,0,5.5,0,8.3c0,0.6,0,0.6,0.6,0.6c3,0.1,5.9,0.1,8.9,0.2c1.5,0,2.9,0,4.4,0.1c1.4,0.1,2.8-0.1,4.1-0.3
			c2.4-0.3,4.8-0.5,7.2-0.8c0.7-0.1,0.7-0.1,0.7-0.8c0-1.3,0-2.6,0-3.9c0-1.2,0.5-1.7,1.7-1.7c5.2,0,10.3,0,15.5,0
			c1.2,0,1.7,0.5,1.7,1.7c0,5.1,0,10.3,0,15.4c0,1.2-0.5,1.7-1.7,1.7c-5.2,0-10.3,0-15.5,0c-1.2,0-1.7-0.5-1.7-1.7
			c0-1.3,0-2.6,0-3.9c0-0.7,0-0.7-0.7-0.8c-2.2-0.3-4.4-0.4-6.6-0.7c-4-0.6-8-0.2-12-0.1c-11.9,0.2-23.8,0.5-35.7,0.8
			c-2.5,0.1-5,0.1-7.5,0.2c-0.1,0-0.3,0-0.4,0c-0.6,0-0.6,0-0.6-0.6c0-0.1,0-0.2,0-0.3c0-1.5,0-2.9,0-4.4c0-1.1,0-0.9,1-0.9
			c4.7,0.1,9.4,0.2,14.1,0.3c4.5,0.1,8.9,0.2,13.4,0.3c0.7,0,0.7,0,0.7-0.6c0-2.6,0-5.1,0-7.7c0-0.6,0-0.6-0.7-0.7
			c-2.4-0.2-4.7-0.7-7-1.3c-2.9-0.8-5.5-2.1-8-3.7c-0.9-0.5-1.7-1.1-2.6-1.6c-1.9-1.2-3.8-2.3-5.7-3.2C67.6,157,67.6,157,67.7,156.9
			z M97.5,171.6c0-1.4,0-2.7,0-4.1c0-0.4-0.1-0.5-0.5-0.5c-0.8,0-1.6,0.1-2.5,0.1c-0.4,0-0.5,0.2-0.5,0.6c0,2.6,0,5.2,0,7.9
			c0,0.3,0.1,0.5,0.5,0.5c0.8,0,1.6,0,2.5,0c0.4,0,0.5-0.1,0.5-0.5C97.5,174.3,97.5,173,97.5,171.6z"/>
		<path class="st44" d="M135.4,162.5c2.9,0,5.7,0,8.6,0c1.3,0,2.3,0.7,2.5,1.9c0.3,1.5-0.7,2.9-2.2,3c-0.2,0-0.5,0-0.7,0
			c-5.5,0-11,0-16.4,0c-0.4,0-0.8,0-1.2-0.1c-1.2-0.4-1.9-1.4-1.7-2.7c0.1-1.2,1.1-2.1,2.3-2.1c0.6,0,1.3,0,1.9,0
			C130.8,162.5,133.1,162.5,135.4,162.5z"/>
		<path class="st45" d="M135.4,189.6c2.9,0,5.8,0,8.6,0c0.9,0,2.1,0.6,2.4,1.8c0.4,1.5-0.6,3-2.1,3.1c-0.2,0-0.5,0-0.7,0
			c-5.5,0-11.1,0-16.6,0c-0.4,0-0.8,0-1.2-0.1c-1.2-0.4-1.8-1.5-1.6-2.7c0.2-1.1,1.1-2,2.3-2C129.5,189.6,132.5,189.6,135.4,189.6z"
			/>
		<path class="st46" d="M55.5,178.5c0-0.7,0-1.4,0-2.1c0-1.6,0.9-2.5,2.5-2.5c0.1,0,0.3,0,0.4,0c1.4-0.1,2.4,0.8,2.5,2.2
			c0.1,1.6,0.1,3.2,0,4.7c-0.1,1.6-1.2,2.4-2.5,2.2c-0.2,0-0.4,0-0.6,0c-1.2,0.1-2.2-0.9-2.3-2.2C55.4,180.1,55.5,179.3,55.5,178.5
			C55.5,178.5,55.5,178.5,55.5,178.5z"/>
		<path class="st47" d="M151.5,105.9c0,0.7-0.2,1.6-0.6,2.5c-0.5,1.3-1.4,2.2-2.7,2.7c-1,0.4-2.1,0.6-3.1,0.6
			c-0.3,0-0.5-0.1-0.5-0.4c0-1.5,0.2-2.9,1-4.1c1-1.5,2.5-2.1,4.2-2.4c0.3,0,0.5,0,0.8-0.1C151.5,104.6,151.5,104.7,151.5,105.9z"/>
		<path class="st47" d="M138,105.4c1.3,0.8,2.3,1.7,3,2.9c0.4,0.8,0.6,1.7,0.5,2.6c-0.1,1.2-0.6,2.2-1.2,3.2
			c-0.1,0.2-0.3,0.4-0.5,0.2c-1.6-1.1-3.1-2.4-3.2-4.5C136.4,108.2,137.1,106.8,138,105.4z"/>
		<path class="st46" d="M134.9,120.1c-3.8-2.1-4.6-5.5-2-9C136.9,113.2,137.3,116.7,134.9,120.1z"/>
		<path class="st48" d="M147,119.3c-1.6-0.1-2.8-0.7-3.9-1.7c-0.2-0.2-0.2-0.3,0-0.5c1-1.1,2.1-2,3.5-2.3c1-0.2,1.8,0.1,2.7,0.4
			c0.6,0.3,1.2,0.7,1.7,1.1c0.1,0.1,0.3,0.3,0.1,0.5C150,118.2,148.7,119.2,147,119.3z"/>
		<path class="st47" d="M142.5,125.1c-0.7,0-1.4-0.2-2.1-0.6c-0.8-0.4-1.5-1.1-2-1.8c-0.2-0.3-0.3-0.5,0.1-0.7
			c0.8-0.6,1.6-1,2.6-1.3c1.1-0.3,2.1-0.2,3.1,0.4c0.9,0.5,1.5,1.1,2.2,1.9c0.2,0.2,0.2,0.4,0,0.6
			C145.3,124.4,143.7,125.1,142.5,125.1z"/>
		<path class="st49" d="M67.7,156.9c-0.1,0.1-0.1,0.2-0.2,0.2c-0.4-0.1-0.8-0.2-1.1-0.5l0,0C66.8,156.7,67.3,156.7,67.7,156.9z"/>
		<path class="st49" d="M66.3,156.6c-0.1-0.1-0.1-0.1-0.2-0.2c-0.1,0-0.2-0.1-0.3,0.1c0,0.2,0.1,0.2,0.3,0.2
			C66.2,156.6,66.3,156.6,66.3,156.6L66.3,156.6z"/>
		<path class="st49" d="M65.2,156.4C65.2,156.4,65.2,156.4,65.2,156.4C65.2,156.4,65.2,156.3,65.2,156.4
			C65.2,156.3,65.1,156.3,65.2,156.4z"/>
		<path class="st49" d="M70,157.1L70,157.1l-0.2,0C69.9,157.1,70,157.1,70,157.1z"/>
		<path class="st49" d="M69.2,157.1c-0.1,0.1-0.2,0-0.2,0C69.1,157,69.2,157,69.2,157.1z"/>
	</g>
	<g>
		<text transform="matrix(0.7362 0 0 1 9.2274 65.7066)" class="st22 st59 st60">16</text>
	</g>
	<g>
		<text transform="matrix(0.9978 0 0 1 54.661 33.7784)"><tspan x="0" y="0" class="st22 st59 st61">Peace and</tspan><tspan x="0" y="28.3" class="st22 st59 st61">Justice Strong </tspan><tspan x="0" y="56.6" class="st22 st59 st61">Institutions</tspan></text>
	</g>
</g>
</svg>
