<?xml version="1.0" encoding="utf-8"?>
<!-- Generator: Adobe Illustrator 21.0.0, SVG Export Plug-In . SVG Version: 6.00 Build 0)  -->
<svg version="1.1" id="Layer_1" xmlns="http://www.w3.org/2000/svg" xmlns:xlink="http://www.w3.org/1999/xlink" x="0px" y="0px"
	 viewBox="0 0 199.9 145.1" style="enable-background:new 0 0 199.9 145.1;" xml:space="preserve">
<style type="text/css">
	.st0{fill:#FFFFFF;stroke:#ABAAAA;stroke-miterlimit:10;}
	.st1{fill:#BF8B2C;}
	.st2{fill:#C5202E;}
	.st3{fill:#FFFFFF;}
	.st4{fill:#FFFAF9;}
	.st5{fill:#FFFCFD;}
	.st6{fill:#E4253C;}
	.st7{fill:#FFFFFD;}
	.st8{fill:#29A74A;}
	.st9{fill:#4CA046;}
	.st10{fill:#FDFEFD;}
	.st11{fill:#DEA73A;}
	.st12{fill:#18496B;}
	.st13{fill:#FAFCFE;}
	.st14{fill:#01699E;}
	.st15{fill:#FDFEFF;}
	.st16{fill:#F8FAFB;}
	.st17{fill:#F7F9FA;}
	.st18{fill:#F7F7FA;}
	.st19{fill:#F6F7F9;}
	.st20{fill:#A7B1CA;}
	.st21{fill:#5CBA47;}
	.st22{fill:#FDFEFC;}
	.st23{fill:#F26A2C;}
	.st24{fill:#1C97D4;}
	.st25{fill:#FAFDFF;}
	.st26{fill:#DD1768;}
	.st27{fill:#FFFBFD;}
	.st28{fill:#F99D29;}
	.st29{fill:#FFFCFA;}
	.st30{fill:#407F44;}
	.st31{fill:#29BEE2;}
	.st32{fill:#FAC315;}
	.st33{fill:#FFFCF8;}
	.st34{fill:#FFFFFC;}
	.st35{fill:#FFFCF7;}
	.st36{fill:#EF402C;}
	.st37{fill:#A21C44;}
	.st38{fill:#DC3746;}
	.st39{fill:#FDC010;}
	.st40{fill-rule:evenodd;clip-rule:evenodd;fill:#E0E0DF;}
</style>
<rect x="141" y="1" transform="matrix(-1 -1.224647e-16 1.224647e-16 -1 338.34 145.0949)" class="st0" width="56.4" height="143.1"/>
<rect y="0.5" class="st21" width="143" height="144.1"/>
<path class="st3" d="M55.1,104c-2.7,0-5.4,0-8.1,0c-3.9,0-7.3-3.3-7.7-7.1c-0.2-2.3,0.4-4.4,1.9-6.2c0.2-0.3,0.1-0.3-0.1-0.5
	c-3.7-2.5-4.6-7.4-1.9-10.9c1.5-1.9,3.5-2.9,5.9-2.9c0.5,0,0.5-0.2,0.6-0.6c0.7-4.3,3.2-7.2,7.3-8.4c5.9-1.8,12,2.3,12.9,8.4
	c0.3,1.9,0,3.7-0.7,5.5c-0.1,0.3-0.1,0.4,0.2,0.5c4.8,1.5,7.7,4.6,8.4,9.6c0.9,6.6-3.9,12-9.8,12.7c-1.3,0.2-2.6,0.1-3.8,0.1
	C58.5,104.1,56.8,104.1,55.1,104C55.1,104,55.1,104,55.1,104z"/>
<path class="st7" d="M70.4,135.7c-11.5,0-23,0-34.4,0c-0.7,0-0.7,0-0.7-0.7c0-1.2,0-2.4,0-3.6c0-0.6,0-0.6,0.6-0.6
	c4.1,0,8.1,0,12.2,0c18.9,0,37.7,0,56.6,0c0.8,0,0.8,0,0.8,0.8c0,1.2,0,2.3,0,3.5c0,0.6,0,0.6-0.6,0.6
	C93.3,135.7,81.9,135.7,70.4,135.7z"/>
<path class="st3" d="M70.4,127.3c-11.5,0-22.9,0-34.4,0c-0.8,0-0.8,0-0.8-0.8c0-1.1,0-2.3,0-3.4c0-0.8,0-0.8,0.8-0.8
	c10.1,0,20.2,0,30.3,0c12.8,0,25.6,0,38.4,0c0.7,0,0.7,0,0.7,0.7c0,1.2,0,2.3,0,3.5c0,0.7,0,0.7-0.7,0.7
	C93.3,127.3,81.8,127.3,70.4,127.3z"/>
<path class="st10" d="M85.8,93c2.2,0,4.1,0.8,5.7,2c0.3,0.2,0.5,0.2,0.8,0c1.6-1.1,3.3-1.9,5.2-2c2.4-0.1,4.4,0.8,6.1,2.4
	c0.3,0.3,0.3,0.9,0,1.2c-0.3,0.3-0.7,0.2-1,0c-0.6-0.4-1.4-0.6-2.1-0.6c-2.9-0.2-5.3,0.8-7.5,2.6c0,0-0.1,0.1-0.1,0.1
	c-0.8,0.7-1,0.7-1.8,0c-1.5-1.3-3.2-2.2-5.2-2.6c-1.2-0.2-2.4-0.3-3.6,0c-0.3,0.1-0.6,0.2-0.9,0.4c-0.3,0.2-0.7,0.4-1.1,0.1
	c-0.3-0.3-0.2-1,0.1-1.3c1.4-1.3,3.1-2.1,5-2.3C85.5,93,85.7,93,85.8,93z"/>
<path class="st22" d="M54.2,112.4c0-1.7,0-3.3,0-5c0-0.4,0.1-0.6,0.6-0.6c1.2,0,2.5,0,3.7,0c0.4,0,0.6,0.1,0.6,0.6
	c0,3.3,0,6.6,0,9.9c0,0.4-0.1,0.6-0.6,0.6c-1.2,0-2.5,0-3.7,0c-0.4,0-0.6-0.1-0.6-0.6C54.2,115.7,54.2,114,54.2,112.4z"/>
<path class="st10" d="M78,75.5c1.6,0,3,0.5,4.3,1.3c0.3,0.2,0.4,0.2,0.7,0c1.5-1.2,3.1-1.9,5-1.9c1.7,0,3.1,0.7,4.3,1.7
	c0.3,0.3,0.4,0.8,0.2,1.1c-0.2,0.3-0.6,0.3-1,0.1c-1-0.5-2-0.4-3-0.3c-1.8,0.3-3.3,1.1-4.6,2.4c-0.1,0.1-0.2,0.2-0.3,0.3
	c-0.5,0.5-0.8,0.5-1.4,0.1c-1.7-1.4-3.7-2.1-5.9-2c-0.8,0-1.7,0.2-2.4,0.7c-0.3,0.2-0.6,0.2-0.9-0.1c-0.2-0.3-0.2-0.9,0.1-1.2
	c1-1.1,2.2-1.8,3.7-2.1C77.2,75.6,77.6,75.5,78,75.5z"/>
<path class="st10" d="M90.2,66.9c1.8,0,3.2,0.9,4.3,2.2c0.3,0.3,0.5,0.4,0.9,0.3c1.9-0.6,3.7-0.4,5.3,0.9c0.5,0.4,0.9,1,1.3,1.6
	c0.2,0.4,0.1,0.9-0.2,1.1c-0.4,0.2-0.7,0.1-1-0.2c-0.7-0.7-1.6-0.9-2.5-1c-1.3-0.2-2.5,0.1-3.7,0.7c-0.7,0.3-0.9,0.2-1.3-0.4
	c-1-1.6-2.4-2.7-4.3-3c-0.4-0.1-0.7-0.1-1.1,0c-0.3,0.1-0.7,0.1-0.9-0.3c-0.2-0.3,0-0.8,0.4-1C88.2,67.2,89.3,66.9,90.2,66.9z"/>
<g>
	<g>
		<path class="st3" d="M19.8,34V14.7l-2.6,1.4v-3.7c0.6-0.4,1.3-0.8,2-1.3c0.7-0.5,1.2-1,1.5-1.3h3.1V34H19.8z"/>
		<path class="st3" d="M33.7,34.4c-0.8,0-1.5-0.1-2.1-0.4c-0.6-0.2-1.1-0.6-1.4-1c-0.4-0.4-0.7-1-0.9-1.6c-0.2-0.7-0.4-1.3-0.4-2.1
			s-0.1-1.6-0.1-2.5h3.8c0,1.4,0.1,2.5,0.3,3c0.2,0.5,0.5,0.8,1,0.8c0,0,0.1,0,0.1,0c0.2,0,0.3,0,0.4-0.1s0.2-0.2,0.3-0.3
			s0.2-0.3,0.2-0.4c0.1-0.1,0.1-0.3,0.1-0.6s0.1-0.5,0.1-0.7c0-0.2,0-0.5,0-0.9s0-0.7,0-1s0-0.6,0-1.1c0-0.7,0-1.2-0.1-1.7
			s-0.1-0.9-0.2-1.3s-0.2-0.7-0.5-0.9s-0.5-0.3-0.8-0.3c-0.8,0-1.3,0.7-1.5,2.2h-3.4l0.3-14h8.9v4.2h-5.7l-0.2,5
			c0.2-0.3,0.5-0.5,0.9-0.7c0.4-0.2,0.9-0.3,1.4-0.4c0.2,0,0.3,0,0.5,0c1.2,0,2.1,0.6,2.8,1.8c0.8,1.4,1.1,3.4,1.1,6
			c0,0.9,0,1.8-0.1,2.5c-0.1,0.7-0.1,1.4-0.3,2.1c-0.1,0.7-0.3,1.3-0.6,1.8c-0.2,0.5-0.6,1-0.9,1.3c-0.4,0.4-0.8,0.7-1.4,0.9
			C35,34.3,34.4,34.4,33.7,34.4z"/>
	</g>
</g>
<g>
	<g>
		<path class="st3" d="M47.2,22.1V10.8h2.5v9.6h2.6v1.7H47.2z"/>
		<path class="st3" d="M53.4,22.1V10.8h2.5v11.3H53.4z"/>
		<path class="st3" d="M57.6,22.1V10.8h4.9v1.7h-2.4v2.9h2.1v1.8h-2.1v5H57.6z"/>
		<path class="st3" d="M63.6,22.1V10.8h5.1v1.7h-2.6v2.8h2V17h-2v3.4h2.6v1.7H63.6z"/>
		<path class="st3" d="M76.7,22.3c-0.6,0-1.2-0.1-1.6-0.2c-0.4-0.2-0.8-0.4-1.1-0.7c-0.3-0.3-0.5-0.7-0.6-1.2
			c-0.1-0.4-0.2-1-0.2-1.6v-4.2c0-0.6,0.1-1.1,0.2-1.6c0.1-0.4,0.3-0.8,0.6-1.2s0.6-0.6,1.1-0.7s1-0.2,1.6-0.2
			c1.2,0,2.1,0.3,2.6,0.9c0.5,0.6,0.8,1.6,0.8,2.8v4.2c0,1.2-0.3,2.2-0.8,2.8C78.8,21.9,77.9,22.3,76.7,22.3z M76.3,20.4
			c0.1,0.1,0.2,0.1,0.4,0.1c0.1,0,0.3,0,0.4-0.1c0.1-0.1,0.2-0.1,0.3-0.2c0.1-0.1,0.1-0.2,0.1-0.3c0-0.1,0.1-0.2,0.1-0.4
			c0-0.1,0-0.2,0-0.4v-5.4c0-0.2,0-0.3,0-0.4c0-0.1,0-0.2-0.1-0.4c0-0.1-0.1-0.2-0.1-0.3c-0.1-0.1-0.1-0.1-0.3-0.2
			c-0.1-0.1-0.2-0.1-0.4-0.1c-0.2,0-0.3,0-0.4,0.1c-0.1,0.1-0.2,0.1-0.2,0.2C76,12.7,76,12.8,75.9,13c0,0.1-0.1,0.2-0.1,0.4
			s0,0.2,0,0.4v5.4c0,0.2,0,0.3,0,0.4c0,0.1,0,0.2,0.1,0.4c0,0.1,0.1,0.2,0.1,0.3C76.1,20.3,76.2,20.3,76.3,20.4z"/>
		<path class="st3" d="M81.6,22.1V10.8h1.8l2.3,5.4v-5.4h2.1v11.3h-1.7l-2.3-5.9v5.9H81.6z"/>
		<path class="st3" d="M47.2,38.9V27.6h2.5v9.6h2.6v1.7H47.2z"/>
		<path class="st3" d="M52.8,38.9L55,27.6h2.8l2.1,11.3h-2.3l-0.4-2.4h-1.7l-0.4,2.4H52.8z M55.8,35H57l-0.6-4.4L55.8,35z"/>
		<path class="st3" d="M61.1,38.9V27.6h1.8l2.3,5.4v-5.4h2.1v11.3h-1.7L63.2,33v5.9H61.1z"/>
		<path class="st3" d="M68.9,38.9V27.6h2.8c0.7,0,1.4,0.1,1.8,0.2s0.9,0.3,1.2,0.6s0.5,0.7,0.6,1.1c0.1,0.4,0.2,1,0.2,1.6v4.1
			c0,0.7-0.1,1.2-0.2,1.7c-0.1,0.4-0.3,0.8-0.6,1.1c-0.3,0.3-0.7,0.5-1.2,0.7s-1.1,0.2-1.8,0.2H68.9z M71.4,37.2h0.4
			c0.2,0,0.4,0,0.5,0c0.1,0,0.2-0.1,0.3-0.1s0.2-0.1,0.2-0.2c0.1-0.1,0.1-0.2,0.1-0.3c0-0.1,0-0.3,0-0.4c0-0.1,0-0.3,0-0.5v-4.9
			c0-0.3,0-0.5,0-0.7s-0.1-0.3-0.2-0.4c-0.1-0.1-0.2-0.2-0.4-0.3c-0.2,0-0.4-0.1-0.7-0.1h-0.4V37.2z"/>
	</g>
</g>
<g>
	<g>
		<g>
			<rect x="146.8" y="69" class="st39" width="29.7" height="7.1"/>
		</g>
		<g>
			<g>
				<polygon class="st39" points="172.6,85.6 195.2,72.5 172.6,59.5 				"/>
			</g>
		</g>
	</g>
</g>
</svg>
